<svg width="50" height="50" viewBox="0 0 50 50" fill="none" xmlns="http://www.w3.org/2000/svg">
<circle cx="25" cy="25" r="25" fill="#A93E53"/>
<path d="M30.1497 13.1966C33.2652 13.2044 35.7917 15.7309 35.7995 18.8464V30.1497C35.7917 33.2652 33.2652 35.7917 30.1497 35.7995H18.8502C15.7347 35.7917 13.2083 33.2652 13.2005 30.1497V18.8502C13.2083 15.7347 15.7347 13.2083 18.8502 13.2005H30.1497M30.1497 10.9375H18.8502C14.4986 10.9375 10.9375 14.4986 10.9375 18.8502V30.1536C10.9375 34.5014 14.4986 38.0625 18.8502 38.0625H30.1536C34.5014 38.0625 38.0625 34.5014 38.0625 30.1497V18.8502C38.0625 14.4986 34.5014 10.9375 30.1497 10.9375Z" fill="white"/>
<path d="M31.847 18.8502C30.9092 18.8502 30.1497 18.0907 30.1497 17.153C30.1497 16.2152 30.9092 15.4557 31.847 15.4557C32.7847 15.4557 33.5443 16.2152 33.5443 17.153C33.5481 18.0869 32.7886 18.8464 31.8547 18.8502C31.8509 18.8502 31.847 18.8502 31.847 18.8502Z" fill="white"/>
<path d="M24.5 19.9779C26.9955 19.9779 29.0221 22.0006 29.0221 24.5C29.0221 26.9994 26.9955 29.0221 24.5 29.0221C22.0045 29.0221 19.9779 26.9955 19.9779 24.5C19.9817 22.0045 22.0045 19.9817 24.5 19.9779ZM24.5 17.7188C20.7568 17.7188 17.7188 20.7568 17.7188 24.5C17.7188 28.2432 20.7568 31.2812 24.5 31.2812C28.2432 31.2812 31.2812 28.2432 31.2812 24.5C31.2812 20.7568 28.2432 17.7188 24.5 17.7188Z" fill="white"/>
</svg>
