<svg width="224" height="41" viewBox="0 0 224 41" fill="none" xmlns="http://www.w3.org/2000/svg">
<g clip-path="url(#clip0_2021_22)">
<path d="M49.2581 34.8666C49.4839 34.8666 49.5968 34.9213 49.5968 35.0307V35.09C49.5968 35.3135 49.5432 35.4333 49.4362 35.4496C49.3756 35.4589 48.4935 35.4636 46.7898 35.4636H46.1125L45.9903 35.4671H44.7544L44.5101 35.4706C44.254 35.4706 44.1016 35.4589 44.0527 35.4357C44.0062 35.4101 43.9829 35.3472 43.9829 35.2471C43.9829 35.0191 44.0353 34.898 44.14 34.8841C44.2145 34.8747 45.1106 34.8701 46.8282 34.8701L48.0152 34.8666H49.2581ZM53.5907 34.8771V34.6397C53.5907 34.393 53.557 34.1521 53.4895 33.917C53.3452 33.4166 53.0763 33.0791 52.683 32.9045C52.5038 32.8254 52.3083 32.7858 52.0965 32.7858L52.0476 32.7893C51.7823 32.7893 51.6333 32.8487 51.6007 32.9674C51.5937 32.993 51.5902 33.3409 51.5902 34.0113V35.3519L51.5867 35.4042C51.5867 35.4392 51.5867 35.4741 51.5867 35.509L51.5763 35.8756C51.5763 35.9105 51.5763 35.9454 51.5763 35.9803L51.5728 36.1374V36.1933C51.5728 36.3888 51.5972 36.5179 51.6461 36.5808C51.695 36.6436 51.8195 36.675 52.0197 36.675H52.2291C52.4246 36.675 52.6108 36.625 52.7877 36.5249C52.9669 36.4248 53.1089 36.305 53.2137 36.1653C53.3184 36.0234 53.4068 35.8383 53.479 35.6102C53.5535 35.3798 53.5907 35.1354 53.5907 34.8771ZM50.3544 32.7789C50.2217 32.7114 50.1554 32.6311 50.1554 32.538C50.1554 32.4425 50.2112 32.3855 50.3229 32.3669C50.6371 32.3134 51.1783 32.2866 51.9463 32.2866H52.1314C52.9437 32.2866 53.5826 32.5007 54.0481 32.929C54.5135 33.3549 54.7463 33.9414 54.7463 34.6885C54.7463 35.4357 54.5135 36.035 54.0481 36.4865C53.5826 36.9381 52.9658 37.1638 52.1977 37.1638H51.9219L51.8311 37.1603L51.6426 37.1568C51.5821 37.1545 51.5227 37.1533 51.4646 37.1533L50.6825 37.1289C50.4218 37.1289 50.2671 37.1138 50.2182 37.0835C50.1716 37.0533 50.1484 36.9939 50.1484 36.9055C50.1484 36.8543 50.2159 36.7844 50.3509 36.696C50.4859 36.6052 50.5708 36.4982 50.6057 36.3748C50.6406 36.2514 50.6581 35.8418 50.6581 35.1459L50.6511 34.699L50.6616 34.1719L50.6651 34.0846C50.6674 34.0241 50.6686 33.9647 50.6686 33.9065L50.6755 33.6447C50.6755 33.3281 50.6511 33.1117 50.6022 32.9953C50.5696 32.9185 50.487 32.8464 50.3544 32.7789ZM59.0789 32.9115C59.0789 33.0675 59.0568 33.1699 59.0126 33.2187C58.9683 33.2653 58.9008 33.2886 58.8101 33.2886L58.7472 33.2572L58.6739 33.2083L58.5901 33.1594C58.5087 33.1128 58.3516 33.0488 58.1188 32.9674C57.8884 32.8859 57.6731 32.8452 57.4729 32.8452C57.2728 32.8452 57.1261 32.9173 57.033 33.0616C56.9423 33.2059 56.8969 33.5027 56.8969 33.9519C56.8969 34.0799 56.9364 34.1823 57.0156 34.2591C57.0947 34.3359 57.2041 34.3743 57.3438 34.3743C57.4834 34.3743 57.637 34.3255 57.8046 34.2277C57.9745 34.13 58.0944 34.0811 58.1642 34.0811C58.2363 34.0811 58.2992 34.1288 58.3527 34.2242C58.4062 34.3173 58.433 34.429 58.433 34.5594C58.433 34.9108 58.3946 35.1273 58.3178 35.2087L58.2235 35.2611C58.0862 35.2611 57.9768 35.2297 57.8954 35.1668C57.7162 35.0295 57.5846 34.9609 57.5009 34.9609C57.2355 34.9609 57.0575 35.0167 56.9667 35.1284C56.9225 35.1843 56.9004 35.3763 56.9004 35.7045C56.9004 36.0303 56.9667 36.2782 57.0994 36.4481C57.1692 36.5389 57.3228 36.5843 57.5602 36.5843C57.7976 36.5843 58.1002 36.504 58.4679 36.3434C58.838 36.1805 59.0498 36.099 59.1033 36.099C59.2034 36.099 59.2534 36.1933 59.2534 36.3818V36.5075C59.2534 36.5726 59.2302 36.6634 59.1836 36.7798C59.1371 36.8962 59.0649 36.9869 58.9672 37.0521C58.8694 37.1173 58.7088 37.1499 58.4854 37.1499H55.9543C55.5679 37.1499 55.3747 37.0998 55.3747 36.9997V36.888C55.3747 36.8089 55.4457 36.7297 55.5877 36.6506C55.732 36.5715 55.8158 36.4865 55.839 36.3958C55.8646 36.3027 55.8774 35.7673 55.8774 34.7898C55.8774 33.8123 55.8612 33.2583 55.8286 33.128C55.796 32.9976 55.7145 32.8778 55.5842 32.7684C55.4538 32.659 55.3887 32.5508 55.3887 32.4437C55.3887 32.3669 55.4725 32.3238 55.64 32.3145C55.8076 32.3029 56.3581 32.2971 57.2914 32.2971L58.1991 32.2936H58.3457C58.5808 32.2936 58.7461 32.3273 58.8415 32.3948C58.9998 32.5065 59.0789 32.6788 59.0789 32.9115ZM61.5158 32.2342C62.1372 32.2342 62.555 32.2889 62.7691 32.3983C62.9297 32.4798 63.01 32.6892 63.01 33.0267C63.01 33.3642 62.953 33.533 62.8389 33.533C62.7458 33.533 62.5934 33.4352 62.3816 33.2397C62.1698 33.0419 62.0092 32.9127 61.8998 32.8522C61.7904 32.7917 61.6473 32.7614 61.4704 32.7614C61.2958 32.7614 61.1457 32.8184 61.02 32.9325C60.8966 33.0465 60.835 33.1827 60.835 33.3409C60.835 33.5527 60.9513 33.7424 61.1841 33.91C61.3005 33.9938 61.5693 34.13 61.9906 34.3185C62.4118 34.507 62.7121 34.692 62.8913 34.8736C63.145 35.1319 63.2718 35.4229 63.2718 35.7464C63.2718 36.4214 62.9378 36.8764 62.2699 37.1115C62.072 37.1813 61.8695 37.2162 61.6624 37.2162H61.5367C61.2807 37.2162 60.9967 37.1871 60.6848 37.1289C60.373 37.0707 60.1763 37.0137 60.0948 36.9578C59.9435 36.8531 59.8679 36.6099 59.8679 36.2282V36.1095C59.8679 35.8628 59.9342 35.7394 60.0669 35.7394C60.16 35.7394 60.3078 35.8581 60.5103 36.0955C60.7128 36.3329 60.8827 36.4912 61.02 36.5703C61.1597 36.6494 61.3365 36.689 61.5507 36.689C61.7671 36.689 61.9487 36.6273 62.0953 36.504C62.2419 36.3806 62.3152 36.2468 62.3152 36.1025C62.3152 35.886 62.2501 35.708 62.1197 35.5683C61.9894 35.4287 61.7299 35.2693 61.3412 35.09C60.9525 34.9108 60.6837 34.7665 60.5347 34.6571C60.1251 34.3546 59.9203 33.9915 59.9203 33.5679C59.9203 33.4794 59.9296 33.3875 59.9482 33.2921C60.025 32.8917 60.2822 32.5892 60.7198 32.3844C60.9339 32.2843 61.1573 32.2342 61.3901 32.2342H61.5158ZM65 32.8452C64.8068 32.8452 64.6031 32.9336 64.389 33.1105C64.0469 33.3945 63.8665 33.5365 63.8479 33.5365C63.7269 33.5365 63.6663 33.4608 63.6663 33.3095V33.2013C63.6663 32.9499 63.6873 32.723 63.7292 32.5205C63.7501 32.4158 63.7967 32.3529 63.8688 32.332C63.9433 32.311 64.6439 32.3006 65.9705 32.3006L67.2797 32.2936H67.5102C67.7615 32.2936 67.9105 32.3343 67.957 32.4158C68.0059 32.4972 68.0304 32.6753 68.0304 32.9499V33.1734C68.0304 33.4201 67.9733 33.5434 67.8593 33.5434C67.7592 33.5434 67.6382 33.4631 67.4962 33.3025C67.3542 33.1419 67.2239 33.0267 67.1052 32.9569C66.9865 32.8848 66.8305 32.8487 66.6374 32.8487C66.4837 32.8487 66.3941 32.9499 66.3685 33.1524C66.3592 33.2222 66.3546 33.7424 66.3546 34.713C66.3546 35.6812 66.3674 36.2177 66.393 36.3224C66.4186 36.4272 66.514 36.5401 66.6793 36.6611C66.8445 36.7798 66.9271 36.881 66.9271 36.9648C66.9271 37.0463 66.8852 37.0975 66.8014 37.1184C66.7177 37.1394 66.4465 37.1499 65.988 37.1499H65.4015C65.1711 37.1499 65.0128 37.1417 64.9267 37.1254C64.8429 37.1091 64.801 37.0626 64.801 36.9858C64.801 36.909 64.8801 36.7996 65.0384 36.6576C65.1967 36.5156 65.2898 36.3923 65.3177 36.2875C65.3456 36.1805 65.3596 35.6521 65.3596 34.7025C65.3596 33.7529 65.3503 33.2304 65.3316 33.135C65.313 33.0372 65.2804 32.9651 65.2339 32.9185C65.1897 32.8696 65.1117 32.8452 65 32.8452ZM68.9695 37.101C68.6716 37.101 68.5226 37.0533 68.5226 36.9578C68.5226 36.8624 68.5994 36.7612 68.753 36.6541C68.909 36.5447 69.0044 36.4225 69.0393 36.2875C69.0742 36.1525 69.0917 35.6195 69.0917 34.6885C69.0917 33.7552 69.0824 33.2525 69.0638 33.1803C69.0219 33.0151 68.9427 32.8917 68.8263 32.8103C68.6145 32.6613 68.5086 32.5449 68.5086 32.4612V32.4123C68.5086 32.3285 68.8019 32.2866 69.3884 32.2866L69.6258 32.2761H69.8632L69.9435 32.2796H70.0238C70.2892 32.2796 70.4498 32.2901 70.5056 32.311C70.5638 32.3297 70.5929 32.389 70.5929 32.4891C70.5929 32.5496 70.5068 32.6497 70.3346 32.7893C70.2415 32.8661 70.1786 32.9755 70.146 33.1175C70.1134 33.2595 70.0972 33.8076 70.0972 34.7619C70.0972 35.7161 70.11 36.2456 70.1356 36.3504C70.1612 36.4551 70.2449 36.568 70.3869 36.689C70.5289 36.81 70.5999 36.9101 70.5999 36.9893C70.5999 37.0824 70.5068 37.1289 70.3206 37.1289H70.0762L69.9959 37.1254H69.8318L69.5944 37.1184L69.2802 37.1115L69.1266 37.1045C69.0754 37.1021 69.023 37.101 68.9695 37.101ZM73.2742 32.5065C73.2742 32.5368 73.202 32.6334 73.0577 32.7963C72.9157 32.9569 72.8308 33.0931 72.8028 33.2048C72.7772 33.3165 72.7644 33.8507 72.7644 34.8073C72.7644 35.7615 72.7772 36.2887 72.8028 36.3888C72.8308 36.4889 72.8878 36.5575 72.9739 36.5948C73.06 36.6297 73.2078 36.6471 73.4173 36.6471C73.6268 36.6471 73.8095 36.6087 73.9654 36.5319C74.1237 36.4551 74.2936 36.3178 74.4751 36.1199C74.6567 35.9221 74.8126 35.8232 74.943 35.8232C75.043 35.8232 75.0931 35.886 75.0931 36.0117V36.1025C75.0931 36.2771 75.0651 36.4714 75.0093 36.6855C74.9534 36.8973 74.9092 37.0184 74.8766 37.0486C74.8045 37.1161 74.6299 37.1499 74.3529 37.1499H72.4782C71.866 37.1499 71.5274 37.144 71.4622 37.1324C71.3505 37.1115 71.2946 37.0486 71.2946 36.9439C71.2946 36.888 71.3563 36.7984 71.4797 36.675C71.603 36.5517 71.688 36.3911 71.7345 36.1933C71.7532 36.1141 71.7625 35.5928 71.7625 34.6292C71.7625 33.6656 71.7485 33.1373 71.7206 33.0442C71.6926 32.9511 71.603 32.8568 71.4517 32.7614C71.3005 32.666 71.2248 32.5589 71.2248 32.4402C71.2248 32.3448 71.4517 32.2971 71.9056 32.2971H72.8308C73.0123 32.2971 73.131 32.311 73.1869 32.339C73.2451 32.3646 73.2742 32.4204 73.2742 32.5065ZM77.0167 35.0377V35.0726C77.0167 35.1005 77.125 35.1145 77.3414 35.1145H77.7429C78.0618 35.1145 78.2212 35.0959 78.2212 35.0586C78.2212 34.9585 78.1223 34.6513 77.9244 34.1369C77.7266 33.6226 77.6242 33.3654 77.6172 33.3654C77.6126 33.3654 77.5113 33.6237 77.3135 34.1404C77.1156 34.6548 77.0167 34.9539 77.0167 35.0377ZM77.7045 32.2936H77.8057C77.978 32.2936 78.1712 32.4774 78.3853 32.8452C78.4598 32.9732 78.5715 33.2385 78.7204 33.6412C78.8694 34.0438 78.9974 34.3778 79.1045 34.6432C79.2115 34.9085 79.3279 35.225 79.4536 35.5928C79.5816 35.9582 79.6735 36.2014 79.7294 36.3224C79.7876 36.4411 79.89 36.5552 80.0366 36.6646C80.1833 36.774 80.2566 36.8694 80.2566 36.9509C80.2566 37.03 80.2065 37.0824 80.1065 37.108C79.9435 37.1475 79.5397 37.1673 78.895 37.1673C78.6017 37.1673 78.4551 37.1045 78.4551 36.9788C78.4551 36.9462 78.4784 36.8671 78.5249 36.7414C78.5715 36.6134 78.5948 36.5191 78.5948 36.4586C78.5948 36.1723 78.5261 35.9314 78.3888 35.7359C78.3329 35.6568 78.1572 35.6172 77.8616 35.6172C77.3193 35.6172 77.0121 35.6347 76.9399 35.6696C76.8701 35.7045 76.7979 35.7929 76.7235 35.9349C76.6513 36.0769 76.6152 36.2084 76.6152 36.3294C76.6152 36.4504 76.6478 36.5808 76.713 36.7204C76.7805 36.8601 76.8142 36.9695 76.8142 37.0486C76.8142 37.1464 76.7095 37.1952 76.5 37.1952C76.002 37.1952 75.6691 37.172 75.5015 37.1254C75.3945 37.0952 75.3409 37.0195 75.3409 36.8985C75.3409 36.8822 75.4468 36.7809 75.6586 36.5948C75.775 36.4923 75.8681 36.3585 75.9379 36.1933C76.4407 34.9946 76.7595 34.1265 76.8945 33.5888C77.0319 33.0488 77.1482 32.6986 77.2437 32.538C77.3391 32.375 77.4927 32.2936 77.7045 32.2936ZM84.1667 34.8771V34.6397C84.1667 34.393 84.133 34.1521 84.0655 33.917C83.9212 33.4166 83.6524 33.0791 83.259 32.9045C83.0798 32.8254 82.8843 32.7858 82.6725 32.7858L82.6236 32.7893C82.3583 32.7893 82.2093 32.8487 82.1767 32.9674C82.1698 32.993 82.1663 33.3409 82.1663 34.0113V35.3519L82.1628 35.4042C82.1628 35.4392 82.1628 35.4741 82.1628 35.509L82.1523 35.8756C82.1523 35.9105 82.1523 35.9454 82.1523 35.9803L82.1488 36.1374V36.1933C82.1488 36.3888 82.1732 36.5179 82.2221 36.5808C82.271 36.6436 82.3955 36.675 82.5957 36.675H82.8052C83.0007 36.675 83.1869 36.625 83.3638 36.5249C83.543 36.4248 83.6849 36.305 83.7897 36.1653C83.8944 36.0234 83.9829 35.8383 84.055 35.6102C84.1295 35.3798 84.1667 35.1354 84.1667 34.8771ZM80.9304 32.7789C80.7977 32.7114 80.7314 32.6311 80.7314 32.538C80.7314 32.4425 80.7872 32.3855 80.899 32.3669C81.2132 32.3134 81.7543 32.2866 82.5224 32.2866H82.7074C83.5197 32.2866 84.1586 32.5007 84.6241 32.929C85.0896 33.3549 85.3223 33.9414 85.3223 34.6885C85.3223 35.4357 85.0896 36.035 84.6241 36.4865C84.1586 36.9381 83.5418 37.1638 82.7737 37.1638H82.4979L82.4072 37.1603L82.2186 37.1568C82.1581 37.1545 82.0988 37.1533 82.0406 37.1533L81.2586 37.1289C80.9979 37.1289 80.8431 37.1138 80.7942 37.0835C80.7477 37.0533 80.7244 36.9939 80.7244 36.9055C80.7244 36.8543 80.7919 36.7844 80.9269 36.696C81.0619 36.6052 81.1468 36.4982 81.1817 36.3748C81.2167 36.2514 81.2341 35.8418 81.2341 35.1459L81.2271 34.699L81.2376 34.1719L81.2411 34.0846C81.2434 34.0241 81.2446 33.9647 81.2446 33.9065L81.2516 33.6447C81.2516 33.3281 81.2271 33.1117 81.1783 32.9953C81.1457 32.9185 81.063 32.8464 80.9304 32.7789ZM89.4943 34.9155V34.6816C89.4943 34.4442 89.4629 34.1951 89.4001 33.9344C89.2744 33.4154 89.0533 33.0558 88.7367 32.8557C88.5947 32.7672 88.4318 32.723 88.248 32.723H88.1956C88.0443 32.723 87.8895 32.7684 87.7313 32.8592C87.424 33.036 87.2134 33.3479 87.0993 33.7948C87.0272 34.0741 86.9911 34.3522 86.9911 34.6292V34.7479C86.9911 35.0202 87.026 35.289 87.0959 35.5544C87.2355 36.0781 87.4752 36.4411 87.815 36.6436C87.9547 36.7274 88.099 36.7693 88.248 36.7693H88.3527C88.511 36.7693 88.6634 36.7239 88.81 36.6332C88.9567 36.5401 89.0765 36.4155 89.1696 36.2596C89.3861 35.8988 89.4943 35.4508 89.4943 34.9155ZM85.9857 34.7654C85.9857 34.393 86.0427 34.0485 86.1567 33.732C86.3778 33.1128 86.7654 32.6834 87.3193 32.4437C87.6405 32.3041 87.9687 32.2342 88.3038 32.2342L88.3876 32.2377H88.4679C88.7379 32.2377 89.0184 32.2994 89.3093 32.4228C89.6002 32.5461 89.8481 32.7218 90.0529 32.9499C90.2601 33.1757 90.4172 33.4399 90.5242 33.7424C90.6313 34.0427 90.6848 34.3476 90.6848 34.6571V34.7374C90.6848 35.0889 90.6255 35.4252 90.5068 35.7464C90.3904 36.0653 90.2217 36.3387 90.0005 36.5668C89.5537 37.03 88.9613 37.2627 88.2235 37.2651C87.9209 37.2651 87.6288 37.208 87.3472 37.094C87.0679 36.9776 86.834 36.8159 86.6455 36.6087C86.2056 36.1199 85.9857 35.5055 85.9857 34.7654ZM94.5566 35.0377V35.0726C94.5566 35.1005 94.6648 35.1145 94.8813 35.1145H95.2827C95.6016 35.1145 95.761 35.0959 95.761 35.0586C95.761 34.9585 95.6621 34.6513 95.4643 34.1369C95.2665 33.6226 95.164 33.3654 95.1571 33.3654C95.1524 33.3654 95.0512 33.6237 94.8533 34.1404C94.6555 34.6548 94.5566 34.9539 94.5566 35.0377ZM95.2443 32.2936H95.3456C95.5178 32.2936 95.711 32.4774 95.9251 32.8452C95.9996 32.9732 96.1113 33.2385 96.2603 33.6412C96.4092 34.0438 96.5373 34.3778 96.6443 34.6432C96.7514 34.9085 96.8678 35.225 96.9934 35.5928C97.1215 35.9582 97.2134 36.2014 97.2692 36.3224C97.3274 36.4411 97.4298 36.5552 97.5765 36.6646C97.7231 36.774 97.7964 36.8694 97.7964 36.9509C97.7964 37.03 97.7464 37.0824 97.6463 37.108C97.4834 37.1475 97.0796 37.1673 96.4348 37.1673C96.1416 37.1673 95.995 37.1045 95.995 36.9788C95.995 36.9462 96.0182 36.8671 96.0648 36.7414C96.1113 36.6134 96.1346 36.5191 96.1346 36.4586C96.1346 36.1723 96.0659 35.9314 95.9286 35.7359C95.8728 35.6568 95.697 35.6172 95.4014 35.6172C94.8591 35.6172 94.5519 35.6347 94.4798 35.6696C94.4099 35.7045 94.3378 35.7929 94.2633 35.9349C94.1912 36.0769 94.1551 36.2084 94.1551 36.3294C94.1551 36.4504 94.1877 36.5808 94.2528 36.7204C94.3203 36.8601 94.3541 36.9695 94.3541 37.0486C94.3541 37.1464 94.2493 37.1952 94.0399 37.1952C93.5418 37.1952 93.209 37.172 93.0414 37.1254C92.9343 37.0952 92.8808 37.0195 92.8808 36.8985C92.8808 36.8822 92.9867 36.7809 93.1985 36.5948C93.3149 36.4923 93.408 36.3585 93.4778 36.1933C93.9805 34.9946 94.2994 34.1265 94.4344 33.5888C94.5717 33.0488 94.6881 32.6986 94.7835 32.538C94.8789 32.375 95.0325 32.2936 95.2443 32.2936ZM100.177 32.7719H100.069C99.9109 32.7719 99.8143 32.794 99.7794 32.8382C99.7468 32.8801 99.7305 32.9918 99.7305 33.1734V34.4407C99.7305 34.5338 99.7503 34.6001 99.7899 34.6397C99.8295 34.6792 99.9167 34.699 100.052 34.699H100.188L100.216 34.6955L100.296 34.692C100.315 34.6897 100.332 34.6885 100.348 34.6885C100.514 34.6885 100.674 34.6106 100.83 34.4546C100.989 34.2964 101.068 34.0904 101.068 33.8367V33.6691C101.068 33.4177 100.989 33.2059 100.83 33.0337C100.672 32.8592 100.454 32.7719 100.177 32.7719ZM100.013 32.3075H100.251C100.847 32.3075 101.312 32.4216 101.647 32.6497C101.982 32.8778 102.15 33.199 102.15 33.6133C102.15 33.8483 102.101 34.0543 102.003 34.2312C101.906 34.4081 101.807 34.5419 101.707 34.6327C101.478 34.8398 101.364 34.9527 101.364 34.9713C101.364 35.0575 101.406 35.1715 101.49 35.3135C101.576 35.4555 101.674 35.6254 101.783 35.8232C101.893 36.021 101.971 36.1514 102.017 36.2142C102.138 36.3771 102.27 36.49 102.412 36.5529C102.665 36.6622 102.792 36.7437 102.792 36.7972C102.792 36.9462 102.729 37.0393 102.604 37.0765C102.425 37.1301 102.215 37.1568 101.975 37.1568C101.736 37.1568 101.542 37.0824 101.396 36.9334C101.249 36.7821 101.079 36.5063 100.886 36.106C100.693 35.7033 100.568 35.4671 100.513 35.3973C100.396 35.246 100.244 35.1703 100.055 35.1703C99.9528 35.1703 99.883 35.2215 99.8458 35.324C99.8108 35.424 99.7934 35.6754 99.7934 36.0781C99.7934 36.1758 99.8434 36.3294 99.9435 36.5389L100.073 36.7728C100.136 36.8892 100.167 36.9543 100.167 36.9683C100.167 37.0893 99.9773 37.1499 99.5979 37.1499C98.9369 37.1499 98.5494 37.1336 98.4353 37.101C98.3236 37.0684 98.2677 37.0032 98.2677 36.9055C98.2677 36.8077 98.3387 36.7158 98.4807 36.6297C98.6227 36.5435 98.7088 36.4423 98.739 36.3259C98.7693 36.2072 98.7844 35.6963 98.7844 34.7933C98.7844 33.8879 98.767 33.3572 98.7321 33.2013C98.6972 33.0454 98.6343 32.9232 98.5435 32.8347C98.3806 32.6764 98.2992 32.5752 98.2992 32.531C98.2992 32.4379 98.3957 32.3774 98.5889 32.3494C98.7844 32.3215 99.2592 32.3075 100.013 32.3075ZM104.325 32.8452C104.132 32.8452 103.928 32.9336 103.714 33.1105C103.372 33.3945 103.191 33.5365 103.173 33.5365C103.052 33.5365 102.991 33.4608 102.991 33.3095V33.2013C102.991 32.9499 103.012 32.723 103.054 32.5205C103.075 32.4158 103.122 32.3529 103.194 32.332C103.268 32.311 103.969 32.3006 105.296 32.3006L106.605 32.2936H106.835C107.087 32.2936 107.235 32.3343 107.282 32.4158C107.331 32.4972 107.355 32.6753 107.355 32.9499V33.1734C107.355 33.4201 107.298 33.5434 107.184 33.5434C107.084 33.5434 106.963 33.4631 106.821 33.3025C106.679 33.1419 106.549 33.0267 106.43 32.9569C106.311 32.8848 106.156 32.8487 105.962 32.8487C105.809 32.8487 105.719 32.9499 105.694 33.1524C105.684 33.2222 105.68 33.7424 105.68 34.713C105.68 35.6812 105.692 36.2177 105.718 36.3224C105.744 36.4272 105.839 36.5401 106.004 36.6611C106.17 36.7798 106.252 36.881 106.252 36.9648C106.252 37.0463 106.21 37.0975 106.126 37.1184C106.043 37.1394 105.772 37.1499 105.313 37.1499H104.726C104.496 37.1499 104.338 37.1417 104.252 37.1254C104.168 37.1091 104.126 37.0626 104.126 36.9858C104.126 36.909 104.205 36.7996 104.363 36.6576C104.522 36.5156 104.615 36.3923 104.643 36.2875C104.671 36.1805 104.685 35.6521 104.685 34.7025C104.685 33.7529 104.675 33.2304 104.657 33.135C104.638 33.0372 104.605 32.9651 104.559 32.9185C104.515 32.8696 104.437 32.8452 104.325 32.8452ZM111.524 32.9115C111.524 33.0675 111.502 33.1699 111.458 33.2187C111.413 33.2653 111.346 33.2886 111.255 33.2886L111.192 33.2572L111.119 33.2083L111.035 33.1594C110.954 33.1128 110.797 33.0488 110.564 32.9674C110.333 32.8859 110.118 32.8452 109.918 32.8452C109.718 32.8452 109.571 32.9173 109.478 33.0616C109.387 33.2059 109.342 33.5027 109.342 33.9519C109.342 34.0799 109.381 34.1823 109.461 34.2591C109.54 34.3359 109.649 34.3743 109.789 34.3743C109.928 34.3743 110.082 34.3255 110.25 34.2277C110.419 34.13 110.539 34.0811 110.609 34.0811C110.681 34.0811 110.744 34.1288 110.798 34.2242C110.851 34.3173 110.878 34.429 110.878 34.5594C110.878 34.9108 110.84 35.1273 110.763 35.2087L110.669 35.2611C110.531 35.2611 110.422 35.2297 110.34 35.1668C110.161 35.0295 110.03 34.9609 109.946 34.9609C109.681 34.9609 109.502 35.0167 109.412 35.1284C109.367 35.1843 109.345 35.3763 109.345 35.7045C109.345 36.0303 109.412 36.2782 109.544 36.4481C109.614 36.5389 109.768 36.5843 110.005 36.5843C110.243 36.5843 110.545 36.504 110.913 36.3434C111.283 36.1805 111.495 36.099 111.548 36.099C111.648 36.099 111.698 36.1933 111.698 36.3818V36.5075C111.698 36.5726 111.675 36.6634 111.629 36.7798C111.582 36.8962 111.51 36.9869 111.412 37.0521C111.314 37.1173 111.154 37.1499 110.93 37.1499H108.399C108.013 37.1499 107.82 37.0998 107.82 36.9997V36.888C107.82 36.8089 107.891 36.7297 108.033 36.6506C108.177 36.5715 108.261 36.4865 108.284 36.3958C108.31 36.3027 108.322 35.7673 108.322 34.7898C108.322 33.8123 108.306 33.2583 108.274 33.128C108.241 32.9976 108.159 32.8778 108.029 32.7684C107.899 32.659 107.834 32.5508 107.834 32.4437C107.834 32.3669 107.917 32.3238 108.085 32.3145C108.253 32.3029 108.803 32.2971 109.736 32.2971L110.644 32.2936H110.791C111.026 32.2936 111.191 32.3273 111.286 32.3948C111.445 32.5065 111.524 32.6788 111.524 32.9115ZM113.961 32.2342C114.582 32.2342 115 32.2889 115.214 32.3983C115.375 32.4798 115.455 32.6892 115.455 33.0267C115.455 33.3642 115.398 33.533 115.284 33.533C115.191 33.533 115.038 33.4352 114.827 33.2397C114.615 33.0419 114.454 32.9127 114.345 32.8522C114.235 32.7917 114.092 32.7614 113.915 32.7614C113.741 32.7614 113.591 32.8184 113.465 32.9325C113.342 33.0465 113.28 33.1827 113.28 33.3409C113.28 33.5527 113.396 33.7424 113.629 33.91C113.745 33.9938 114.014 34.13 114.436 34.3185C114.857 34.507 115.157 34.692 115.336 34.8736C115.59 35.1319 115.717 35.4229 115.717 35.7464C115.717 36.4214 115.383 36.8764 114.715 37.1115C114.517 37.1813 114.315 37.2162 114.107 37.2162H113.982C113.726 37.2162 113.442 37.1871 113.13 37.1289C112.818 37.0707 112.621 37.0137 112.54 36.9578C112.389 36.8531 112.313 36.6099 112.313 36.2282V36.1095C112.313 35.8628 112.379 35.7394 112.512 35.7394C112.605 35.7394 112.753 35.8581 112.955 36.0955C113.158 36.3329 113.328 36.4912 113.465 36.5703C113.605 36.6494 113.782 36.689 113.996 36.689C114.212 36.689 114.394 36.6273 114.54 36.504C114.687 36.3806 114.76 36.2468 114.76 36.1025C114.76 35.886 114.695 35.708 114.565 35.5683C114.434 35.4287 114.175 35.2693 113.786 35.09C113.397 34.9108 113.129 34.7665 112.98 34.6571C112.57 34.3546 112.365 33.9915 112.365 33.5679C112.365 33.4794 112.375 33.3875 112.393 33.2921C112.47 32.8917 112.727 32.5892 113.165 32.3844C113.379 32.2843 113.602 32.2342 113.835 32.2342H113.961ZM117.731 35.0377V35.0726C117.731 35.1005 117.839 35.1145 118.056 35.1145H118.457C118.776 35.1145 118.936 35.0959 118.936 35.0586C118.936 34.9585 118.837 34.6513 118.639 34.1369C118.441 33.6226 118.339 33.3654 118.332 33.3654C118.327 33.3654 118.226 33.6237 118.028 34.1404C117.83 34.6548 117.731 34.9539 117.731 35.0377ZM118.419 32.2936H118.52C118.692 32.2936 118.886 32.4774 119.1 32.8452C119.174 32.9732 119.286 33.2385 119.435 33.6412C119.584 34.0438 119.712 34.3778 119.819 34.6432C119.926 34.9085 120.042 35.225 120.168 35.5928C120.296 35.9582 120.388 36.2014 120.444 36.3224C120.502 36.4411 120.604 36.5552 120.751 36.6646C120.898 36.774 120.971 36.8694 120.971 36.9509C120.971 37.03 120.921 37.0824 120.821 37.108C120.658 37.1475 120.254 37.1673 119.61 37.1673C119.316 37.1673 119.17 37.1045 119.17 36.9788C119.17 36.9462 119.193 36.8671 119.239 36.7414C119.286 36.6134 119.309 36.5191 119.309 36.4586C119.309 36.1723 119.241 35.9314 119.103 35.7359C119.047 35.6568 118.872 35.6172 118.576 35.6172C118.034 35.6172 117.727 35.6347 117.654 35.6696C117.585 35.7045 117.512 35.7929 117.438 35.9349C117.366 36.0769 117.33 36.2084 117.33 36.3294C117.33 36.4504 117.362 36.5808 117.427 36.7204C117.495 36.8601 117.529 36.9695 117.529 37.0486C117.529 37.1464 117.424 37.1952 117.215 37.1952C116.716 37.1952 116.384 37.172 116.216 37.1254C116.109 37.0952 116.055 37.0195 116.055 36.8985C116.055 36.8822 116.161 36.7809 116.373 36.5948C116.49 36.4923 116.583 36.3585 116.652 36.1933C117.155 34.9946 117.474 34.1265 117.609 33.5888C117.746 33.0488 117.863 32.6986 117.958 32.538C118.054 32.375 118.207 32.2936 118.419 32.2936ZM125.799 36.0292C125.795 36.1618 125.792 36.3504 125.792 36.5948C125.792 36.8368 125.777 36.9799 125.747 37.0242C125.719 37.0661 125.646 37.087 125.527 37.087C125.488 37.087 125.389 37.044 125.23 36.9578C125.072 36.8694 124.929 36.746 124.801 36.5878C124.747 36.5226 124.403 36.0257 123.768 35.097C123.132 34.1684 122.757 33.704 122.643 33.704C122.597 33.704 122.574 34.0206 122.574 34.6536C122.574 35.2844 122.619 35.8523 122.71 36.3573C122.735 36.4993 122.78 36.6145 122.842 36.703C122.908 36.7914 122.94 36.8647 122.94 36.9229L122.912 37.0032C122.845 37.0824 122.621 37.1219 122.242 37.1219H122.092C121.792 37.1219 121.613 37.0998 121.558 37.0556C121.502 37.0114 121.474 36.945 121.474 36.8566C121.474 36.8077 121.538 36.7449 121.666 36.6681C121.796 36.5889 121.874 36.511 121.9 36.4342C121.914 36.3923 121.921 36.1851 121.921 35.8127L121.928 35.6451L121.938 35.1424C121.945 34.8096 121.949 34.4314 121.949 34.0078C121.949 33.5818 121.932 33.3153 121.9 33.2083C121.869 33.0989 121.785 32.993 121.645 32.8906C121.505 32.7858 121.435 32.6916 121.435 32.6078C121.435 32.5217 121.468 32.4565 121.533 32.4123C121.601 32.3657 121.73 32.3425 121.921 32.3425H122.078C122.455 32.3425 122.79 32.5019 123.083 32.8208C123.377 33.1396 123.768 33.6552 124.256 34.3674C124.747 35.0796 125.03 35.4357 125.105 35.4357C125.193 35.4357 125.237 34.9772 125.237 34.0601C125.237 33.3782 125.162 32.9488 125.01 32.7719C124.924 32.6695 124.881 32.5985 124.881 32.5589C124.881 32.4542 124.987 32.4018 125.199 32.4018C125.623 32.4018 125.913 32.4204 126.072 32.4577C126.232 32.4926 126.313 32.5671 126.313 32.6811C126.313 32.7486 126.243 32.8533 126.103 32.9953C125.966 33.135 125.89 33.2339 125.876 33.2921C125.862 33.3479 125.855 33.6179 125.855 34.102L125.81 35.7219L125.806 35.8756L125.799 36.0292ZM128.317 35.0377V35.0726C128.317 35.1005 128.425 35.1145 128.641 35.1145H129.043C129.362 35.1145 129.521 35.0959 129.521 35.0586C129.521 34.9585 129.422 34.6513 129.224 34.1369C129.026 33.6226 128.924 33.3654 128.917 33.3654C128.912 33.3654 128.811 33.6237 128.613 34.1404C128.416 34.6548 128.317 34.9539 128.317 35.0377ZM129.004 32.2936H129.106C129.278 32.2936 129.471 32.4774 129.685 32.8452C129.76 32.9732 129.871 33.2385 130.02 33.6412C130.169 34.0438 130.297 34.3778 130.404 34.6432C130.511 34.9085 130.628 35.225 130.753 35.5928C130.881 35.9582 130.973 36.2014 131.029 36.3224C131.087 36.4411 131.19 36.5552 131.336 36.6646C131.483 36.774 131.556 36.8694 131.556 36.9509C131.556 37.03 131.506 37.0824 131.406 37.108C131.243 37.1475 130.84 37.1673 130.195 37.1673C129.902 37.1673 129.755 37.1045 129.755 36.9788C129.755 36.9462 129.778 36.8671 129.825 36.7414C129.871 36.6134 129.895 36.5191 129.895 36.4586C129.895 36.1723 129.826 35.9314 129.689 35.7359C129.633 35.6568 129.457 35.6172 129.161 35.6172C128.619 35.6172 128.312 35.6347 128.24 35.6696C128.17 35.7045 128.098 35.7929 128.023 35.9349C127.951 36.0769 127.915 36.2084 127.915 36.3294C127.915 36.4504 127.948 36.5808 128.013 36.7204C128.08 36.8601 128.114 36.9695 128.114 37.0486C128.114 37.1464 128.009 37.1952 127.8 37.1952C127.302 37.1952 126.969 37.172 126.801 37.1254C126.694 37.0952 126.641 37.0195 126.641 36.8985C126.641 36.8822 126.747 36.7809 126.959 36.5948C127.075 36.4923 127.168 36.3585 127.238 36.1933C127.741 34.9946 128.059 34.1265 128.194 33.5888C128.332 33.0488 128.448 32.6986 128.544 32.538C128.639 32.375 128.793 32.2936 129.004 32.2936ZM134.028 32.5065C134.028 32.5368 133.956 32.6334 133.812 32.7963C133.67 32.9569 133.585 33.0931 133.557 33.2048C133.531 33.3165 133.518 33.8507 133.518 34.8073C133.518 35.7615 133.531 36.2887 133.557 36.3888C133.585 36.4889 133.642 36.5575 133.728 36.5948C133.814 36.6297 133.962 36.6471 134.171 36.6471C134.381 36.6471 134.564 36.6087 134.719 36.5319C134.878 36.4551 135.048 36.3178 135.229 36.1199C135.411 35.9221 135.567 35.8232 135.697 35.8232C135.797 35.8232 135.847 35.886 135.847 36.0117V36.1025C135.847 36.2771 135.819 36.4714 135.763 36.6855C135.707 36.8973 135.663 37.0184 135.631 37.0486C135.559 37.1161 135.384 37.1499 135.107 37.1499H133.232C132.62 37.1499 132.281 37.144 132.216 37.1324C132.105 37.1115 132.049 37.0486 132.049 36.9439C132.049 36.888 132.11 36.7984 132.234 36.675C132.357 36.5517 132.442 36.3911 132.489 36.1933C132.507 36.1141 132.517 35.5928 132.517 34.6292C132.517 33.6656 132.503 33.1373 132.475 33.0442C132.447 32.9511 132.357 32.8568 132.206 32.7614C132.055 32.666 131.979 32.5589 131.979 32.4402C131.979 32.3448 132.206 32.2971 132.66 32.2971H133.585C133.766 32.2971 133.885 32.311 133.941 32.339C133.999 32.3646 134.028 32.4204 134.028 32.5065ZM141.562 34.8771V34.6397C141.562 34.393 141.528 34.1521 141.461 33.917C141.317 33.4166 141.048 33.0791 140.655 32.9045C140.475 32.8254 140.28 32.7858 140.068 32.7858L140.019 32.7893C139.754 32.7893 139.605 32.8487 139.572 32.9674C139.565 32.993 139.562 33.3409 139.562 34.0113V35.3519L139.558 35.4042C139.558 35.4392 139.558 35.4741 139.558 35.509L139.548 35.8756C139.548 35.9105 139.548 35.9454 139.548 35.9803L139.544 36.1374V36.1933C139.544 36.3888 139.569 36.5179 139.618 36.5808C139.667 36.6436 139.791 36.675 139.991 36.675H140.201C140.396 36.675 140.582 36.625 140.759 36.5249C140.938 36.4248 141.08 36.305 141.185 36.1653C141.29 36.0234 141.378 35.8383 141.451 35.6102C141.525 35.3798 141.562 35.1354 141.562 34.8771ZM138.326 32.7789C138.193 32.7114 138.127 32.6311 138.127 32.538C138.127 32.4425 138.183 32.3855 138.294 32.3669C138.609 32.3134 139.15 32.2866 139.918 32.2866H140.103C140.915 32.2866 141.554 32.5007 142.02 32.929C142.485 33.3549 142.718 33.9414 142.718 34.6885C142.718 35.4357 142.485 36.035 142.02 36.4865C141.554 36.9381 140.937 37.1638 140.169 37.1638H139.893L139.803 37.1603L139.614 37.1568C139.554 37.1545 139.494 37.1533 139.436 37.1533L138.654 37.1289C138.393 37.1289 138.239 37.1138 138.19 37.0835C138.143 37.0533 138.12 36.9939 138.12 36.9055C138.12 36.8543 138.187 36.7844 138.322 36.696C138.457 36.6052 138.542 36.4982 138.577 36.3748C138.612 36.2514 138.63 35.8418 138.63 35.1459L138.623 34.699L138.633 34.1719L138.637 34.0846C138.639 34.0241 138.64 33.9647 138.64 33.9065L138.647 33.6447C138.647 33.3281 138.623 33.1117 138.574 32.9953C138.541 32.9185 138.459 32.8464 138.326 32.7789ZM147.05 32.9115C147.05 33.0675 147.028 33.1699 146.984 33.2187C146.94 33.2653 146.872 33.2886 146.782 33.2886L146.719 33.2572L146.645 33.2083L146.562 33.1594C146.48 33.1128 146.323 33.0488 146.09 32.9674C145.86 32.8859 145.645 32.8452 145.444 32.8452C145.244 32.8452 145.098 32.9173 145.005 33.0616C144.914 33.2059 144.868 33.5027 144.868 33.9519C144.868 34.0799 144.908 34.1823 144.987 34.2591C145.066 34.3359 145.176 34.3743 145.315 34.3743C145.455 34.3743 145.609 34.3255 145.776 34.2277C145.946 34.13 146.066 34.0811 146.136 34.0811C146.208 34.0811 146.271 34.1288 146.324 34.2242C146.378 34.3173 146.405 34.429 146.405 34.5594C146.405 34.9108 146.366 35.1273 146.289 35.2087L146.195 35.2611C146.058 35.2611 145.948 35.2297 145.867 35.1668C145.688 35.0295 145.556 34.9609 145.472 34.9609C145.207 34.9609 145.029 35.0167 144.938 35.1284C144.894 35.1843 144.872 35.3763 144.872 35.7045C144.872 36.0303 144.938 36.2782 145.071 36.4481C145.141 36.5389 145.294 36.5843 145.532 36.5843C145.769 36.5843 146.072 36.504 146.439 36.3434C146.81 36.1805 147.021 36.099 147.075 36.099C147.175 36.099 147.225 36.1933 147.225 36.3818V36.5075C147.225 36.5726 147.202 36.6634 147.155 36.7798C147.109 36.8962 147.036 36.9869 146.939 37.0521C146.841 37.1173 146.68 37.1499 146.457 37.1499H143.926C143.539 37.1499 143.346 37.0998 143.346 36.9997V36.888C143.346 36.8089 143.417 36.7297 143.559 36.6506C143.704 36.5715 143.787 36.4865 143.811 36.3958C143.836 36.3027 143.849 35.7673 143.849 34.7898C143.849 33.8123 143.833 33.2583 143.8 33.128C143.768 32.9976 143.686 32.8778 143.556 32.7684C143.425 32.659 143.36 32.5508 143.36 32.4437C143.36 32.3669 143.444 32.3238 143.612 32.3145C143.779 32.3029 144.33 32.2971 145.263 32.2971L146.171 32.2936H146.317C146.552 32.2936 146.718 32.3273 146.813 32.3948C146.971 32.5065 147.05 32.6788 147.05 32.9115ZM151.058 35.0377V35.0726C151.058 35.1005 151.167 35.1145 151.383 35.1145H151.785C152.103 35.1145 152.263 35.0959 152.263 35.0586C152.263 34.9585 152.164 34.6513 151.966 34.1369C151.768 33.6226 151.666 33.3654 151.659 33.3654C151.654 33.3654 151.553 33.6237 151.355 34.1404C151.157 34.6548 151.058 34.9539 151.058 35.0377ZM151.746 32.2936H151.847C152.02 32.2936 152.213 32.4774 152.427 32.8452C152.501 32.9732 152.613 33.2385 152.762 33.6412C152.911 34.0438 153.039 34.3778 153.146 34.6432C153.253 34.9085 153.37 35.225 153.495 35.5928C153.623 35.9582 153.715 36.2014 153.771 36.3224C153.829 36.4411 153.932 36.5552 154.078 36.6646C154.225 36.774 154.298 36.8694 154.298 36.9509C154.298 37.03 154.248 37.0824 154.148 37.108C153.985 37.1475 153.581 37.1673 152.937 37.1673C152.643 37.1673 152.497 37.1045 152.497 36.9788C152.497 36.9462 152.52 36.8671 152.567 36.7414C152.613 36.6134 152.636 36.5191 152.636 36.4586C152.636 36.1723 152.568 35.9314 152.43 35.7359C152.375 35.6568 152.199 35.6172 151.903 35.6172C151.361 35.6172 151.054 35.6347 150.982 35.6696C150.912 35.7045 150.84 35.7929 150.765 35.9349C150.693 36.0769 150.657 36.2084 150.657 36.3294C150.657 36.4504 150.689 36.5808 150.755 36.7204C150.822 36.8601 150.856 36.9695 150.856 37.0486C150.856 37.1464 150.751 37.1952 150.542 37.1952C150.044 37.1952 149.711 37.172 149.543 37.1254C149.436 37.0952 149.383 37.0195 149.383 36.8985C149.383 36.8822 149.488 36.7809 149.7 36.5948C149.817 36.4923 149.91 36.3585 149.98 36.1933C150.482 34.9946 150.801 34.1265 150.936 33.5888C151.073 33.0488 151.19 32.6986 151.285 32.538C151.381 32.375 151.534 32.2936 151.746 32.2936ZM157.189 36.6262C157.671 36.6238 157.912 36.3806 157.912 35.8965C157.912 35.6358 157.872 35.4555 157.793 35.3554C157.658 35.1808 157.59 35.0761 157.59 35.0412C157.59 34.9038 157.808 34.8352 158.243 34.8352C158.564 34.8352 158.818 34.8573 159.004 34.9015C159.135 34.9318 159.2 34.9981 159.2 35.1005C159.2 35.1587 159.171 35.2332 159.113 35.324C159.057 35.4147 159.024 35.488 159.015 35.5439C159.005 35.5998 158.988 35.7476 158.962 35.9873C158.939 36.2247 158.926 36.3527 158.924 36.3713C158.894 36.5854 158.836 36.7309 158.749 36.8077C158.666 36.8845 158.523 36.9532 158.32 37.0137C157.894 37.1417 157.497 37.2057 157.13 37.2057H156.99C156.664 37.2057 156.35 37.1429 156.047 37.0172C155.463 36.7751 155.063 36.3643 154.846 35.7848C154.735 35.4845 154.679 35.1634 154.679 34.8212V34.6746C154.679 34.3487 154.744 34.0299 154.874 33.718C155.14 33.0779 155.576 32.6427 156.183 32.4123C156.463 32.3052 156.779 32.2517 157.133 32.2517C157.245 32.2517 157.375 32.2622 157.524 32.2831C157.673 32.3041 157.862 32.3145 158.09 32.3145C158.32 32.3145 158.503 32.3657 158.638 32.4681C158.775 32.5682 158.844 32.7474 158.844 33.0058C158.844 33.3619 158.774 33.5399 158.634 33.5399C158.569 33.5399 158.415 33.4492 158.173 33.2676C157.931 33.0861 157.745 32.9674 157.615 32.9115C157.484 32.8557 157.312 32.8277 157.098 32.8277C156.884 32.8301 156.691 32.8824 156.519 32.9848C156.007 33.2921 155.751 33.8576 155.751 34.6816C155.751 35.2658 155.889 35.7359 156.166 36.092C156.443 36.4481 156.784 36.6262 157.189 36.6262ZM161.239 35.0377V35.0726C161.239 35.1005 161.347 35.1145 161.563 35.1145H161.965C162.284 35.1145 162.443 35.0959 162.443 35.0586C162.443 34.9585 162.344 34.6513 162.146 34.1369C161.949 33.6226 161.846 33.3654 161.839 33.3654C161.835 33.3654 161.733 33.6237 161.535 34.1404C161.338 34.6548 161.239 34.9539 161.239 35.0377ZM161.926 32.2936H162.028C162.2 32.2936 162.393 32.4774 162.607 32.8452C162.682 32.9732 162.793 33.2385 162.942 33.6412C163.091 34.0438 163.219 34.3778 163.326 34.6432C163.434 34.9085 163.55 35.225 163.676 35.5928C163.804 35.9582 163.896 36.2014 163.951 36.3224C164.01 36.4411 164.112 36.5552 164.259 36.6646C164.405 36.774 164.479 36.8694 164.479 36.9509C164.479 37.03 164.429 37.0824 164.328 37.108C164.166 37.1475 163.762 37.1673 163.117 37.1673C162.824 37.1673 162.677 37.1045 162.677 36.9788C162.677 36.9462 162.7 36.8671 162.747 36.7414C162.793 36.6134 162.817 36.5191 162.817 36.4586C162.817 36.1723 162.748 35.9314 162.611 35.7359C162.555 35.6568 162.379 35.6172 162.084 35.6172C161.541 35.6172 161.234 35.6347 161.162 35.6696C161.092 35.7045 161.02 35.7929 160.945 35.9349C160.873 36.0769 160.837 36.2084 160.837 36.3294C160.837 36.4504 160.87 36.5808 160.935 36.7204C161.002 36.8601 161.036 36.9695 161.036 37.0486C161.036 37.1464 160.931 37.1952 160.722 37.1952C160.224 37.1952 159.891 37.172 159.724 37.1254C159.616 37.0952 159.563 37.0195 159.563 36.8985C159.563 36.8822 159.669 36.7809 159.881 36.5948C159.997 36.4923 160.09 36.3585 160.16 36.1933C160.663 34.9946 160.982 34.1265 161.117 33.5888C161.254 33.0488 161.37 32.6986 161.466 32.538C161.561 32.375 161.715 32.2936 161.926 32.2936ZM165.561 32.3006C165.98 32.3006 166.189 32.375 166.189 32.524C166.189 32.5892 166.167 32.6625 166.123 32.7439C166.079 32.8231 166.057 32.915 166.057 33.0198C166.057 33.1245 166.095 33.2944 166.172 33.5295C166.493 34.5093 166.716 35.1517 166.842 35.4566C166.968 35.7615 167.042 35.914 167.066 35.914C167.133 35.914 167.366 35.2995 167.764 34.0706C167.917 33.5958 167.994 33.2362 167.994 32.9918C167.994 32.9336 167.959 32.8452 167.889 32.7265C167.822 32.6078 167.788 32.5333 167.788 32.5031C167.788 32.4262 167.83 32.3739 167.914 32.3459C168 32.3157 168.171 32.3006 168.427 32.3006H168.671C168.934 32.3006 169.103 32.3215 169.178 32.3634C169.255 32.403 169.293 32.4588 169.293 32.531C169.293 32.6031 169.217 32.6986 169.066 32.8173C168.915 32.936 168.803 33.0698 168.731 33.2187C168.717 33.2467 168.5 33.8274 168.081 34.9609C167.665 36.092 167.4 36.7495 167.285 36.9334C167.174 37.1173 166.992 37.2092 166.741 37.2092C166.597 37.2092 166.457 37.0556 166.322 36.7484C166.245 36.5761 166.01 35.978 165.617 34.9539L165.271 34.0497C165.213 33.8984 165.148 33.7261 165.076 33.533C165.003 33.3375 164.952 33.2059 164.922 33.1385C164.864 33.0128 164.751 32.901 164.583 32.8033C164.416 32.7032 164.332 32.609 164.332 32.5205C164.332 32.4297 164.351 32.375 164.388 32.3564C164.46 32.3192 164.814 32.3006 165.449 32.3006H165.561ZM173.395 32.9115C173.395 33.0675 173.373 33.1699 173.329 33.2187C173.285 33.2653 173.217 33.2886 173.126 33.2886L173.063 33.2572L172.99 33.2083L172.906 33.1594C172.825 33.1128 172.668 33.0488 172.435 32.9674C172.205 32.8859 171.989 32.8452 171.789 32.8452C171.589 32.8452 171.442 32.9173 171.349 33.0616C171.258 33.2059 171.213 33.5027 171.213 33.9519C171.213 34.0799 171.253 34.1823 171.332 34.2591C171.411 34.3359 171.52 34.3743 171.66 34.3743C171.8 34.3743 171.953 34.3255 172.121 34.2277C172.291 34.13 172.411 34.0811 172.48 34.0811C172.553 34.0811 172.615 34.1288 172.669 34.2242C172.722 34.3173 172.749 34.429 172.749 34.5594C172.749 34.9108 172.711 35.1273 172.634 35.2087L172.54 35.2611C172.402 35.2611 172.293 35.2297 172.212 35.1668C172.032 35.0295 171.901 34.9609 171.817 34.9609C171.552 34.9609 171.374 35.0167 171.283 35.1284C171.239 35.1843 171.217 35.3763 171.217 35.7045C171.217 36.0303 171.283 36.2782 171.416 36.4481C171.485 36.5389 171.639 36.5843 171.876 36.5843C172.114 36.5843 172.416 36.504 172.784 36.3434C173.154 36.1805 173.366 36.099 173.42 36.099C173.52 36.099 173.57 36.1933 173.57 36.3818V36.5075C173.57 36.5726 173.546 36.6634 173.5 36.7798C173.453 36.8962 173.381 36.9869 173.283 37.0521C173.186 37.1173 173.025 37.1499 172.802 37.1499H170.27C169.884 37.1499 169.691 37.0998 169.691 36.9997V36.888C169.691 36.8089 169.762 36.7297 169.904 36.6506C170.048 36.5715 170.132 36.4865 170.155 36.3958C170.181 36.3027 170.194 35.7673 170.194 34.7898C170.194 33.8123 170.177 33.2583 170.145 33.128C170.112 32.9976 170.031 32.8778 169.9 32.7684C169.77 32.659 169.705 32.5508 169.705 32.4437C169.705 32.3669 169.789 32.3238 169.956 32.3145C170.124 32.3029 170.674 32.2971 171.608 32.2971L172.515 32.2936H172.662C172.897 32.2936 173.062 32.3273 173.158 32.3948C173.316 32.5065 173.395 32.6788 173.395 32.9115ZM179.327 34.8666C179.552 34.8666 179.665 34.9213 179.665 35.0307V35.09C179.665 35.3135 179.612 35.4333 179.505 35.4496C179.444 35.4589 178.562 35.4636 176.858 35.4636H176.181L176.059 35.4671H174.823L174.579 35.4706C174.323 35.4706 174.17 35.4589 174.121 35.4357C174.075 35.4101 174.051 35.3472 174.051 35.2471C174.051 35.0191 174.104 34.898 174.209 34.8841C174.283 34.8747 175.179 34.8701 176.897 34.8701L178.084 34.8666H179.327Z" fill="#121A23"/>
<path d="M12.1421 23.3582C10.4146 23.3582 8.82278 23.0625 7.35438 22.4712C5.88597 21.8798 4.59032 21.0544 3.49209 19.9949C2.39387 18.9354 1.54244 17.7034 0.925467 16.2867C0.308489 14.8699 0 13.3423 0 11.7037C0 10.0652 0.308489 8.50061 0.925467 7.08384C1.54244 5.66708 2.39387 4.43511 3.50443 3.37561C4.615 2.31612 5.89831 1.49069 7.37906 0.899348C8.84746 0.308002 10.4393 0.0123291 12.1421 0.0123291C13.3884 0.0123291 14.6224 0.197125 15.8193 0.566716C17.0286 0.936308 18.1392 1.44142 19.1633 2.10668C19.9531 2.61179 20.6441 3.20313 21.2364 3.85608C21.5325 4.17639 21.4955 4.69382 21.1747 5.00181L18.6204 7.51503C18.2872 7.84767 17.7443 7.84767 17.4235 7.51503C16.7695 6.81281 16.0661 6.27074 15.3134 5.88883C14.3386 5.39604 13.2774 5.13733 12.1298 5.13733C11.229 5.13733 10.3776 5.3098 9.60018 5.64244C8.81044 5.97507 8.13177 6.4309 7.55181 7.02224C6.97185 7.60127 6.51529 8.29118 6.19446 9.09196C5.87363 9.89274 5.71322 10.7674 5.71322 11.7161C5.71322 12.6647 5.88597 13.5024 6.21914 14.2909C6.55231 15.0793 7.00887 15.7692 7.61351 16.3606C8.20581 16.9519 8.90916 17.4078 9.71123 17.7404C10.5133 18.073 11.3894 18.2209 12.3396 18.2209C13.4378 18.2209 14.4496 17.9868 15.3874 17.5063C16.0908 17.149 16.7448 16.6686 17.3371 16.0526C17.6702 15.7076 18.2008 15.6707 18.534 16.0156L20.7798 18.2332C21.3228 18.7629 21.3598 19.2804 21.0513 19.6007C20.459 20.2413 19.7803 20.8203 19.0029 21.3254C17.9911 21.9907 16.8929 22.4958 15.7083 22.8531C14.5237 23.2103 13.3267 23.3828 12.1298 23.3828L12.1421 23.3582Z" fill="#121A23"/>
<path d="M47.2482 22.9023V1.58921C47.2482 1.21961 47.5567 0.911621 47.9268 0.911621H52.147C52.3567 0.911621 52.5542 1.01018 52.6899 1.17033L62.7466 14.0691V1.58921C62.7466 1.21961 63.0551 0.911621 63.4253 0.911621H67.2876C67.6578 0.911621 67.9663 1.21961 67.9663 1.58921V22.9146C67.9663 23.2842 67.6578 23.5922 67.2876 23.5922H63.4007C63.1909 23.5922 62.9934 23.4937 62.8577 23.3335L52.4801 9.92965V22.9269C52.4801 23.2965 52.1717 23.6045 51.8015 23.6045H47.9392C47.569 23.6045 47.2605 23.2965 47.2605 22.9269L47.2482 22.9023Z" fill="#121A23"/>
<path d="M76.5053 23.0009V6.41853C76.5053 6.09822 76.2461 5.83951 75.9253 5.83951H72.1124C71.7915 5.83951 71.5324 5.58079 71.5324 5.26048V1.49065C71.5324 1.17034 71.7915 0.911621 72.1124 0.911621H86.4633C86.7841 0.911621 87.0432 1.17034 87.0432 1.49065V5.24816C87.0432 5.56847 86.7841 5.82719 86.4633 5.82719H82.6504C82.3295 5.82719 82.0704 6.0859 82.0704 6.40621V23.0009C82.0704 23.3212 81.8113 23.5799 81.4904 23.5799H77.1099C76.7891 23.5799 76.5299 23.3212 76.5299 23.0009H76.5053Z" fill="#121A23"/>
<path d="M90.8809 23.0256V1.39218C90.8809 1.10883 91.1153 0.874756 91.3991 0.874756H105.775C106.059 0.874756 106.293 1.10883 106.293 1.39218V5.18666C106.293 5.47001 106.059 5.70408 105.775 5.70408H96.9519C96.6681 5.70408 96.4337 5.93816 96.4337 6.22151V9.26448C96.4337 9.54783 96.6681 9.78191 96.9519 9.78191H104.01C104.294 9.78191 104.528 10.016 104.528 10.2993V13.9213C104.528 14.2047 104.294 14.4388 104.01 14.4388H96.9519C96.6681 14.4388 96.4337 14.6728 96.4337 14.9562V18.1963C96.4337 18.4796 96.6681 18.7137 96.9519 18.7137H105.898C106.182 18.7137 106.416 18.9478 106.416 19.2311V23.0256C106.416 23.309 106.182 23.543 105.898 23.543H91.3991C91.1153 23.543 90.8809 23.309 90.8809 23.0256Z" fill="#121A23"/>
<path d="M110.797 22.9393V1.61386C110.797 1.24427 111.105 0.936279 111.476 0.936279H115.696C115.905 0.936279 116.103 1.03484 116.239 1.19499L126.295 14.0937V1.61386C126.295 1.24427 126.604 0.936279 126.974 0.936279H130.836C131.207 0.936279 131.515 1.24427 131.515 1.61386V22.9393C131.515 23.3089 131.207 23.6169 130.836 23.6169H126.949C126.74 23.6169 126.542 23.5183 126.406 23.3582L116.029 9.95431V22.9516C116.029 23.3212 115.72 23.6292 115.35 23.6292H111.488C111.118 23.6292 110.809 23.3212 110.809 22.9516L110.797 22.9393Z" fill="#121A23"/>
<path d="M140.424 23.0995V6.51717C140.424 6.19685 140.165 5.93814 139.844 5.93814H136.031C135.71 5.93814 135.451 5.67942 135.451 5.35911V1.58928C135.451 1.26897 135.71 1.01025 136.031 1.01025H150.382C150.703 1.01025 150.962 1.26897 150.962 1.58928V5.34679C150.962 5.66711 150.703 5.92582 150.382 5.92582H146.569C146.248 5.92582 145.989 6.18453 145.989 6.50485V23.0995C145.989 23.4198 145.73 23.6785 145.409 23.6785H141.029C140.708 23.6785 140.449 23.4198 140.449 23.0995H140.424Z" fill="#121A23"/>
<path d="M33.8721 17.5186C32.6381 17.5186 31.4905 17.3092 30.4293 16.8903C29.3681 16.4714 28.4427 15.8801 27.6406 15.1162C26.8385 14.3524 26.2216 13.4777 25.7773 12.4675C25.3331 11.4573 25.111 10.3732 25.111 9.21511C25.111 8.05705 25.3331 6.9606 25.7773 5.9627C26.2216 4.95249 26.8385 4.07779 27.6406 3.31396C28.4427 2.55014 29.3681 1.9588 30.4293 1.53993C31.4905 1.12106 32.6381 0.911621 33.8721 0.911621C35.106 0.911621 36.2536 1.12106 37.3148 1.53993C38.376 1.9588 39.3015 2.55014 40.1036 3.31396C40.9056 4.07779 41.5226 4.95249 41.9668 5.9627C42.4111 6.97292 42.6332 8.05705 42.6332 9.21511C42.6332 10.3732 42.4111 11.4696 41.9668 12.4675C41.5226 13.4777 40.9056 14.3524 40.1036 15.1162C39.3015 15.8801 38.376 16.4714 37.3148 16.8903C36.2536 17.3092 35.106 17.5186 33.8721 17.5186ZM33.8474 12.4798C34.3163 12.4798 34.7482 12.3936 35.1431 12.2211C35.5379 12.0486 35.8834 11.8269 36.1796 11.5312C36.4757 11.2355 36.6978 10.8906 36.8706 10.484C37.031 10.0775 37.1174 9.63398 37.1174 9.16583C37.1174 8.69768 37.031 8.24185 36.8706 7.84762C36.7102 7.44107 36.4757 7.09612 36.1796 6.80044C35.8834 6.50477 35.5379 6.2707 35.1431 6.11054C34.7482 5.93806 34.3163 5.85183 33.8474 5.85183C33.3785 5.85183 32.9466 5.93806 32.5517 6.11054C32.1569 6.28302 31.8114 6.50477 31.5152 6.80044C31.2191 7.09612 30.997 7.44107 30.8242 7.84762C30.6638 8.25417 30.5774 8.68536 30.5774 9.16583C30.5774 9.6463 30.6638 10.0775 30.8242 10.484C30.9846 10.8906 31.2191 11.2479 31.5152 11.5312C31.8114 11.8269 32.1569 12.061 32.5517 12.2211C32.9466 12.3936 33.3785 12.4798 33.8474 12.4798Z" fill="#121A23"/>
<path d="M41.1154 18.7382H26.4437C26.1166 18.7382 25.8514 19.003 25.8514 19.3296V23.1117C25.8514 23.4383 26.1166 23.7031 26.4437 23.7031H41.1154C41.4425 23.7031 41.7077 23.4383 41.7077 23.1117V19.3296C41.7077 19.003 41.4425 18.7382 41.1154 18.7382Z" fill="#121A23"/>
<path d="M162.623 17.4324C161.389 17.4324 160.241 17.223 159.18 16.8041C158.119 16.3852 157.194 15.7939 156.392 15.0301C155.589 14.2662 154.972 13.3915 154.528 12.3813C154.084 11.3711 153.862 10.287 153.862 9.12893C153.862 7.97087 154.084 6.87442 154.528 5.87652C154.972 4.8663 155.589 3.99161 156.392 3.22778C157.194 2.46396 158.119 1.87261 159.18 1.45374C160.241 1.03487 161.389 0.825439 162.623 0.825439C163.857 0.825439 165.005 1.03487 166.066 1.45374C167.127 1.87261 168.052 2.46396 168.854 3.22778C169.657 3.99161 170.274 4.8663 170.718 5.87652C171.162 6.88674 171.384 7.97087 171.384 9.12893C171.384 10.287 171.162 11.3834 170.718 12.3813C170.274 13.3915 169.657 14.2662 168.854 15.0301C168.052 15.7939 167.127 16.3852 166.066 16.8041C165.005 17.223 163.857 17.4324 162.623 17.4324ZM162.598 12.3937C163.067 12.3937 163.499 12.3074 163.894 12.1349C164.289 11.9625 164.634 11.7407 164.931 11.445C165.227 11.1494 165.449 10.8044 165.622 10.3979C165.782 9.99131 165.868 9.5478 165.868 9.07965C165.868 8.6115 165.782 8.15567 165.622 7.76144C165.461 7.35489 165.227 7.00993 164.931 6.71426C164.634 6.41859 164.289 6.18451 163.894 6.02436C163.499 5.85188 163.067 5.76564 162.598 5.76564C162.129 5.76564 161.698 5.85188 161.303 6.02436C160.908 6.19683 160.562 6.41859 160.266 6.71426C159.97 7.00993 159.748 7.35489 159.575 7.76144C159.415 8.16799 159.328 8.59918 159.328 9.07965C159.328 9.56012 159.415 9.99131 159.575 10.3979C159.736 10.8044 159.97 11.1617 160.266 11.445C160.562 11.7407 160.908 11.9748 161.303 12.1349C161.698 12.3074 162.129 12.3937 162.598 12.3937Z" fill="#121A23"/>
<path d="M169.817 18.652H155.244C154.89 18.652 154.602 18.9389 154.602 19.2927V22.9763C154.602 23.3301 154.89 23.6169 155.244 23.6169H169.817C170.171 23.6169 170.459 23.3301 170.459 22.9763V19.2927C170.459 18.9389 170.171 18.652 169.817 18.652Z" fill="#121A23"/>
<path d="M175.493 22.8654V1.55234C175.493 1.18275 175.802 0.874756 176.172 0.874756H180.392C180.602 0.874756 180.799 0.973314 180.935 1.13347L190.992 14.0322V1.55234C190.992 1.18275 191.3 0.874756 191.67 0.874756H195.533C195.903 0.874756 196.211 1.18275 196.211 1.55234V22.8778C196.211 23.2474 195.903 23.5553 195.533 23.5553H191.646C191.436 23.5553 191.238 23.4568 191.103 23.2966L180.725 9.89278V22.8901C180.725 23.2597 180.417 23.5677 180.046 23.5677H176.184C175.814 23.5677 175.505 23.2597 175.505 22.8901L175.493 22.8654Z" fill="#121A23"/>
<path d="M199.296 22.9639L208.353 0.923978C208.427 0.751502 208.588 0.640625 208.773 0.640625H214.634C214.819 0.640625 214.98 0.751502 215.054 0.923978L223.975 22.9639C224.099 23.2596 223.877 23.5799 223.556 23.5799H218.435C218.25 23.5799 218.077 23.469 218.015 23.2843L216.14 18.3317C216.078 18.1593 215.905 18.0361 215.72 18.0361H207.379C207.194 18.0361 207.021 18.1469 206.959 18.3194L205.046 23.2843C204.985 23.4567 204.812 23.5676 204.627 23.5676H199.728C199.407 23.5676 199.185 23.2473 199.309 22.9516L199.296 22.9639ZM209.415 13.5517H213.684C214.005 13.5517 214.215 13.2437 214.104 12.948L211.994 7.33023C211.846 6.94832 211.303 6.936 211.155 7.33023L208.995 12.948C208.884 13.2437 209.094 13.564 209.415 13.564V13.5517Z" fill="#1D1D1B"/>
</g>
<defs>
<clipPath id="clip0_2021_22">
<rect width="224" height="41" fill="white"/>
</clipPath>
</defs>
</svg>
