<?xml version="1.0" encoding="UTF-8"?>
<svg id="Capa_2" data-name="Capa 2" xmlns="http://www.w3.org/2000/svg" viewBox="0 0 181.53 33.28">
  <defs>
    <style>
      .cls-1 {
        letter-spacing: 0em;
      }

      .cls-1, .cls-2, .cls-3, .cls-4, .cls-5, .cls-6, .cls-7, .cls-8, .cls-9 {
        font-family: AveriaSerifLibre-BoldItalic, 'Averia Serif Libre';
        font-style: italic;
      }

      .cls-2 {
        letter-spacing: .01em;
      }

      .cls-3, .cls-10 {
        letter-spacing: .01em;
      }

      .cls-4, .cls-11 {
        letter-spacing: .01em;
      }

      .cls-11, .cls-12, .cls-10 {
        font-family: AveriaSerifLibre-Bold, 'Averia Serif Libre';
      }

      .cls-5 {
        letter-spacing: -.05em;
      }

      .cls-6 {
        letter-spacing: 0em;
      }

      .cls-12, .cls-9 {
        letter-spacing: 0em;
      }

      .cls-7 {
        letter-spacing: .01em;
      }

      .cls-8 {
        letter-spacing: 0em;
      }

      .cls-13 {
        fill: #1d1d1b;
      }

      .cls-13, .cls-14 {
        stroke-width: 0px;
      }

      .cls-14, .cls-15 {
        fill: #121a23;
      }

      .cls-15 {
        font-size: 7.15px;
        font-weight: 700;
        opacity: .7;
      }
    </style>
  </defs>
  <g id="Capa_1-2" data-name="Capa 1">
    <g>
      <text class="cls-15" transform="translate(24.38 31.62)"><tspan class="cls-12" x="0" y="0">—</tspan><tspan class="cls-10" x="6.17" y="0"> </tspan><tspan class="cls-4" x="8.06" y="0">D</tspan><tspan class="cls-3" x="13.02" y="0">E</tspan><tspan class="cls-7" x="17.33" y="0">ST</tspan><tspan class="cls-2" x="25.59" y="0">ILADO</tspan><tspan class="cls-7" x="47.62" y="0"> </tspan><tspan class="cls-3" x="49.51" y="0">A</tspan><tspan class="cls-8" x="54.46" y="0">R</tspan><tspan class="cls-7" x="58.96" y="0">T</tspan><tspan class="cls-3" x="63.39" y="0">E</tspan><tspan class="cls-4" x="67.7" y="0">S</tspan><tspan class="cls-3" x="71.53" y="0">A</tspan><tspan class="cls-1" x="76.48" y="0">N</tspan><tspan class="cls-3" x="81.74" y="0">A</tspan><tspan class="cls-4" x="86.69" y="0">L</tspan><tspan class="cls-3" x="90.86" y="0"> </tspan><tspan class="cls-4" x="92.75" y="0">D</tspan><tspan class="cls-3" x="97.71" y="0">E</tspan><tspan class="cls-4" x="102.02" y="0"> </tspan><tspan class="cls-6" x="103.91" y="0">A</tspan><tspan class="cls-4" x="108.8" y="0">G</tspan><tspan class="cls-5" x="113.6" y="0">A</tspan><tspan class="cls-9" x="118.09" y="0">V</tspan><tspan class="cls-3" x="122.96" y="0">E</tspan><tspan class="cls-11" x="127.28" y="0"> </tspan><tspan class="cls-12" x="129.16" y="0">—</tspan></text>
      <g>
        <path class="cls-14" d="M9.84,18.96c-1.4,0-2.69-.24-3.88-.72-1.19-.48-2.24-1.15-3.13-2.01-.89-.86-1.58-1.86-2.08-3.01-.5-1.15-.75-2.39-.75-3.72s.25-2.6.75-3.75c.5-1.15,1.19-2.15,2.09-3.01.9-.86,1.94-1.53,3.14-2.01,1.19-.48,2.48-.72,3.86-.72,1.01,0,2.01.15,2.98.45.98.3,1.88.71,2.71,1.25.64.41,1.2.89,1.68,1.42.24.26.21.68-.05.93l-2.07,2.04c-.27.27-.71.27-.97,0-.53-.57-1.1-1.01-1.71-1.32-.79-.4-1.65-.61-2.58-.61-.73,0-1.42.14-2.05.41-.64.27-1.19.64-1.66,1.12-.47.47-.84,1.03-1.1,1.68-.26.65-.39,1.36-.39,2.13s.14,1.45.41,2.09c.27.64.64,1.2,1.13,1.68.48.48,1.05.85,1.7,1.12s1.36.39,2.13.39c.89,0,1.71-.19,2.47-.58.57-.29,1.1-.68,1.58-1.18.27-.28.7-.31.97-.03l1.82,1.8c.44.43.47.85.22,1.11-.48.52-1.03.99-1.66,1.4-.82.54-1.71.95-2.67,1.24-.96.29-1.93.43-2.9.43Z"/>
        <path class="cls-14" d="M38.29,18.59V1.29c0-.3.25-.55.55-.55h3.42c.17,0,.33.08.44.21l8.15,10.47V1.29c0-.3.25-.55.55-.55h3.13c.3,0,.55.25.55.55v17.31c0,.3-.25.55-.55.55h-3.15c-.17,0-.33-.08-.44-.21l-8.41-10.88v10.55c0,.3-.25.55-.55.55h-3.13c-.3,0-.55-.25-.55-.55Z"/>
        <path class="cls-14" d="M62,18.67V5.21c0-.26-.21-.47-.47-.47h-3.09c-.26,0-.47-.21-.47-.47V1.21c0-.26.21-.47.47-.47h11.63c.26,0,.47.21.47.47v3.05c0,.26-.21.47-.47.47h-3.09c-.26,0-.47.21-.47.47v13.47c0,.26-.21.47-.47.47h-3.55c-.26,0-.47-.21-.47-.47Z"/>
        <path class="cls-14" d="M73.65,18.69V1.13c0-.23.19-.42.42-.42h11.65c.23,0,.42.19.42.42v3.08c0,.23-.19.42-.42.42h-7.15c-.23,0-.42.19-.42.42v2.47c0,.23.19.42.42.42h5.72c.23,0,.42.19.42.42v2.94c0,.23-.19.42-.42.42h-5.72c-.23,0-.42.19-.42.42v2.63c0,.23.19.42.42.42h7.25c.23,0,.42.19.42.42v3.08c0,.23-.19.42-.42.42h-11.75c-.23,0-.42-.19-.42-.42Z"/>
        <path class="cls-14" d="M89.79,18.62V1.31c0-.3.25-.55.55-.55h3.42c.17,0,.33.08.44.21l8.15,10.47V1.31c0-.3.25-.55.55-.55h3.13c.3,0,.55.25.55.55v17.31c0,.3-.25.55-.55.55h-3.15c-.17,0-.33-.08-.44-.21l-8.41-10.88v10.55c0,.3-.25.55-.55.55h-3.13c-.3,0-.55-.25-.55-.55Z"/>
        <path class="cls-14" d="M113.8,18.75V5.29c0-.26-.21-.47-.47-.47h-3.09c-.26,0-.47-.21-.47-.47V1.29c0-.26.21-.47.47-.47h11.63c.26,0,.47.21.47.47v3.05c0,.26-.21.47-.47.47h-3.09c-.26,0-.47.21-.47.47v13.47c0,.26-.21.47-.47.47h-3.55c-.26,0-.47-.21-.47-.47Z"/>
        <g>
          <path class="cls-14" d="M27.45,14.22c-1,0-1.93-.17-2.79-.51-.86-.34-1.61-.82-2.26-1.44s-1.15-1.33-1.51-2.15c-.36-.82-.54-1.7-.54-2.64s.18-1.83.54-2.64c.36-.82.86-1.53,1.51-2.15s1.4-1.1,2.26-1.44c.86-.34,1.79-.51,2.79-.51s1.93.17,2.79.51c.86.34,1.61.82,2.26,1.44s1.15,1.33,1.51,2.15c.36.82.54,1.7.54,2.64s-.18,1.83-.54,2.64c-.36.82-.86,1.53-1.51,2.15s-1.4,1.1-2.26,1.44c-.86.34-1.79.51-2.79.51ZM27.43,10.13c.38,0,.73-.07,1.05-.21.32-.14.6-.32.84-.56.24-.24.42-.52.56-.85.13-.33.2-.69.2-1.07s-.07-.75-.2-1.07c-.13-.33-.32-.61-.56-.85-.24-.24-.52-.43-.84-.56-.32-.14-.67-.21-1.05-.21s-.73.07-1.05.21c-.32.14-.6.32-.84.56-.24.24-.42.52-.56.85-.13.33-.2.68-.2,1.07s.07.74.2,1.07c.13.33.32.62.56.85.24.24.52.43.84.56.32.14.67.21,1.05.21Z"/>
          <rect class="cls-14" x="20.95" y="15.21" width="12.85" height="4.03" rx=".48" ry=".48"/>
        </g>
        <g>
          <path class="cls-14" d="M131.79,14.15c-1,0-1.93-.17-2.79-.51-.86-.34-1.61-.82-2.26-1.44s-1.15-1.33-1.51-2.15c-.36-.82-.54-1.7-.54-2.64s.18-1.83.54-2.64c.36-.82.86-1.53,1.51-2.15s1.4-1.1,2.26-1.44c.86-.34,1.79-.51,2.79-.51s1.93.17,2.79.51c.86.34,1.61.82,2.26,1.44s1.15,1.33,1.51,2.15c.36.82.54,1.7.54,2.64s-.18,1.83-.54,2.64c-.36.82-.86,1.53-1.51,2.15s-1.4,1.1-2.26,1.44c-.86.34-1.79.51-2.79.51ZM131.77,10.06c.38,0,.73-.07,1.05-.21.32-.14.6-.32.84-.56.24-.24.42-.52.56-.85.13-.33.2-.69.2-1.07s-.07-.75-.2-1.07c-.13-.33-.32-.61-.56-.85-.24-.24-.52-.43-.84-.56-.32-.14-.67-.21-1.05-.21s-.73.07-1.05.21c-.32.14-.6.32-.84.56-.24.24-.42.52-.56.85-.13.33-.2.68-.2,1.07s.07.74.2,1.07c.13.33.32.62.56.85.24.24.52.43.84.56.32.14.67.21,1.05.21Z"/>
          <rect class="cls-14" x="125.29" y="15.14" width="12.85" height="4.03" rx=".52" ry=".52"/>
        </g>
        <path class="cls-14" d="M142.22,18.56V1.26c0-.3.25-.55.55-.55h3.42c.17,0,.33.08.44.21l8.15,10.47V1.26c0-.3.25-.55.55-.55h3.13c.3,0,.55.25.55.55v17.31c0,.3-.25.55-.55.55h-3.15c-.17,0-.33-.08-.44-.21l-8.41-10.88v10.55c0,.3-.25.55-.55.55h-3.13c-.3,0-.55-.25-.55-.55Z"/>
        <path class="cls-13" d="M161.51,18.64l7.34-17.89c.06-.14.19-.23.34-.23h4.75c.15,0,.28.09.34.23l7.23,17.89c.1.24-.08.5-.34.5h-4.15c-.15,0-.29-.09-.34-.24l-1.52-4.02c-.05-.14-.19-.24-.34-.24h-6.76c-.15,0-.29.09-.34.23l-1.55,4.03c-.05.14-.19.23-.34.23h-3.97c-.26,0-.44-.26-.34-.5ZM169.71,11h3.46c.26,0,.43-.25.34-.49l-1.71-4.56c-.12-.31-.56-.32-.68,0l-1.75,4.56c-.09.24.08.5.34.5Z"/>
      </g>
    </g>
  </g>
</svg>