<svg width="182" height="88" viewBox="0 0 182 88" fill="none" xmlns="http://www.w3.org/2000/svg">
<g id="Marca_sin_slogan_Monocromo 1" clip-path="url(#clip0_2070_254)">
<g id="Capa 1">
<g id="Group">
<g id="Group_2">
<path id="Vector" d="M9.84 86.75C8.44 86.75 7.15 86.51 5.96 86.03C4.77 85.55 3.72 84.88 2.83 84.02C1.94 83.16 1.25 82.16 0.75 81.01C0.25 79.86 0 78.62 0 77.29C0 75.96 0.25 74.69 0.75 73.54C1.25 72.39 1.94 71.39 2.84 70.53C3.74 69.67 4.78 69 5.98 68.52C7.17 68.04 8.46 67.8 9.84 67.8C10.85 67.8 11.85 67.95 12.82 68.25C13.8 68.55 14.7 68.96 15.53 69.5C16.17 69.91 16.73 70.39 17.21 70.92C17.45 71.18 17.42 71.6 17.16 71.85L15.09 73.89C14.82 74.16 14.38 74.16 14.12 73.89C13.59 73.32 13.02 72.88 12.41 72.57C11.62 72.17 10.76 71.96 9.83 71.96C9.1 71.96 8.41 72.1 7.78 72.37C7.14 72.64 6.59 73.01 6.12 73.49C5.65 73.96 5.28 74.52 5.02 75.17C4.76 75.82 4.63 76.53 4.63 77.3C4.63 78.07 4.77 78.75 5.04 79.39C5.31 80.03 5.68 80.59 6.17 81.07C6.65 81.55 7.22 81.92 7.87 82.19C8.52 82.46 9.23 82.58 10 82.58C10.89 82.58 11.71 82.39 12.47 82C13.04 81.71 13.57 81.32 14.05 80.82C14.32 80.54 14.75 80.51 15.02 80.79L16.84 82.59C17.28 83.02 17.31 83.44 17.06 83.7C16.58 84.22 16.03 84.69 15.4 85.1C14.58 85.64 13.69 86.05 12.73 86.34C11.77 86.63 10.8 86.77 9.83 86.77L9.84 86.75Z" fill="#121A23"/>
<path id="Vector_2" d="M38.29 86.38V69.07C38.29 68.77 38.54 68.52 38.84 68.52H42.26C42.43 68.52 42.59 68.6 42.7 68.73L50.85 79.2V69.07C50.85 68.77 51.1 68.52 51.4 68.52H54.53C54.83 68.52 55.08 68.77 55.08 69.07V86.38C55.08 86.68 54.83 86.93 54.53 86.93H51.38C51.21 86.93 51.05 86.85 50.94 86.72L42.53 75.84V86.39C42.53 86.69 42.28 86.94 41.98 86.94H38.85C38.55 86.94 38.3 86.69 38.3 86.39L38.29 86.38Z" fill="#121A23"/>
<path id="Vector_3" d="M62 86.46V72.99C62 72.73 61.79 72.52 61.53 72.52H58.44C58.18 72.52 57.97 72.31 57.97 72.05V69C57.97 68.74 58.18 68.53 58.44 68.53H70.07C70.33 68.53 70.54 68.74 70.54 69V72.05C70.54 72.31 70.33 72.52 70.07 72.52H66.98C66.72 72.52 66.51 72.73 66.51 72.99V86.46C66.51 86.72 66.3 86.93 66.04 86.93H62.49C62.23 86.93 62.02 86.72 62.02 86.46H62Z" fill="#121A23"/>
<path id="Vector_4" d="M73.65 86.48V68.91C73.65 68.68 73.84 68.49 74.07 68.49H85.72C85.95 68.49 86.14 68.68 86.14 68.91V71.99C86.14 72.22 85.95 72.41 85.72 72.41H78.57C78.34 72.41 78.15 72.6 78.15 72.83V75.3C78.15 75.53 78.34 75.72 78.57 75.72H84.29C84.52 75.72 84.71 75.91 84.71 76.14V79.08C84.71 79.31 84.52 79.5 84.29 79.5H78.57C78.34 79.5 78.15 79.69 78.15 79.92V82.55C78.15 82.78 78.34 82.97 78.57 82.97H85.82C86.05 82.97 86.24 83.16 86.24 83.39V86.47C86.24 86.7 86.05 86.89 85.82 86.89H74.07C73.84 86.89 73.65 86.7 73.65 86.47V86.48Z" fill="#121A23"/>
<path id="Vector_5" d="M89.79 86.41V69.1C89.79 68.8 90.04 68.55 90.34 68.55H93.76C93.93 68.55 94.09 68.63 94.2 68.76L102.35 79.23V69.1C102.35 68.8 102.6 68.55 102.9 68.55H106.03C106.33 68.55 106.58 68.8 106.58 69.1V86.41C106.58 86.71 106.33 86.96 106.03 86.96H102.88C102.71 86.96 102.55 86.88 102.44 86.75L94.03 75.87V86.42C94.03 86.72 93.78 86.97 93.48 86.97H90.35C90.05 86.97 89.8 86.72 89.8 86.42L89.79 86.41Z" fill="#121A23"/>
<path id="Vector_6" d="M113.8 86.54V73.07C113.8 72.81 113.59 72.6 113.33 72.6H110.24C109.98 72.6 109.77 72.39 109.77 72.13V69.08C109.77 68.82 109.98 68.61 110.24 68.61H121.87C122.13 68.61 122.34 68.82 122.34 69.08V72.13C122.34 72.39 122.13 72.6 121.87 72.6H118.78C118.52 72.6 118.31 72.81 118.31 73.07V86.54C118.31 86.8 118.1 87.01 117.84 87.01H114.29C114.03 87.01 113.82 86.8 113.82 86.54H113.8Z" fill="#121A23"/>
<g id="Group_3">
<path id="Vector_7" d="M27.45 82C26.45 82 25.52 81.83 24.66 81.49C23.8 81.15 23.05 80.67 22.4 80.05C21.75 79.43 21.25 78.72 20.89 77.9C20.53 77.08 20.35 76.2 20.35 75.26C20.35 74.32 20.53 73.43 20.89 72.62C21.25 71.8 21.75 71.09 22.4 70.47C23.05 69.85 23.8 69.37 24.66 69.03C25.52 68.69 26.45 68.52 27.45 68.52C28.45 68.52 29.38 68.69 30.24 69.03C31.1 69.37 31.85 69.85 32.5 70.47C33.15 71.09 33.65 71.8 34.01 72.62C34.37 73.44 34.55 74.32 34.55 75.26C34.55 76.2 34.37 77.09 34.01 77.9C33.65 78.72 33.15 79.43 32.5 80.05C31.85 80.67 31.1 81.15 30.24 81.49C29.38 81.83 28.45 82 27.45 82ZM27.43 77.92C27.81 77.92 28.16 77.85 28.48 77.71C28.8 77.57 29.08 77.39 29.32 77.15C29.56 76.91 29.74 76.63 29.88 76.3C30.01 75.97 30.08 75.61 30.08 75.23C30.08 74.85 30.01 74.48 29.88 74.16C29.75 73.83 29.56 73.55 29.32 73.31C29.08 73.07 28.8 72.88 28.48 72.75C28.16 72.61 27.81 72.54 27.43 72.54C27.05 72.54 26.7 72.61 26.38 72.75C26.06 72.89 25.78 73.07 25.54 73.31C25.3 73.55 25.12 73.83 24.98 74.16C24.85 74.49 24.78 74.84 24.78 75.23C24.78 75.62 24.85 75.97 24.98 76.3C25.11 76.63 25.3 76.92 25.54 77.15C25.78 77.39 26.06 77.58 26.38 77.71C26.7 77.85 27.05 77.92 27.43 77.92Z" fill="#121A23"/>
<path id="Vector_8" d="M33.32 82.99H21.43C21.1649 82.99 20.95 83.2049 20.95 83.47V86.54C20.95 86.8051 21.1649 87.02 21.43 87.02H33.32C33.5851 87.02 33.8 86.8051 33.8 86.54V83.47C33.8 83.2049 33.5851 82.99 33.32 82.99Z" fill="#121A23"/>
</g>
<g id="Group_4">
<path id="Vector_9" d="M131.79 81.93C130.79 81.93 129.86 81.76 129 81.42C128.14 81.08 127.39 80.6 126.74 79.98C126.09 79.36 125.59 78.65 125.23 77.83C124.87 77.01 124.69 76.13 124.69 75.19C124.69 74.25 124.87 73.36 125.23 72.55C125.59 71.73 126.09 71.02 126.74 70.4C127.39 69.78 128.14 69.3 129 68.96C129.86 68.62 130.79 68.45 131.79 68.45C132.79 68.45 133.72 68.62 134.58 68.96C135.44 69.3 136.19 69.78 136.84 70.4C137.49 71.02 137.99 71.73 138.35 72.55C138.71 73.37 138.89 74.25 138.89 75.19C138.89 76.13 138.71 77.02 138.35 77.83C137.99 78.65 137.49 79.36 136.84 79.98C136.19 80.6 135.44 81.08 134.58 81.42C133.72 81.76 132.79 81.93 131.79 81.93ZM131.77 77.85C132.15 77.85 132.5 77.78 132.82 77.64C133.14 77.5 133.42 77.32 133.66 77.08C133.9 76.84 134.08 76.56 134.22 76.23C134.35 75.9 134.42 75.54 134.42 75.16C134.42 74.78 134.35 74.41 134.22 74.09C134.09 73.76 133.9 73.48 133.66 73.24C133.42 73 133.14 72.81 132.82 72.68C132.5 72.54 132.15 72.47 131.77 72.47C131.39 72.47 131.04 72.54 130.72 72.68C130.4 72.82 130.12 73 129.88 73.24C129.64 73.48 129.46 73.76 129.32 74.09C129.19 74.42 129.12 74.77 129.12 75.16C129.12 75.55 129.19 75.9 129.32 76.23C129.45 76.56 129.64 76.85 129.88 77.08C130.12 77.32 130.4 77.51 130.72 77.64C131.04 77.78 131.39 77.85 131.77 77.85Z" fill="#121A23"/>
<path id="Vector_10" d="M137.62 82.9199H125.81C125.523 82.9199 125.29 83.1527 125.29 83.4399V86.4299C125.29 86.7171 125.523 86.9499 125.81 86.9499H137.62C137.907 86.9499 138.14 86.7171 138.14 86.4299V83.4399C138.14 83.1527 137.907 82.9199 137.62 82.9199Z" fill="#121A23"/>
</g>
<path id="Vector_11" d="M142.22 86.35V69.04C142.22 68.74 142.47 68.49 142.77 68.49H146.19C146.36 68.49 146.52 68.57 146.63 68.7L154.78 79.17V69.04C154.78 68.74 155.03 68.49 155.33 68.49H158.46C158.76 68.49 159.01 68.74 159.01 69.04V86.35C159.01 86.65 158.76 86.9 158.46 86.9H155.31C155.14 86.9 154.98 86.82 154.87 86.69L146.46 75.81V86.36C146.46 86.66 146.21 86.91 145.91 86.91H142.78C142.48 86.91 142.23 86.66 142.23 86.36L142.22 86.35Z" fill="#121A23"/>
<path id="Vector_12" d="M161.51 86.43L168.85 68.54C168.91 68.4 169.04 68.31 169.19 68.31H173.94C174.09 68.31 174.22 68.4 174.28 68.54L181.51 86.43C181.61 86.67 181.43 86.93 181.17 86.93H177.02C176.87 86.93 176.73 86.84 176.68 86.69L175.16 82.67C175.11 82.53 174.97 82.43 174.82 82.43H168.06C167.91 82.43 167.77 82.52 167.72 82.66L166.17 86.69C166.12 86.83 165.98 86.92 165.83 86.92H161.86C161.6 86.92 161.42 86.66 161.52 86.42L161.51 86.43ZM169.71 78.79H173.17C173.43 78.79 173.6 78.54 173.51 78.3L171.8 73.74C171.68 73.43 171.24 73.42 171.12 73.74L169.37 78.3C169.28 78.54 169.45 78.8 169.71 78.8V78.79Z" fill="#1D1D1B"/>
</g>
<g id="Group_5">
<path id="Vector_13" d="M93.1 2.32001C93.61 2.53001 94.71 2.91001 96.11 2.73001C97.21 2.59001 98.03 2.17001 98.49 1.89001" stroke="#1D1D1B" stroke-width="0.91" stroke-miterlimit="10"/>
<path id="Vector_14" d="M104.47 7.79997C104.62 7.70997 104.79 7.67997 104.96 7.65997C105.13 7.63997 105.3 7.65997 105.47 7.68997C105.79 7.75997 106.15 7.88997 106.34 8.18997C106.02 8.07997 105.73 8.01997 105.41 7.95997C105.1 7.89997 104.8 7.83997 104.46 7.79997H104.47Z" fill="#1D1E1C"/>
<path id="Vector_15" d="M89.67 8.25998C89.87 8.00998 90.07 8.02998 90.26 8.02998C90.45 8.02998 90.64 8.02998 90.83 8.04998L91.97 8.17998C92.35 8.21998 92.73 8.26998 93.11 8.31998C93.49 8.37998 93.87 8.42998 94.25 8.48998V8.54998C93.86 8.56998 93.48 8.57998 93.1 8.59998C92.72 8.61998 92.33 8.61998 91.95 8.61998H90.8C90.61 8.61998 90.42 8.61998 90.23 8.59998C90.04 8.57998 89.85 8.57998 89.67 8.30998V8.24998V8.25998Z" fill="#1D1E1C"/>
<path id="Vector_16" d="M91.16 7.15002C91.35 6.99002 91.52 6.96002 91.69 6.96002C91.86 6.96002 92.02 6.98002 92.19 7.00002C92.52 7.05002 92.85 7.13002 93.17 7.19002C93.83 7.31002 94.48 7.47002 95.13 7.62002V7.67002C94.45 7.67002 93.78 7.67002 93.11 7.62002C92.78 7.60002 92.44 7.60002 92.11 7.57002C91.94 7.56002 91.78 7.53002 91.62 7.49002C91.46 7.45002 91.3 7.38002 91.15 7.18002V7.13002L91.16 7.15002Z" fill="#1D1E1C"/>
<path id="Vector_17" d="M91.96 6.17001C92.13 5.92001 92.27 5.95001 92.41 5.96001C92.55 5.96001 92.69 5.98001 92.83 6.00001L93.66 6.16001C93.94 6.21001 94.21 6.27001 94.49 6.33001C94.76 6.40001 95.04 6.46001 95.31 6.53001V6.58001C95.02 6.59001 94.74 6.59001 94.46 6.60001C94.18 6.60001 93.9 6.60001 93.61 6.60001L92.77 6.58001C92.63 6.58001 92.49 6.56001 92.35 6.53001C92.21 6.50001 92.07 6.51001 91.96 6.23001V6.18001V6.17001Z" fill="#1D1E1C"/>
<path id="Vector_18" d="M92.39 5.19997C92.55 4.96997 92.7 4.96997 92.84 4.96997C92.99 4.96997 93.13 4.96997 93.28 4.98997L94.15 5.11997C94.44 5.15997 94.73 5.19997 95.02 5.25997C95.31 5.31997 95.6 5.35997 95.88 5.42997V5.48997C95.58 5.51997 95.29 5.52997 95 5.53997C94.71 5.55997 94.42 5.56997 94.12 5.56997L93.24 5.58997C93.09 5.58997 92.95 5.57997 92.8 5.54997C92.66 5.53997 92.51 5.50997 92.38 5.25997V5.19997H92.39Z" fill="#1D1E1C"/>
<path id="Vector_19" d="M93.3 3.84998C93.81 3.86998 94.31 3.92998 94.82 3.96998C95.07 3.99998 95.33 4.03998 95.58 4.08998C95.83 4.13998 96.09 4.17998 96.34 4.22998V4.28998C96.08 4.31998 95.83 4.33998 95.57 4.36998C95.31 4.39998 95.06 4.40998 94.8 4.41998C94.29 4.41998 93.78 4.42998 93.27 4.40998L93.29 3.85998L93.3 3.84998Z" fill="#1D1E1C"/>
<path id="Vector_20" opacity="0.36" d="M93.33 1.90002C93.33 1.90002 97.07 -0.569978 98.79 1.45002C98.79 1.45002 95.81 4.06002 93.33 1.90002Z" fill="#1D1E1C" stroke="#1D1D1B" stroke-width="0.28" stroke-miterlimit="10"/>
<path id="Vector_21" d="M111.8 20.22C111.73 20.22 111.66 20.21 111.59 20.18C111.52 20.15 104.7 17.33 100.13 14.27C99.88 14.1 99.81 13.76 99.98 13.5C100.15 13.25 100.49 13.18 100.75 13.35C105.23 16.35 111.95 19.12 112.02 19.15C112.3 19.27 112.44 19.59 112.32 19.87C112.23 20.08 112.03 20.21 111.81 20.21L111.8 20.22Z" fill="#1D1E1C"/>
<path id="Vector_22" d="M107.78 8.89998C107.97 8.87998 108.16 8.92998 108.34 9.00998C108.52 9.07998 108.68 9.18998 108.83 9.31998C108.97 9.44998 109.1 9.58998 109.2 9.74998C109.31 9.90998 109.38 10.09 109.43 10.27C109.15 10.01 108.91 9.75998 108.64 9.52998C108.37 9.29998 108.1 9.08998 107.77 8.90998L107.78 8.89998Z" fill="#1D1E1C"/>
<path id="Vector_23" d="M110.11 11.04C110.25 11.13 110.36 11.25 110.45 11.38C110.55 11.51 110.62 11.65 110.68 11.79C110.8 12.08 110.86 12.41 110.81 12.73C110.65 12.45 110.54 12.17 110.43 11.9C110.38 11.76 110.32 11.63 110.27 11.48C110.22 11.34 110.16 11.2 110.11 11.04Z" fill="#1D1E1C"/>
<path id="Vector_24" d="M101.31 25.93C100.81 27.26 100.07 28.5 99.09 29.58C98.6 30.12 98.04 30.6 97.39 30.98C97.36 31 97.34 31.02 97.33 31.04C97.33 31.05 97.33 31.06 97.32 31.07L97.28 31.19L97.12 31.7C97.01 32.04 96.88 32.38 96.75 32.71C96.48 33.37 96.18 34.02 95.85 34.66C95.5 35.29 95.14 35.91 94.73 36.5C93.91 37.68 92.95 38.79 91.8 39.67C91.24 40.12 90.59 40.51 89.99 40.84C89.38 41.18 88.79 41.55 88.21 41.94C87.06 42.72 85.96 43.59 84.96 44.56C83.96 45.53 83.05 46.6 82.31 47.78C81.58 48.96 81.02 50.27 80.77 51.65C80.77 51.67 80.74 51.69 80.72 51.68C80.7 51.68 80.68 51.66 80.69 51.63C80.88 50.23 81.4 48.88 82.1 47.64C82.8 46.4 83.69 45.28 84.67 44.25C85.66 43.23 86.75 42.31 87.91 41.48C88.49 41.07 89.08 40.67 89.69 40.3C90.31 39.93 90.86 39.58 91.39 39.13C92.44 38.26 93.31 37.17 94.05 36.01C94.8 34.85 95.44 33.62 95.98 32.35C96.12 32.03 96.25 31.71 96.38 31.39L96.56 30.91L96.6 30.78C96.63 30.71 96.66 30.64 96.7 30.57C96.78 30.44 96.91 30.34 97.03 30.28C97.62 29.98 98.16 29.57 98.67 29.11C99.18 28.65 99.63 28.13 100.06 27.58C100.49 27.03 100.87 26.45 101.23 25.84C101.23 25.84 101.27 25.81 101.29 25.82C101.31 25.83 101.32 25.85 101.31 25.87V25.93Z" fill="#1D1E1C"/>
<path id="Vector_25" d="M97.2 30.87C96.73 31.03 96.25 31.25 95.79 31.49C95.33 31.74 94.89 32.02 94.47 32.35C94.82 31.96 95.21 31.59 95.63 31.26C96.05 30.93 96.49 30.63 96.98 30.36C97.11 30.29 97.28 30.33 97.36 30.47C97.43 30.6 97.39 30.77 97.25 30.85C97.24 30.85 97.22 30.86 97.21 30.87H97.2Z" fill="#1D1E1C"/>
<path id="Vector_26" d="M92.73 38.57C92.3 38.97 91.79 39.31 91.21 39.5C90.63 39.71 89.99 39.77 89.38 39.71C89.07 39.68 88.77 39.63 88.49 39.55C88.21 39.48 87.95 39.4 87.67 39.33C87.13 39.19 86.59 39.08 86.06 39.07C84.99 39 84.06 39.65 83.2 40.39C82.77 40.76 82.3 41.14 81.79 41.42C81.28 41.7 80.71 41.92 80.12 41.92C80.1 41.92 80.08 41.9 80.08 41.88C80.08 41.86 80.1 41.84 80.12 41.84C80.68 41.78 81.19 41.51 81.66 41.21C82.13 40.9 82.52 40.51 82.92 40.1C83.33 39.69 83.77 39.29 84.28 38.97C84.53 38.81 84.82 38.67 85.12 38.58C85.42 38.49 85.73 38.44 86.04 38.43C86.65 38.4 87.25 38.46 87.84 38.56C88.13 38.61 88.42 38.68 88.69 38.74C88.96 38.81 89.22 38.87 89.48 38.91C90 39.01 90.53 39.03 91.06 38.95C91.59 38.88 92.13 38.71 92.67 38.51C92.69 38.51 92.72 38.51 92.72 38.53C92.72 38.55 92.72 38.56 92.71 38.58L92.73 38.57Z" fill="#1D1E1C"/>
<path id="Vector_27" d="M90.21 39.45C89.56 39.39 88.96 39.15 88.42 38.74C88.16 38.53 87.91 38.26 87.77 37.87C87.67 37.55 87.61 37.23 87.56 36.92C87.51 36.61 87.47 36.35 87.37 36.09C87.28 35.83 87.14 35.6 86.95 35.41C86.57 35.02 85.97 34.86 85.37 34.77C85.35 34.77 85.33 34.75 85.33 34.72C85.33 34.7 85.35 34.69 85.37 34.68C85.97 34.64 86.64 34.7 87.21 35.09C87.77 35.5 88.04 36.19 88.2 36.76C88.29 37.04 88.4 37.31 88.53 37.55C88.63 37.73 88.8 37.92 88.98 38.12C89.35 38.52 89.8 38.91 90.24 39.37C90.24 39.37 90.26 39.42 90.24 39.43C90.24 39.43 90.22 39.44 90.21 39.44V39.45Z" fill="#1D1E1C"/>
<path id="Vector_28" d="M83.56 39.86C83.29 40.07 82.94 40.21 82.57 40.21C82.2 40.22 81.83 40.11 81.51 39.93C80.89 39.59 80.44 39.09 79.91 38.75C79.41 38.4 78.75 38.39 78.09 38.37C77.43 38.35 76.71 38.21 76.18 37.79C76.17 37.79 76.16 37.76 76.18 37.75C76.18 37.74 76.2 37.74 76.22 37.75C76.79 38.09 77.45 38.15 78.1 38.1C78.43 38.09 78.76 38.06 79.11 38.08C79.46 38.1 79.82 38.19 80.14 38.37C80.75 38.71 81.29 39.1 81.8 39.46C82.29 39.81 82.88 39.96 83.54 39.81C83.56 39.81 83.57 39.81 83.57 39.83C83.57 39.84 83.57 39.85 83.56 39.86Z" fill="#1D1E1C"/>
<path id="Vector_29" d="M87.28 40.41C86.62 40.99 85.99 41.6 85.38 42.22C84.78 42.84 84.18 43.48 83.63 44.15C83.07 44.81 82.54 45.49 82.03 46.2C81.51 46.9 81.05 47.64 80.56 48.37C80.85 47.54 81.21 46.72 81.67 45.96C82.11 45.19 82.64 44.47 83.2 43.79C83.77 43.11 84.4 42.48 85.08 41.9C85.76 41.33 86.48 40.8 87.27 40.4L87.28 40.41Z" fill="#1D1E1C"/>
<path id="Vector_30" d="M94.55 33.16C94.42 33.64 94.22 34.1 94 34.54C93.78 34.99 93.52 35.41 93.24 35.82C92.96 36.23 92.63 36.61 92.28 36.97C91.93 37.33 91.54 37.64 91.12 37.91C91.47 37.56 91.81 37.2 92.12 36.83C92.43 36.45 92.73 36.07 93.01 35.67C93.29 35.27 93.55 34.86 93.81 34.44C94.07 34.02 94.31 33.59 94.55 33.16Z" fill="#1D1E1C"/>
<path id="Vector_31" d="M99.8 26.15C99.54 26.59 99.23 26.99 98.9 27.38C98.58 27.77 98.22 28.14 97.86 28.49C97.12 29.19 96.31 29.82 95.42 30.3C96.19 29.63 96.94 28.98 97.67 28.29C98.4 27.6 99.1 26.89 99.8 26.15Z" fill="#1D1E1C"/>
<path id="Vector_32" d="M81.67 48.74C81.64 48.98 81.54 49.21 81.42 49.42C81.3 49.64 81.14 49.83 80.96 50C80.78 50.17 80.57 50.31 80.35 50.41C80.13 50.52 79.88 50.57 79.64 50.6C80.06 50.36 80.44 50.11 80.77 49.8C80.94 49.65 81.09 49.48 81.24 49.3C81.39 49.12 81.53 48.94 81.67 48.74Z" fill="#1D1D1B"/>
<path id="Vector_33" d="M84.01 24.6C83.83 25.54 83.47 26.46 82.93 27.28C82.39 28.11 81.59 28.74 80.76 29.24C79.93 29.73 79.09 30.15 78.37 30.74C77.64 31.31 77.07 32.09 76.75 32.98C76.75 32.99 76.73 33 76.71 33C76.7 33 76.69 32.98 76.69 32.97C76.94 32.05 77.46 31.19 78.18 30.53C78.9 29.87 79.74 29.39 80.51 28.87C81.28 28.35 81.91 27.68 82.47 26.96C83.04 26.24 83.48 25.42 83.95 24.58C83.95 24.57 83.97 24.56 83.99 24.57C84 24.57 84.01 24.59 84 24.6H84.01Z" fill="#1D1E1C"/>
<path id="Vector_34" d="M81.13 28.89C81.2 29.37 81.2 29.79 81.17 30.23C81.14 30.67 81.08 31.1 80.98 31.52C80.88 31.94 80.74 32.35 80.56 32.74C80.39 33.13 80.15 33.49 79.9 33.83C80.09 33.45 80.26 33.07 80.36 32.67C80.47 32.27 80.54 31.86 80.57 31.46C80.6 31.05 80.6 30.64 80.55 30.24C80.51 29.84 80.43 29.43 80.32 29.08L81.12 28.88L81.13 28.89Z" fill="#1D1E1C"/>
<path id="Vector_35" d="M84.44 26.83C84.32 27.44 84.02 28 83.64 28.5C83.45 28.75 83.22 28.97 82.97 29.16C82.73 29.36 82.45 29.51 82.17 29.65L82.22 29.52C82.3 29.8 82.3 30.06 82.29 30.33C82.27 30.59 82.23 30.85 82.16 31.11C82.1 31.36 82.01 31.61 81.91 31.85C81.81 32.09 81.7 32.32 81.58 32.55H81.56C81.67 32.3 81.76 32.06 81.85 31.82C81.93 31.58 82 31.33 82.05 31.08C82.1 30.83 82.13 30.58 82.13 30.33C82.13 30.08 82.11 29.82 82.04 29.6L82.01 29.52L82.09 29.48C82.35 29.33 82.6 29.17 82.82 28.97C83.04 28.77 83.25 28.56 83.44 28.33C83.83 27.88 84.15 27.37 84.43 26.83H84.46H84.44Z" fill="#1D1E1C"/>
<path id="Vector_36" d="M74.61 26.03C75 26.1 75.39 26.13 75.78 26.12C76.16 26.11 76.55 26.1 76.93 26.05C77.31 26.01 77.7 25.94 78.09 25.86C78.28 25.82 78.47 25.76 78.67 25.71L79.24 25.52L79.26 25.57C78.91 25.78 78.55 25.96 78.18 26.12C77.8 26.27 77.41 26.42 77 26.48C76.59 26.55 76.17 26.59 75.76 26.52C75.35 26.45 74.93 26.34 74.6 26.08L74.63 26.03H74.61Z" fill="#1D1E1C"/>
<path id="Vector_37" d="M74.2 27.51C74.55 27.51 74.88 27.51 75.21 27.51L76.2 27.49C76.53 27.49 76.86 27.47 77.19 27.44C77.52 27.41 77.84 27.32 78.17 27.22L78.19 27.27C77.9 27.45 77.58 27.6 77.25 27.71C76.92 27.82 76.57 27.91 76.22 27.94C75.87 27.97 75.52 27.95 75.18 27.89C74.84 27.82 74.5 27.74 74.18 27.58V27.53L74.2 27.51Z" fill="#1D1E1C"/>
<path id="Vector_38" d="M73.84 28.9C74.12 28.85 74.38 28.84 74.65 28.82C74.91 28.8 75.18 28.82 75.44 28.82C75.96 28.83 76.49 28.88 77 28.73L77.02 28.78C76.79 28.94 76.53 29.03 76.26 29.11C75.99 29.19 75.72 29.25 75.44 29.26C75.16 29.27 74.89 29.27 74.62 29.21C74.35 29.15 74.08 29.09 73.83 28.96V28.91L73.84 28.9Z" fill="#1D1E1C"/>
<path id="Vector_39" d="M99.51 40.54C100.15 40.8 100.83 40.93 101.5 41.05C101.84 41.11 102.17 41.17 102.51 41.22L103.53 41.38V41.41C102.84 41.47 102.13 41.42 101.45 41.28C100.77 41.13 100.11 40.9 99.49 40.57V40.55L99.51 40.54Z" fill="#1D1E1C"/>
<path id="Vector_40" d="M99.07 41.52C99.73 41.77 100.41 41.95 101.09 42.11C101.43 42.18 101.77 42.26 102.11 42.31C102.45 42.37 102.8 42.4 103.15 42.39V42.42C102.81 42.52 102.45 42.52 102.09 42.51C101.73 42.49 101.38 42.42 101.04 42.33C100.35 42.14 99.7 41.86 99.07 41.55V41.52Z" fill="#1D1E1C"/>
<path id="Vector_41" d="M98.83 42.34C99.43 42.61 100.06 42.82 100.69 43C101 43.09 101.32 43.18 101.64 43.24C101.96 43.31 102.28 43.37 102.61 43.39V43.42C102.28 43.5 101.94 43.48 101.61 43.45C101.28 43.41 100.95 43.32 100.63 43.21C100 42.99 99.4 42.69 98.82 42.36V42.34H98.83Z" fill="#1D1E1C"/>
<path id="Vector_42" d="M108.67 23.94C107.98 24.13 107.28 24.28 106.58 24.45C105.88 24.61 105.17 24.73 104.47 24.86V24.82C105.14 24.59 105.81 24.33 106.5 24.13C107.19 23.93 107.87 23.72 108.57 23.54L108.68 23.94H108.67Z" fill="#1D1E1C"/>
<path id="Vector_43" d="M110.13 24.45C109.22 24.74 108.31 25 107.4 25.27C106.49 25.53 105.56 25.76 104.64 25.99V25.95C105.52 25.61 106.4 25.26 107.3 24.95C108.2 24.65 109.1 24.34 110 24.05L110.13 24.44V24.45Z" fill="#1D1E1C"/>
<path id="Vector_44" d="M111.89 25.17C110.93 25.42 109.95 25.64 108.98 25.88C108.01 26.11 107.03 26.29 106.05 26.49V26.45C106.99 26.15 107.94 25.83 108.9 25.56C109.86 25.3 110.82 25.02 111.78 24.77L111.88 25.17H111.89Z" fill="#1D1E1C"/>
<path id="Vector_45" d="M110.87 26.45C110.29 26.64 109.7 26.8 109.12 26.98C108.53 27.15 107.93 27.27 107.34 27.41V27.37C107.89 27.13 108.45 26.87 109.02 26.66C109.59 26.46 110.16 26.24 110.74 26.05L110.87 26.44V26.45Z" fill="#1D1E1C"/>
<path id="Vector_46" d="M111.88 27.43C111.22 27.64 110.54 27.82 109.88 28.02C109.21 28.21 108.53 28.35 107.85 28.51V28.47C108.48 28.21 109.13 27.93 109.78 27.7C110.44 27.48 111.09 27.24 111.76 27.03L111.89 27.42L111.88 27.43Z" fill="#1D1E1C"/>
<path id="Vector_47" d="M109.54 35.8C108.75 35.36 108.05 34.79 107.42 34.14C107.12 33.81 106.85 33.44 106.62 33.06C106.4 32.67 106.24 32.25 106.13 31.82H106.16C106.44 32.66 106.96 33.38 107.58 33.99C107.89 34.3 108.22 34.58 108.57 34.85C108.92 35.11 109.29 35.35 109.66 35.56L109.53 35.8H109.54Z" fill="#1D1D1B"/>
<path id="Vector_48" d="M109.16 37.01C108.49 36.53 107.85 36 107.23 35.44C106.93 35.16 106.64 34.86 106.36 34.55C106.09 34.23 105.83 33.91 105.64 33.54H105.66C105.88 33.87 106.16 34.17 106.46 34.46C106.75 34.75 107.06 35.02 107.37 35.28C107.99 35.82 108.65 36.31 109.31 36.79L109.15 37.02L109.16 37.01Z" fill="#1D1D1B"/>
<path id="Vector_49" d="M108.66 38.01C107.89 37.64 107.2 37.16 106.56 36.61C106.25 36.33 105.96 36.02 105.69 35.7C105.42 35.38 105.19 35.02 104.98 34.67H105C105.25 34.99 105.5 35.32 105.79 35.61C106.07 35.91 106.38 36.19 106.7 36.44C107.33 36.97 108.03 37.41 108.76 37.76L108.65 38.01H108.66Z" fill="#1D1D1B"/>
<path id="Vector_50" d="M107.99 38.86C107.36 38.51 106.77 38.11 106.19 37.67C105.91 37.44 105.64 37.21 105.39 36.95C105.15 36.69 104.91 36.4 104.8 36.05H104.83C104.97 36.37 105.22 36.62 105.49 36.85C105.75 37.08 106.04 37.29 106.33 37.49C106.9 37.9 107.52 38.27 108.13 38.61L108 38.85L107.99 38.86Z" fill="#1D1D1B"/>
<path id="Vector_51" d="M106.64 39.06C106.39 39.02 106.15 38.94 105.91 38.84C105.68 38.74 105.47 38.58 105.27 38.42C104.87 38.11 104.5 37.73 104.3 37.26H104.32C104.58 37.67 104.97 37.98 105.39 38.23C105.6 38.36 105.82 38.45 106.03 38.58C106.23 38.72 106.45 38.84 106.64 39.02V39.04V39.06Z" fill="#1D1D1B"/>
<path id="Vector_52" d="M76.29 24.5C76.17 24.37 76.22 24.27 76.24 24.17L76.32 23.87C76.38 23.67 76.44 23.47 76.5 23.27C76.63 22.88 76.78 22.49 76.94 22.11C77.27 21.35 77.63 20.61 78.04 19.89C78.45 19.18 78.89 18.47 79.37 17.8C79.85 17.13 80.37 16.49 80.91 15.87L80.93 15.89C80.42 16.54 79.92 17.19 79.48 17.88C79.02 18.56 78.61 19.27 78.23 19.99C77.85 20.71 77.51 21.46 77.21 22.22C77.05 22.6 76.92 22.98 76.78 23.37C76.71 23.56 76.65 23.76 76.59 23.95L76.5 24.24C76.47 24.34 76.47 24.44 76.3 24.51H76.27L76.29 24.5Z" fill="#1D1E1C"/>
<path id="Vector_53" d="M77.72 24.24C77.85 23.63 78.04 23.05 78.25 22.47C78.47 21.9 78.71 21.33 78.99 20.79C79.28 20.25 79.59 19.72 79.94 19.22C80.28 18.71 80.67 18.24 81.06 17.77L81.08 17.79C80.34 18.76 79.71 19.8 79.19 20.89C78.92 21.43 78.69 21.99 78.48 22.56C78.28 23.13 78.1 23.71 77.99 24.29L77.72 24.24Z" fill="#1D1E1C"/>
<path id="Vector_54" d="M79.09 23.79C79.35 22.97 79.69 22.2 80.07 21.45C80.47 20.7 80.94 19.99 81.47 19.34L81.49 19.36C81.02 20.06 80.61 20.79 80.26 21.55C79.9 22.3 79.59 23.08 79.34 23.87L79.07 23.79H79.09Z" fill="#1D1E1C"/>
<path id="Vector_55" d="M80.6 23.21C80.63 22.86 80.75 22.55 80.91 22.26C81.07 21.97 81.23 21.68 81.4 21.4C81.57 21.12 81.77 20.85 81.97 20.59C82.17 20.33 82.4 20.08 82.65 19.87C82.45 20.14 82.28 20.41 82.1 20.69C81.92 20.96 81.78 21.26 81.61 21.54C81.45 21.82 81.3 22.11 81.15 22.4C81 22.69 80.84 22.97 80.6 23.22V23.21Z" fill="#1D1E1C"/>
<path id="Vector_56" d="M81.58 23.74C81.92 23 82.34 22.31 82.8 21.64C83.27 20.98 83.79 20.36 84.36 19.8L84.38 19.82C83.87 20.44 83.4 21.08 82.98 21.76C82.55 22.43 82.16 23.13 81.83 23.85L81.58 23.74Z" fill="#1D1E1C"/>
<path id="Vector_57" d="M82.73 24.45C83 23.79 83.34 23.17 83.7 22.57C84.08 21.98 84.51 21.41 85.02 20.92L85.04 20.94C84.59 21.48 84.23 22.07 83.89 22.68C83.55 23.28 83.25 23.92 82.99 24.55L82.73 24.45Z" fill="#1D1E1C"/>
<path id="Vector_58" d="M83.97 24.89C83.9 24.81 83.9 24.76 83.92 24.72L83.98 24.61L84.09 24.39C84.16 24.24 84.25 24.1 84.33 23.96L84.84 23.12C85.19 22.57 85.55 22.02 85.95 21.5L85.97 21.52C85.64 22.09 85.34 22.66 85.03 23.24L84.58 24.11C84.5 24.25 84.43 24.4 84.35 24.54L84.23 24.75L84.17 24.86C84.17 24.86 84.11 24.92 84 24.91H83.98L83.97 24.89Z" fill="#1D1E1C"/>
<path id="Vector_59" d="M85.18 24.67C85.48 24.06 85.81 23.46 86.14 22.86C86.49 22.27 86.85 21.69 87.27 21.15L87.29 21.17C86.95 21.76 86.64 22.37 86.34 22.97C86.02 23.57 85.73 24.19 85.43 24.79L85.18 24.67Z" fill="#1D1E1C"/>
<path id="Vector_60" d="M86.54 24.22C86.67 23.97 86.82 23.73 86.96 23.48C87.11 23.24 87.27 23 87.44 22.77H87.46C87.36 23.05 87.26 23.32 87.15 23.58C87.03 23.84 86.91 24.1 86.78 24.35L86.54 24.22Z" fill="#1D1E1C"/>
<path id="Vector_61" d="M89.21 9.31C89.99 9.34 90.77 9.4 91.56 9.44C91.95 9.47 92.34 9.51 92.73 9.56C93.12 9.61 93.51 9.65 93.9 9.71V9.77C93.51 9.8 93.11 9.82 92.72 9.84C92.33 9.86 91.93 9.88 91.54 9.88C90.76 9.88 89.97 9.88 89.19 9.86L89.21 9.31Z" fill="#1D1E1C"/>
<path id="Vector_62" d="M97.87 14.68L100.94 16.4C101.96 16.99 102.97 17.58 103.98 18.18V18.2C102.92 17.67 101.88 17.13 100.84 16.59L97.74 14.92L97.87 14.68Z" fill="#1D1E1C"/>
<path id="Vector_63" d="M97.17 15.49L99.65 16.9C100.47 17.38 101.29 17.87 102.1 18.37V18.39C101.24 17.96 100.39 17.53 99.55 17.09L97.04 15.73L97.17 15.49Z" fill="#1D1E1C"/>
<path id="Vector_64" d="M96.58 16.22L98.57 17.33C99.22 17.71 99.88 18.1 100.52 18.5V18.52C99.82 18.19 99.14 17.86 98.46 17.52L96.45 16.46L96.58 16.22Z" fill="#1D1E1C"/>
<path id="Vector_65" d="M99.33 18.81C98.77 18.53 98.2 18.25 97.65 17.96C97.1 17.66 96.55 17.36 96 17.05L96.14 16.81C96.69 17.12 97.22 17.45 97.76 17.76C98.29 18.09 98.82 18.43 99.35 18.77V18.79L99.33 18.81Z" fill="#1D1E1C"/>
<path id="Vector_66" d="M96.04 17.88C96.27 17.94 96.48 18.05 96.68 18.15C96.88 18.26 97.06 18.41 97.24 18.55C97.61 18.82 97.98 19.09 98.34 19.38L98.32 19.4C97.91 19.19 97.51 18.96 97.12 18.74C96.92 18.63 96.71 18.53 96.53 18.39C96.35 18.24 96.17 18.1 96.02 17.91L96.04 17.89V17.88Z" fill="#1D1E1C"/>
<path id="Vector_67" d="M109.34 18.49C109.34 18.65 109.3 18.79 109.25 18.92C109.2 19.05 109.11 19.16 109.03 19.28C108.88 19.52 108.72 19.75 108.55 19.98H108.53C108.63 19.7 108.73 19.43 108.84 19.17C108.89 19.04 108.93 18.9 109.01 18.78C109.1 18.67 109.18 18.55 109.32 18.46H109.34V18.49Z" fill="#1D1E1C"/>
<path id="Vector_68" d="M110.52 18.94C110.32 19.33 110.09 19.71 109.88 20.09C109.65 20.47 109.42 20.84 109.18 21.21H109.16C109.33 20.79 109.51 20.39 109.69 19.99C109.89 19.6 110.07 19.2 110.28 18.81L110.52 18.94Z" fill="#1D1E1C"/>
<path id="Vector_69" d="M111.3 19.3C111.31 19.45 111.27 19.57 111.23 19.7C111.19 19.82 111.1 19.92 111.03 20.03C110.89 20.25 110.74 20.46 110.59 20.67H110.57C110.65 20.41 110.75 20.17 110.84 19.93C110.89 19.81 110.92 19.68 111 19.58C111.08 19.48 111.16 19.37 111.29 19.3H111.31H111.3Z" fill="#1D1E1C"/>
<path id="Vector_70" d="M112.93 20.04C112.76 20.36 112.57 20.68 112.4 21C112.21 21.31 112.01 21.62 111.8 21.92H111.78C111.91 21.57 112.06 21.23 112.2 20.89C112.36 20.56 112.51 20.23 112.69 19.91L112.93 20.04Z" fill="#1D1E1C"/>
<path id="Vector_71" d="M113.89 20.44C113.77 20.67 113.63 20.9 113.49 21.13C113.34 21.35 113.19 21.57 113.03 21.79H113.01C113.1 21.52 113.19 21.27 113.3 21.03C113.42 20.79 113.52 20.55 113.65 20.31L113.89 20.44Z" fill="#1D1E1C"/>
<path id="Vector_72" d="M114.65 20.89C114.54 21.1 114.41 21.31 114.29 21.52C114.16 21.72 114.02 21.92 113.87 22.11H113.85C113.93 21.87 114.01 21.64 114.1 21.41C114.2 21.19 114.3 20.97 114.41 20.76L114.65 20.89Z" fill="#1D1E1C"/>
<path id="Vector_73" d="M93.92 20.47C93.73 20.44 93.57 20.36 93.41 20.28C93.25 20.2 93.12 20.08 92.98 19.97C92.7 19.76 92.42 19.53 92.15 19.31L92.17 19.29C92.49 19.45 92.8 19.62 93.11 19.79C93.27 19.87 93.43 19.95 93.57 20.06C93.7 20.18 93.84 20.29 93.94 20.46L93.92 20.48V20.47Z" fill="#1D1E1C"/>
<path id="Vector_74" d="M94.32 19.5C94.14 19.35 93.99 19.2 93.83 19.04L93.37 18.56C93.08 18.23 92.79 17.9 92.52 17.56L92.54 17.54C92.87 17.83 93.2 18.12 93.53 18.41L94.01 18.86C94.17 19 94.33 19.16 94.49 19.29L94.32 19.51V19.5Z" fill="#1D1E1C"/>
<path id="Vector_75" d="M94.93 18.56C94.64 18.16 94.37 17.75 94.08 17.35C93.81 16.94 93.55 16.52 93.29 16.1L93.31 16.08C93.63 16.46 93.95 16.84 94.26 17.22C94.56 17.61 94.86 18 95.15 18.4L94.93 18.56Z" fill="#1D1E1C"/>
<path id="Vector_76" d="M94.47 15.05C94.68 15.36 94.88 15.67 95.08 15.98C95.26 16.3 95.45 16.62 95.63 16.94L95.39 17.07C95.21 16.74 95.06 16.41 94.89 16.08C94.74 15.74 94.59 15.4 94.45 15.06H94.47V15.05Z" fill="#1D1E1C"/>
<path id="Vector_77" d="M95.85 14.19C96.01 14.45 96.16 14.72 96.31 14.99C96.44 15.26 96.58 15.54 96.7 15.81L96.45 15.92C96.33 15.64 96.22 15.36 96.11 15.07C96.01 14.78 95.92 14.49 95.83 14.2H95.86L95.85 14.19Z" fill="#1D1E1C"/>
<path id="Vector_78" d="M96.78 13.31C96.92 13.58 97.06 13.86 97.18 14.14C97.29 14.43 97.42 14.71 97.52 15L97.26 15.09C97.16 14.8 97.07 14.51 96.97 14.22C96.89 13.92 96.81 13.62 96.75 13.32H96.78V13.31Z" fill="#1D1E1C"/>
<path id="Vector_79" d="M98.06 12.21C98.37 12.85 98.65 13.51 98.92 14.17L98.87 14.11C100.09 14.74 101.26 15.48 102.45 16.16L106 18.26V18.28L102.35 16.32C101.15 15.65 99.92 15.04 98.74 14.31L98.7 14.28V14.24C98.45 13.57 98.23 12.89 98.03 12.21H98.06Z" fill="#1D1E1C"/>
<path id="Vector_80" d="M99.29 11.56C99.39 11.9 99.49 12.25 99.57 12.59C99.64 12.94 99.72 13.28 99.79 13.64L99.52 13.69C99.46 13.34 99.41 12.99 99.36 12.64C99.32 12.29 99.29 11.93 99.27 11.57H99.3L99.29 11.56Z" fill="#1D1E1C"/>
<path id="Vector_81" d="M101.14 10.86C101.19 11.21 101.22 11.57 101.25 11.92C101.26 12.27 101.29 12.63 101.3 12.98H101.02C101.02 12.63 101.02 12.28 101.02 11.92C101.04 11.57 101.06 11.21 101.1 10.86H101.13H101.14Z" fill="#1D1E1C"/>
<path id="Vector_82" d="M102.77 10.4C102.76 10.77 102.74 11.14 102.72 11.5C102.68 11.86 102.65 12.23 102.6 12.59L102.33 12.55C102.38 12.19 102.45 11.83 102.51 11.47C102.58 11.11 102.67 10.75 102.76 10.39H102.79L102.77 10.4Z" fill="#1D1E1C"/>
<path id="Vector_83" d="M104.29 10.59C104.25 10.92 104.2 11.25 104.15 11.57C104.08 11.89 104.02 12.22 103.94 12.53L103.67 12.46C103.75 12.14 103.85 11.83 103.93 11.51C104.03 11.2 104.14 10.89 104.26 10.58H104.29V10.59Z" fill="#1D1E1C"/>
<path id="Vector_84" d="M105.71 11.09C105.64 11.4 105.57 11.7 105.49 12.01C105.39 12.31 105.31 12.61 105.2 12.91L104.94 12.82C105.04 12.52 105.17 12.24 105.28 11.94C105.41 11.65 105.54 11.37 105.68 11.09H105.71Z" fill="#1D1E1C"/>
<path id="Vector_85" d="M107.01 11.8C106.86 12.1 106.71 12.39 106.55 12.68C106.38 12.96 106.21 13.25 106.03 13.53L105.8 13.38C105.98 13.1 106.18 12.84 106.37 12.56C106.57 12.3 106.78 12.04 107 11.78L107.02 11.8H107.01Z" fill="#1D1E1C"/>
<path id="Vector_86" d="M108.09 12.74C107.84 13.01 107.59 13.28 107.33 13.55C107.2 13.68 107.09 13.83 106.94 13.94C106.79 14.04 106.64 14.15 106.45 14.22L106.43 14.2C106.51 14.02 106.64 13.88 106.76 13.74C106.89 13.6 107.04 13.5 107.19 13.39C107.48 13.16 107.78 12.94 108.08 12.73L108.1 12.75L108.09 12.74Z" fill="#1D1E1C"/>
<path id="Vector_87" d="M74.17 32.13C74.18 32.74 74.15 33.32 74.14 33.89C74.14 34.46 74.08 35.03 74.09 35.6C74.09 36.17 74.13 36.75 74.21 37.32C74.28 37.9 74.42 38.47 74.58 39.03C74.58 39.05 74.58 39.08 74.55 39.08C74.53 39.08 74.51 39.08 74.5 39.06C74.22 38.54 73.99 37.98 73.81 37.41C73.62 36.84 73.5 36.24 73.43 35.64C73.37 35.04 73.34 34.42 73.46 33.82C73.58 33.22 73.77 32.64 74.08 32.11C74.09 32.09 74.12 32.08 74.14 32.1C74.15 32.1 74.16 32.12 74.16 32.14L74.17 32.13Z" fill="#1D1D1B"/>
<path id="Vector_88" d="M74.8 40.5C75.37 41.5 75.85 42.58 76.12 43.72C76.25 44.29 76.36 44.87 76.36 45.46C76.36 46.05 76.33 46.63 76.2 47.2C76.2 47.22 76.18 47.22 76.17 47.22C76.16 47.22 76.15 47.21 76.15 47.2C76.07 46.62 76.02 46.05 75.94 45.49C75.86 44.93 75.8 44.37 75.7 43.81C75.6 43.25 75.48 42.7 75.33 42.15C75.18 41.6 74.99 41.06 74.77 40.52C74.77 40.51 74.77 40.49 74.78 40.48C74.79 40.48 74.81 40.48 74.81 40.49L74.8 40.5Z" fill="#1D1D1B"/>
<path id="Vector_89" d="M98.32 46.62C97.91 47.18 97.44 47.69 96.91 48.14C96.64 48.36 96.36 48.57 96.05 48.75C95.74 48.92 95.42 49.07 95.1 49.21C94.46 49.48 93.79 49.65 93.16 49.86C92.53 50.07 91.89 50.31 91.41 50.78C91.39 50.8 91.37 50.8 91.35 50.78C91.34 50.77 91.33 50.74 91.35 50.73C91.75 50.15 92.4 49.8 93 49.48C93.62 49.17 94.24 48.89 94.83 48.61C95.43 48.33 95.97 47.98 96.53 47.63C97.09 47.28 97.65 46.89 98.27 46.56C98.29 46.55 98.32 46.56 98.33 46.58C98.33 46.59 98.33 46.61 98.33 46.63L98.32 46.62Z" fill="#1D1E1C"/>
<path id="Vector_90" d="M88.94 52.5C88.73 52.79 88.48 53.05 88.22 53.3C87.95 53.54 87.67 53.77 87.35 53.95C87.03 54.13 86.7 54.29 86.34 54.37C85.98 54.45 85.61 54.48 85.25 54.43C85.23 54.43 85.22 54.41 85.23 54.4C85.23 54.39 85.23 54.38 85.25 54.38C85.58 54.23 85.9 54.11 86.22 53.97C86.53 53.83 86.85 53.72 87.16 53.57C87.47 53.42 87.78 53.27 88.07 53.09C88.37 52.91 88.65 52.7 88.92 52.47C88.93 52.47 88.95 52.47 88.96 52.47C88.96 52.47 88.96 52.49 88.96 52.5H88.94Z" fill="#1D1E1C"/>
<path id="Vector_91" d="M109.99 33.86C109.6 33.86 109.25 33.7 108.92 33.51C108.75 33.41 108.58 33.25 108.47 33.08C108.35 32.91 108.27 32.73 108.19 32.56C108.05 32.22 107.91 31.9 107.79 31.56L107.61 31.05C107.55 30.88 107.5 30.69 107.47 30.65C107.35 30.45 107.11 30.2 106.91 30.03C106.69 29.86 106.47 29.74 106.25 29.71C106.03 29.67 105.8 29.69 105.57 29.79C105.34 29.89 105.1 30.07 104.92 30.28L104.62 30.62L104.27 30.41C104.05 30.28 103.7 30.16 103.4 30.14C103.09 30.11 102.78 30.17 102.5 30.3C102.22 30.44 101.96 30.65 101.74 30.91C101.63 31.04 101.53 31.19 101.43 31.33L101.17 31.8L101.09 31.95L100.96 31.99C100.45 32.14 99.92 32.37 99.45 32.65C98.97 32.94 98.54 33.29 98.2 33.72C97.86 34.15 97.6 34.67 97.54 35.22C97.47 35.77 97.6 36.34 97.79 36.89C97.79 36.92 97.79 36.95 97.76 36.96C97.73 36.96 97.7 36.96 97.69 36.93C97.45 36.4 97.24 35.82 97.27 35.2C97.29 34.58 97.53 33.99 97.86 33.48C98.2 32.96 98.65 32.53 99.15 32.18C99.65 31.83 100.18 31.55 100.78 31.33L100.56 31.52L100.82 30.97C100.93 30.79 101.03 30.61 101.16 30.44C101.42 30.1 101.74 29.79 102.13 29.56C102.53 29.34 102.99 29.22 103.45 29.22C103.92 29.22 104.33 29.31 104.79 29.53L104.14 29.66C104.39 29.32 104.7 29.02 105.1 28.81C105.5 28.59 106 28.5 106.47 28.58C106.95 28.66 107.36 28.9 107.67 29.19C107.83 29.33 107.97 29.49 108.09 29.65C108.21 29.82 108.32 29.97 108.42 30.2C108.54 30.48 108.54 30.64 108.58 30.81L108.68 31.32L108.89 32.34C108.97 32.68 109.02 32.94 109.24 33.17C109.46 33.4 109.73 33.64 110.03 33.76C110.03 33.76 110.07 33.81 110.06 33.84C110.06 33.86 110.03 33.87 110.01 33.87L109.99 33.86Z" fill="#1D1E1C"/>
<path id="Vector_92" d="M95.49 17.15C96.32 17.65 97.02 18.37 97.52 19.25C97.77 19.69 97.95 20.19 98.04 20.72C98.12 21.25 98.08 21.82 97.9 22.35C97.52 23.39 96.73 24.16 95.85 24.68C94.96 25.2 93.96 25.43 92.96 25.42L93.16 25.34C92.78 25.62 92.4 25.8 91.97 25.9C91.54 26 91.09 26.01 90.68 25.9C89.83 25.69 89.18 25.1 88.71 24.46C88.69 24.44 88.7 24.4 88.72 24.38C88.74 24.36 88.77 24.37 88.79 24.38C89.34 24.95 90.01 25.41 90.75 25.51C91.12 25.56 91.49 25.51 91.83 25.39C92.17 25.27 92.51 25.08 92.75 24.86L92.83 24.79H92.96C93.84 24.72 94.7 24.43 95.39 23.93C95.74 23.68 96.04 23.39 96.28 23.05C96.52 22.71 96.7 22.34 96.82 21.98C97.04 21.25 97 20.43 96.71 19.61C96.42 18.79 95.96 17.99 95.43 17.21C95.43 17.21 95.42 17.15 95.44 17.13C95.46 17.12 95.48 17.12 95.5 17.13L95.49 17.15Z" fill="#1D1E1C"/>
<path id="Vector_93" d="M119.31 26.94C119.2 26.94 119.1 26.88 119.06 26.77C118.98 26.59 118.9 26.36 118.82 26.11C118.47 25.11 117.95 23.59 116.45 22.37C115.18 21.34 113.67 20.59 112.07 20.22C111.92 20.18 111.83 20.04 111.87 19.89C111.9 19.74 112.05 19.65 112.2 19.68C113.88 20.08 115.47 20.86 116.8 21.94C118.42 23.26 118.97 24.86 119.34 25.92C119.42 26.16 119.49 26.37 119.57 26.54C119.63 26.68 119.57 26.84 119.42 26.9C119.38 26.92 119.35 26.92 119.31 26.92V26.94Z" fill="#1D1E1C"/>
<path id="Vector_94" d="M100.13 8.04998C99.64 8.56998 99.11 8.92998 98.57 9.26998C98.04 9.61998 97.41 9.77998 96.84 10.07C96.27 10.35 95.71 10.65 95.16 10.98C94.61 11.31 94.1 11.68 93.62 12.12C93.6 12.14 93.56 12.14 93.54 12.12C93.52 12.1 93.52 12.07 93.54 12.05C93.88 11.48 94.35 11 94.83 10.53C95.32 10.08 95.84 9.66998 96.39 9.28998C96.93 8.90998 97.46 8.47998 98.09 8.25998C98.72 8.03998 99.38 7.87998 100.09 7.92998C100.12 7.92998 100.15 7.95998 100.15 7.99998C100.15 8.00998 100.15 8.02998 100.13 8.03998V8.04998Z" fill="#1D1D1B"/>
<path id="Vector_95" d="M93.58 25.19L92.48 25.15C92.53 23.66 92.74 21.42 93.91 19.2C94.85 17.41 96.29 15.15 99.07 13.49C100.68 12.53 103.1 11.39 105.47 12.64C107.28 13.59 108.66 15.86 107.74 17.6L106.76 17.09C107.33 16 106.24 14.3 104.95 13.63C103.5 12.87 101.86 13.12 99.63 14.45C97.08 15.97 95.75 18.07 94.88 19.72C93.82 21.74 93.63 23.81 93.57 25.19H93.58Z" fill="#1D1D1B"/>
<path id="Vector_96" d="M116.22 28.99C116.01 28.44 116.73 27.44 117.71 26.9C118.79 26.3 119.84 26.62 120.02 26.68" stroke="#1D1D1B" stroke-width="0.91" stroke-miterlimit="10"/>
<path id="Vector_97" d="M120.73 39.83C120.56 41.37 119.2 42.48 117.68 42.32C116.16 42.16 115.07 40.78 115.23 39.24C115.39 37.7 118.55 33.09 118.55 33.09C118.55 33.09 120.89 38.29 120.73 39.83Z" fill="#1D1E1C"/>
<path id="Vector_98" d="M106.82 39.66C106.89 39.69 106.83 39.64 106.74 39.63C106.65 39.63 106.53 39.63 106.41 39.63C106.16 39.65 105.9 39.69 105.63 39.74C105.09 39.83 104.54 39.93 103.98 39.99C103.42 40.05 102.85 40.07 102.29 39.99C101.73 39.91 101.18 39.72 100.74 39.4C101.23 39.65 101.78 39.73 102.31 39.72C102.84 39.7 103.37 39.6 103.89 39.45C104.41 39.31 104.91 39.12 105.44 38.94C105.7 38.85 105.97 38.76 106.26 38.68C106.41 38.64 106.56 38.61 106.74 38.59C106.92 38.59 107.15 38.56 107.45 38.74C107.7 38.91 107.77 39.25 107.6 39.51C107.43 39.76 107.09 39.83 106.83 39.66H106.82Z" fill="#1D1D1B"/>
<path id="Vector_99" d="M74.92 23.96C74.9 23.82 74.84 23.82 74.86 23.83C74.87 23.84 74.9 23.87 74.94 23.89C75.02 23.93 75.13 23.97 75.24 24C75.46 24.06 75.71 24.11 75.96 24.14C76.46 24.2 76.97 24.21 77.47 24.17C77.98 24.13 78.48 24.04 78.97 23.88C79.45 23.71 79.92 23.46 80.27 23.07C79.97 23.51 79.53 23.83 79.05 24.07C78.57 24.31 78.06 24.47 77.53 24.58C77.01 24.69 76.47 24.75 75.92 24.76C75.65 24.76 75.37 24.76 75.09 24.71C74.95 24.69 74.8 24.66 74.64 24.61C74.56 24.58 74.48 24.55 74.38 24.48C74.29 24.41 74.14 24.31 74.09 24.04C74.07 23.81 74.23 23.61 74.46 23.59C74.69 23.57 74.89 23.73 74.91 23.96H74.92Z" fill="#1D1E1C"/>
<path id="Vector_100" d="M102.16 24.53C102.58 24.22 103.02 23.93 103.49 23.67C103.96 23.43 104.46 23.22 104.98 23.07C106.02 22.78 107.18 22.75 108.23 22.99C109.29 23.21 110.31 23.51 111.29 23.91C111.78 24.11 112.28 24.31 112.76 24.55C113 24.67 113.24 24.8 113.47 24.93C113.71 25.08 113.93 25.2 114.19 25.44L113.63 26.05C113.31 25.82 112.82 25.57 112.37 25.36C111.91 25.15 111.44 24.94 110.96 24.75C110 24.38 109.04 24.01 108.06 23.77C107.08 23.52 106.1 23.44 105.1 23.6C104.1 23.73 103.13 24.12 102.16 24.53Z" fill="#1D1E1C"/>
<path id="Vector_101" d="M88.36 20.73C88.29 20.27 88.2 19.8 88.1 19.33C87.99 18.87 87.88 18.4 87.7 17.96C88 18.34 88.25 18.76 88.49 19.18C88.73 19.61 88.95 20.04 89.16 20.49C89.26 20.7 89.16 20.95 88.96 21.05C88.75 21.15 88.5 21.05 88.4 20.85C88.38 20.81 88.37 20.78 88.37 20.74L88.36 20.73Z" fill="#1D1E1C"/>
<path id="Vector_102" d="M89.46 17.85C89.3 17.42 89.12 16.98 88.91 16.56C88.7 16.14 88.47 15.73 88.14 15.38C88.56 15.62 88.92 15.97 89.25 16.32C89.59 16.68 89.89 17.05 90.19 17.46C90.33 17.65 90.29 17.91 90.1 18.05C89.91 18.19 89.65 18.15 89.51 17.96C89.49 17.93 89.47 17.89 89.45 17.86L89.46 17.85Z" fill="#1D1E1C"/>
<path id="Vector_103" d="M90.07 14.97C89.82 14.59 89.54 14.21 89.24 13.85C88.94 13.49 88.62 13.14 88.22 12.88C88.68 13.02 89.11 13.27 89.52 13.54C89.93 13.81 90.31 14.1 90.7 14.42C90.88 14.57 90.9 14.83 90.75 15.01C90.6 15.19 90.34 15.21 90.16 15.06C90.13 15.03 90.1 15 90.08 14.97H90.07Z" fill="#1D1E1C"/>
<path id="Vector_104" opacity="0.36" d="M116.01 29.05C116.01 29.05 117 25.63 120.18 26.98C120.18 26.98 118.62 29.94 116.01 29.05Z" fill="#1D1E1C" stroke="#1D1D1B" stroke-width="0.28" stroke-miterlimit="10"/>
<g id="Vector_105">
<path d="M92.78 2.33C92.79 2.19 92.81 1.96 92.93 1.72C93.05 1.48 93.23 1.34 93.37 1.23C93.65 1.03 93.9 0.899996 94.18 0.769996C94.73 0.509996 95.32 0.339996 95.92 0.259996C96.52 0.179996 97.14 0.199996 97.73 0.299996C97.88 0.329996 98.03 0.359996 98.17 0.399996L98.29 0.429996C98.35 0.449996 98.4 0.469996 98.46 0.489996C98.57 0.539996 98.67 0.599996 98.76 0.679996C98.94 0.839996 99.08 1.04 99.15 1.27C99.23 1.49 99.23 1.77 99.19 1.94C98.82 4.04 98.81 6.21 99.18 8.31L98.39 7.91C100.06 7.08 101.91 6.6 103.78 6.52L103.34 6.77C103.47 6.58 103.56 6.36 103.62 6.13C103.65 6.02 103.67 5.9 103.68 5.79C103.68 5.73 103.68 5.67 103.68 5.62C103.68 5.54 103.67 5.56 103.68 5.34C103.71 4.99 103.93 4.69 104.23 4.55C104.31 4.51 104.38 4.49 104.47 4.47L104.6 4.45L104.82 4.42L105.26 4.35L105.48 4.32L105.6 4.3C105.7 4.28 105.82 4.3 105.93 4.32C106.15 4.38 106.33 4.52 106.44 4.71C106.49 4.8 106.53 4.91 106.55 5.01C106.55 5.06 106.55 5.12 106.55 5.17V5.23C106.54 5.35 106.55 5.47 106.55 5.59C106.57 5.83 106.63 6.07 106.71 6.29C106.89 6.74 107.2 7.13 107.6 7.41L107.12 7.34C107.64 7.18 108.13 6.92 108.57 6.6C108.68 6.52 108.78 6.43 108.89 6.34L109.04 6.2C109.15 6.1 109.28 6.02 109.41 5.96C109.69 5.85 110 5.86 110.27 5.98C110.34 6.01 110.4 6.05 110.46 6.09L110.55 6.15L110.74 6.28L111.11 6.54C111.11 6.54 111.22 6.62 111.27 6.66C111.33 6.72 111.38 6.78 111.42 6.84C111.51 6.97 111.56 7.12 111.59 7.28C111.61 7.44 111.59 7.6 111.55 7.74L111.47 7.97C111.42 8.1 111.38 8.24 111.34 8.38C111.18 8.93 111.08 9.49 111.04 10.06L110.58 9.48C111.01 9.55 111.46 9.51 111.86 9.36L112.01 9.3L112.11 9.25C112.18 9.22 112.25 9.2 112.33 9.19C112.63 9.14 112.95 9.24 113.17 9.45C113.23 9.5 113.27 9.56 113.31 9.63C113.33 9.66 113.35 9.69 113.37 9.73L113.39 9.77L113.48 9.95L113.66 10.31L113.75 10.49C113.75 10.49 113.86 10.71 113.87 10.85C113.91 11.16 113.8 11.47 113.59 11.68C113.54 11.73 113.46 11.79 113.43 11.81L113.36 11.86L113.22 11.96C113.13 12.03 113.04 12.11 112.96 12.19C112.8 12.35 112.65 12.53 112.52 12.72C112.46 12.81 112.4 12.91 112.34 13.01C112.29 13.1 112.26 13.18 112.23 13.27C112.18 13.45 112.17 13.62 112.2 13.81C112.25 14.08 112.29 14.35 112.32 14.62C112.39 15.17 112.44 15.69 112.46 16.27C112.46 17.4 112.3 18.47 112.22 19.5L111.99 19.01C112.14 19.11 112.41 19.21 112.68 19.27C112.96 19.34 113.26 19.39 113.56 19.43C114.17 19.51 114.8 19.56 115.43 19.61C116.08 19.66 116.66 19.71 117.25 19.66C117.84 19.62 118.43 19.5 119 19.32L119.11 19.29H119.21C119.65 19.34 120.01 19.47 120.37 19.68C120.72 19.89 121.03 20.2 121.24 20.56C121.45 20.92 121.57 21.33 121.59 21.74C121.59 22.16 121.54 22.53 121.38 22.94L121.31 23.1L121.14 23.2C120.57 23.52 120.13 24.08 120.01 24.7C119.95 25.01 119.96 25.34 120.04 25.65C120.08 25.81 120.14 25.96 120.21 26.11C120.25 26.18 120.29 26.25 120.33 26.32L120.4 26.42C120.44 26.48 120.49 26.56 120.53 26.64C120.68 26.96 120.69 27.34 120.55 27.66C120.48 27.82 120.38 27.97 120.26 28.09C120.16 28.19 120.09 28.25 120 28.32C119.65 28.61 119.27 28.85 118.88 29.04C118.49 29.24 118.08 29.39 117.67 29.52C117.24 29.64 116.85 29.74 116.32 29.76H116.03L115.86 29.5C115.41 28.79 114.97 28.08 114.47 27.46C113.98 26.84 113.41 26.32 112.76 26.11L112.89 26.14C112.32 26.1 111.74 26.26 111.27 26.58C111.21 26.62 111.15 26.66 111.1 26.71L111.06 26.74L111.04 26.76L111.06 26.75L111.09 26.71C111.18 26.6 111.21 26.43 111.16 26.29C111.13 26.22 111.09 26.16 111.03 26.11C111 26.09 110.97 26.07 110.93 26.05C110.91 26.05 110.9 26.04 110.88 26.03L111.03 26.07C111.13 26.1 111.22 26.14 111.31 26.17C111.66 26.31 111.95 26.44 112.25 26.53C112.4 26.58 112.55 26.62 112.7 26.65C112.7 26.65 112.77 26.66 112.83 26.68C112.89 26.7 112.94 26.73 112.99 26.76C113.09 26.82 113.18 26.9 113.25 27C113.32 27.1 113.37 27.21 113.39 27.33C113.4 27.39 113.41 27.45 113.41 27.51C113.41 27.57 113.4 27.64 113.4 27.65C113.37 27.85 113.32 28.05 113.26 28.23L113.17 28.51C113.1 28.69 112.98 28.86 112.82 28.97L112.57 29.12L112.38 29.25C112.25 29.34 112.13 29.43 112.02 29.53C111.79 29.73 111.58 29.96 111.4 30.2C111.03 30.7 110.82 31.23 110.74 31.87C110.65 32.5 110.62 33.23 110.51 33.94C110.3 35.38 109.82 36.77 109.17 38.05V38.07L109.15 38.09C108.85 38.58 108.45 39.01 107.98 39.35C107.74 39.52 107.49 39.66 107.22 39.77C106.97 39.89 106.62 39.96 106.51 40.01C106.2 40.14 105.95 40.42 105.86 40.74C105.73 41.22 105.58 41.72 105.42 42.21C104.77 44.16 103.81 46.02 102.61 47.68V47.7L102.58 47.72C101.71 48.74 100.69 49.65 99.54 50.36C98.97 50.72 98.34 51.02 97.72 51.26C97.1 51.5 96.53 51.72 95.98 52C95.42 52.28 94.88 52.58 94.39 52.94C93.89 53.29 93.39 53.72 92.87 54.11C91.81 54.89 90.78 55.65 89.66 56.37C88.55 57.07 87.33 57.71 86 58.06C84.67 58.41 83.29 58.47 81.93 58.25C80.57 58.02 79.27 57.48 78.15 56.68C77.59 56.28 77.07 55.82 76.61 55.32C76.15 54.82 75.75 54.29 75.37 53.74C74.62 52.65 73.95 51.44 73.62 50.09C73.3 48.75 73.21 47.49 72.96 46.24C72.73 44.98 72.46 43.74 72.07 42.55C71.88 41.95 71.66 41.32 71.48 40.68C71.3 40.04 71.16 39.4 71.02 38.76C70.76 37.47 70.54 36.2 70.42 34.86C70.32 33.52 70.39 32.17 70.65 30.85C70.91 29.53 71.37 28.25 71.95 27.06C72.53 25.87 73.23 24.73 74.04 23.67V23.65L73.95 23.89C74.26 22.05 74.85 20.25 75.72 18.6C76.58 16.94 77.72 15.42 79.05 14.1C79.71 13.44 80.43 12.83 81.2 12.29C81.39 12.16 81.56 12.04 81.74 11.9C81.93 11.76 82.12 11.63 82.32 11.5C82.71 11.24 83.11 10.99 83.52 10.76C85.15 9.84 86.95 9.2 88.79 8.89H88.81L88.42 9.17C89.05 7.98 90.1 7.02 91.34 6.49L91.12 6.66C92.07 5.41 92.64 3.88 92.76 2.31L92.78 2.33ZM93.88 2.41C93.75 4.19 93.11 5.93 92.02 7.35L91.93 7.47L91.8 7.53C90.79 7.96 89.93 8.74 89.42 9.71L89.3 9.94L89.03 9.99H89.01C87.3 10.35 85.64 10.96 84.13 11.83C83.75 12.05 83.38 12.28 83.02 12.53C82.84 12.65 82.66 12.78 82.49 12.91C82.31 13.05 82.11 13.19 81.94 13.32C81.23 13.83 80.57 14.4 79.94 15.01C78.69 16.23 77.62 17.64 76.8 19.18C75.98 20.72 75.39 22.39 75.05 24.11L75.02 24.24L74.94 24.34V24.36C74.17 25.36 73.5 26.43 72.96 27.56C72.41 28.69 71.99 29.86 71.75 31.08C71.51 32.3 71.44 33.55 71.53 34.79C71.64 36.02 71.86 37.31 72.11 38.55C72.24 39.17 72.38 39.79 72.55 40.4C72.72 41.01 72.92 41.6 73.13 42.23C73.54 43.49 73.82 44.78 74.05 46.06C74.3 47.34 74.41 48.66 74.69 49.84C74.97 51.01 75.58 52.1 76.28 53.13C76.64 53.64 77.02 54.14 77.43 54.59C77.84 55.04 78.29 55.44 78.79 55.79C79.77 56.49 80.92 56.97 82.11 57.17C83.29 57.37 84.56 57.31 85.72 57C86.89 56.69 88 56.12 89.07 55.44C90.13 54.76 91.18 53.99 92.2 53.24C92.71 52.86 93.19 52.45 93.75 52.05C94.31 51.65 94.9 51.32 95.49 51.02C96.09 50.72 96.73 50.48 97.31 50.25C97.9 50.02 98.43 49.76 98.96 49.43C100.01 48.79 100.94 47.96 101.74 47.01L101.71 47.04C102.86 45.46 103.76 43.72 104.37 41.86C104.53 41.39 104.66 40.94 104.8 40.45C104.98 39.8 105.47 39.26 106.08 39C106.44 38.86 106.59 38.85 106.79 38.75C106.98 38.67 107.17 38.56 107.34 38.44C107.69 38.2 107.98 37.88 108.21 37.51L108.19 37.55C108.8 36.36 109.23 35.09 109.42 33.77C109.53 33.11 109.55 32.45 109.65 31.7C109.7 31.33 109.79 30.94 109.94 30.57C110.09 30.2 110.29 29.86 110.51 29.54C110.74 29.22 111 28.94 111.3 28.68C111.45 28.55 111.6 28.43 111.76 28.32C111.84 28.26 111.92 28.21 112 28.16L112.19 28.04C112.19 28.04 112.15 28.08 112.15 28.09L112.22 27.87C112.27 27.72 112.3 27.58 112.32 27.44C112.32 27.41 112.32 27.44 112.32 27.45C112.32 27.47 112.32 27.49 112.32 27.5C112.32 27.53 112.34 27.57 112.36 27.59C112.38 27.62 112.4 27.64 112.43 27.66C112.44 27.66 112.46 27.68 112.48 27.68C112.5 27.68 112.52 27.68 112.48 27.68C112.29 27.64 112.11 27.59 111.93 27.53C111.57 27.42 111.22 27.26 110.92 27.15C110.85 27.12 110.77 27.09 110.71 27.07L110.61 27.04H110.59C110.59 27.04 110.54 27.02 110.51 27C110.46 26.98 110.4 26.95 110.36 26.91C110.26 26.83 110.19 26.73 110.15 26.62C110.06 26.4 110.11 26.14 110.25 25.96C110.27 25.94 110.29 25.92 110.31 25.9L110.35 25.87L110.38 25.85L110.44 25.8C110.52 25.74 110.6 25.68 110.68 25.62C111.35 25.16 112.19 24.92 113 24.98H113.07L113.13 25.01C113.61 25.17 114.04 25.43 114.4 25.73C114.77 26.03 115.08 26.37 115.36 26.72C115.92 27.42 116.37 28.15 116.82 28.86L116.36 28.6C116.64 28.6 117.04 28.51 117.38 28.41C117.73 28.3 118.08 28.17 118.41 28C118.74 27.83 119.05 27.64 119.32 27.42C119.38 27.37 119.46 27.3 119.51 27.25C119.53 27.23 119.54 27.21 119.55 27.18C119.57 27.13 119.57 27.08 119.55 27.03C119.55 27.02 119.55 27.01 119.53 26.99L119.43 26.84C119.37 26.74 119.31 26.63 119.25 26.53C119.14 26.32 119.06 26.09 119 25.86C118.88 25.39 118.86 24.9 118.96 24.42C119.15 23.45 119.8 22.63 120.63 22.17L120.39 22.43C120.47 22.24 120.52 21.95 120.51 21.72C120.5 21.48 120.44 21.25 120.32 21.05C120.2 20.85 120.04 20.68 119.83 20.56C119.63 20.44 119.37 20.35 119.16 20.33L119.37 20.31C118.72 20.51 118.05 20.64 117.38 20.69C116.7 20.75 116.01 20.69 115.39 20.64C114.75 20.59 114.11 20.54 113.46 20.45C113.13 20.41 112.8 20.35 112.46 20.27C112.12 20.18 111.77 20.09 111.39 19.83L111.13 19.66L111.16 19.34C111.26 18.25 111.41 17.21 111.4 16.21C111.39 15.73 111.33 15.19 111.27 14.69C111.24 14.43 111.2 14.18 111.15 13.92C111.09 13.59 111.1 13.22 111.2 12.88C111.25 12.71 111.32 12.54 111.4 12.4C111.47 12.27 111.55 12.14 111.64 12.01C111.81 11.76 112 11.53 112.22 11.31C112.33 11.2 112.44 11.1 112.56 11.01L112.74 10.87L112.83 10.8C112.81 10.82 112.79 10.86 112.8 10.9C112.84 11.01 112.75 10.81 112.7 10.71L112.52 10.35L112.43 10.17L112.41 10.13C112.41 10.13 112.41 10.13 112.41 10.14C112.41 10.14 112.42 10.15 112.43 10.16C112.46 10.19 112.5 10.2 112.54 10.19C112.54 10.19 112.56 10.19 112.57 10.19C112.58 10.19 112.57 10.19 112.54 10.2L112.49 10.22C112.42 10.25 112.35 10.28 112.27 10.31C111.68 10.53 111.03 10.59 110.42 10.49L109.92 10.41L109.96 9.91C110.01 9.27 110.12 8.63 110.3 8.01C110.34 7.86 110.39 7.7 110.44 7.55L110.51 7.35C110.51 7.35 110.51 7.35 110.51 7.36C110.51 7.36 110.51 7.37 110.51 7.38C110.51 7.38 110.54 7.41 110.49 7.38L110.12 7.12L109.93 6.99L109.84 6.93H109.82L109.64 7.1C109.52 7.21 109.39 7.32 109.25 7.42C108.72 7.82 108.11 8.13 107.47 8.33L107.21 8.41L106.99 8.25C106.42 7.85 105.97 7.28 105.71 6.63C105.58 6.3 105.5 5.96 105.47 5.61C105.46 5.44 105.45 5.26 105.47 5.09C105.47 5.08 105.47 5.03 105.47 5.04C105.47 5.05 105.47 5.07 105.47 5.09C105.47 5.12 105.49 5.16 105.5 5.19C105.53 5.25 105.59 5.3 105.67 5.32C105.71 5.32 105.74 5.33 105.78 5.32L105.68 5.34L105.46 5.37L105.02 5.44L104.8 5.47H104.71C104.71 5.47 104.73 5.47 104.74 5.47C104.77 5.45 104.8 5.42 104.81 5.37C104.81 5.3 104.81 5.46 104.81 5.53C104.81 5.62 104.81 5.71 104.81 5.8C104.8 5.98 104.77 6.16 104.72 6.33C104.63 6.68 104.49 7.01 104.29 7.31L104.13 7.54H103.85C102.14 7.63 100.44 8.07 98.9 8.83L98.24 9.16L98.11 8.43C97.72 6.2 97.72 3.9 98.12 1.67C98.15 1.54 98.12 1.5 98.06 1.44C98.05 1.43 98.03 1.42 98.02 1.41C98.02 1.41 98 1.41 97.99 1.41L97.91 1.39C97.79 1.36 97.67 1.33 97.55 1.31C97.06 1.22 96.57 1.21 96.08 1.28C95.59 1.34 95.11 1.48 94.67 1.69C94.45 1.79 94.22 1.93 94.05 2.05C93.97 2.11 93.94 2.15 93.94 2.16C93.94 2.16 93.92 2.22 93.91 2.35L93.88 2.41Z" fill="#1D1E1C"/>
<path d="M112.48 27.68C112.46 27.68 112.44 27.66 112.43 27.66C112.4 27.64 112.38 27.62 112.36 27.59C112.34 27.57 112.32 27.53 112.32 27.5C112.32 27.49 112.32 27.47 112.32 27.45C112.32 27.44 112.32 27.41 112.32 27.44C112.3 27.58 112.27 27.72 112.22 27.87L112.15 28.09C112.15 28.08 112.19 28.04 112.19 28.04L112 28.16C111.92 28.21 111.84 28.26 111.76 28.32C111.6 28.43 111.45 28.55 111.3 28.68C111 28.94 110.74 29.22 110.51 29.54C110.29 29.86 110.09 30.2 109.94 30.57C109.79 30.94 109.7 31.33 109.65 31.7C109.55 32.45 109.53 33.11 109.42 33.77C109.23 35.09 108.8 36.36 108.19 37.55L108.21 37.51C107.98 37.88 107.69 38.2 107.34 38.44C107.17 38.56 106.98 38.67 106.79 38.75C106.59 38.85 106.44 38.86 106.08 39C105.47 39.26 104.98 39.8 104.8 40.45C104.66 40.94 104.53 41.39 104.37 41.86C103.76 43.72 102.86 45.46 101.71 47.04L101.74 47.01C100.94 47.96 100.01 48.79 98.96 49.43C98.43 49.76 97.9 50.02 97.31 50.25C96.73 50.48 96.09 50.72 95.49 51.02C94.9 51.32 94.31 51.65 93.75 52.05C93.19 52.45 92.71 52.86 92.2 53.24C91.18 53.99 90.13 54.76 89.07 55.44C88 56.12 86.89 56.69 85.72 57C84.56 57.31 83.29 57.37 82.11 57.17C80.92 56.97 79.77 56.49 78.79 55.79C78.29 55.44 77.84 55.04 77.43 54.59C77.02 54.14 76.64 53.64 76.28 53.13C75.58 52.1 74.97 51.01 74.69 49.84C74.41 48.66 74.3 47.34 74.05 46.06C73.82 44.78 73.54 43.49 73.13 42.23C72.92 41.6 72.72 41.01 72.55 40.4C72.38 39.79 72.24 39.17 72.11 38.55C71.86 37.31 71.64 36.02 71.53 34.79C71.44 33.55 71.51 32.3 71.75 31.08C71.99 29.86 72.41 28.69 72.96 27.56C73.5 26.43 74.17 25.36 74.94 24.36V24.34L75.02 24.24L75.05 24.11C75.39 22.39 75.98 20.72 76.8 19.18C77.62 17.64 78.69 16.23 79.94 15.01C80.57 14.4 81.23 13.83 81.94 13.32C82.11 13.19 82.31 13.05 82.49 12.91C82.66 12.78 82.84 12.65 83.02 12.53C83.38 12.28 83.75 12.05 84.13 11.83C85.64 10.96 87.3 10.35 89.01 9.99H89.03L89.3 9.94L89.42 9.71C89.93 8.74 90.79 7.96 91.8 7.53L91.93 7.47L92.02 7.35C93.11 5.93 93.75 4.19 93.88 2.41L93.91 2.35C93.92 2.22 93.94 2.16 93.94 2.16C93.94 2.15 93.97 2.11 94.05 2.05C94.22 1.93 94.45 1.79 94.67 1.69C95.11 1.48 95.59 1.34 96.08 1.28C96.57 1.21 97.06 1.22 97.55 1.31C97.67 1.33 97.79 1.36 97.91 1.39L97.99 1.41C98 1.41 98.02 1.41 98.02 1.41C98.03 1.42 98.05 1.43 98.06 1.44C98.12 1.5 98.15 1.54 98.12 1.67C97.72 3.9 97.72 6.2 98.11 8.43L98.24 9.16L98.9 8.83C100.44 8.07 102.14 7.63 103.85 7.54H104.13L104.29 7.31C104.49 7.01 104.63 6.68 104.72 6.33C104.77 6.16 104.8 5.98 104.81 5.8C104.81 5.71 104.81 5.62 104.81 5.53C104.81 5.46 104.81 5.3 104.81 5.37C104.8 5.42 104.77 5.45 104.74 5.47C104.73 5.47 104.71 5.47 104.71 5.47H104.8L105.02 5.44L105.46 5.37L105.68 5.34L105.78 5.32C105.74 5.33 105.71 5.32 105.67 5.32C105.59 5.3 105.53 5.25 105.5 5.19C105.49 5.16 105.47 5.12 105.47 5.09M112.48 27.68C112.5 27.68 112.52 27.68 112.48 27.68ZM112.48 27.68C112.29 27.64 112.11 27.59 111.93 27.53C111.57 27.42 111.22 27.26 110.92 27.15C110.85 27.12 110.77 27.09 110.71 27.07L110.61 27.04H110.59C110.59 27.04 110.54 27.02 110.51 27C110.46 26.98 110.4 26.95 110.36 26.91C110.26 26.83 110.19 26.73 110.15 26.62C110.06 26.4 110.11 26.14 110.25 25.96C110.27 25.94 110.29 25.92 110.31 25.9L110.35 25.87L110.38 25.85L110.44 25.8C110.52 25.74 110.6 25.68 110.68 25.62C111.35 25.16 112.19 24.92 113 24.98H113.07L113.13 25.01C113.61 25.17 114.04 25.43 114.4 25.73C114.77 26.03 115.08 26.37 115.36 26.72C115.92 27.42 116.37 28.15 116.82 28.86L116.36 28.6C116.64 28.6 117.04 28.51 117.38 28.41C117.73 28.3 118.08 28.17 118.41 28C118.74 27.83 119.05 27.64 119.32 27.42C119.38 27.37 119.46 27.3 119.51 27.25C119.53 27.23 119.54 27.21 119.55 27.18C119.57 27.13 119.57 27.08 119.55 27.03C119.55 27.02 119.55 27.01 119.53 26.99L119.43 26.84C119.37 26.74 119.31 26.63 119.25 26.53C119.14 26.32 119.06 26.09 119 25.86C118.88 25.39 118.86 24.9 118.96 24.42C119.15 23.45 119.8 22.63 120.63 22.17L120.39 22.43C120.47 22.24 120.52 21.95 120.51 21.72C120.5 21.48 120.44 21.25 120.32 21.05C120.2 20.85 120.04 20.68 119.83 20.56C119.63 20.44 119.37 20.35 119.16 20.33L119.37 20.31C118.72 20.51 118.05 20.64 117.38 20.69C116.7 20.75 116.01 20.69 115.39 20.64C114.75 20.59 114.11 20.54 113.46 20.45C113.13 20.41 112.8 20.35 112.46 20.27C112.12 20.18 111.77 20.09 111.39 19.83L111.13 19.66L111.16 19.34C111.26 18.25 111.41 17.21 111.4 16.21C111.39 15.73 111.33 15.19 111.27 14.69C111.24 14.43 111.2 14.18 111.15 13.92C111.09 13.59 111.1 13.22 111.2 12.88C111.25 12.71 111.32 12.54 111.4 12.4C111.47 12.27 111.55 12.14 111.64 12.01C111.81 11.76 112 11.53 112.22 11.31C112.33 11.2 112.44 11.1 112.56 11.01L112.74 10.87L112.83 10.8C112.81 10.82 112.79 10.86 112.8 10.9C112.84 11.01 112.75 10.81 112.7 10.71L112.52 10.35L112.43 10.17L112.41 10.13C112.41 10.13 112.41 10.13 112.41 10.14C112.41 10.14 112.42 10.15 112.43 10.16C112.46 10.19 112.5 10.2 112.54 10.19C112.54 10.19 112.56 10.19 112.57 10.19C112.58 10.19 112.57 10.19 112.54 10.2L112.49 10.22C112.42 10.25 112.35 10.28 112.27 10.31C111.68 10.53 111.03 10.59 110.42 10.49L109.92 10.41L109.96 9.91C110.01 9.27 110.12 8.63 110.3 8.01C110.34 7.86 110.39 7.7 110.44 7.55L110.51 7.35C110.51 7.35 110.51 7.35 110.51 7.36C110.51 7.36 110.51 7.37 110.51 7.38C110.51 7.38 110.54 7.41 110.49 7.38L110.12 7.12L109.93 6.99L109.84 6.93H109.82L109.64 7.1C109.52 7.21 109.39 7.32 109.25 7.42C108.72 7.82 108.11 8.13 107.47 8.33L107.21 8.41L106.99 8.25C106.42 7.85 105.97 7.28 105.71 6.63C105.58 6.3 105.5 5.96 105.47 5.61C105.46 5.44 105.45 5.26 105.47 5.09M105.47 5.09C105.47 5.08 105.47 5.03 105.47 5.04C105.47 5.05 105.47 5.07 105.47 5.09ZM92.78 2.33C92.79 2.19 92.81 1.96 92.93 1.72C93.05 1.48 93.23 1.34 93.37 1.23C93.65 1.03 93.9 0.899996 94.18 0.769996C94.73 0.509996 95.32 0.339996 95.92 0.259996C96.52 0.179996 97.14 0.199996 97.73 0.299996C97.88 0.329996 98.03 0.359996 98.17 0.399996L98.29 0.429996C98.35 0.449996 98.4 0.469996 98.46 0.489996C98.57 0.539996 98.67 0.599996 98.76 0.679996C98.94 0.839996 99.08 1.04 99.15 1.27C99.23 1.49 99.23 1.77 99.19 1.94C98.82 4.04 98.81 6.21 99.18 8.31L98.39 7.91C100.06 7.08 101.91 6.6 103.78 6.52L103.34 6.77C103.47 6.58 103.56 6.36 103.62 6.13C103.65 6.02 103.67 5.9 103.68 5.79C103.68 5.73 103.68 5.67 103.68 5.62C103.68 5.54 103.67 5.56 103.68 5.34C103.71 4.99 103.93 4.69 104.23 4.55C104.31 4.51 104.38 4.49 104.47 4.47L104.6 4.45L104.82 4.42L105.26 4.35L105.48 4.32L105.6 4.3C105.7 4.28 105.82 4.3 105.93 4.32C106.15 4.38 106.33 4.52 106.44 4.71C106.49 4.8 106.53 4.91 106.55 5.01C106.55 5.06 106.55 5.12 106.55 5.17V5.23C106.54 5.35 106.55 5.47 106.55 5.59C106.57 5.83 106.63 6.07 106.71 6.29C106.89 6.74 107.2 7.13 107.6 7.41L107.12 7.34C107.64 7.18 108.13 6.92 108.57 6.6C108.68 6.52 108.78 6.43 108.89 6.34L109.04 6.2C109.15 6.1 109.28 6.02 109.41 5.96C109.69 5.85 110 5.86 110.27 5.98C110.34 6.01 110.4 6.05 110.46 6.09L110.55 6.15L110.74 6.28L111.11 6.54C111.11 6.54 111.22 6.62 111.27 6.66C111.33 6.72 111.38 6.78 111.42 6.84C111.51 6.97 111.56 7.12 111.59 7.28C111.61 7.44 111.59 7.6 111.55 7.74L111.47 7.97C111.42 8.1 111.38 8.24 111.34 8.38C111.18 8.93 111.08 9.49 111.04 10.06L110.58 9.48C111.01 9.55 111.46 9.51 111.86 9.36L112.01 9.3L112.11 9.25C112.18 9.22 112.25 9.2 112.33 9.19C112.63 9.14 112.95 9.24 113.17 9.45C113.23 9.5 113.27 9.56 113.31 9.63C113.33 9.66 113.35 9.69 113.37 9.73L113.39 9.77L113.48 9.95L113.66 10.31L113.75 10.49C113.75 10.49 113.86 10.71 113.87 10.85C113.91 11.16 113.8 11.47 113.59 11.68C113.54 11.73 113.46 11.79 113.43 11.81L113.36 11.86L113.22 11.96C113.13 12.03 113.04 12.11 112.96 12.19C112.8 12.35 112.65 12.53 112.52 12.72C112.46 12.81 112.4 12.91 112.34 13.01C112.29 13.1 112.26 13.18 112.23 13.27C112.18 13.45 112.17 13.62 112.2 13.81C112.25 14.08 112.29 14.35 112.32 14.62C112.39 15.17 112.44 15.69 112.46 16.27C112.46 17.4 112.3 18.47 112.22 19.5L111.99 19.01C112.14 19.11 112.41 19.21 112.68 19.27C112.96 19.34 113.26 19.39 113.56 19.43C114.17 19.51 114.8 19.56 115.43 19.61C116.08 19.66 116.66 19.71 117.25 19.66C117.84 19.62 118.43 19.5 119 19.32L119.11 19.29H119.21C119.65 19.34 120.01 19.47 120.37 19.68C120.72 19.89 121.03 20.2 121.24 20.56C121.45 20.92 121.57 21.33 121.59 21.74C121.59 22.16 121.54 22.53 121.38 22.94L121.31 23.1L121.14 23.2C120.57 23.52 120.13 24.08 120.01 24.7C119.95 25.01 119.96 25.34 120.04 25.65C120.08 25.81 120.14 25.96 120.21 26.11C120.25 26.18 120.29 26.25 120.33 26.32L120.4 26.42C120.44 26.48 120.49 26.56 120.53 26.64C120.68 26.96 120.69 27.34 120.55 27.66C120.48 27.82 120.38 27.97 120.26 28.09C120.16 28.19 120.09 28.25 120 28.32C119.65 28.61 119.27 28.85 118.88 29.04C118.49 29.24 118.08 29.39 117.67 29.52C117.24 29.64 116.85 29.74 116.32 29.76H116.03L115.86 29.5C115.41 28.79 114.97 28.08 114.47 27.46C113.98 26.84 113.41 26.32 112.76 26.11L112.89 26.14C112.32 26.1 111.74 26.26 111.27 26.58C111.21 26.62 111.15 26.66 111.1 26.71L111.06 26.74L111.04 26.76L111.06 26.75L111.09 26.71C111.18 26.6 111.21 26.43 111.16 26.29C111.13 26.22 111.09 26.16 111.03 26.11C111 26.09 110.97 26.07 110.93 26.05C110.91 26.05 110.9 26.04 110.88 26.03L111.03 26.07C111.13 26.1 111.22 26.14 111.31 26.17C111.66 26.31 111.95 26.44 112.25 26.53C112.4 26.58 112.55 26.62 112.7 26.65C112.7 26.65 112.77 26.66 112.83 26.68C112.89 26.7 112.94 26.73 112.99 26.76C113.09 26.82 113.18 26.9 113.25 27C113.32 27.1 113.37 27.21 113.39 27.33C113.4 27.39 113.41 27.45 113.41 27.51C113.41 27.57 113.4 27.64 113.4 27.65C113.37 27.85 113.32 28.05 113.26 28.23L113.17 28.51C113.1 28.69 112.98 28.86 112.82 28.97L112.57 29.12L112.38 29.25C112.25 29.34 112.13 29.43 112.02 29.53C111.79 29.73 111.58 29.96 111.4 30.2C111.03 30.7 110.82 31.23 110.74 31.87C110.65 32.5 110.62 33.23 110.51 33.94C110.3 35.38 109.82 36.77 109.17 38.05V38.07L109.15 38.09C108.85 38.58 108.45 39.01 107.98 39.35C107.74 39.52 107.49 39.66 107.22 39.77C106.97 39.89 106.62 39.96 106.51 40.01C106.2 40.14 105.95 40.42 105.86 40.74C105.73 41.22 105.58 41.72 105.42 42.21C104.77 44.16 103.81 46.02 102.61 47.68V47.7L102.58 47.72C101.71 48.74 100.69 49.65 99.54 50.36C98.97 50.72 98.34 51.02 97.72 51.26C97.1 51.5 96.53 51.72 95.98 52C95.42 52.28 94.88 52.58 94.39 52.94C93.89 53.29 93.39 53.72 92.87 54.11C91.81 54.89 90.78 55.65 89.66 56.37C88.55 57.07 87.33 57.71 86 58.06C84.67 58.41 83.29 58.47 81.93 58.25C80.57 58.02 79.27 57.48 78.15 56.68C77.59 56.28 77.07 55.82 76.61 55.32C76.15 54.82 75.75 54.29 75.37 53.74C74.62 52.65 73.95 51.44 73.62 50.09C73.3 48.75 73.21 47.49 72.96 46.24C72.73 44.98 72.46 43.74 72.07 42.55C71.88 41.95 71.66 41.32 71.48 40.68C71.3 40.04 71.16 39.4 71.02 38.76C70.76 37.47 70.54 36.2 70.42 34.86C70.32 33.52 70.39 32.17 70.65 30.85C70.91 29.53 71.37 28.25 71.95 27.06C72.53 25.87 73.23 24.73 74.04 23.67V23.65L73.95 23.89C74.26 22.05 74.85 20.25 75.72 18.6C76.58 16.94 77.72 15.42 79.05 14.1C79.71 13.44 80.43 12.83 81.2 12.29C81.39 12.16 81.56 12.04 81.74 11.9C81.93 11.76 82.12 11.63 82.32 11.5C82.71 11.24 83.11 10.99 83.52 10.76C85.15 9.84 86.95 9.2 88.79 8.89H88.81L88.42 9.17C89.05 7.98 90.1 7.02 91.34 6.49L91.12 6.66C92.07 5.41 92.64 3.88 92.76 2.31L92.78 2.33Z" stroke="#1D1E1C" stroke-width="0.39" stroke-miterlimit="10"/>
</g>
<path id="Vector_106" d="M89.21 9.04999C89.5 9.12999 89.7 9.28999 89.9 9.46999C90.1 9.64999 90.28 9.83999 90.45 10.05C90.79 10.46 91.07 10.95 91.24 11.48C91.41 12.01 91.46 12.6 91.38 13.15C91.31 13.71 91.1 14.22 90.87 14.71L90.84 14.15C91.04 14.48 91.16 14.77 91.25 15.12C91.34 15.46 91.39 15.82 91.34 16.2C91.3 16.57 91.16 16.95 90.94 17.26C90.73 17.58 90.44 17.8 90.15 18L90.36 17.48C90.42 17.85 90.42 18.14 90.38 18.47C90.35 18.79 90.27 19.11 90.15 19.41C90.04 19.71 89.87 20.01 89.67 20.26C89.48 20.52 89.23 20.74 88.98 20.93L89.14 20.57C89.16 21.07 89.11 21.5 88.99 21.95C88.87 22.39 88.7 22.82 88.44 23.2C88.19 23.58 87.86 23.92 87.5 24.19C87.12 24.44 86.73 24.66 86.3 24.79C85.88 24.94 85.44 25 85 25.03C84.56 25.03 84.12 24.99 83.7 24.89C82.86 24.68 82.08 24.28 81.42 23.73C81.4 23.71 81.39 23.68 81.42 23.65C81.44 23.63 81.47 23.62 81.49 23.65C82.17 24.13 82.96 24.45 83.76 24.59C84.16 24.65 84.57 24.67 84.97 24.63C85.37 24.57 85.76 24.49 86.13 24.33C86.51 24.19 86.84 23.97 87.14 23.74C87.43 23.49 87.68 23.19 87.88 22.86C88.26 22.21 88.41 21.38 88.34 20.66L88.32 20.45L88.5 20.3C88.88 19.98 89.17 19.58 89.31 19.12C89.38 18.89 89.43 18.65 89.44 18.4C89.45 18.16 89.44 17.89 89.39 17.7L89.32 17.4L89.6 17.17C89.79 17.02 89.97 16.87 90.07 16.68C90.18 16.5 90.25 16.31 90.27 16.09C90.28 15.88 90.26 15.64 90.19 15.41C90.13 15.19 90.02 14.93 89.91 14.75L89.76 14.51L89.89 14.2C89.97 14 90.08 13.81 90.15 13.6C90.21 13.4 90.29 13.2 90.31 12.99C90.4 12.58 90.37 12.16 90.27 11.76C90.18 11.35 89.99 10.96 89.74 10.59C89.61 10.41 89.47 10.23 89.32 10.07C89.17 9.90999 89 9.74999 88.88 9.55999L88.85 9.50999C88.76 9.35999 88.81 9.16999 88.96 9.08999C89.04 9.04999 89.12 9.03999 89.2 9.05999L89.21 9.04999Z" fill="#1D1E1C"/>
</g>
</g>
</g>
</g>
<defs>
<clipPath id="clip0_2070_254">
<rect width="181.53" height="87.02" fill="white"/>
</clipPath>
</defs>
</svg>
