<?xml version="1.0" encoding="UTF-8"?>
<svg id="Capa_2" data-name="Capa 2" xmlns="http://www.w3.org/2000/svg" viewBox="0 0 181.47 101.69">
  <defs>
    <style>
      .cls-1 {
        stroke-linecap: round;
        stroke-width: .55px;
      }

      .cls-1, .cls-2, .cls-3, .cls-4, .cls-5, .cls-6 {
        stroke-miterlimit: 10;
      }

      .cls-1, .cls-2, .cls-3, .cls-5, .cls-6 {
        stroke: #a73651;
      }

      .cls-1, .cls-2, .cls-6 {
        fill: none;
      }

      .cls-7, .cls-8, .cls-9, .cls-10, .cls-11, .cls-12, .cls-13, .cls-14, .cls-15 {
        font-family: AveriaSerifLibre-BoldItalic, 'Averia Serif Libre';
        font-style: italic;
      }

      .cls-7, .cls-16 {
        letter-spacing: .01em;
      }

      .cls-2 {
        stroke-width: 1.1px;
      }

      .cls-3 {
        opacity: .36;
        stroke-width: .28px;
      }

      .cls-3, .cls-5, .cls-17 {
        fill: #a73651;
      }

      .cls-8 {
        letter-spacing: .01em;
      }

      .cls-9, .cls-18 {
        letter-spacing: .01em;
      }

      .cls-18, .cls-19, .cls-16 {
        font-family: AveriaSerifLibre-Bold, 'Averia Serif Libre';
      }

      .cls-4 {
        stroke: #517fa2;
        stroke-width: .3px;
      }

      .cls-4, .cls-20 {
        fill: #517fa2;
      }

      .cls-21 {
        font-size: 7.15px;
        font-weight: 700;
        opacity: .7;
      }

      .cls-21, .cls-22 {
        fill: #121a23;
      }

      .cls-5 {
        stroke-width: .39px;
      }

      .cls-6 {
        stroke-width: .91px;
      }

      .cls-10 {
        letter-spacing: -.05em;
      }

      .cls-11 {
        letter-spacing: 0em;
      }

      .cls-19, .cls-15 {
        letter-spacing: 0em;
      }

      .cls-12 {
        letter-spacing: .01em;
      }

      .cls-20, .cls-23, .cls-22, .cls-17 {
        stroke-width: 0px;
      }

      .cls-23 {
        fill: #1d1d1b;
      }

      .cls-13 {
        letter-spacing: 0em;
      }

      .cls-14 {
        letter-spacing: 0em;
      }
    </style>
  </defs>
  <g id="Capa_1-2" data-name="Capa 1">
    <g>
      <text class="cls-21" transform="translate(23.57 100.03)"><tspan class="cls-19" x="0" y="0">—</tspan><tspan class="cls-16" x="6.16" y="0"> </tspan><tspan class="cls-12" x="8.06" y="0">D</tspan><tspan class="cls-7" x="13.01" y="0">E</tspan><tspan class="cls-12" x="17.33" y="0">ST</tspan><tspan class="cls-7" x="25.58" y="0">ILADO</tspan><tspan class="cls-9" x="47.61" y="0"> </tspan><tspan class="cls-8" x="49.49" y="0">A</tspan><tspan class="cls-13" x="54.44" y="0">R</tspan><tspan class="cls-9" x="58.94" y="0">T</tspan><tspan class="cls-8" x="63.36" y="0">E</tspan><tspan class="cls-12" x="67.68" y="0">S</tspan><tspan class="cls-7" x="71.5" y="0">A</tspan><tspan class="cls-11" x="76.45" y="0">N</tspan><tspan class="cls-8" x="81.71" y="0">A</tspan><tspan class="cls-9" x="86.66" y="0">L</tspan><tspan class="cls-7" x="90.82" y="0"> </tspan><tspan class="cls-9" x="92.72" y="0">D</tspan><tspan class="cls-8" x="97.67" y="0">E</tspan><tspan class="cls-9" x="101.99" y="0"> </tspan><tspan class="cls-14" x="103.87" y="0">A</tspan><tspan class="cls-9" x="108.76" y="0">G</tspan><tspan class="cls-10" x="113.56" y="0">A</tspan><tspan class="cls-15" x="118.05" y="0">V</tspan><tspan class="cls-7" x="122.92" y="0">E</tspan><tspan class="cls-18" x="127.23" y="0"> </tspan><tspan class="cls-19" x="129.11" y="0">—</tspan></text>
      <g>
        <path class="cls-22" d="M9.83,87.25c-1.4,0-2.69-.24-3.88-.72-1.19-.48-2.24-1.15-3.12-2.01-.89-.86-1.58-1.86-2.08-3.01-.5-1.15-.75-2.39-.75-3.72s.25-2.6.75-3.75c.5-1.15,1.19-2.15,2.09-3.01.9-.86,1.94-1.53,3.14-2.01,1.19-.48,2.48-.72,3.86-.72,1.01,0,2,.15,2.98.45.98.3,1.88.71,2.71,1.25.64.41,1.2.89,1.68,1.42.24.26.21.68-.05.93l-2.07,2.04c-.27.27-.71.27-.97,0-.53-.57-1.1-1-1.71-1.32-.79-.4-1.65-.6-2.58-.6-.73,0-1.42.14-2.05.41-.64.27-1.19.64-1.66,1.12-.47.47-.84,1.03-1.1,1.68-.26.65-.39,1.36-.39,2.13s.14,1.45.41,2.09c.27.64.64,1.2,1.12,1.68.48.48,1.05.85,1.7,1.12s1.36.39,2.13.39c.89,0,1.71-.19,2.47-.58.57-.29,1.1-.68,1.58-1.18.27-.28.7-.31.97-.03l1.82,1.8c.44.43.47.85.22,1.11-.48.52-1.03.98-1.66,1.4-.82.53-1.71.95-2.67,1.24-.96.29-1.93.43-2.9.43Z"/>
        <path class="cls-22" d="M38.28,86.89v-17.3c0-.3.25-.55.55-.55h3.41c.17,0,.33.08.44.21l8.15,10.46v-10.12c0-.3.25-.55.55-.55h3.13c.3,0,.55.25.55.55v17.3c0,.3-.25.55-.55.55h-3.15c-.17,0-.33-.08-.44-.21l-8.41-10.88v10.54c0,.3-.25.55-.55.55h-3.13c-.3,0-.55-.25-.55-.55Z"/>
        <path class="cls-22" d="M61.98,86.97v-13.46c0-.26-.21-.47-.47-.47h-3.09c-.26,0-.47-.21-.47-.47v-3.05c0-.26.21-.47.47-.47h11.63c.26,0,.47.21.47.47v3.05c0,.26-.21.47-.47.47h-3.09c-.26,0-.47.21-.47.47v13.46c0,.26-.21.47-.47.47h-3.55c-.26,0-.47-.21-.47-.47Z"/>
        <path class="cls-22" d="M73.62,86.99v-17.56c0-.23.19-.42.42-.42h11.64c.23,0,.42.19.42.42v3.08c0,.23-.19.42-.42.42h-7.15c-.23,0-.42.19-.42.42v2.47c0,.23.19.42.42.42h5.72c.23,0,.42.19.42.42v2.94c0,.23-.19.42-.42.42h-5.72c-.23,0-.42.19-.42.42v2.63c0,.23.19.42.42.42h7.25c.23,0,.42.19.42.42v3.08c0,.23-.19.42-.42.42h-11.75c-.23,0-.42-.19-.42-.42Z"/>
        <path class="cls-22" d="M89.75,86.91v-17.3c0-.3.25-.55.55-.55h3.41c.17,0,.33.08.44.21l8.15,10.46v-10.12c0-.3.25-.55.55-.55h3.13c.3,0,.55.25.55.55v17.3c0,.3-.25.55-.55.55h-3.15c-.17,0-.33-.08-.44-.21l-8.41-10.88v10.54c0,.3-.25.55-.55.55h-3.13c-.3,0-.55-.25-.55-.55Z"/>
        <path class="cls-22" d="M113.76,87.04v-13.46c0-.26-.21-.47-.47-.47h-3.09c-.26,0-.47-.21-.47-.47v-3.05c0-.26.21-.47.47-.47h11.63c.26,0,.47.21.47.47v3.05c0,.26-.21.47-.47.47h-3.09c-.26,0-.47.21-.47.47v13.46c0,.26-.21.47-.47.47h-3.55c-.26,0-.47-.21-.47-.47Z"/>
        <g>
          <path class="cls-22" d="M27.44,82.51c-1,0-1.93-.17-2.79-.51-.86-.34-1.61-.82-2.26-1.44s-1.15-1.33-1.51-2.15c-.36-.82-.54-1.7-.54-2.64s.18-1.83.54-2.64c.36-.82.86-1.53,1.51-2.15s1.4-1.1,2.26-1.44c.86-.34,1.79-.51,2.79-.51s1.93.17,2.79.51c.86.34,1.61.82,2.26,1.44s1.15,1.33,1.51,2.15c.36.82.54,1.7.54,2.64s-.18,1.83-.54,2.64c-.36.82-.86,1.53-1.51,2.15s-1.4,1.1-2.26,1.44c-.86.34-1.79.51-2.79.51ZM27.42,78.43c.38,0,.73-.07,1.05-.21.32-.14.6-.32.84-.56.24-.24.42-.52.56-.85.13-.33.2-.69.2-1.07s-.07-.75-.2-1.07c-.13-.33-.32-.61-.56-.85-.24-.24-.52-.43-.84-.56-.32-.14-.67-.21-1.05-.21s-.73.07-1.05.21c-.32.14-.6.32-.84.56-.24.24-.42.52-.56.85-.13.33-.2.68-.2,1.07s.07.74.2,1.07c.13.33.32.62.56.85.24.24.52.43.84.56.32.14.67.21,1.05.21Z"/>
          <rect class="cls-22" x="20.95" y="83.5" width="12.85" height="4.02" rx=".48" ry=".48"/>
        </g>
        <g>
          <path class="cls-22" d="M131.74,82.44c-1,0-1.93-.17-2.79-.51-.86-.34-1.61-.82-2.26-1.44s-1.15-1.33-1.51-2.15c-.36-.82-.54-1.7-.54-2.64s.18-1.83.54-2.64c.36-.82.86-1.53,1.51-2.15s1.4-1.1,2.26-1.44c.86-.34,1.79-.51,2.79-.51s1.93.17,2.79.51c.86.34,1.61.82,2.26,1.44s1.15,1.33,1.51,2.15c.36.82.54,1.7.54,2.64s-.18,1.83-.54,2.64c-.36.82-.86,1.53-1.51,2.15s-1.4,1.1-2.26,1.44c-.86.34-1.79.51-2.79.51ZM131.72,78.36c.38,0,.73-.07,1.05-.21.32-.14.6-.32.84-.56.24-.24.42-.52.56-.85.13-.33.2-.69.2-1.07s-.07-.75-.2-1.07c-.13-.33-.32-.61-.56-.85-.24-.24-.52-.43-.84-.56-.32-.14-.67-.21-1.05-.21s-.73.07-1.05.21c-.32.14-.6.32-.84.56-.24.24-.42.52-.56.85-.13.33-.2.68-.2,1.07s.07.74.2,1.07c.13.33.32.62.56.85.24.24.52.43.84.56.32.14.67.21,1.05.21Z"/>
          <rect class="cls-22" x="125.24" y="83.43" width="12.85" height="4.02" rx=".52" ry=".52"/>
        </g>
        <path class="cls-22" d="M142.17,86.85v-17.3c0-.3.25-.55.55-.55h3.41c.17,0,.33.08.44.21l8.15,10.46v-10.12c0-.3.25-.55.55-.55h3.13c.3,0,.55.25.55.55v17.3c0,.3-.25.55-.55.55h-3.15c-.17,0-.33-.08-.44-.21l-8.41-10.88v10.54c0,.3-.25.55-.55.55h-3.13c-.3,0-.55-.25-.55-.55Z"/>
        <path class="cls-23" d="M161.45,86.93l7.33-17.89c.06-.14.19-.23.34-.23h4.75c.15,0,.28.09.34.23l7.23,17.89c.1.24-.08.5-.34.5h-4.15c-.15,0-.29-.09-.34-.24l-1.52-4.02c-.05-.14-.19-.24-.34-.24h-6.76c-.15,0-.29.09-.34.23l-1.55,4.03c-.05.14-.19.23-.34.23h-3.97c-.26,0-.44-.26-.34-.5ZM169.65,79.3h3.46c.25,0,.43-.25.34-.49l-1.71-4.56c-.12-.31-.56-.32-.68,0l-1.75,4.56c-.09.24.08.5.34.5Z"/>
      </g>
      <g>
        <path class="cls-6" d="M92.27,2.31c.51.21,1.61.58,3,.41,1.1-.14,1.91-.56,2.37-.84"/>
        <path class="cls-20" d="M91.13,6.14c.17-.25.3-.22.44-.21.14,0,.28.02.42.04l.83.16c.28.05.55.11.82.17.27.07.55.13.82.2v.05c-.29.01-.57.01-.85.02-.28,0-.56,0-.84,0l-.84-.02c-.14,0-.28-.02-.42-.05-.14-.03-.28-.02-.39-.3v-.05Z"/>
        <path class="cls-20" d="M91.57,5.19c.16-.23.31-.23.45-.23.15,0,.29,0,.43.02l.86.13c.29.04.58.08.86.14.29.06.57.1.86.17v.05c-.3.03-.59.04-.88.05-.29.02-.58.03-.87.03l-.87.02c-.15,0-.29-.01-.43-.04-.14-.01-.29-.04-.42-.28v-.05Z"/>
        <path class="cls-20" d="M92.47,3.84c.51.02,1.01.08,1.52.12.25.03.5.07.76.12.25.05.5.09.75.14v.05c-.26.03-.51.05-.77.08-.25.03-.51.04-.76.05-.51,0-1.02.01-1.52-.01l.02-.55Z"/>
        <path class="cls-3" d="M92.5,1.89s3.73-2.46,5.44-.45c0,0-2.97,2.6-5.44.45Z"/>
        <path class="cls-20" d="M108.45,18.43c0,.16-.04.29-.09.43-.05.13-.14.24-.22.36-.15.24-.31.47-.48.7h-.02c.1-.28.2-.54.31-.8.05-.13.09-.27.17-.39.09-.11.17-.23.31-.32h.02Z"/>
        <path class="cls-20" d="M109.63,18.88c-.2.39-.42.77-.64,1.15-.23.38-.46.75-.7,1.12h-.02c.17-.42.34-.82.53-1.22.2-.39.38-.79.59-1.17l.24.13Z"/>
        <path class="cls-20" d="M110.41,19.23c.01.15-.03.27-.07.4-.04.12-.13.22-.2.33-.14.22-.29.43-.44.63h-.02c.08-.26.17-.5.27-.74.05-.12.08-.25.15-.35.08-.1.16-.21.29-.28h.02Z"/>
        <path class="cls-17" d="M110.81,20.14c-.07,0-.14-.01-.21-.04-.07-.03-6.87-2.84-11.43-5.88-.25-.17-.32-.51-.15-.76.17-.25.51-.32.76-.15,4.46,2.99,11.16,5.75,11.23,5.78.28.12.42.44.3.72-.09.21-.29.34-.51.34Z"/>
        <path class="cls-17" d="M103.51,7.76c.15-.09.32-.12.49-.14.17-.02.34,0,.5.03.32.07.68.2.87.5-.32-.11-.61-.16-.92-.23-.31-.06-.61-.12-.94-.16Z"/>
        <path class="cls-17" d="M106.79,8.89c.19-.02.38.03.56.11.18.07.34.18.49.3.14.13.27.27.37.43.11.16.18.33.23.52-.28-.26-.52-.51-.78-.74-.26-.23-.54-.44-.87-.62Z"/>
        <path class="cls-17" d="M109.18,11.03c.14.09.24.21.34.34.1.13.17.27.23.41.12.29.18.61.13.93-.16-.28-.27-.56-.38-.83-.05-.14-.11-.27-.16-.42-.05-.14-.11-.28-.15-.44Z"/>
        <path class="cls-20" d="M100.46,25.84c-.5,1.33-1.24,2.57-2.21,3.64-.48.54-1.05,1.01-1.69,1.4-.03.02-.05.04-.06.06,0,.01,0,.02-.01.03l-.04.12-.16.51c-.11.34-.24.67-.37,1.01-.27.66-.57,1.31-.89,1.95-.34.63-.7,1.25-1.12,1.83-.82,1.17-1.77,2.28-2.92,3.16-.56.45-1.21.83-1.8,1.17-.61.34-1.19.71-1.77,1.1-1.15.78-2.24,1.65-3.24,2.61-1,.97-1.91,2.03-2.64,3.21-.73,1.18-1.29,2.48-1.53,3.86,0,.02-.02.04-.05.03-.02,0-.04-.02-.03-.05.19-1.4.7-2.75,1.4-3.97.7-1.23,1.58-2.36,2.56-3.38.99-1.02,2.08-1.93,3.22-2.76.58-.41,1.16-.81,1.77-1.17.61-.37,1.16-.72,1.69-1.17,1.05-.87,1.91-1.95,2.65-3.11.74-1.15,1.38-2.38,1.93-3.64.14-.32.27-.63.4-.95l.18-.48.04-.13c.03-.07.06-.14.1-.2.08-.13.21-.23.33-.29.59-.3,1.13-.71,1.63-1.17.5-.46.96-.98,1.38-1.53.43-.55.81-1.13,1.16-1.74h0s.04-.03.06-.02c.02.01.02.03.02.05Z"/>
        <path class="cls-20" d="M96.36,30.78c-.47.16-.95.38-1.4.63-.46.25-.9.53-1.31.86.35-.39.74-.76,1.16-1.09.42-.33.85-.63,1.34-.9.13-.07.3-.03.38.11.07.13.03.3-.11.38-.01,0-.03.01-.04.02h0Z"/>
        <path class="cls-20" d="M91.9,38.44c-.43.39-.93.74-1.51.93-.58.21-1.21.27-1.82.21-.31-.03-.6-.08-.89-.16-.28-.07-.54-.15-.81-.22-.53-.14-1.07-.25-1.6-.26-1.07-.07-2,.57-2.85,1.31-.43.37-.89.75-1.41,1.02-.51.27-1.07.5-1.66.5-.02,0-.04-.02-.04-.04,0-.02.02-.04.04-.04.56-.06,1.07-.33,1.53-.63.47-.31.86-.7,1.26-1.11.41-.4.84-.81,1.36-1.13.25-.16.53-.3.84-.39.3-.09.61-.14.92-.15.61-.03,1.21.03,1.79.13.29.05.58.12.85.18.26.07.53.13.79.17.52.1,1.04.12,1.58.04.53-.07,1.07-.24,1.61-.44.02,0,.05,0,.05.02,0,.02,0,.03-.01.05Z"/>
        <path class="cls-20" d="M89.4,39.32c-.65-.06-1.25-.3-1.78-.71-.26-.21-.51-.48-.64-.86-.1-.32-.16-.63-.21-.94-.05-.31-.09-.57-.19-.83-.09-.26-.23-.49-.42-.68-.38-.39-.98-.55-1.57-.64-.02,0-.04-.02-.04-.05,0-.02.02-.03.04-.04.6-.04,1.26.02,1.83.4.56.4.83,1.1.99,1.67.09.28.19.54.33.79.1.18.27.37.45.57.36.4.82.78,1.26,1.24h0s.02.05,0,.06c0,0-.02.01-.03.01Z"/>
        <path class="cls-20" d="M82.77,39.72c-.27.21-.62.35-.99.35-.37.01-.74-.1-1.05-.28-.62-.33-1.07-.83-1.59-1.17-.5-.34-1.15-.35-1.81-.37-.66-.02-1.37-.16-1.91-.57-.01,0-.02-.03,0-.04,0-.01.02-.01.04,0,.57.34,1.23.4,1.88.34.33-.01.66-.04,1.01-.01.34.02.71.11,1.03.28.61.34,1.15.73,1.66,1.08.49.35,1.07.5,1.73.35.02,0,.03,0,.03.02,0,.01,0,.02-.01.03Z"/>
        <path class="cls-20" d="M86.48,40.27c-.66.58-1.29,1.18-1.89,1.8-.6.62-1.19,1.25-1.74,1.92-.56.66-1.09,1.34-1.59,2.05-.51.7-.97,1.43-1.47,2.17.29-.83.65-1.64,1.11-2.4.44-.77.97-1.48,1.53-2.17.57-.68,1.19-1.31,1.87-1.88.67-.57,1.39-1.1,2.18-1.49Z"/>
        <path class="cls-20" d="M93.72,33.04c-.13.48-.33.93-.55,1.38-.22.45-.48.87-.76,1.28-.28.41-.6.79-.95,1.15-.34.36-.74.67-1.16.93.35-.35.69-.7,1-1.08.31-.38.61-.76.89-1.16.28-.4.54-.81.8-1.22.25-.42.5-.84.73-1.28Z"/>
        <path class="cls-20" d="M98.95,26.06c-.26.44-.57.84-.89,1.23-.32.39-.67.76-1.04,1.11-.73.7-1.54,1.32-2.43,1.81.76-.66,1.52-1.31,2.24-2.01.73-.69,1.43-1.4,2.12-2.13Z"/>
        <path class="cls-20" d="M80.89,48.58c-.03.24-.13.47-.25.68-.12.22-.28.41-.46.57-.18.17-.38.31-.61.41-.22.11-.46.16-.7.19.42-.24.8-.48,1.12-.8.17-.15.32-.32.47-.49.15-.18.29-.36.42-.56Z"/>
        <path class="cls-20" d="M83.22,24.52c-.18.94-.53,1.86-1.08,2.67-.54.83-1.34,1.45-2.16,1.95-.82.49-1.66.91-2.39,1.49-.73.57-1.29,1.35-1.62,2.24,0,.01-.02.02-.04.02-.01,0-.02-.02-.02-.03.25-.92.77-1.77,1.49-2.43.71-.65,1.56-1.13,2.33-1.66.77-.52,1.4-1.19,1.96-1.9.56-.72,1.01-1.54,1.47-2.37,0-.01.02-.02.04-.01.01,0,.02.02.01.03Z"/>
        <path class="cls-20" d="M80.34,28.79c.07.47.07.9.04,1.34-.03.44-.09.87-.19,1.29-.1.42-.24.83-.42,1.22-.17.39-.41.75-.65,1.09.19-.38.36-.76.46-1.16.11-.4.18-.8.21-1.21.03-.41.03-.81-.02-1.21-.04-.39-.12-.81-.23-1.15l.8-.2Z"/>
        <path class="cls-20" d="M83.64,26.74c-.12.61-.42,1.17-.79,1.66-.19.25-.42.47-.67.66-.24.2-.52.35-.8.49l.05-.13c.08.28.08.54.06.8-.02.26-.06.52-.13.77-.06.25-.15.5-.25.74-.1.24-.21.47-.33.7h-.02c.1-.25.2-.48.28-.73.08-.24.15-.49.2-.74.05-.25.08-.5.08-.75,0-.25-.02-.51-.09-.73l-.03-.08.08-.04c.26-.15.51-.3.72-.5.22-.2.42-.41.61-.63.39-.45.71-.96.98-1.5h.03Z"/>
        <path class="cls-20" d="M73.85,25.94c.39.07.78.1,1.16.09.38-.01.76-.02,1.15-.07.38-.04.77-.11,1.15-.19.19-.04.38-.1.57-.15l.57-.19.02.05c-.34.21-.71.39-1.08.55-.38.15-.76.3-1.17.36-.41.07-.83.11-1.24.04-.41-.07-.82-.18-1.16-.44l.03-.05Z"/>
        <path class="cls-20" d="M73.44,27.41c.34,0,.68,0,1.01,0l.99-.02c.33,0,.66-.02.99-.05.33-.03.65-.12.98-.22l.02.05c-.29.18-.61.33-.94.44-.33.11-.67.2-1.02.22-.35.03-.7.01-1.04-.05-.34-.07-.68-.15-.99-.31v-.05Z"/>
        <path class="cls-20" d="M73.08,28.8c.28-.05.54-.06.81-.08.26-.02.52,0,.78,0,.52.01,1.05.06,1.56-.09l.02.05c-.23.16-.49.25-.76.33-.27.08-.54.14-.82.15-.27.01-.55.01-.82-.05-.27-.06-.54-.12-.79-.25v-.05Z"/>
        <path class="cls-20" d="M98.67,40.4c.64.26,1.31.39,1.98.51.34.06.67.11,1.01.16l1.02.16v.03c-.69.06-1.39.01-2.07-.13-.68-.15-1.34-.38-1.95-.7v-.02Z"/>
        <path class="cls-20" d="M98.22,41.38c.66.25,1.33.43,2.01.59.34.07.68.15,1.02.2.34.06.68.08,1.04.08v.03c-.34.1-.7.1-1.06.09-.36-.02-.71-.09-1.05-.18-.69-.19-1.34-.47-1.97-.77v-.03Z"/>
        <path class="cls-20" d="M97.98,42.19c.6.26,1.23.47,1.85.66.31.09.63.18.94.24.32.07.63.13.96.15v.03c-.33.08-.67.06-1,.03-.33-.04-.66-.13-.97-.24-.63-.22-1.22-.52-1.8-.84v-.02Z"/>
        <path class="cls-20" d="M107.79,23.86c-.69.18-1.39.34-2.08.51-.7.16-1.4.28-2.11.41v-.04c.67-.23,1.34-.48,2.02-.69.69-.2,1.37-.41,2.06-.59l.11.4Z"/>
        <path class="cls-20" d="M109.25,24.36c-.9.29-1.81.55-2.72.82-.91.26-1.83.48-2.75.72v-.04c.87-.34,1.76-.69,2.65-1,.9-.3,1.79-.61,2.69-.9l.12.39Z"/>
        <path class="cls-20" d="M110.97,24.95c-.95.29-1.91.56-2.86.84-.96.27-1.93.5-2.89.74v-.04c.92-.34,1.85-.7,2.79-1.02.95-.31,1.89-.63,2.83-.92l.12.39Z"/>
        <path class="cls-20" d="M109.98,26.36c-.58.19-1.16.35-1.74.53-.58.17-1.18.29-1.77.43v-.04c.55-.24,1.1-.49,1.67-.71.57-.2,1.14-.42,1.72-.61l.13.39Z"/>
        <path class="cls-20" d="M110.99,27.34c-.66.21-1.33.39-2,.59-.67.19-1.35.33-2.03.49v-.04c.63-.26,1.27-.53,1.93-.77.66-.22,1.31-.46,1.97-.67l.12.39Z"/>
        <path class="cls-20" d="M108.65,35.68c-.79-.44-1.49-1.01-2.11-1.65-.3-.33-.57-.69-.8-1.08-.22-.39-.38-.81-.49-1.24h.03c.27.83.8,1.55,1.42,2.16.31.31.64.59.99.85.35.26.72.5,1.09.71l-.13.24Z"/>
        <path class="cls-20" d="M108.28,36.88c-.67-.48-1.31-1.01-1.92-1.56-.3-.28-.59-.58-.86-.89-.27-.31-.53-.64-.72-1.01h.02c.22.33.5.63.79.92.29.29.59.56.91.82.62.53,1.27,1.03,1.93,1.5l-.16.23Z"/>
        <path class="cls-20" d="M107.78,37.88c-.77-.36-1.46-.85-2.09-1.4-.31-.28-.6-.58-.87-.91-.27-.32-.5-.67-.71-1.03h.02c.25.32.5.65.79.94.28.3.58.58.91.83.63.52,1.33.97,2.06,1.32l-.11.25Z"/>
        <path class="cls-20" d="M107.11,38.73c-.63-.35-1.22-.75-1.79-1.18-.28-.22-.55-.46-.8-.72-.24-.26-.48-.55-.59-.9h.03c.14.32.39.57.65.8.26.23.55.44.84.64.57.41,1.18.77,1.79,1.12l-.13.24Z"/>
        <path class="cls-20" d="M105.76,38.93c-.25-.04-.49-.12-.73-.22-.23-.1-.43-.26-.63-.42-.4-.3-.77-.68-.96-1.15h.02c.26.41.65.72,1.06.97.21.13.43.22.64.35.2.14.42.26.61.44v.02Z"/>
        <path class="cls-20" d="M75.52,24.42c-.12-.13-.07-.23-.05-.33l.08-.3c.06-.2.12-.4.18-.59.13-.39.28-.78.44-1.16.33-.76.69-1.5,1.1-2.22.41-.71.84-1.41,1.33-2.08.48-.67,1-1.3,1.54-1.92l.02.02c-.51.64-1,1.3-1.45,1.98-.46.68-.86,1.39-1.25,2.11-.38.72-.72,1.46-1.02,2.22-.16.38-.29.76-.43,1.14-.07.19-.13.38-.19.58l-.09.29c-.03.1-.03.2-.2.26h-.03Z"/>
        <path class="cls-20" d="M76.94,24.16c.13-.61.32-1.19.53-1.76.22-.57.46-1.13.74-1.67.29-.54.6-1.06.95-1.56.34-.5.73-.98,1.12-1.44l.02.02c-.73.97-1.37,2-1.89,3.09-.27.54-.5,1.1-.71,1.66-.2.56-.38,1.15-.49,1.72l-.27-.05Z"/>
        <path class="cls-20" d="M78.31,23.71c.25-.81.6-1.58.98-2.34.4-.75.86-1.45,1.4-2.1l.02.02c-.47.69-.88,1.43-1.22,2.18-.36.75-.67,1.53-.91,2.31l-.26-.08Z"/>
        <path class="cls-20" d="M79.82,23.13c.03-.35.15-.65.31-.95.16-.29.32-.58.49-.86.17-.28.37-.55.57-.81.2-.26.43-.5.67-.72-.2.26-.37.54-.54.81-.18.27-.32.56-.49.84-.16.28-.31.57-.45.86-.15.29-.31.57-.55.82Z"/>
        <path class="cls-20" d="M80.8,23.66c.34-.74.76-1.43,1.21-2.09.46-.66.99-1.27,1.56-1.83l.02.02c-.51.61-.98,1.26-1.4,1.94-.43.66-.82,1.37-1.14,2.08l-.25-.11Z"/>
        <path class="cls-20" d="M81.94,24.36c.27-.65.6-1.27.96-1.88.38-.59.8-1.16,1.31-1.64l.02.02c-.45.54-.81,1.13-1.14,1.74-.34.6-.64,1.23-.9,1.87l-.26-.1Z"/>
        <path class="cls-20" d="M83.17,24.8c-.07-.08-.07-.13-.05-.17l.05-.11.11-.22c.07-.15.16-.29.24-.43l.51-.84c.35-.55.71-1.1,1.1-1.62l.02.02c-.33.56-.63,1.14-.94,1.71l-.45.87c-.08.14-.15.29-.23.43l-.12.21-.06.11s-.06.06-.17.05h-.02Z"/>
        <path class="cls-20" d="M84.38,24.58c.3-.61.63-1.21.96-1.8.35-.59.71-1.16,1.12-1.71l.02.02c-.34.59-.65,1.19-.95,1.8-.31.6-.61,1.21-.91,1.82l-.25-.12Z"/>
        <path class="cls-20" d="M85.73,24.14c.13-.25.28-.49.42-.74.15-.24.31-.47.48-.71h.02c-.1.28-.2.55-.31.81-.12.25-.24.51-.37.76l-.24-.13Z"/>
        <path class="cls-20" d="M88.39,9.28c.78.03,1.56.09,2.34.13.39.03.78.07,1.17.12.39.05.78.09,1.17.15v.06c-.39.03-.78.05-1.18.07-.39.02-.78.04-1.17.04-.78,0-1.56,0-2.34-.02l.02-.55Z"/>
        <path class="cls-20" d="M88.86,8.23c.2-.25.39-.23.58-.23.19,0,.38,0,.57.02l1.14.13c.38.04.76.09,1.14.14.38.06.76.11,1.14.17v.05c-.39.02-.77.03-1.15.05-.38.02-.76.02-1.15.02h-1.15c-.19,0-.38,0-.57-.02-.19-.02-.38-.02-.56-.29v-.05Z"/>
        <path class="cls-20" d="M90.34,7.13c.19-.16.36-.19.52-.19.17,0,.33.02.5.04.33.05.65.13.98.19.66.12,1.31.27,1.96.43v.05c-.68,0-1.35,0-2.01-.05-.33-.02-.67-.02-1-.05-.17-.01-.33-.04-.49-.08-.16-.04-.32-.11-.47-.31v-.05Z"/>
        <path class="cls-20" d="M97.03,14.62l3.06,1.71c1.01.58,2.02,1.17,3.03,1.77v.02c-1.06-.53-2.1-1.06-3.13-1.6l-3.09-1.66.13-.24Z"/>
        <path class="cls-20" d="M96.33,15.43l2.47,1.4c.82.48,1.63.97,2.44,1.46v.02c-.86-.42-1.71-.86-2.55-1.29l-2.5-1.35.13-.24Z"/>
        <path class="cls-20" d="M95.74,16.16l1.98,1.11c.65.38,1.3.77,1.95,1.17v.02c-.7-.33-1.38-.66-2.05-1l-2.01-1.06.13-.24Z"/>
        <path class="cls-20" d="M98.48,18.74c-.56-.27-1.12-.56-1.68-.84-.55-.3-1.1-.59-1.64-.9l.14-.24c.54.31,1.08.63,1.62.95.53.33,1.06.67,1.58,1.01v.02Z"/>
        <path class="cls-20" d="M95.21,17.82c.23.06.44.16.64.27.2.11.38.26.56.39.37.27.73.54,1.09.82v.02c-.42-.21-.82-.43-1.21-.66-.2-.11-.41-.21-.59-.35-.18-.14-.36-.29-.51-.48v-.02Z"/>
        <path class="cls-20" d="M112.04,19.98c-.17.32-.36.63-.53.95-.19.31-.39.62-.59.92h-.02c.13-.35.27-.69.42-1.02.16-.33.31-.66.48-.98l.24.13Z"/>
        <path class="cls-20" d="M112.99,20.37c-.12.23-.26.46-.39.69-.14.22-.3.44-.45.66h-.02c.09-.27.18-.51.28-.76.12-.24.22-.48.35-.71l.24.13Z"/>
        <path class="cls-20" d="M113.75,20.82c-.11.21-.24.42-.36.62-.13.2-.27.4-.42.59h-.02c.08-.24.16-.47.25-.69.1-.22.2-.44.31-.65l.24.13Z"/>
        <path class="cls-20" d="M93.09,20.4c-.19-.03-.35-.11-.51-.19-.16-.08-.29-.2-.43-.31-.28-.21-.56-.43-.83-.66l.02-.02c.32.16.63.33.93.5.16.08.32.16.46.27.13.12.27.23.37.39l-.02.02Z"/>
        <path class="cls-20" d="M93.49,19.44c-.18-.15-.33-.3-.49-.46l-.46-.47c-.29-.33-.58-.66-.85-1l.02-.02c.33.29.66.57.99.86l.48.45c.16.14.32.3.48.42l-.17.22Z"/>
        <path class="cls-20" d="M94.1,18.5c-.29-.4-.56-.81-.84-1.21-.27-.41-.53-.83-.79-1.25l.02-.02c.32.37.64.75.94,1.14.3.39.6.78.89,1.18l-.22.16Z"/>
        <path class="cls-20" d="M93.64,15c.21.31.41.61.61.93.18.32.37.64.55.96l-.24.13c-.17-.32-.33-.66-.5-.99-.15-.34-.3-.68-.44-1.02h.02Z"/>
        <path class="cls-20" d="M95.01,14.14c.16.26.31.53.46.79.13.27.27.54.39.82l-.25.11c-.12-.28-.23-.56-.34-.84-.1-.29-.19-.58-.28-.87h.03Z"/>
        <path class="cls-20" d="M95.94,13.26c.14.27.28.55.4.83.11.28.23.57.34.85l-.26.09c-.1-.29-.19-.58-.29-.87-.08-.3-.15-.59-.22-.9h.03Z"/>
        <path class="cls-20" d="M97.21,12.17c.31.64.59,1.29.85,1.95l-.05-.06c1.22.63,2.38,1.36,3.57,2.05l3.54,2.1v.02s-3.64-1.95-3.64-1.95c-1.2-.66-2.43-1.28-3.59-2l-.04-.03v-.04c-.25-.67-.47-1.34-.66-2.03h.03Z"/>
        <path class="cls-20" d="M98.44,11.53c.1.34.2.68.28,1.03.07.35.15.69.22,1.04l-.27.05c-.06-.35-.11-.7-.16-1.05-.04-.35-.07-.71-.09-1.06h.03Z"/>
        <path class="cls-20" d="M100.29,10.83c.05.35.08.7.11,1.06.01.35.04.7.05,1.06h-.28c0-.35,0-.7,0-1.05.02-.35.04-.71.08-1.06h.03Z"/>
        <path class="cls-20" d="M101.91,10.36c-.01.37-.03.73-.05,1.1-.04.36-.07.73-.12,1.09l-.27-.04c.05-.36.12-.72.18-1.08.07-.36.16-.72.25-1.07h.03Z"/>
        <path class="cls-20" d="M103.42,10.56c-.04.33-.09.65-.14.98-.07.32-.13.64-.21.96l-.27-.07c.08-.32.18-.63.26-.95.1-.31.21-.62.33-.93h.03Z"/>
        <path class="cls-20" d="M104.84,11.06c-.07.31-.14.61-.22.92-.1.3-.18.6-.29.89l-.26-.09c.1-.29.23-.58.34-.87.13-.29.26-.57.4-.85h.03Z"/>
        <path class="cls-20" d="M106.14,11.76c-.15.3-.3.59-.46.88-.17.28-.34.57-.52.84l-.23-.15c.18-.28.38-.54.57-.81.2-.26.41-.52.62-.78l.02.02Z"/>
        <path class="cls-20" d="M107.22,12.7c-.25.27-.5.54-.76.8-.13.13-.24.28-.39.39-.15.1-.3.21-.49.27l-.02-.02c.08-.18.21-.32.33-.46.12-.14.28-.23.43-.35.29-.23.58-.45.88-.66l.02.02Z"/>
        <path class="cls-20" d="M73.4,32.02c.01.61-.02,1.18-.03,1.75,0,.57-.06,1.13-.05,1.7,0,.57.04,1.14.12,1.72.07.57.2,1.14.36,1.71,0,.02,0,.05-.03.05-.02,0-.04,0-.05-.02-.28-.52-.5-1.08-.69-1.65-.18-.57-.31-1.17-.37-1.77-.06-.6-.09-1.22.03-1.81.12-.6.3-1.18.62-1.7.01-.02.04-.03.06-.01.01,0,.02.02.02.04Z"/>
        <path class="cls-20" d="M74.04,40.36c.57,1,1.05,2.08,1.31,3.21.13.57.24,1.15.24,1.73,0,.58-.03,1.17-.16,1.74,0,.02-.02.02-.03.02-.01,0-.02-.01-.02-.02-.08-.58-.13-1.14-.21-1.7-.08-.56-.14-1.12-.24-1.68-.1-.56-.22-1.11-.37-1.66-.15-.55-.34-1.09-.56-1.62,0-.01,0-.03.01-.04.01,0,.03,0,.03.01Z"/>
        <path class="cls-20" d="M97.47,46.46c-.41.56-.87,1.06-1.4,1.52-.27.22-.55.43-.86.61-.31.17-.63.32-.95.45-.64.27-1.3.44-1.94.65-.63.21-1.26.45-1.74.92-.02.02-.04.02-.06,0-.01-.01-.02-.04,0-.05.4-.58,1.04-.93,1.65-1.25.62-.31,1.23-.59,1.83-.87.6-.28,1.13-.63,1.7-.98.56-.34,1.12-.74,1.73-1.06.02-.01.05,0,.06.02,0,.01,0,.03,0,.05Z"/>
        <path class="cls-20" d="M88.13,52.32c-.21.29-.46.55-.72.8-.27.24-.55.47-.87.65-.32.18-.65.34-1.01.41-.36.08-.72.11-1.09.06-.02,0-.03-.02-.02-.03,0,0,0-.02.02-.02.33-.15.65-.27.96-.41.31-.14.63-.25.93-.4.3-.15.61-.3.91-.48.3-.18.57-.39.84-.61.01,0,.03,0,.04,0,0,0,0,.02,0,.03Z"/>
        <path class="cls-17" d="M109.12,33.73c-.39,0-.74-.15-1.07-.35-.17-.1-.34-.26-.45-.43-.12-.17-.2-.35-.28-.51-.14-.33-.28-.66-.4-.99l-.18-.51c-.06-.17-.11-.36-.14-.4-.12-.2-.36-.45-.56-.62-.22-.17-.44-.29-.66-.32-.22-.04-.45-.02-.68.08-.23.1-.46.28-.65.49l-.3.34-.35-.21c-.22-.13-.57-.25-.86-.26-.31-.02-.61.03-.9.16-.28.14-.53.35-.76.61-.11.13-.21.28-.31.42l-.26.47-.08.15-.13.04c-.51.15-1.04.38-1.5.67-.47.29-.91.64-1.25,1.07-.33.43-.59.95-.65,1.49-.07.55.06,1.12.25,1.66.01.03,0,.06-.03.07-.03,0-.06,0-.07-.03-.24-.53-.45-1.11-.43-1.72.02-.62.25-1.2.58-1.72.34-.51.78-.95,1.28-1.3.5-.35,1.03-.63,1.62-.85l-.21.19.26-.55c.11-.18.21-.36.34-.53.26-.34.57-.65.96-.88.4-.22.86-.34,1.31-.34.47,0,.88.09,1.34.31l-.65.13c.25-.34.55-.64.95-.85.39-.22.89-.31,1.36-.23.48.08.88.32,1.2.6.16.14.3.3.42.46.12.17.23.32.33.55.12.28.12.44.16.61l.1.51.22,1.02c.08.34.13.6.35.82.22.23.49.47.79.59h0s.04.05.03.07c0,.02-.03.03-.05.03Z"/>
        <path class="cls-17" d="M94.65,17.09c.83.5,1.53,1.21,2.03,2.1.25.44.43.94.52,1.47.08.53.04,1.1-.14,1.62-.38,1.04-1.16,1.8-2.04,2.32-.88.51-1.89.75-2.88.74l.2-.08c-.38.28-.76.46-1.19.56-.42.1-.87.11-1.29,0-.85-.21-1.5-.79-1.97-1.43-.02-.02-.01-.06.01-.08.02-.02.05-.01.07,0,.54.56,1.22,1.03,1.96,1.12.36.05.73,0,1.07-.12.33-.12.68-.31.91-.53l.08-.07h.13c.87-.07,1.73-.36,2.43-.85.34-.25.65-.54.89-.88.24-.34.42-.71.54-1.07.22-.73.18-1.54-.11-2.36-.28-.81-.75-1.61-1.28-2.39h0s-.01-.06.01-.08c.02-.01.04-.01.06,0Z"/>
        <path class="cls-1" d="M118.4,26.57c-.4-.94-.76-2.93-2.68-4.49-1.74-1.42-3.5-1.97-4.47-2.2"/>
        <path class="cls-17" d="M99.26,8.01c-.49.52-1.02.88-1.56,1.22-.53.35-1.15.51-1.73.79-.57.28-1.13.58-1.67.91-.55.33-1.06.7-1.53,1.14-.02.02-.06.02-.08,0-.02-.02-.02-.05,0-.07.34-.57.81-1.05,1.28-1.51.49-.45,1.01-.86,1.56-1.23.54-.37,1.06-.81,1.7-1.03.63-.22,1.28-.38,2-.33.03,0,.06.03.06.06,0,.01,0,.03-.02.04Z"/>
        <path class="cls-2" d="M92.2,25.08c.04-1.22.2-3.48,1.36-5.69,1.07-2.04,2.5-4.02,4.94-5.47,2.08-1.24,4.03-1.79,5.84-.83,1.51.79,2.79,2.77,2.03,4.2"/>
        <path class="cls-6" d="M115.31,28.89c-.21-.54.51-1.55,1.48-2.08,1.08-.59,2.12-.28,2.3-.22"/>
        <path class="cls-4" d="M119.81,39.7c-.16,1.53-1.52,2.64-3.04,2.48s-2.6-1.54-2.44-3.07c.16-1.53,3.31-6.13,3.31-6.13,0,0,2.33,5.18,2.17,6.72Z"/>
        <path class="cls-17" d="M105.95,39.53c.07.03.01-.02-.08-.03-.09,0-.21,0-.33,0-.25.02-.51.06-.78.11-.54.09-1.09.19-1.64.25-.56.06-1.13.08-1.69,0-.56-.08-1.11-.26-1.55-.59.49.25,1.03.33,1.56.32.53-.02,1.06-.12,1.57-.27.52-.14,1.02-.32,1.54-.51.26-.09.53-.18.82-.26.15-.04.3-.07.48-.09.18,0,.41-.03.71.14.25.17.32.51.15.76-.17.25-.51.32-.76.15Z"/>
        <path class="cls-17" d="M74.16,23.88c-.02-.14-.08-.14-.06-.13.01.01.04.04.08.06.08.04.19.08.3.11.22.06.47.11.71.14.49.06,1,.07,1.51.03.51-.04,1.01-.13,1.49-.29.48-.17.94-.42,1.29-.81-.29.43-.74.76-1.21,1-.48.24-.99.4-1.51.51-.52.11-1.06.17-1.6.18-.27,0-.55,0-.83-.05-.14-.02-.29-.05-.45-.1-.08-.03-.16-.06-.26-.13-.09-.07-.24-.17-.29-.44-.02-.23.14-.43.37-.45.23-.02.43.14.45.37Z"/>
        <path class="cls-17" d="M101.38,24.51c.42-.31.86-.6,1.33-.86.47-.24.97-.45,1.49-.6,1.03-.29,2.19-.33,3.24-.09,1.05.22,2.07.52,3.06.91.49.2.98.4,1.46.63.24.12.48.24.71.38.24.15.46.27.72.5l-.56.61c-.32-.23-.81-.48-1.26-.68-.46-.21-.93-.42-1.41-.61-.95-.37-1.91-.73-2.9-.97-.98-.25-1.95-.32-2.95-.16-1,.14-1.97.52-2.93.94Z"/>
        <path class="cls-17" d="M87.55,20.66c-.07-.46-.16-.93-.26-1.39-.11-.46-.22-.92-.4-1.37.3.38.55.8.79,1.22.24.43.46.85.67,1.3.1.21,0,.46-.2.56-.21.1-.46,0-.56-.2-.02-.04-.03-.07-.03-.11h0Z"/>
        <path class="cls-17" d="M88.65,17.79c-.16-.43-.34-.87-.55-1.28-.21-.42-.44-.83-.77-1.18.42.24.77.59,1.11.94.33.36.64.73.94,1.13.14.19.1.45-.09.58-.19.14-.45.1-.58-.09-.02-.03-.04-.07-.06-.1h0Z"/>
        <path class="cls-17" d="M89.25,14.91c-.25-.38-.53-.76-.83-1.12-.3-.36-.62-.7-1.02-.97.46.14.89.39,1.29.66.41.27.79.56,1.18.88.18.15.2.41.05.59-.15.18-.41.2-.59.05-.03-.03-.06-.06-.08-.09h0Z"/>
        <path class="cls-3" d="M115.11,28.95s.99-3.41,4.16-2.07c0,0-1.55,2.95-4.16,2.07Z"/>
        <path class="cls-5" d="M91.95,2.32c.01-.14.03-.37.15-.61.12-.24.3-.38.44-.49.28-.2.52-.33.8-.46.55-.26,1.13-.43,1.73-.51.6-.08,1.21-.06,1.81.04.15.03.3.06.44.1l.12.03c.06.02.11.04.17.06.11.05.21.11.3.19.18.15.32.36.39.59.08.21.08.49.04.67-.37,2.1-.38,4.26-.01,6.35l-.79-.4c1.67-.83,3.51-1.31,5.37-1.39l-.43.25c.13-.19.22-.41.28-.64.03-.11.05-.23.06-.34,0-.06,0-.12,0-.17,0-.08-.01-.06,0-.28.03-.34.25-.65.55-.79.07-.04.15-.06.24-.08l.13-.02.22-.03.44-.07.22-.03.12-.02c.1-.02.22,0,.32.02.22.06.4.2.51.39.05.09.09.2.1.3,0,.05,0,.11,0,.16v.06c-.01.12,0,.24,0,.36.02.24.07.48.16.7.17.44.49.84.89,1.12l-.48-.07c.52-.16,1.01-.42,1.44-.74.11-.08.21-.17.32-.26l.15-.14c.11-.1.24-.18.37-.24.28-.11.59-.1.86.02.07.03.13.07.19.11l.09.06.19.13.37.26s.11.07.16.12c.06.05.11.12.15.18.09.13.14.28.17.44.02.15,0,.31-.04.46l-.08.23c-.05.13-.09.27-.13.41-.16.55-.25,1.11-.3,1.67l-.46-.58c.43.07.87.03,1.28-.12l.15-.06.1-.05c.07-.03.14-.05.22-.06.3-.05.62.05.84.26.06.05.1.11.14.17.02.03.04.06.06.1l.02.04.09.18.18.36.09.18s.11.22.12.36c.04.31-.07.62-.28.82-.04.05-.13.11-.15.13l-.07.05-.14.1c-.09.07-.17.15-.26.23-.16.16-.31.34-.44.52-.06.09-.12.19-.18.29-.05.09-.08.17-.11.26-.05.17-.06.35-.02.54.05.27.09.54.12.81.07.55.12,1.07.14,1.65,0,1.13-.15,2.19-.24,3.22l-.23-.49c.15.1.41.2.69.26.28.07.58.12.88.16.61.08,1.23.13,1.86.18.65.05,1.23.1,1.82.05.59-.04,1.17-.16,1.74-.33l.11-.03h.1c.44.05.8.18,1.16.39.35.21.66.52.86.87.21.36.33.77.34,1.18,0,.41-.05.78-.21,1.19l-.07.16-.17.1c-.56.32-1.01.88-1.12,1.5-.06.31-.05.64.03.95.04.16.1.31.17.45.04.07.08.14.12.21l.07.1c.04.06.09.14.13.22.15.32.16.7.02,1.02-.07.16-.17.31-.29.43-.1.1-.17.16-.26.23-.35.29-.73.52-1.11.72-.39.2-.79.35-1.21.48-.43.12-.82.22-1.34.24h-.29s-.17-.26-.17-.26c-.45-.71-.89-1.41-1.38-2.03-.49-.61-1.06-1.13-1.71-1.34l.13.03c-.57-.04-1.14.12-1.62.44-.06.04-.12.08-.17.13l-.04.03-.02.02h0s.02-.01.02-.01l.03-.04c.09-.11.12-.28.07-.42-.03-.07-.07-.13-.13-.18-.03-.02-.06-.04-.1-.06-.02,0-.03-.01-.05-.02-.02,0,0,0,0,0l.15.04c.1.03.19.07.27.1.35.14.63.27.94.36.15.05.3.09.45.12,0,0,.07.01.13.03.06.02.11.05.16.08.1.06.19.14.26.24.07.1.12.21.14.33.01.06.02.12.02.18,0,.06-.01.13-.01.14-.03.2-.08.4-.14.58l-.09.28c-.07.18-.19.34-.35.46l-.25.15-.19.13c-.13.09-.25.18-.36.28-.23.2-.44.43-.62.67-.37.5-.58,1.03-.66,1.66-.09.63-.12,1.36-.23,2.07-.21,1.43-.68,2.82-1.34,4.1v.02s-.02.02-.02.02c-.3.49-.7.92-1.17,1.25-.24.17-.49.31-.76.42-.25.12-.6.19-.71.24-.31.13-.56.41-.65.73-.13.48-.28.98-.44,1.46-.64,1.94-1.6,3.8-2.8,5.46v.02s-.03.02-.03.02c-.86,1.02-1.88,1.93-3.03,2.63-.57.35-1.2.66-1.81.9-.62.24-1.18.45-1.74.73-.56.28-1.09.58-1.59.93-.49.35-.99.77-1.52,1.17-1.05.78-2.08,1.53-3.2,2.25-1.11.7-2.32,1.34-3.64,1.68-1.33.34-2.7.41-4.06.19-1.35-.23-2.65-.77-3.76-1.56-.56-.4-1.07-.85-1.53-1.36-.45-.5-.86-1.02-1.24-1.57-.75-1.09-1.42-2.29-1.75-3.64-.31-1.33-.41-2.59-.66-3.84-.23-1.25-.5-2.49-.88-3.68-.19-.6-.41-1.22-.59-1.86-.18-.64-.32-1.28-.46-1.91-.26-1.29-.48-2.55-.6-3.88-.1-1.33-.03-2.68.23-3.99.25-1.31.72-2.59,1.3-3.77.58-1.19,1.28-2.32,2.08-3.38v-.02s-.09.24-.09.24c.31-1.83.9-3.63,1.77-5.28.86-1.66,1.99-3.17,3.32-4.48.66-.66,1.38-1.26,2.14-1.8.19-.13.36-.25.54-.39.19-.14.38-.27.57-.4.39-.26.79-.51,1.19-.73,1.63-.92,3.42-1.56,5.26-1.86h.02s-.39.28-.39.28c.63-1.19,1.68-2.15,2.91-2.67l-.22.17c.95-1.25,1.52-2.77,1.63-4.34ZM93.05,2.4c-.13,1.77-.77,3.51-1.85,4.92l-.09.12-.13.06c-1.01.43-1.86,1.21-2.38,2.18l-.12.23-.27.05h-.02c-1.71.35-3.35.97-4.86,1.83-.38.22-.74.45-1.1.69-.18.12-.36.25-.53.38-.18.14-.38.28-.55.41-.7.51-1.37,1.08-1.99,1.68-1.25,1.22-2.31,2.62-3.13,4.16-.82,1.54-1.41,3.2-1.74,4.91l-.03.13-.08.1v.02c-.77.99-1.43,2.06-1.98,3.19-.55,1.13-.97,2.29-1.21,3.51-.24,1.21-.31,2.46-.22,3.69.11,1.23.33,2.51.58,3.75.13.62.27,1.24.44,1.84.17.6.37,1.19.57,1.82.41,1.26.69,2.54.92,3.82.25,1.28.36,2.6.64,3.77.28,1.17.88,2.25,1.58,3.28.35.51.74,1.01,1.15,1.46.41.45.86.85,1.35,1.2.98.7,2.12,1.17,3.31,1.37,1.18.2,2.44.14,3.6-.17,1.17-.31,2.27-.88,3.33-1.55,1.05-.67,2.1-1.44,3.12-2.2.51-.38.99-.79,1.54-1.19.55-.4,1.14-.73,1.74-1.02.6-.3,1.23-.54,1.82-.77.58-.23,1.12-.49,1.64-.81,1.04-.64,1.97-1.47,2.77-2.41l-.03.03c1.14-1.58,2.04-3.31,2.65-5.16.16-.46.29-.92.43-1.41.18-.64.66-1.19,1.27-1.44.36-.14.51-.15.71-.24.19-.08.38-.19.55-.31.34-.24.64-.56.86-.92l-.02.04c.6-1.19,1.03-2.45,1.23-3.76.11-.66.13-1.32.23-2.06.05-.37.14-.76.29-1.13.15-.37.34-.71.57-1.02.23-.31.49-.6.78-.85.15-.13.3-.25.45-.36.08-.06.16-.11.24-.16l.19-.12s-.04.04-.04.05l.07-.22c.05-.15.08-.29.1-.43,0-.03,0,0,0,.01,0,.02,0,.04,0,.05,0,.03.02.07.04.09.02.03.04.05.07.07.01,0,.03.02.05.02.02,0,.04,0,0,0-.19-.04-.37-.09-.55-.15-.36-.11-.71-.26-1-.38-.07-.03-.15-.06-.21-.08l-.1-.03h-.02s-.05-.02-.08-.04c-.05-.02-.11-.05-.15-.09-.1-.08-.17-.18-.21-.29-.08-.22-.04-.48.1-.66.02-.02.04-.04.06-.06l.04-.03.03-.02.06-.05c.08-.06.16-.12.24-.18.67-.46,1.5-.69,2.31-.63h.07s.06.03.06.03c.48.16.9.42,1.27.72.37.3.67.64.95.98.56.69,1.01,1.42,1.46,2.13l-.46-.26c.28,0,.68-.09,1.02-.19.35-.11.7-.24,1.03-.41.33-.17.63-.36.9-.58.06-.05.14-.12.19-.17.02-.02.03-.04.04-.07.02-.05.02-.1,0-.15,0-.01,0-.02-.02-.04l-.1-.15c-.06-.1-.12-.2-.18-.31-.11-.21-.19-.44-.25-.67-.12-.46-.14-.96-.04-1.44.19-.97.84-1.78,1.67-2.25l-.24.26c.08-.19.13-.47.12-.71-.01-.24-.07-.46-.19-.67-.12-.2-.28-.37-.48-.49-.19-.12-.46-.21-.67-.22l.2-.02c-.64.2-1.31.33-1.99.38-.68.06-1.36,0-1.98-.05-.64-.05-1.27-.1-1.93-.19-.33-.04-.65-.1-.99-.18-.34-.09-.69-.18-1.07-.43l-.26-.17.03-.32c.1-1.08.25-2.12.24-3.12-.01-.48-.07-1.02-.13-1.52-.03-.25-.07-.51-.12-.76-.06-.33-.05-.7.05-1.03.05-.17.12-.34.2-.48.07-.13.15-.26.23-.39.17-.25.36-.48.58-.69.11-.11.22-.21.34-.3l.18-.14.09-.06s0,0,0,0c-.02.02-.04.06-.03.1.04.11-.05-.09-.1-.19l-.18-.36-.09-.18-.02-.04s0,0,0,.01c0,0,.01.01.02.02.03.03.07.04.11.03,0,0,.02,0,.03,0,.01,0,0,0-.03.01l-.05.02c-.07.03-.14.06-.22.09-.58.22-1.23.28-1.85.18l-.49-.08.04-.5c.05-.64.16-1.28.33-1.89.04-.15.09-.31.14-.46l.07-.2s0,0,0,.01c0,0,0,.01,0,.02h0s.03.03-.02,0l-.37-.26-.19-.13-.09-.06s0,0,0,0c0,0-.02,0-.02,0,0,0,0,0,0,0l-.18.17c-.12.11-.25.22-.39.32-.53.4-1.13.71-1.77.91l-.26.08-.22-.16c-.57-.4-1.02-.96-1.28-1.62-.13-.32-.21-.67-.24-1.01-.01-.17-.02-.35,0-.52,0-.01,0-.06,0-.05,0,.01,0,.03,0,.05,0,.03.02.07.03.09.03.06.09.11.17.13.04,0,.07.01.11,0l-.1.02-.22.03-.44.07-.22.03h-.09s.02,0,.03,0c.03-.02.06-.05.07-.1,0-.07,0,.09,0,.16,0,.09,0,.18,0,.27-.01.18-.04.36-.09.53-.09.35-.23.68-.43.98l-.15.23h-.28c-1.71.09-3.4.53-4.93,1.29l-.66.33-.13-.73c-.39-2.22-.38-4.51.01-6.73.03-.13,0-.17-.06-.23-.01-.01-.03-.02-.04-.03,0,0-.02,0-.02,0l-.08-.02c-.12-.03-.24-.06-.36-.08-.48-.09-.98-.1-1.47-.03-.49.06-.97.2-1.41.41-.21.1-.45.23-.62.35-.08.06-.11.1-.11.11,0,0-.02.06-.03.19Z"/>
        <path class="cls-17" d="M88.4,9.02c.29.08.49.24.69.42.2.17.38.37.55.57.34.41.62.89.79,1.43.17.53.22,1.11.14,1.66-.07.56-.28,1.07-.51,1.56l-.03-.56c.2.33.32.62.41.97.09.34.14.7.09,1.07-.04.37-.18.75-.4,1.06-.21.32-.5.54-.79.74l.21-.52c.06.37.05.66.02.99-.03.32-.11.64-.23.94-.11.3-.28.59-.48.85-.19.26-.44.47-.69.67l.16-.36c.02.5-.03.93-.15,1.37-.12.44-.29.87-.55,1.25-.25.38-.57.72-.94.99-.37.25-.77.47-1.2.59-.42.15-.86.21-1.3.23-.44,0-.87-.04-1.3-.14-.84-.21-1.61-.61-2.27-1.16-.02-.02-.03-.05,0-.08.02-.02.05-.03.07,0h0c.68.48,1.46.79,2.26.94.4.06.81.08,1.21.04.4-.06.79-.14,1.15-.3.37-.14.7-.36,1.01-.59.29-.25.54-.54.73-.87.38-.65.52-1.48.46-2.19l-.02-.21.18-.15c.38-.32.67-.72.81-1.18.07-.23.12-.47.13-.71.01-.24,0-.51-.05-.7l-.07-.3.28-.22c.19-.15.37-.3.47-.49.11-.18.18-.37.19-.59.01-.21-.01-.44-.08-.68-.06-.22-.17-.48-.28-.65l-.15-.24.13-.31c.08-.2.19-.39.26-.59.06-.2.14-.4.16-.61.09-.41.06-.82-.04-1.23-.09-.41-.27-.8-.53-1.16-.13-.18-.27-.35-.42-.52-.15-.16-.32-.32-.44-.51l-.03-.05c-.09-.15-.04-.34.11-.42.07-.04.16-.05.24-.03Z"/>
      </g>
    </g>
  </g>
</svg>