<svg width="42" height="46" viewBox="0 0 42 46" fill="none" xmlns="http://www.w3.org/2000/svg">
<g id="Recurso 3 1" clip-path="url(#clip0_2023_43)">
<g id="Capa 2">
<g id="Group">
<path id="Vector" d="M15.7914 38.0481C13.7379 38.0481 12.0672 39.8228 12.0672 42.0002C12.0672 44.1775 13.7379 45.9523 15.7914 45.9523C17.8448 45.9523 19.5155 44.1775 19.5155 42.0002C19.5155 39.8228 17.8448 38.0481 15.7914 38.0481ZM15.7914 43.3087C15.1655 43.3087 14.6534 42.7207 14.6534 42.0055C14.6534 41.2903 15.1655 40.7022 15.7914 40.7022C16.4172 40.7022 16.9293 41.2903 16.9293 42.0055C16.9293 42.7207 16.4172 43.3087 15.7914 43.3087Z" fill="#662A1A"/>
<path id="Vector_2" d="M29.1621 38.0905C27.1086 38.0905 25.4379 39.8652 25.4379 42.0425C25.4379 44.2199 27.1086 45.9946 29.1621 45.9946C31.2155 45.9946 32.8862 44.2199 32.8862 42.0425C32.8862 39.8652 31.2155 38.0905 29.1621 38.0905ZM29.1621 43.3511C28.5362 43.3511 28.0241 42.763 28.0241 42.0478C28.0241 41.3327 28.5362 40.7446 29.1621 40.7446C29.7879 40.7446 30.3 41.3327 30.3 42.0478C30.3 42.763 29.7879 43.3511 29.1621 43.3511Z" fill="#662A1A"/>
<path id="Vector_3" d="M41.2914 11.3159C40.7224 10.5689 39.8741 10.0868 38.9534 9.99676L10.0345 7.10951L9.6517 3.13622C9.52757 1.86477 8.77239 0.799935 7.62929 0.291355C6.48619 -0.217225 5.2086 -0.0582935 4.2155 0.72047L0.506876 3.62361C-0.0620898 4.06862 -0.17071 4.90036 0.263772 5.47781C0.698255 6.06056 1.51032 6.17181 2.07412 5.7268L5.78274 2.82366C6.12412 2.55877 6.46032 2.66473 6.59481 2.723C6.72412 2.78128 7.03446 2.9614 7.07584 3.40111L7.40688 6.84992H7.39653L7.55688 8.43923V8.45512L9.7655 30.34L10.3707 36.284H33.4655C34.1793 36.284 34.7586 35.6906 34.7586 34.9596C34.7586 34.2285 34.1793 33.6351 33.4655 33.6351H12.7086L12.3724 30.34H36.6155C38.2965 30.34 39.6983 29.1056 39.9517 27.405L41.9586 13.9594C42.0983 13.027 41.8551 12.0629 41.2862 11.3159H41.2914ZM39.4086 13.5621L37.4017 27.0077C37.3396 27.405 37.0138 27.6964 36.6207 27.6964H12.1034L10.2983 9.80604L38.7052 12.6403C39 12.6721 39.1758 12.8469 39.2534 12.9476C39.331 13.0482 39.4552 13.2654 39.4086 13.5674V13.5621Z" fill="#662A1A"/>
</g>
</g>
</g>
<defs>
<clipPath id="clip0_2023_43">
<rect width="42" height="46" fill="white"/>
</clipPath>
</defs>
</svg>
