<?xml version="1.0" encoding="UTF-8"?>
<svg id="Capa_2" data-name="Capa 2" xmlns="http://www.w3.org/2000/svg" viewBox="0 0 81.2 86.83">
  <defs>
    <style>
      .cls-1 {
        fill: #662a1a;
        stroke-width: 0px;
      }
    </style>
  </defs>
  <g id="Capa_2-2" data-name="Capa 2">
    <g>
      <path class="cls-1" d="M30.53,71.82c-3.97,0-7.2,3.35-7.2,7.46s3.23,7.46,7.2,7.46,7.2-3.35,7.2-7.46-3.23-7.46-7.2-7.46ZM30.53,81.75c-1.21,0-2.2-1.11-2.2-2.46s.99-2.46,2.2-2.46,2.2,1.11,2.2,2.46-.99,2.46-2.2,2.46Z"/>
      <path class="cls-1" d="M56.38,71.9c-3.97,0-7.2,3.35-7.2,7.46s3.23,7.46,7.2,7.46,7.2-3.35,7.2-7.46-3.23-7.46-7.2-7.46ZM56.38,81.83c-1.21,0-2.2-1.11-2.2-2.46s.99-2.46,2.2-2.46,2.2,1.11,2.2,2.46-.99,2.46-2.2,2.46Z"/>
      <path class="cls-1" d="M79.83,21.36c-1.1-1.41-2.74-2.32-4.52-2.49l-55.91-5.45-.74-7.5c-.24-2.4-1.7-4.41-3.91-5.37-2.21-.96-4.68-.66-6.6.81L.98,6.84c-1.1.84-1.31,2.41-.47,3.5.84,1.1,2.41,1.31,3.5.47l7.17-5.48c.66-.5,1.31-.3,1.57-.19.25.11.85.45.93,1.28l.64,6.51h-.02s.31,3,.31,3v.03s0,0,0,0l4.27,41.31h0l1.17,11.22h44.65c1.38,0,2.5-1.12,2.5-2.5s-1.12-2.5-2.5-2.5H24.57l-.65-6.22h46.87c3.25,0,5.96-2.33,6.45-5.54l3.88-25.38c.27-1.76-.2-3.58-1.3-4.99ZM76.19,25.6l-3.88,25.38c-.12.75-.75,1.3-1.51,1.3H23.4l-3.49-33.77,54.92,5.35c.57.06.91.39,1.06.58s.39.6.3,1.17Z"/>
    </g>
  </g>
</svg>