<?xml version="1.0" encoding="UTF-8"?>
<svg id="Capa_2" data-name="Capa 2" xmlns="http://www.w3.org/2000/svg" viewBox="0 0 49.82 56.59">
  <defs>
    <style>
      .cls-1 {
        fill: #f7fcff;
        stroke-width: 0px;
      }
    </style>
  </defs>
  <g id="Capa_1-2" data-name="Capa 1">
    <g>
      <path class="cls-1" d="M49.48,19.76c-.2-.35-.5-.65-.84-.85-.35-.21-.7-.33-1.13-.37h-.1s-.1.02-.1.02c-.55.17-1.12.28-1.7.33-.58.05-1.14,0-1.77-.05-.61-.05-1.22-.09-1.82-.17-.29-.04-.59-.09-.86-.15-.15-.03-.29-.08-.41-.13.09-.89.21-1.82.2-2.79-.02-.57-.07-1.07-.14-1.61-.03-.26-.07-.53-.12-.79-.03-.18-.02-.36.02-.53.03-.09.05-.16.1-.25.05-.1.11-.19.17-.29.13-.18.27-.36.43-.51.08-.08.16-.15.25-.22l.13-.1.07-.05s.11-.08.15-.12c.21-.2.32-.51.27-.8,0-.14-.1-.33-.12-.35l-.09-.17-.17-.35-.09-.17-.02-.04s-.03-.06-.05-.09c-.04-.06-.09-.12-.14-.17-.21-.21-.53-.3-.82-.25-.07.01-.14.03-.21.06l-.1.04-.15.06c-.24.09-.48.13-.73.15.05-.37.12-.73.22-1.09.04-.13.08-.27.12-.4l.08-.23c.04-.14.06-.3.04-.45-.02-.15-.08-.3-.16-.43-.04-.06-.09-.12-.15-.18-.05-.05-.14-.11-.15-.12l-.36-.25-.18-.13-.09-.06c-.05-.04-.12-.08-.18-.1-.26-.12-.57-.13-.84-.02-.13.05-.26.13-.36.23l-.15.14c-.1.09-.2.17-.31.25-.35.26-.73.47-1.14.63-.29-.25-.52-.57-.66-.92-.09-.22-.14-.45-.16-.68,0-.12-.01-.24,0-.35v-.06c0-.05,0-.1,0-.15-.01-.1-.05-.2-.1-.29-.1-.18-.28-.32-.49-.38-.1-.03-.21-.03-.32-.02l-.12.02-.21.03-.43.07-.21.03-.13.02c-.08.02-.16.04-.23.08-.29.14-.51.43-.54.77,0,.22,0,.2,0,.27,0,.06,0,.11,0,.17,0,.11-.03.22-.05.33-.03.14-.09.27-.15.4-1.4.1-2.79.42-4.09.95-.37.2-.76.43-1.14.65-.42.24-.83.5-1.24.75-.42.25-.82.53-1.23.79l-1.23.81c.67-.73,1.4-1.4,2.17-2.01.38-.31.79-.6,1.2-.87.38-.24.77-.52,1.21-.72-.15-1.6-.09-3.23.2-4.82.04-.17.04-.45-.04-.66-.07-.22-.2-.42-.38-.57-.09-.08-.19-.14-.3-.19-.05-.02-.11-.04-.16-.06l-.11-.03c-.14-.04-.29-.07-.43-.09-.58-.1-1.18-.12-1.76-.04-.58.08-1.16.24-1.69.5-.27.13-.51.26-.78.45-.14.1-.31.25-.43.48-.12.24-.13.46-.15.6-.11,1.49-.64,2.94-1.52,4.14-1.06.49-1.97,1.3-2.56,2.3-1.72.31-3.39.92-4.91,1.78-.4.22-.79.46-1.17.72-.19.13-.38.26-.56.39-.18.13-.34.25-.53.38-.74.53-1.44,1.11-2.09,1.76-1.29,1.28-2.4,2.76-3.24,4.37-.76,1.44-1.3,3-1.62,4.6.03.05.05.1.06.16.01.01.03.03.05.04.08.06.18.12.3.17.22.11.47.19.72.26.32.09.66.15,1,.2h0s.08-.29.08-.29c.05-.19.12-.39.18-.58.13-.38.27-.76.43-1.13.32-.74.67-1.46,1.07-2.16.4-.69.82-1.38,1.3-2.03.46-.65.98-1.27,1.5-1.88l.02.02c-.5.63-.98,1.26-1.41,1.93-.45.66-.84,1.35-1.22,2.05-.37.7-.7,1.43-1,2.17-.15.37-.28.74-.42,1.11-.06.19-.13.37-.19.56l-.07.24c.1,0,.2.02.3.02.29.01.58,0,.87-.02.13-.58.3-1.14.51-1.69.21-.56.45-1.11.72-1.63.28-.52.58-1.04.92-1.53.33-.49.71-.95,1.09-1.41l.02.02c-.72.94-1.34,1.95-1.84,3.01-.26.53-.49,1.07-.69,1.62-.18.51-.35,1.04-.46,1.57.15-.02.3-.05.45-.08.15-.04.35-.1.57-.17.25-.79.58-1.53.95-2.26.39-.73.84-1.42,1.36-2.05l.02.02c-.46.68-.85,1.39-1.19,2.13-.32.66-.59,1.35-.82,2.04.47-.17.95-.4,1.19-.63-.37.46-1.43,1.02-1.96,1.23-.53.21-1.22.3-1.78.35-.56.06-1.08,0-1.65-.07-.28-.04-.57-.09-.86-.17-.15-.04-.29-.1-.45-.18-.04-.02-.08-.05-.13-.08-.61.86-1.15,1.77-1.61,2.72-.57,1.15-1.02,2.4-1.27,3.68-.25,1.28-.33,2.6-.23,3.9.12,1.3.33,2.53.58,3.79.13.62.27,1.25.45,1.87.17.62.38,1.23.57,1.82.38,1.16.64,2.37.86,3.59.24,1.22.33,2.45.64,3.75.32,1.31.98,2.49,1.71,3.55.37.53.76,1.04,1.21,1.53.45.49.95.94,1.49,1.33,1.09.78,2.35,1.3,3.67,1.52,1.33.22,2.66.16,3.96-.18,1.29-.34,2.47-.96,3.56-1.64,1.09-.7,2.09-1.44,3.12-2.19.51-.38,1-.79,1.48-1.14.48-.34,1-.64,1.55-.91.54-.27,1.09-.48,1.69-.72.6-.23,1.21-.53,1.77-.88,1.12-.69,2.12-1.58,2.96-2.57v-.02s.03-.02.03-.02c1.18-1.62,2.11-3.43,2.74-5.32.15-.43.28-.88.4-1.31-.63.05-1.26.06-1.89.01-1.15-.1-2.3-.49-3.2-1.18l.04-.06c1,.52,2.11.63,3.19.64.83.02,1.66-.08,2.49-.21.01,0,.02-.01.03-.02.1-.05.44-.12.69-.24.26-.11.51-.25.74-.41.46-.32.85-.74,1.14-1.22v-.02s.02-.02.02-.02c.64-1.25,1.1-2.6,1.3-4,.11-.69.14-1.4.22-2.02.08-.62.28-1.13.64-1.62.17-.24.38-.46.6-.66.11-.1.23-.19.35-.28l.19-.12.24-.15c.16-.11.28-.27.34-.45l.09-.27c.05-.18.1-.37.13-.56,0,0,.01-.08.01-.14,0-.06,0-.12-.02-.18-.02-.12-.35-.29-.41-.38l-.58-.34h.03s-.05-.03-.07-.04c-.05-.03-.11-.07-.16-.1-.84.23-1.69.43-2.54.64-.86.21-1.75.36-2.63.53l-.02-.05c.83-.3,1.65-.61,2.49-.87.7-.21,1.4-.42,2.11-.63-.25-.15-.5-.3-.75-.46-.02-.01-.04-.02-.06-.04l.02.06c-.93.29-1.86.55-2.79.82-.93.26-1.88.49-2.82.73v-.04c.9-.34,1.81-.69,2.72-1,.83-.27,1.65-.55,2.48-.81-.33-.2-.65-.39-.98-.58-.77.24-1.54.46-2.31.7-.89.26-1.79.47-2.68.7v-.04c.85-.33,1.71-.67,2.59-.97.65-.22,1.3-.44,1.95-.65-.21-.12-.43-.24-.64-.35-.52.13-1.04.25-1.56.38-.68.16-1.37.27-2.06.4v-.04c.65-.23,1.31-.47,1.97-.67.38-.11.76-.22,1.14-.33-.5-.26-1.01-.5-1.52-.66-.53-.17-1.08-.25-1.64-.28-1.12-.06-2.26.18-3.4.48,1.02-.57,2.17-1.01,3.4-1.07.61-.04,1.23.02,1.83.16.61.16,1.16.42,1.69.69,1.05.56,2.03,1.23,3,1.88.49.32.97.66,1.47.96.24.14.48.29.7.45h.02s.7.47,1.07.91c.55.67.49,1.55,1.23,2.01.23.14.89.35,1.88-.01.17-.06.63-.19,1.18-.47.38-.19.75-.42,1.09-.7.09-.07.16-.13.25-.23.12-.12.22-.26.28-.42.13-.32.12-.68-.02-1-.03-.08-.08-.16-.12-.21l-.07-.1s-.02-.03-.03-.05c-.97-1.42-2.17-2.66-3.55-3.67-.66-.48-1.36-.91-2.08-1.29-.08.13-.15.26-.23.39-.13.2-.27.39-.41.58h-.02c.07-.24.16-.46.24-.68.07-.14.13-.27.19-.41-.08-.04-.16-.08-.24-.12-.1-.05-.2-.1-.3-.15-.08.13-.15.26-.23.4-.14.22-.29.43-.44.64h-.02c.09-.26.18-.5.28-.74.07-.14.13-.27.19-.41-.23-.11-.45-.21-.68-.31-.13.23-.26.46-.39.69-.19.3-.38.6-.58.9h-.02c.13-.34.27-.67.41-1,.11-.23.23-.46.34-.7-.42-.18-.84-.36-1.27-.54,0,.02-.01.05-.02.07-.04.12-.13.22-.2.32-.14.21-.28.42-.43.62h-.02c.08-.25.17-.49.27-.72.05-.12.08-.24.15-.34.01-.01.02-.03.03-.04-.22-.09-.43-.19-.65-.28-.15.28-.31.56-.46.84-.22.37-.45.73-.68,1.09h-.02c.16-.41.34-.8.51-1.19.14-.28.28-.56.42-.84-.26-.12-.53-.24-.79-.36-.01.05-.03.1-.05.16-.05.13-.14.24-.22.35-.15.23-.3.46-.47.68h-.02c.09-.27.19-.53.3-.78.05-.13.09-.26.17-.38.03-.04.06-.08.09-.12-2.95-1.35-5.83-2.84-8.66-4.42-.18.1-.36.2-.55.31-.02.01-.04.03-.06.04.94.52,1.86,1.09,2.79,1.62l3.45,2.04v.02s-3.55-1.9-3.55-1.9c-.98-.54-1.98-1.06-2.95-1.62-.21.14-.42.29-.63.45l2.21,1.24c.99.57,1.97,1.15,2.96,1.73v.02c-1.03-.51-2.05-1.04-3.06-1.56l-2.32-1.25c-.21.17-.41.35-.61.54l1.78,1.01c.8.47,1.59.94,2.38,1.43v.02c-.84-.41-1.66-.84-2.48-1.26l-1.87-1.01c-.16.15-.31.31-.46.47l1.38.77c.64.37,1.27.75,1.9,1.14v.02c-.68-.32-1.34-.64-2-.97l-1.46-.77c-.11.12-.22.24-.32.36.36.21.73.43,1.09.64.52.32,1.03.65,1.54.99v.02c-.56-.27-1.11-.54-1.65-.82-.38-.21-.77-.42-1.15-.63-.21.25-.41.5-.59.75,1.7,1.31,1.7,3.33,1.38,4.44-.3,1.04-1.51,2.77-4.11,2.69-.33.23-.67.38-1.05.47-.41.1-.85.1-1.26,0-.83-.2-1.46-.77-1.92-1.4-.02-.02-.01-.06.01-.08.02-.02.05-.01.07,0,.53.55,1.19,1,1.91,1.09.36.05.72,0,1.05-.11.22-.08.44-.19.64-.32.05-1.21.21-2.89.91-4.65,0,0,0,0-.01,0-.15-.08-.28-.2-.42-.31-.27-.21-.54-.42-.81-.65v-.02c.32.16.63.32.93.49.14.07.28.14.41.24.11-.27.24-.53.38-.8,0-.02.02-.04.03-.06-.03-.03-.07-.07-.1-.1l-.44-.46c-.28-.32-.56-.64-.83-.98l.02-.02c.32.28.65.56.96.84l.47.44s.04.03.05.05c.15-.27.31-.55.48-.84-.16-.23-.31-.45-.47-.68-.26-.4-.52-.81-.77-1.22l.02-.02c.31.37.62.73.92,1.11.14.19.29.38.44.57.18-.28.37-.57.58-.85-.14-.27-.27-.55-.41-.82-.15-.33-.29-.66-.43-.99h.02c.2.29.4.59.59.89.13.23.26.46.39.69.25-.33.53-.66.84-.99-.08-.2-.16-.39-.24-.59-.1-.28-.19-.56-.27-.85h.02c.16.24.3.5.45.76.08.16.16.32.23.48.2-.2.4-.4.62-.59-.07-.21-.14-.42-.21-.63-.08-.29-.15-.58-.22-.87h.03c.14.26.27.53.39.8.07.18.14.35.21.53.34-.29.71-.57,1.11-.84-.18-.52-.34-1.04-.5-1.57h.03c.23.47.44.96.65,1.45.11-.07.22-.14.34-.21.12-.07.24-.14.37-.21-.03-.21-.06-.41-.09-.62-.04-.34-.07-.69-.09-1.04h.03c.1.33.19.66.28,1,.04.18.08.35.11.53.4-.22.84-.42,1.3-.6,0-.2,0-.39,0-.59.02-.34.04-.69.08-1.03h.03c.04.34.08.69.11,1.03,0,.17.02.34.03.5.34-.12.7-.21,1.07-.27.04-.23.08-.45.11-.68.07-.35.15-.7.24-1.05h.03c-.01.36-.03.72-.05,1.08-.02.2-.04.41-.07.61.35-.04.72-.05,1.08,0,.05-.2.11-.39.17-.59.1-.3.21-.61.32-.91h.03c-.04.33-.09.64-.14.96-.04.19-.08.38-.12.57.34.06.68.15,1.03.29.07-.17.13-.34.2-.51.12-.28.25-.56.39-.83h.03c-.06.31-.14.61-.22.9-.06.18-.11.36-.17.54.05.02.1.04.15.07.19.1.38.22.57.36.1-.14.2-.29.31-.43.2-.26.4-.51.61-.76h.02c-.14.31-.3.59-.45.87-.1.16-.19.31-.29.47.19.15.37.32.54.51.11-.11.24-.2.37-.3.28-.22.57-.44.86-.65l.02.02c-.24.27-.49.53-.74.79-.11.11-.21.24-.34.34.22.26.41.53.56.82.44.82.55,1.65.33,2.36,1.16.6,2.33,1.17,3.51,1.72.91.42,1.84.83,2.74,1.32.9.48,1.77,1.03,2.58,1.66,1.1.85,2.08,1.86,2.91,2.97,0-.13,0-.27.04-.4.11-.6.54-1.15,1.09-1.46l.17-.1.06-.16c.16-.4.21-.76.2-1.16-.02-.4-.13-.8-.34-1.15ZM48.25,26c.18.05.26.23.2.4-.28.82-3.36,2.32-4.05,1.65-.11-.6,1.97-2.55,3.85-2.06ZM22.97,1.31c.99-.52,2.92-1.31,4.2-.48.27.17.27.58,0,.76-.81.55-2.56,1.45-4.22.53-.32-.18-.3-.64.02-.81ZM22.25,3.59c.49.02,1.04.07,1.53.11.25.03.49.07.74.11.25.05.49.09.74.14v.05c-.25.03-.5.05-.75.08-.25.02-.5.04-.74.05-.49,0-1.2.1-1.69.07l.18-.61ZM21.86,4.8c.57.03,1.13.11,1.69.16.28.04.56.08.84.13.28.05.56.1.84.16v.05c-.29.02-.57.04-.86.05-.28.02-.57.03-.85.03-.57-.02-1.28-.02-1.84-.06l.18-.53ZM21.47,5.84c.54.06,1.08.15,1.62.23.27.05.54.1.8.17.27.06.54.12.8.19v.05c-.28.01-.56.01-.83.02-.27,0-.55,0-.82,0-.54-.04-1.32-.1-1.87-.16l.29-.49ZM20.53,6.77c.64.08,1.28.19,1.93.29.32.06.64.12.96.2.32.07.64.14.95.22v.05c-.33,0-.66,0-.99,0-.33,0-.65-.02-.98-.04-.65-.06-1.61-.18-2.25-.26l.38-.45ZM10.41,21.35c.15-.28.31-.56.48-.84.16-.28.36-.54.55-.79.2-.25.42-.49.66-.7-.19.26-.36.53-.53.79-.17.27-.32.55-.48.82-.16.28-.3.56-.44.84-.14.28-.3.56-.53.8.02-.34.15-.64.3-.92ZM4.12,25.14c.38.07.76.09,1.13.08.37-.01.74-.02,1.12-.07.37-.04.75-.1,1.12-.18.19-.04.37-.1.56-.15l.55-.18.02.05c-.34.2-.69.38-1.05.54-.37.15-.75.29-1.14.35-.4.07-.81.1-1.21.04-.4-.07-.8-.18-1.13-.43l.03-.05ZM3.73,26.58c.34,0,.66,0,.99,0l.96-.02c.32,0,.64-.02.96-.05.32-.03.64-.12.95-.21l.02.05c-.29.17-.59.32-.92.42-.32.1-.66.2-1,.22-.34.03-.68.01-1.02-.05-.33-.07-.66-.15-.97-.3v-.05ZM4.06,37.85s-.04,0-.05-.02c-.28-.51-.49-1.05-.67-1.61-.18-.56-.3-1.14-.37-1.73-.06-.59-.09-1.19.03-1.77.11-.58.3-1.15.61-1.66.01-.02.04-.03.06-.01.01,0,.02.02.02.04.01.59-.02,1.15-.03,1.71,0,.56-.06,1.11-.05,1.66,0,.56.04,1.11.11,1.67.07.56.2,1.11.36,1.67,0,.02,0,.04-.03.05ZM3.37,27.99v-.05c.28-.05.54-.06.79-.08.26-.02.51,0,.76,0,.51.01,1.02.06,1.52-.09l.02.05c-.22.15-.48.24-.74.32-.26.08-.53.13-.8.15-.27.01-.54.01-.8-.05-.26-.06-.52-.12-.77-.24ZM5.67,45.74s-.02.02-.03.02c-.01,0-.02-.01-.02-.02-.08-.56-.12-1.11-.21-1.66-.08-.55-.14-1.09-.24-1.63-.1-.54-.22-1.08-.36-1.62-.15-.54-.33-1.06-.55-1.58,0-.01,0-.03.01-.04.01,0,.03,0,.03.01.56.97,1.02,2.03,1.28,3.14.13.55.23,1.12.24,1.69,0,.57-.03,1.14-.16,1.7ZM17.36,51.66c-.26.24-.54.46-.85.63-.31.17-.63.33-.98.4-.35.08-.71.11-1.06.06-.02,0-.03-.02-.02-.03,0,0,0-.02.02-.02.32-.15.64-.27.94-.4.3-.14.61-.24.91-.39.3-.14.6-.29.89-.47.29-.17.56-.38.82-.6.01,0,.03,0,.04,0,0,0,0,.02,0,.03-.2.28-.44.54-.7.78ZM27.18,45.17c-.4.54-.85,1.04-1.37,1.48-.26.22-.54.42-.84.59-.3.17-.61.31-.93.44-.63.26-1.27.43-1.89.63-.62.2-1.23.44-1.7.9-.02.02-.04.02-.06,0-.01-.01-.02-.04,0-.05.39-.57,1.02-.91,1.61-1.22.6-.3,1.2-.57,1.78-.85.58-.28,1.1-.62,1.66-.95.55-.34,1.09-.72,1.69-1.04.02-.01.05,0,.06.02,0,.01,0,.03,0,.04ZM30.11,42.11c-.33-.04-.64-.13-.95-.23-.62-.21-.94-.53-1.5-.85v-.02c.6.26,1.21.46,1.82.64.31.08.61.17.92.24.31.07.62.12.94.15v.03c-.32.08-.91.09-1.23.06ZM30.69,41.22c-.35-.02-.69-.09-1.02-.18-.67-.18-1.15-.51-1.77-.81v-.02c.65.24,1.31.42,1.97.57.33.07.66.15.99.19.33.05.67.08,1.01.08v.03c-.33.09-.84.16-1.18.14ZM30.28,39.75c.33.06.66.11.99.16l.99.15v.03c-.68.06-1.35.1-2.01-.04-.66-.15-1.31-.46-1.91-.78v-.02c.63.26,1.29.38,1.95.5ZM35.27,37.82c-.25-.04-.48-.12-.71-.22-.23-.1-.42-.25-.62-.41-.39-.3-.75-.67-.94-1.12h.02c.25.4.64.7,1.04.95.2.12.42.22.62.35.2.14.41.25.59.43v.02ZM36.44,37.76c-.61-.34-1.04-.87-1.6-1.29-.27-.22-.54-.45-.78-.7-.24-.26-.47-.54-.57-.88h.03c.13.31.38.56.64.78.26.23.53.43.82.63.56.4,1.25.82,1.84,1.16l-.37.31ZM37.09,36.98c-.75-.36-1.28-1.01-1.89-1.55-.3-.27-.59-.57-.85-.89-.26-.31-.48-.66-.69-1h.02c.24.31.49.63.77.91.27.29.57.56.88.81.61.51,1.31.95,2.02,1.29l-.27.42ZM37.61,35.97c-.66-.47-1.17-1.13-1.77-1.67-.29-.28-.58-.56-.84-.87-.26-.31-.51-.63-.7-.99h.02c.21.32.49.61.77.89.28.28.58.54.89.8.6.52,1.17.96,1.82,1.42l-.19.41ZM38.05,34.87c-.77-.43-1.42-1.21-2.02-1.84-.29-.33-.55-.68-.78-1.05-.21-.38-.37-.79-.48-1.21h.03c.27.81.78,1.52,1.39,2.11.3.3.62.58.96.83.34.25.7.49,1.06.69l-.16.46ZM30.86,28.57c.39-.21.84-.33,1.28-.33.32,0,.61.05.9.15.2-.21.42-.4.7-.55.39-.21.87-.3,1.33-.22.46.08.86.31,1.17.59.16.14.29.29.41.45.12.17.22.31.32.54.11.28.12.43.15.59l.1.49.21.99c.07.33.13.58.34.8.21.23.47.46.77.58h0s.04.05.03.07c0,.02-.03.03-.05.03-.38,0-.72-.15-1.04-.34-.16-.09-.33-.25-.44-.42-.11-.17-.2-.34-.27-.5-.14-.33-.27-.64-.39-.97l-.17-.5c-.06-.16-.11-.35-.14-.39-.12-.19-.35-.44-.55-.6-.21-.16-.43-.28-.65-.31-.22-.04-.44-.02-.66.08-.22.1-.45.27-.63.47l-.29.33-.34-.21c-.21-.13-.55-.24-.84-.26-.3-.02-.6.03-.88.16-.27.14-.52.34-.74.59-.11.13-.2.27-.3.41l-.26.46-.08.15-.13.04c-.49.14-1.01.37-1.47.65-.46.28-.89.62-1.22,1.04-.33.42-.58.92-.64,1.46-.07.54.06,1.09.24,1.62,0,.03,0,.06-.03.07-.03,0-.06,0-.07-.03-.23-.51-.44-1.08-.41-1.68.02-.6.25-1.17.57-1.67.33-.5.76-.93,1.25-1.27.45-.31.91-.56,1.44-.76l.2-.42c.11-.17.21-.35.33-.51.25-.33.56-.63.94-.85ZM26.55,27.34c.71-.67,1.39-1.37,2.07-2.08-.25.42-.56.82-.87,1.2-.31.38-.66.74-1.01,1.08-.72.68-1.5,1.29-2.37,1.76.74-.65,1.48-1.28,2.19-1.96ZM21.15,35.65c.3-.37.6-.74.86-1.13.27-.39.53-.79.78-1.19.25-.41.48-.82.72-1.25-.13.47-.32.91-.53,1.35-.21.44-.47.85-.74,1.25-.28.4-.59.77-.93,1.12-.34.35-.72.65-1.13.91.34-.34.67-.69.97-1.05ZM18.1,36.91c.24.26.51.52.8.79.41.05.81.05,1.23,0,.25-.03.49-.09.74-.16.83-.78,1.55-1.68,2.17-2.64.73-1.12,1.35-2.32,1.88-3.56.13-.31.26-.62.39-.93l.11-.29c-.24.1-.47.22-.7.34-.45.24-.87.52-1.28.83.34-.38.72-.74,1.13-1.06.41-.32.83-.62,1.31-.88.02-.01.04-.01.06-.02,0,0,0,0,0,0,.58-.29,1.1-.69,1.59-1.14.49-.45.94-.95,1.35-1.49.42-.53.79-1.1,1.13-1.69h0s.04-.03.06-.02c.02.01.02.03.02.05-.49,1.29-1.21,2.5-2.16,3.55-.47.52-1.02.99-1.65,1.36-.03.02-.04.04-.06.06,0,0,0,.02-.01.03l-.04.12-.16.5c-.11.33-.23.66-.36.98-.26.65-.56,1.28-.87,1.9-.34.61-.69,1.22-1.09,1.79-.8,1.15-1.73,2.22-2.85,3.09-.55.44-1.18.81-1.76,1.14-.59.33-1.16.69-1.73,1.07-1.12.76-2.19,1.61-3.16,2.55-.97.94-1.86,1.98-2.58,3.14-.71,1.15-1.26,2.42-1.5,3.77,0,.02-.02.04-.05.03-.02,0-.04-.02-.03-.05.09-.62.24-1.23.44-1.83-.06.07-.12.14-.19.21-.18.16-.38.3-.59.4-.21.11-.45.16-.69.18.41-.24.78-.47,1.1-.78.16-.15.31-.31.46-.48.07-.08.13-.17.19-.25.19-.45.41-.9.65-1.33.68-1.2,1.54-2.3,2.5-3.3.96-.99,2.02-1.89,3.15-2.7.56-.4,1.14-.79,1.73-1.15.39-.23.75-.46,1.09-.71-.46.11-.94.14-1.4.1-.3-.03-.59-.08-.87-.15-.28-.07-.53-.15-.79-.21-.52-.14-1.05-.25-1.57-.26-1.04-.07-1.95.56-2.78,1.28-.42.36-.87.73-1.37,1-.5.27-1.05.49-1.62.48-.02,0-.04-.02-.04-.04,0-.02.02-.04.04-.04.54-.06,1.04-.32,1.5-.62.42-.28.78-.62,1.14-.99-.08.01-.17.02-.25.03-.36.01-.72-.1-1.03-.27-.6-.33-1.04-.81-1.55-1.15-.48-.34-1.12-.35-1.77-.37-.65-.02-1.34-.16-1.86-.56-.01,0-.01-.03,0-.04,0-.01.02-.01.04,0,.56.33,1.2.39,1.83.34.32-.01.65-.04.98-.01.34.02.69.11,1,.28.59.33,1.12.71,1.62,1.06.38.27.83.42,1.33.39.33-.32.69-.62,1.09-.88.25-.15.52-.29.82-.38.29-.09.6-.13.89-.15.6-.03,1.18.03,1.75.12.15.03.3.06.45.09-.21-.19-.4-.42-.51-.74-.09-.31-.16-.62-.21-.92-.05-.31-.08-.55-.19-.81-.09-.26-.22-.48-.41-.66-.37-.38-.96-.54-1.53-.62-.02,0-.04-.02-.04-.05,0-.02.02-.03.04-.04.59-.04,1.23.02,1.79.39.55.4.81,1.07.96,1.63.09.27.19.53.32.77.1.17.26.36.43.55ZM9.92,46.87c.28-.81.64-1.6,1.08-2.34.43-.75.94-1.45,1.49-2.11.56-.66,1.17-1.28,1.82-1.83.66-.56,1.36-1.07,2.13-1.45-.64.57-1.25,1.16-1.85,1.76-.59.61-1.16,1.22-1.7,1.87-.54.64-1.06,1.31-1.55,2-.5.68-.95,1.4-1.43,2.11ZM11.34,28.61l-.03-.08.08-.04c.25-.14.49-.3.71-.49.22-.19.41-.4.6-.62.38-.44.69-.93.96-1.46h.03c-.12.6-.41,1.15-.78,1.63-.18.24-.41.46-.65.64-.22.18-.46.31-.71.44.05.24.05.46.04.7-.02.26-.06.51-.12.76-.06.25-.15.49-.24.72-.1.23-.21.46-.32.68h-.02c.1-.24.2-.47.28-.71.08-.24.15-.48.19-.72.05-.24.08-.49.08-.73,0-.24-.02-.5-.09-.71ZM20.5,15.59c-.03.37-.18.74-.4,1.04-.15.22-.34.39-.54.54.01.21,0,.41-.02.62-.03.31-.11.62-.23.92-.11.3-.27.58-.47.83-.14.19-.32.35-.5.5,0,.01-.02.03-.02.04,0,.38-.05.74-.15,1.1-.11.43-.28.85-.53,1.22-.25.37-.56.7-.91.97-.36.25-.75.46-1.17.58-.41.15-.84.2-1.26.23-.31,0-.61-.03-.91-.07-.09.46-.78,1.66-1.18,2.26-.45.68-1.07,1.22-1.74,1.67.05.42.05.8.03,1.2-.03.43-.09.85-.19,1.26-.1.41-.23.81-.41,1.19-.17.38-.4.73-.64,1.06.18-.37.35-.74.45-1.13.11-.39.18-.78.2-1.18.03-.4.02-.79-.02-1.18-.03-.26-.07-.53-.13-.78-.69.4-1.39.77-1.99,1.26-.71.56-1.26,1.32-1.58,2.18,0,.01-.02.02-.03.02-.01,0-.02-.02-.02-.03.25-.89.75-1.73,1.45-2.37.7-.64,1.52-1.11,2.27-1.62.75-.51,1.36-1.16,1.91-1.86.48-.61.87-1.3,1.27-2.01,0,0,0,0,0,0-.82-.21-1.58-.59-2.21-1.13-.02-.02-.03-.05,0-.08.02-.02.05-.03.07,0h0s.03.02.04.03c.33-.7.72-1.34,1.15-1.97.45-.64.96-1.24,1.52-1.79l.02.02c-.5.6-.95,1.23-1.36,1.89-.42.64-.78,1.31-1.1,2,.29.18.6.34.92.46.25-.58.55-1.14.87-1.68.37-.58.78-1.13,1.28-1.6l.02.02c-.44.52-.79,1.1-1.11,1.69-.3.53-.56,1.09-.8,1.66.25.08.5.15.76.2.03,0,.07,0,.1,0,0,0,0,0,0-.01,0,0,.02,0,.03,0l.09-.18c.07-.14.15-.28.23-.42l.5-.81c.34-.54.69-1.07,1.08-1.58h.02c-.32.57-.62,1.13-.91,1.69l-.44.84c-.08.14-.14.28-.23.42l-.05.09c.25.02.5.02.75,0,.05,0,.1-.02.15-.02.28-.58.59-1.14.9-1.7.34-.57.69-1.14,1.09-1.67l.02.02c-.33.57-.63,1.16-.93,1.75-.27.5-.51,1.02-.77,1.53.22-.05.44-.11.64-.2.12-.04.24-.1.35-.16.12-.22.25-.44.38-.66.15-.23.31-.46.47-.69h.02c-.09.27-.19.53-.3.79-.05.1-.1.2-.14.3.07-.05.14-.1.21-.15.29-.25.53-.53.72-.85.37-.64.51-1.44.45-2.14v-.11c-.08-.4-.15-.8-.24-1.2-.1-.45-.22-.9-.39-1.33.29.37.54.78.77,1.19.13.24.26.48.38.72.04-.05.08-.09.11-.14.14-.19.24-.4.31-.63.07-.22.11-.46.12-.7,0-.15,0-.33-.02-.48,0-.01-.02-.03-.02-.04h0c-.15-.42-.33-.85-.54-1.26-.21-.41-.43-.81-.75-1.15.41.24.75.57,1.08.92.2.21.39.44.57.67.11-.1.22-.21.28-.34.11-.17.17-.36.18-.56.01-.2,0-.43-.07-.65-.04-.13-.09-.27-.14-.41,0-.01-.02-.02-.03-.03h0c-.24-.37-.52-.75-.81-1.1-.3-.35-.6-.69-.99-.94.45.13.87.38,1.26.64.19.13.38.26.56.4.05-.11.11-.21.15-.32.06-.2.15-.39.18-.59.11-.4.1-.82.02-1.23-.08-.41-.24-.83-.47-1.22-.23-.39-.52-.76-.85-1.09h0s-.02-.06,0-.08c.02-.02.04-.02.06-.01.45.21.84.52,1.19.88.34.37.63.81.81,1.31.19.5.25,1.05.19,1.59-.01.27-.1.53-.16.79-.05.15-.1.3-.16.45.12.22.21.44.28.68.09.33.14.69.1,1.06ZM21.36,8.45c-.74-.02-1.8-.07-2.54-.11l.34-.49c.74.04,1.48.11,2.23.17.37.04.74.08,1.11.14.37.06.74.1,1.11.17v.05c-.38.02-.75.03-1.12.05-.37.02-.75.02-1.12.02ZM34.02,7.41c-.3-.06-.59-.12-.92-.16.14-.09.31-.12.48-.13.17-.02.33,0,.49.03.31.07.66.19.85.48-.31-.11-.6-.16-.9-.22ZM37.18,8.92c-.26-.22-.52-.43-.85-.6.19-.02.37.03.55.1.18.07.33.18.47.3.14.13.26.26.36.42.1.15.18.33.23.5-.27-.25-.51-.5-.77-.72ZM39.38,12.26c-.16-.28-.26-.54-.37-.81-.05-.14-.11-.27-.16-.41-.05-.14-.1-.28-.15-.43.14.09.24.2.33.33.09.12.17.26.23.4.11.29.18.6.12.91Z"/>
      <path class="cls-1" d="M13.26,23.93s0-.2,0-.21c0,0,0,0,0,0v.02s-.03,0-.04,0c-.05.1-.11.19-.16.29.11.03.23.04.35.06.03-.15,0-.23-.13-.17Z"/>
      <path class="cls-1" d="M43.64,37.86c-.16,1.46.89,2.77,2.33,2.93s2.74-.9,2.9-2.37c.16-1.46-2.07-6.41-2.07-6.41,0,0-3,4.39-3.16,5.85Z"/>
    </g>
  </g>
</svg>