<?xml version="1.0" encoding="UTF-8"?>
<svg id="Capa_2" data-name="Capa 2" xmlns="http://www.w3.org/2000/svg" viewBox="0 0 51.62 58.58">
  <defs>
    <style>
      .cls-1 {
        opacity: .36;
        stroke-width: .28px;
      }

      .cls-1, .cls-2 {
        stroke: #1d1d1b;
      }

      .cls-1, .cls-2, .cls-3 {
        stroke-miterlimit: 10;
      }

      .cls-1, .cls-3, .cls-4 {
        fill: #1d1e1c;
      }

      .cls-2 {
        fill: none;
        stroke-width: .91px;
      }

      .cls-3 {
        stroke: #1d1e1c;
        stroke-width: .39px;
      }

      .cls-4, .cls-5 {
        stroke-width: 0px;
      }

      .cls-5 {
        fill: #1d1d1b;
      }
    </style>
  </defs>
  <g id="Capa_1-2" data-name="Capa 1">
    <g>
      <path class="cls-2" d="M22.91,2.32c.51.21,1.61.59,3.01.41,1.1-.14,1.92-.56,2.38-.84"/>
      <path class="cls-4" d="M34.28,7.8c.15-.09.32-.12.49-.14.17-.02.34,0,.51.03.32.07.68.2.87.5-.32-.11-.61-.17-.93-.23-.31-.06-.61-.12-.95-.16Z"/>
      <path class="cls-4" d="M19.48,8.26c.2-.25.4-.23.59-.23.19,0,.38,0,.57.02l1.14.13c.38.04.76.09,1.14.14.38.06.76.11,1.14.17v.06c-.39.02-.77.03-1.15.05-.38.02-.77.02-1.15.02h-1.15c-.19,0-.38,0-.57-.02-.19-.02-.38-.02-.56-.29v-.06Z"/>
      <path class="cls-4" d="M20.97,7.15c.19-.16.36-.19.53-.19.17,0,.33.02.5.04.33.05.66.13.98.19.66.12,1.31.28,1.96.43v.05c-.68,0-1.35,0-2.02-.05-.33-.02-.67-.02-1-.05-.17-.01-.33-.04-.49-.08-.16-.04-.32-.11-.47-.31v-.05Z"/>
      <path class="cls-4" d="M21.76,6.17c.17-.25.31-.22.45-.21.14,0,.28.02.42.04l.83.16c.28.05.55.11.83.17.27.07.55.13.82.2v.05c-.29.01-.57.01-.85.02-.28,0-.56,0-.85,0l-.84-.02c-.14,0-.28-.02-.42-.05-.14-.03-.28-.02-.39-.3v-.05Z"/>
      <path class="cls-4" d="M22.2,5.2c.16-.23.31-.23.45-.23.15,0,.29,0,.44.02l.87.13c.29.04.58.08.87.14.29.06.58.1.86.17v.06c-.3.03-.59.04-.88.05-.29.02-.58.03-.88.03l-.88.02c-.15,0-.29-.01-.44-.04-.14-.01-.29-.04-.42-.29v-.06Z"/>
      <path class="cls-4" d="M23.11,3.85c.51.02,1.01.08,1.52.12.25.03.51.07.76.12.25.05.51.09.76.14v.06c-.26.03-.51.05-.77.08-.26.03-.51.04-.77.05-.51,0-1.02.01-1.53-.01l.02-.55Z"/>
      <path class="cls-1" d="M23.14,1.9s3.74-2.47,5.46-.45c0,0-2.98,2.61-5.46.45Z"/>
      <path class="cls-4" d="M41.61,20.22c-.07,0-.14-.01-.21-.04-.07-.03-6.89-2.85-11.46-5.91-.25-.17-.32-.51-.15-.77.17-.25.51-.32.77-.15,4.48,3,11.2,5.77,11.27,5.8.28.12.42.44.3.72-.09.21-.29.34-.51.34Z"/>
      <path class="cls-4" d="M37.59,8.9c.19-.02.38.03.56.11.18.07.34.18.49.31.14.13.27.27.37.43.11.16.18.34.23.52-.28-.26-.52-.51-.79-.74-.27-.23-.54-.44-.87-.62Z"/>
      <path class="cls-4" d="M39.92,11.04c.14.09.25.21.34.34.1.13.17.27.23.41.12.29.18.62.13.94-.16-.28-.27-.56-.38-.83-.05-.14-.11-.27-.16-.42-.05-.14-.11-.28-.16-.44Z"/>
      <path class="cls-4" d="M31.12,25.93c-.5,1.33-1.24,2.57-2.22,3.65-.49.54-1.05,1.02-1.7,1.4-.03.02-.05.04-.06.06,0,.01,0,.02-.01.03l-.04.12-.16.51c-.11.34-.24.68-.37,1.01-.27.66-.57,1.31-.9,1.95-.35.63-.71,1.25-1.12,1.84-.82,1.18-1.78,2.29-2.93,3.17-.56.45-1.21.84-1.81,1.17-.61.34-1.2.71-1.78,1.1-1.15.78-2.25,1.65-3.25,2.62-1,.97-1.91,2.04-2.65,3.22-.73,1.18-1.29,2.49-1.54,3.87,0,.02-.03.04-.05.03-.02,0-.04-.02-.03-.05.19-1.4.71-2.75,1.41-3.99.7-1.24,1.59-2.36,2.57-3.39.99-1.02,2.08-1.94,3.24-2.77.58-.41,1.17-.81,1.78-1.18.62-.37,1.17-.72,1.7-1.17,1.05-.87,1.92-1.96,2.66-3.12.75-1.16,1.39-2.39,1.93-3.66.14-.32.27-.64.4-.96l.18-.48.04-.13c.03-.07.06-.14.1-.21.08-.13.21-.23.33-.29.59-.3,1.13-.71,1.64-1.17.51-.46.96-.98,1.39-1.53.43-.55.81-1.13,1.17-1.74h0s.04-.03.06-.02c.02.01.03.03.02.05Z"/>
      <path class="cls-4" d="M27.01,30.87c-.47.16-.95.38-1.41.62-.46.25-.9.53-1.32.86.35-.39.74-.76,1.16-1.09.42-.33.86-.63,1.35-.9.13-.07.3-.03.38.11.07.13.03.3-.11.38-.01,0-.03.01-.04.02h0Z"/>
      <path class="cls-4" d="M22.54,38.57c-.43.4-.94.74-1.52.93-.58.21-1.22.27-1.83.21-.31-.03-.61-.08-.89-.16-.28-.07-.54-.15-.82-.22-.54-.14-1.08-.25-1.61-.26-1.07-.07-2,.58-2.86,1.32-.43.37-.9.75-1.41,1.03-.51.28-1.08.5-1.67.5-.02,0-.04-.02-.04-.04,0-.02.02-.04.04-.04.56-.06,1.07-.33,1.54-.63.47-.31.86-.7,1.26-1.11.41-.41.85-.81,1.36-1.13.25-.16.54-.3.84-.39.3-.09.61-.14.92-.15.61-.03,1.21.03,1.8.13.29.05.58.12.85.18.27.07.53.13.79.17.52.1,1.05.12,1.58.04.53-.07,1.07-.24,1.61-.44.02,0,.05,0,.05.02,0,.02,0,.03-.01.05Z"/>
      <path class="cls-4" d="M20.02,39.45c-.65-.06-1.25-.3-1.79-.71-.26-.21-.51-.48-.65-.87-.1-.32-.16-.64-.21-.95-.05-.31-.09-.57-.19-.83-.09-.26-.23-.49-.42-.68-.38-.39-.98-.55-1.58-.64-.02,0-.04-.02-.04-.05,0-.02.02-.03.04-.04.6-.04,1.27.02,1.84.41.56.41.83,1.1.99,1.67.09.28.2.55.33.79.1.18.27.37.45.57.37.4.82.79,1.26,1.25h0s.02.05,0,.06c0,0-.02.01-.03.01Z"/>
      <path class="cls-4" d="M13.37,39.86c-.27.21-.62.35-.99.35-.37.01-.74-.1-1.06-.28-.62-.34-1.07-.84-1.6-1.18-.5-.35-1.16-.36-1.82-.38-.66-.02-1.38-.16-1.91-.58-.01,0-.02-.03,0-.04,0-.01.02-.01.04,0,.57.34,1.23.4,1.88.35.33-.01.66-.04,1.01-.02.35.02.71.11,1.03.29.61.34,1.15.73,1.66,1.09.49.35,1.08.5,1.74.35.02,0,.03,0,.03.02,0,.01,0,.02-.01.03Z"/>
      <path class="cls-4" d="M17.09,40.41c-.66.58-1.29,1.19-1.9,1.81-.6.62-1.2,1.26-1.75,1.93-.56.66-1.09,1.34-1.6,2.05-.52.7-.98,1.44-1.47,2.17.29-.83.65-1.65,1.11-2.41.44-.77.97-1.49,1.53-2.17.57-.68,1.2-1.31,1.88-1.89.68-.57,1.4-1.1,2.19-1.5Z"/>
      <path class="cls-4" d="M24.36,33.16c-.13.48-.33.94-.55,1.38-.22.45-.48.87-.76,1.28-.28.41-.61.79-.96,1.15-.35.36-.74.67-1.16.94.35-.35.69-.71,1-1.08.31-.38.61-.76.89-1.16.28-.4.54-.81.8-1.23.26-.42.5-.85.74-1.28Z"/>
      <path class="cls-4" d="M29.61,26.15c-.26.44-.57.84-.9,1.23-.32.39-.68.76-1.04,1.11-.74.7-1.55,1.33-2.44,1.81.77-.67,1.52-1.32,2.25-2.01.73-.69,1.43-1.4,2.13-2.14Z"/>
      <path class="cls-5" d="M11.48,48.74c-.03.24-.13.47-.25.68-.12.22-.28.41-.46.58-.18.17-.39.31-.61.41-.22.11-.47.16-.71.19.42-.24.8-.49,1.13-.8.17-.15.32-.32.47-.5.15-.18.29-.36.43-.56Z"/>
      <path class="cls-4" d="M13.82,24.6c-.18.94-.54,1.86-1.08,2.68-.54.83-1.34,1.46-2.17,1.96-.83.49-1.67.91-2.39,1.5-.73.57-1.3,1.35-1.62,2.24,0,.01-.02.02-.04.02-.01,0-.02-.02-.02-.03.25-.92.77-1.78,1.49-2.44.72-.66,1.56-1.14,2.33-1.66.77-.52,1.4-1.19,1.96-1.91.57-.72,1.01-1.54,1.48-2.38,0-.01.02-.02.04-.01.01,0,.02.02.01.03Z"/>
      <path class="cls-4" d="M10.94,28.89c.07.48.07.9.04,1.34-.03.44-.09.87-.19,1.29-.1.42-.24.83-.42,1.22-.17.39-.41.75-.66,1.09.19-.38.36-.76.46-1.16.11-.4.18-.81.21-1.21.03-.41.03-.82-.02-1.22-.04-.4-.12-.81-.23-1.16l.8-.2Z"/>
      <path class="cls-4" d="M14.25,26.83c-.12.61-.42,1.17-.8,1.67-.19.25-.42.47-.67.66-.24.2-.52.35-.8.49l.05-.13c.08.28.08.54.07.81-.02.26-.06.52-.13.78-.06.25-.15.5-.25.74-.1.24-.21.47-.33.7h-.02c.11-.25.2-.49.29-.73.08-.24.15-.49.2-.74.05-.25.08-.5.08-.75,0-.25-.02-.51-.09-.73l-.03-.08.08-.04c.26-.15.51-.31.73-.51.22-.2.43-.41.62-.64.39-.45.71-.96.99-1.5h.03Z"/>
      <path class="cls-4" d="M4.42,26.03c.39.07.78.1,1.17.09.38-.01.77-.02,1.15-.07.38-.04.77-.11,1.16-.19.19-.04.38-.1.58-.15l.57-.19.02.05c-.35.21-.71.39-1.08.55-.38.15-.77.3-1.18.36-.41.07-.83.11-1.24.04-.41-.07-.83-.18-1.16-.44l.03-.05Z"/>
      <path class="cls-4" d="M4.01,27.51c.35,0,.68,0,1.01,0l.99-.02c.33,0,.66-.02.99-.05.33-.03.65-.12.98-.22l.02.05c-.29.18-.61.33-.94.44-.33.11-.68.2-1.03.23-.35.03-.7.01-1.04-.05-.34-.07-.68-.15-1-.31v-.05Z"/>
      <path class="cls-4" d="M3.65,28.9c.28-.05.54-.06.81-.08.26-.02.53,0,.79,0,.52.01,1.05.06,1.56-.09l.02.05c-.23.16-.49.25-.76.33-.27.08-.54.14-.82.15-.28.01-.55.01-.82-.05-.27-.06-.54-.12-.79-.25v-.05Z"/>
      <path class="cls-4" d="M29.32,40.54c.64.26,1.32.39,1.99.51.34.06.67.12,1.01.17l1.02.16v.03c-.69.06-1.4.01-2.08-.13-.68-.15-1.34-.38-1.96-.71v-.02Z"/>
      <path class="cls-4" d="M28.88,41.52c.66.25,1.34.43,2.02.59.34.07.68.15,1.02.2.34.06.69.09,1.04.08v.03c-.34.1-.7.1-1.06.09-.36-.02-.71-.09-1.05-.18-.69-.19-1.34-.47-1.97-.78v-.03Z"/>
      <path class="cls-4" d="M28.64,42.34c.6.27,1.23.48,1.86.66.31.09.63.18.95.24.32.07.64.13.97.15v.03c-.33.08-.67.06-1,.03-.33-.04-.66-.13-.98-.24-.63-.22-1.23-.52-1.81-.85v-.02Z"/>
      <path class="cls-4" d="M38.48,23.94c-.69.19-1.39.34-2.09.51-.7.16-1.41.28-2.11.41v-.04c.67-.23,1.34-.49,2.03-.69.69-.2,1.37-.41,2.07-.59l.11.4Z"/>
      <path class="cls-4" d="M39.94,24.45c-.91.29-1.82.55-2.73.82-.91.26-1.84.49-2.76.72v-.04c.88-.34,1.76-.69,2.66-1,.9-.3,1.8-.61,2.7-.9l.13.39Z"/>
      <path class="cls-4" d="M41.7,25.17c-.96.25-1.94.47-2.91.71-.97.23-1.95.41-2.93.61v-.04c.94-.3,1.89-.62,2.85-.89.96-.26,1.92-.54,2.88-.79l.1.4Z"/>
      <path class="cls-4" d="M40.68,26.45c-.58.19-1.17.35-1.75.53-.59.17-1.19.29-1.78.43v-.04c.55-.24,1.11-.5,1.68-.71.57-.2,1.14-.42,1.72-.61l.13.39Z"/>
      <path class="cls-4" d="M41.69,27.43c-.66.21-1.34.39-2,.59-.67.19-1.35.33-2.03.49v-.04c.63-.26,1.28-.54,1.93-.77.66-.22,1.31-.46,1.98-.67l.13.39Z"/>
      <path class="cls-5" d="M39.34,35.8c-.79-.44-1.49-1.01-2.12-1.66-.3-.33-.57-.7-.8-1.08-.22-.39-.38-.81-.49-1.24h.03c.28.84.8,1.56,1.42,2.17.31.31.64.59.99.86.35.26.72.5,1.09.71l-.13.24Z"/>
      <path class="cls-5" d="M38.97,37.01c-.67-.48-1.31-1.01-1.93-1.57-.3-.28-.59-.58-.87-.89-.27-.32-.53-.64-.72-1.01h.02c.22.33.5.63.8.92.29.29.6.56.91.82.62.54,1.28,1.03,1.94,1.51l-.16.23Z"/>
      <path class="cls-5" d="M38.47,38.01c-.77-.37-1.46-.85-2.1-1.4-.31-.28-.6-.59-.87-.91-.27-.32-.5-.68-.71-1.03h.02c.25.32.5.65.79.94.28.3.59.58.91.83.63.53,1.33.97,2.06,1.32l-.11.25Z"/>
      <path class="cls-5" d="M37.8,38.86c-.63-.35-1.22-.75-1.8-1.19-.28-.23-.55-.46-.8-.72-.24-.26-.48-.55-.59-.9h.03c.14.32.39.57.66.8.26.23.55.44.84.64.57.41,1.19.78,1.8,1.12l-.13.24Z"/>
      <path class="cls-5" d="M36.44,39.06c-.25-.04-.49-.12-.73-.22-.23-.1-.44-.26-.64-.42-.4-.31-.77-.69-.97-1.16h.02c.26.41.65.72,1.07.97.21.13.43.22.64.35.2.14.42.26.61.44v.02Z"/>
      <path class="cls-4" d="M6.1,24.5c-.12-.13-.07-.23-.05-.33l.08-.3c.06-.2.12-.4.18-.6.13-.39.28-.78.44-1.16.33-.76.69-1.5,1.1-2.22.41-.71.85-1.42,1.33-2.09.48-.67,1-1.31,1.54-1.93l.02.02c-.51.65-1.01,1.3-1.45,1.99-.46.68-.87,1.39-1.25,2.11-.38.72-.72,1.47-1.02,2.23-.16.38-.29.76-.43,1.15-.07.19-.13.39-.19.58l-.09.29c-.03.1-.03.2-.2.27h-.03Z"/>
      <path class="cls-4" d="M7.53,24.24c.13-.61.32-1.19.53-1.77.22-.57.46-1.14.74-1.68.29-.54.6-1.07.95-1.57.34-.51.73-.98,1.12-1.45l.02.02c-.74.97-1.37,2.01-1.89,3.1-.27.54-.5,1.1-.71,1.67-.2.57-.38,1.15-.49,1.73l-.27-.05Z"/>
      <path class="cls-4" d="M8.9,23.79c.26-.82.6-1.59.98-2.34.4-.75.87-1.46,1.4-2.11l.02.02c-.47.7-.88,1.43-1.23,2.19-.36.75-.67,1.53-.92,2.32l-.27-.08Z"/>
      <path class="cls-4" d="M10.41,23.21c.03-.35.15-.66.31-.95.16-.29.32-.58.49-.86.17-.28.37-.55.57-.81.2-.26.43-.51.68-.72-.2.27-.37.54-.55.82-.18.27-.32.57-.49.85-.16.28-.31.57-.46.86-.15.29-.31.57-.55.82Z"/>
      <path class="cls-4" d="M11.39,23.74c.34-.74.76-1.43,1.22-2.1.47-.66.99-1.28,1.56-1.84l.02.02c-.51.62-.98,1.26-1.4,1.94-.43.67-.82,1.37-1.15,2.09l-.25-.11Z"/>
      <path class="cls-4" d="M12.54,24.45c.27-.66.61-1.28.97-1.88.38-.59.81-1.16,1.32-1.65l.02.02c-.45.54-.81,1.13-1.15,1.74-.34.6-.64,1.24-.9,1.87l-.26-.1Z"/>
      <path class="cls-4" d="M13.78,24.89c-.07-.08-.07-.13-.05-.17l.06-.11.11-.22c.07-.15.16-.29.24-.43l.51-.84c.35-.55.71-1.1,1.11-1.62l.02.02c-.33.57-.63,1.14-.94,1.72l-.45.87c-.08.14-.15.29-.23.43l-.12.21-.06.11s-.06.06-.17.05h-.02Z"/>
      <path class="cls-4" d="M14.99,24.67c.3-.61.63-1.21.96-1.81.35-.59.71-1.17,1.13-1.71l.02.02c-.34.59-.65,1.2-.95,1.8-.32.6-.61,1.22-.91,1.82l-.25-.12Z"/>
      <path class="cls-4" d="M16.34,24.22c.13-.25.28-.49.42-.74.15-.24.31-.48.48-.71h.02c-.1.28-.2.55-.31.81-.12.26-.24.52-.37.77l-.24-.13Z"/>
      <path class="cls-4" d="M19.02,9.31c.78.03,1.56.09,2.35.13.39.03.78.07,1.17.12.39.05.78.09,1.17.15v.06c-.39.03-.79.05-1.18.07-.39.02-.79.04-1.18.04-.78,0-1.57,0-2.35-.02l.02-.55Z"/>
      <path class="cls-4" d="M27.68,14.68l3.07,1.72c1.02.59,2.03,1.18,3.04,1.78v.02c-1.06-.53-2.1-1.07-3.14-1.61l-3.1-1.67.13-.24Z"/>
      <path class="cls-4" d="M26.98,15.49l2.48,1.41c.82.48,1.64.97,2.45,1.47v.02c-.86-.43-1.71-.86-2.55-1.3l-2.51-1.36.13-.24Z"/>
      <path class="cls-4" d="M26.39,16.22l1.99,1.11c.65.38,1.31.77,1.95,1.17v.02c-.7-.33-1.38-.66-2.06-1l-2.01-1.06.13-.24Z"/>
      <path class="cls-4" d="M29.14,18.81c-.56-.28-1.13-.56-1.68-.85-.55-.3-1.1-.6-1.65-.91l.14-.24c.55.31,1.08.64,1.62.95.53.33,1.06.67,1.59,1.01v.02Z"/>
      <path class="cls-4" d="M25.85,17.88c.23.06.44.17.64.27.2.11.38.26.56.4.37.27.74.54,1.1.83l-.02.02c-.41-.21-.81-.44-1.2-.66-.2-.11-.41-.21-.59-.35-.18-.15-.36-.29-.51-.48l.02-.02Z"/>
      <path class="cls-4" d="M39.15,18.49c0,.16-.04.3-.09.43-.05.13-.14.24-.22.36-.15.24-.31.47-.48.7h-.02c.1-.28.2-.55.31-.81.05-.13.09-.27.17-.39.09-.11.17-.23.31-.32h.02Z"/>
      <path class="cls-4" d="M40.32,18.94c-.2.39-.43.77-.64,1.15-.23.38-.46.75-.7,1.12h-.02c.17-.42.35-.82.53-1.22.2-.39.38-.79.59-1.18l.24.13Z"/>
      <path class="cls-4" d="M41.11,19.3c.01.15-.03.27-.07.4-.04.12-.13.22-.2.33-.14.22-.29.43-.44.64h-.02c.08-.26.18-.5.27-.74.05-.12.08-.25.16-.35.08-.1.16-.21.29-.28h.02Z"/>
      <path class="cls-4" d="M42.74,20.04c-.17.32-.36.64-.53.96-.19.31-.39.62-.6.92h-.02c.13-.35.28-.69.42-1.03.16-.33.31-.66.49-.98l.24.13Z"/>
      <path class="cls-4" d="M43.7,20.44c-.12.23-.26.46-.4.69-.15.22-.3.44-.46.66h-.02c.09-.27.18-.52.29-.76.12-.24.22-.48.35-.72l.24.13Z"/>
      <path class="cls-4" d="M44.46,20.89c-.11.21-.24.42-.36.63-.13.2-.27.4-.42.59h-.02c.08-.24.16-.47.25-.7.1-.22.2-.44.31-.65l.24.13Z"/>
      <path class="cls-4" d="M23.72,20.47c-.19-.03-.35-.11-.51-.19-.16-.08-.29-.2-.43-.31-.28-.21-.56-.44-.83-.66l.02-.02c.32.16.63.33.94.5.16.08.32.16.46.27.13.12.27.23.37.4l-.02.02Z"/>
      <path class="cls-4" d="M24.13,19.5c-.18-.15-.33-.3-.49-.46l-.46-.48c-.29-.33-.58-.66-.85-1l.02-.02c.33.29.66.58.99.87l.48.45c.16.14.32.3.48.43l-.17.22Z"/>
      <path class="cls-4" d="M24.74,18.56c-.29-.4-.56-.81-.85-1.21-.27-.41-.53-.83-.79-1.25l.02-.02c.32.38.64.76.95,1.14.3.39.6.78.89,1.18l-.22.16Z"/>
      <path class="cls-4" d="M24.28,15.05c.21.31.41.62.61.93.18.32.37.64.55.96l-.24.13c-.18-.33-.33-.66-.5-.99-.15-.34-.3-.68-.44-1.02h.02Z"/>
      <path class="cls-4" d="M25.66,14.19c.16.26.31.53.46.8.13.27.27.55.39.82l-.25.11c-.12-.28-.23-.56-.34-.85-.1-.29-.19-.58-.28-.87h.03Z"/>
      <path class="cls-4" d="M26.58,13.31c.14.27.28.55.4.83.11.29.24.57.34.86l-.26.09c-.1-.29-.19-.58-.29-.87-.08-.3-.16-.6-.22-.9h.03Z"/>
      <path class="cls-4" d="M27.87,12.21c.31.64.59,1.3.86,1.96l-.05-.06c1.22.63,2.39,1.37,3.58,2.05l3.55,2.1v.02s-3.65-1.96-3.65-1.96c-1.2-.67-2.43-1.28-3.61-2.01l-.04-.03v-.04c-.25-.67-.47-1.35-.67-2.03h.03Z"/>
      <path class="cls-4" d="M29.1,11.56c.1.34.2.69.28,1.03.07.35.15.69.22,1.05l-.27.05c-.06-.35-.11-.7-.16-1.05-.04-.35-.07-.71-.09-1.07h.03Z"/>
      <path class="cls-4" d="M30.95,10.86c.05.35.08.71.11,1.06.01.35.04.71.05,1.06h-.28c0-.35,0-.7,0-1.06.02-.35.04-.71.08-1.06h.03Z"/>
      <path class="cls-4" d="M32.58,10.4c-.01.37-.03.74-.05,1.1-.04.36-.07.73-.12,1.09l-.27-.04c.05-.36.12-.72.18-1.08.07-.36.16-.72.25-1.08h.03Z"/>
      <path class="cls-4" d="M34.09,10.59c-.04.33-.09.66-.14.98-.07.32-.13.65-.21.96l-.27-.07c.08-.32.18-.63.26-.95.1-.31.21-.62.33-.93h.03Z"/>
      <path class="cls-4" d="M35.52,11.09c-.07.31-.14.61-.22.92-.1.3-.18.6-.29.9l-.26-.09c.1-.3.23-.58.34-.88.13-.29.26-.57.4-.85h.03Z"/>
      <path class="cls-4" d="M36.82,11.8c-.15.3-.3.59-.46.88-.17.28-.34.57-.52.85l-.23-.15c.18-.28.38-.54.57-.82.2-.26.41-.52.63-.78l.02.02Z"/>
      <path class="cls-4" d="M37.9,12.74c-.25.27-.5.54-.76.81-.13.13-.24.28-.39.39-.15.1-.3.21-.49.28l-.02-.02c.08-.18.21-.32.33-.46.13-.14.28-.24.43-.35.29-.23.59-.45.89-.66l.02.02Z"/>
      <path class="cls-5" d="M3.98,32.13c.01.61-.02,1.19-.03,1.76,0,.57-.06,1.14-.05,1.71,0,.57.04,1.15.12,1.72.07.58.21,1.15.37,1.71,0,.02,0,.05-.03.05-.02,0-.04,0-.05-.02-.28-.52-.51-1.08-.69-1.65-.19-.57-.31-1.17-.38-1.77-.06-.6-.09-1.22.03-1.82.12-.6.31-1.18.62-1.71.01-.02.04-.03.06-.01.01,0,.02.02.02.04Z"/>
      <path class="cls-5" d="M4.61,40.5c.57,1,1.05,2.08,1.32,3.22.13.57.24,1.15.24,1.74,0,.59-.03,1.17-.16,1.74,0,.02-.02.02-.03.02-.01,0-.02-.01-.02-.02-.08-.58-.13-1.15-.21-1.71-.08-.56-.14-1.12-.24-1.68-.1-.56-.22-1.11-.37-1.66-.15-.55-.34-1.09-.56-1.63,0-.01,0-.03.01-.04.01,0,.03,0,.03.01Z"/>
      <path class="cls-4" d="M28.13,46.62c-.41.56-.88,1.07-1.41,1.52-.27.22-.55.43-.86.61-.31.17-.63.32-.95.46-.64.27-1.31.44-1.94.65-.63.21-1.27.45-1.75.92-.02.02-.04.02-.06,0-.01-.01-.02-.04,0-.05.4-.58,1.05-.93,1.65-1.25.62-.31,1.24-.59,1.83-.87.6-.28,1.14-.63,1.7-.98.56-.35,1.12-.74,1.74-1.07.02-.01.05,0,.06.02,0,.01,0,.03,0,.05Z"/>
      <path class="cls-4" d="M18.75,52.5c-.21.29-.46.55-.72.8-.27.24-.55.47-.87.65-.32.18-.65.34-1.01.42-.36.08-.73.11-1.09.06-.02,0-.03-.02-.02-.03,0-.01,0-.02.02-.02.33-.15.65-.27.97-.41.31-.14.63-.25.94-.4.31-.15.62-.3.91-.48.3-.18.58-.39.85-.62.01,0,.03,0,.04,0,0,0,0,.02,0,.03Z"/>
      <path class="cls-4" d="M39.8,33.86c-.39,0-.74-.16-1.07-.35-.17-.1-.34-.26-.45-.43-.12-.17-.2-.35-.28-.52-.14-.34-.28-.66-.4-1l-.18-.51c-.06-.17-.11-.36-.14-.4-.12-.2-.36-.45-.56-.62-.22-.17-.44-.29-.66-.32-.22-.04-.45-.02-.68.08-.23.1-.47.28-.65.49l-.3.34-.35-.21c-.22-.13-.57-.25-.87-.27-.31-.03-.62.03-.9.16-.28.14-.54.35-.76.61-.11.13-.21.28-.31.42l-.26.47-.08.15-.13.04c-.51.15-1.04.38-1.51.66-.48.29-.91.64-1.25,1.07-.34.43-.6.95-.66,1.5-.07.55.06,1.12.25,1.67,0,.03,0,.06-.03.07-.03,0-.06,0-.07-.03-.24-.53-.45-1.11-.42-1.73.02-.62.26-1.21.59-1.72.34-.52.79-.95,1.29-1.3.5-.35,1.03-.63,1.63-.85l-.22.19.26-.55c.11-.18.21-.36.34-.53.26-.34.58-.65.97-.88.4-.22.86-.34,1.32-.34.47,0,.88.09,1.34.31l-.65.13c.25-.34.56-.64.96-.85.4-.22.9-.31,1.37-.23.48.08.89.32,1.2.61.16.14.3.3.42.46.12.17.23.32.33.55.12.28.12.44.16.61l.1.51.21,1.02c.08.34.13.6.35.83.22.23.49.47.79.59h0s.04.05.03.08c0,.02-.03.03-.05.03Z"/>
      <path class="cls-4" d="M25.3,17.15c.83.5,1.53,1.22,2.03,2.1.25.44.43.94.52,1.47.08.53.04,1.1-.14,1.63-.38,1.04-1.17,1.81-2.05,2.33-.89.52-1.89.75-2.89.74l.2-.08c-.38.28-.76.46-1.19.56-.43.1-.88.11-1.29,0-.85-.21-1.5-.8-1.97-1.44-.02-.02-.01-.06.01-.08.02-.02.05-.01.07,0,.55.57,1.22,1.03,1.96,1.13.37.05.74,0,1.08-.12.34-.12.68-.31.92-.53l.08-.07h.13c.88-.07,1.74-.36,2.43-.86.35-.25.65-.54.89-.88.24-.34.42-.71.54-1.07.22-.73.18-1.55-.11-2.37-.29-.82-.75-1.62-1.28-2.4h0s-.01-.06.01-.08c.02-.01.04-.01.06,0Z"/>
      <path class="cls-4" d="M49.12,26.94c-.11,0-.21-.06-.25-.17-.08-.18-.16-.41-.24-.66-.35-1-.87-2.52-2.37-3.74-1.27-1.03-2.78-1.78-4.38-2.15-.15-.04-.24-.18-.2-.33.03-.15.18-.24.33-.21,1.68.4,3.27,1.18,4.6,2.26,1.62,1.32,2.17,2.92,2.54,3.98.08.24.15.45.23.62.06.14,0,.3-.15.36-.04.02-.07.02-.11.02Z"/>
      <path class="cls-5" d="M29.94,8.05c-.49.52-1.02.88-1.56,1.22-.53.35-1.16.51-1.73.8-.57.28-1.13.58-1.68.91-.55.33-1.06.7-1.54,1.14-.02.02-.06.02-.08,0-.02-.02-.02-.05,0-.07.34-.57.81-1.05,1.29-1.52.49-.45,1.01-.86,1.56-1.24.54-.38,1.07-.81,1.7-1.03.63-.22,1.29-.38,2-.33.03,0,.06.03.06.07,0,.01,0,.03-.02.04Z"/>
      <path class="cls-5" d="M23.39,25.19l-1.1-.04c.05-1.49.26-3.73,1.43-5.95.94-1.79,2.38-4.05,5.16-5.71,1.61-.96,4.03-2.1,6.4-.85,1.81.95,3.19,3.22,2.27,4.96l-.98-.51c.57-1.09-.52-2.79-1.81-3.46-1.45-.76-3.09-.51-5.32.82-2.55,1.52-3.88,3.62-4.75,5.27-1.06,2.02-1.25,4.09-1.31,5.47Z"/>
      <path class="cls-2" d="M46.02,28.99c-.21-.55.51-1.55,1.49-2.09,1.08-.6,2.13-.28,2.31-.22"/>
      <path class="cls-4" d="M50.54,39.83c-.17,1.54-1.53,2.65-3.05,2.49s-2.61-1.54-2.45-3.08,3.32-6.15,3.32-6.15c0,0,2.34,5.2,2.18,6.74Z"/>
      <path class="cls-5" d="M36.63,39.66c.07.03.01-.02-.08-.03-.09,0-.21,0-.33,0-.25.02-.51.06-.78.11-.54.09-1.09.19-1.65.25-.56.06-1.13.08-1.69,0-.56-.08-1.11-.27-1.55-.59.49.25,1.04.33,1.57.32.53-.02,1.06-.12,1.58-.27.52-.14,1.02-.33,1.55-.51.26-.09.53-.18.82-.26.15-.04.3-.07.48-.09.18,0,.41-.03.71.15.25.17.32.51.15.77-.17.25-.51.32-.77.15Z"/>
      <path class="cls-4" d="M4.73,23.96c-.02-.14-.08-.14-.06-.13.01.01.04.04.08.06.08.04.19.08.3.11.22.06.47.11.72.14.5.06,1.01.07,1.51.03.51-.04,1.01-.13,1.5-.29.48-.17.95-.42,1.3-.81-.3.44-.74.76-1.22,1-.48.24-.99.4-1.52.51-.52.11-1.06.17-1.61.18-.27,0-.55,0-.83-.05-.14-.02-.29-.05-.45-.1-.08-.03-.16-.06-.26-.13-.09-.07-.24-.17-.29-.44-.02-.23.14-.43.37-.45.23-.02.43.14.45.37Z"/>
      <path class="cls-4" d="M31.97,24.53c.42-.31.86-.6,1.33-.86.47-.24.97-.45,1.49-.6,1.04-.29,2.2-.32,3.25-.08,1.06.22,2.08.52,3.06.92.49.2.99.4,1.47.64.24.12.48.25.71.38.24.15.46.27.72.51l-.56.61c-.32-.23-.81-.48-1.26-.69-.46-.21-.93-.42-1.41-.61-.96-.37-1.92-.74-2.9-.98-.98-.25-1.96-.33-2.96-.17-1,.13-1.97.52-2.94.93Z"/>
      <path class="cls-4" d="M18.17,20.73c-.07-.46-.16-.93-.26-1.4-.11-.46-.22-.93-.4-1.37.3.38.55.8.79,1.22.24.43.46.86.67,1.31.1.21,0,.46-.2.56-.21.1-.46,0-.56-.2-.02-.04-.03-.07-.03-.11h0Z"/>
      <path class="cls-4" d="M19.27,17.85c-.16-.43-.34-.87-.55-1.29-.21-.42-.44-.83-.77-1.18.42.24.78.59,1.11.94.34.36.64.73.94,1.14.14.19.1.45-.09.59-.19.14-.45.1-.59-.09-.02-.03-.04-.07-.06-.1h0Z"/>
      <path class="cls-4" d="M19.87,14.97c-.25-.38-.53-.76-.83-1.12-.3-.36-.62-.71-1.02-.97.46.14.89.39,1.3.66.41.27.79.56,1.18.88.18.15.2.41.05.59-.15.18-.41.2-.59.05-.03-.03-.06-.06-.08-.09h0Z"/>
      <path class="cls-1" d="M45.82,29.05s.99-3.42,4.17-2.07c0,0-1.56,2.96-4.17,2.07Z"/>
      <path class="cls-3" d="M22.59,2.33c.01-.14.03-.37.15-.61.12-.24.3-.38.44-.49.28-.2.53-.33.81-.46.55-.26,1.14-.43,1.74-.51.6-.08,1.22-.06,1.81.04.15.03.3.06.44.1l.12.03c.06.02.11.04.17.06.11.05.21.11.3.19.18.16.32.36.39.59.08.22.08.5.04.67-.37,2.1-.38,4.27-.01,6.37l-.79-.4c1.67-.83,3.52-1.31,5.39-1.39l-.44.25c.13-.19.22-.41.28-.64.03-.11.05-.23.06-.34,0-.06,0-.12,0-.17,0-.08-.01-.06,0-.28.03-.35.25-.65.55-.79.08-.04.15-.06.24-.08l.13-.02.22-.03.44-.07.22-.03.12-.02c.1-.02.22,0,.33.02.22.06.4.2.51.39.05.09.09.2.11.3,0,.05,0,.11,0,.16v.06c-.01.12,0,.24,0,.36.02.24.08.48.16.7.18.45.49.84.89,1.12l-.48-.07c.52-.16,1.01-.42,1.45-.74.11-.08.21-.17.32-.26l.15-.14c.11-.1.24-.18.37-.24.28-.11.59-.1.86.02.07.03.13.07.19.11l.09.06.19.13.37.26s.11.08.16.12c.06.06.11.12.15.18.09.13.14.28.17.44.02.16,0,.32-.04.46l-.08.23c-.05.13-.09.27-.13.41-.16.55-.26,1.11-.3,1.68l-.46-.58c.43.07.88.03,1.28-.12l.15-.06.1-.05c.07-.03.14-.05.22-.06.3-.05.62.05.84.26.06.05.1.11.14.18.02.03.04.06.06.1l.02.04.09.18.18.36.09.18s.11.22.12.36c.04.31-.07.62-.28.83-.05.05-.13.11-.16.13l-.07.05-.14.1c-.09.07-.18.15-.26.23-.16.16-.31.34-.44.53-.06.09-.12.19-.18.29-.05.09-.08.17-.11.26-.05.18-.06.35-.03.54.05.27.09.54.12.81.07.55.12,1.07.14,1.65,0,1.13-.16,2.2-.24,3.23l-.23-.49c.15.1.42.2.69.26.28.07.58.12.88.16.61.08,1.24.13,1.87.18.65.05,1.23.1,1.82.05.59-.04,1.18-.16,1.75-.34l.11-.03h.1c.44.05.8.18,1.16.39.35.21.66.52.87.88.21.36.33.77.35,1.18,0,.42-.05.79-.21,1.2l-.07.16-.17.1c-.57.32-1.01.88-1.13,1.5-.06.31-.05.64.03.95.04.16.1.31.17.46.04.07.08.14.12.21l.07.1c.04.06.09.14.13.22.15.32.16.7.02,1.02-.07.16-.17.31-.29.43-.1.1-.17.16-.26.23-.35.29-.73.53-1.12.72-.39.2-.8.35-1.21.48-.43.12-.82.22-1.35.24h-.29s-.17-.26-.17-.26c-.45-.71-.89-1.42-1.39-2.04-.49-.62-1.06-1.14-1.71-1.35l.13.03c-.57-.04-1.15.12-1.62.44-.06.04-.12.08-.17.13l-.04.03-.02.02h0s.02-.01.02-.01l.03-.04c.09-.11.12-.28.07-.42-.03-.07-.07-.13-.13-.18-.03-.02-.06-.04-.1-.06-.02,0-.03-.01-.05-.02-.02,0,0,0,0,0l.15.04c.1.03.19.07.28.1.35.14.64.27.94.36.15.05.3.09.45.12,0,0,.07.01.13.03.06.02.11.05.16.08.1.06.19.14.26.24.07.1.12.21.14.33.01.06.02.12.02.18,0,.06-.01.13-.01.14-.03.2-.08.4-.14.58l-.09.28c-.07.18-.19.35-.35.46l-.25.15-.19.13c-.13.09-.25.18-.36.28-.23.2-.44.43-.62.67-.37.5-.58,1.03-.66,1.67-.09.63-.12,1.36-.23,2.07-.21,1.44-.69,2.83-1.34,4.11v.02s-.02.02-.02.02c-.3.49-.7.92-1.17,1.26-.24.17-.49.31-.76.42-.25.12-.6.19-.71.24-.31.13-.56.41-.65.73-.13.48-.28.98-.44,1.47-.65,1.95-1.61,3.81-2.81,5.47v.02s-.03.02-.03.02c-.87,1.02-1.89,1.93-3.04,2.64-.57.36-1.2.66-1.82.9-.62.24-1.19.46-1.74.74-.56.28-1.1.58-1.59.94-.5.35-1,.78-1.52,1.17-1.06.78-2.09,1.54-3.21,2.26-1.11.7-2.33,1.34-3.66,1.69-1.33.35-2.71.41-4.07.19-1.36-.23-2.66-.77-3.78-1.57-.56-.4-1.08-.86-1.54-1.36-.46-.5-.86-1.03-1.24-1.58-.75-1.09-1.42-2.3-1.75-3.65-.32-1.34-.41-2.6-.66-3.85-.23-1.26-.5-2.5-.89-3.69-.19-.6-.41-1.23-.59-1.87-.18-.64-.32-1.28-.46-1.92-.26-1.29-.48-2.56-.6-3.9-.1-1.34-.03-2.69.23-4.01.26-1.32.72-2.6,1.3-3.79.58-1.19,1.28-2.33,2.09-3.39v-.02s-.09.24-.09.24c.31-1.84.9-3.64,1.77-5.29.86-1.66,2-3.18,3.33-4.5.66-.66,1.38-1.27,2.15-1.81.19-.13.36-.25.54-.39.19-.14.38-.27.58-.4.39-.26.79-.51,1.2-.74,1.63-.92,3.43-1.56,5.27-1.87h.02s-.39.28-.39.28c.63-1.19,1.68-2.15,2.92-2.68l-.22.17c.95-1.25,1.52-2.78,1.64-4.35ZM23.69,2.41c-.13,1.78-.77,3.52-1.86,4.94l-.09.12-.13.06c-1.01.43-1.87,1.21-2.38,2.18l-.12.23-.27.05h-.02c-1.71.36-3.37.97-4.88,1.84-.38.22-.75.45-1.11.7-.18.12-.36.25-.53.38-.18.14-.38.28-.55.41-.71.51-1.37,1.08-2,1.69-1.25,1.22-2.32,2.63-3.14,4.17-.82,1.54-1.41,3.21-1.75,4.93l-.03.13-.08.1v.02c-.77,1-1.44,2.07-1.98,3.2-.55,1.13-.97,2.3-1.21,3.52-.24,1.22-.31,2.47-.22,3.71.11,1.23.33,2.52.58,3.76.13.62.27,1.24.44,1.85.17.61.37,1.2.58,1.83.41,1.26.69,2.55.92,3.83.25,1.28.36,2.6.64,3.78.28,1.17.89,2.26,1.59,3.29.36.51.74,1.01,1.15,1.46.41.45.86.85,1.36,1.2.98.7,2.13,1.18,3.32,1.38,1.18.2,2.45.14,3.61-.17,1.17-.31,2.28-.88,3.35-1.56,1.06-.68,2.11-1.45,3.13-2.2.51-.38.99-.79,1.55-1.19.56-.4,1.15-.73,1.74-1.03.6-.3,1.24-.54,1.82-.77.59-.23,1.12-.49,1.65-.82,1.05-.64,1.98-1.47,2.78-2.42l-.03.03c1.15-1.58,2.05-3.32,2.66-5.18.16-.47.29-.92.43-1.41.18-.65.67-1.19,1.28-1.45.36-.14.51-.15.71-.25.19-.08.38-.19.55-.31.35-.24.64-.56.87-.93l-.02.04c.61-1.19,1.04-2.46,1.23-3.78.11-.66.13-1.32.23-2.07.05-.37.14-.76.29-1.13.15-.37.35-.71.57-1.03.23-.32.49-.6.79-.86.15-.13.3-.25.46-.36.08-.06.16-.11.24-.16l.19-.12s-.04.04-.04.05l.07-.22c.05-.15.08-.29.1-.43,0-.03,0,0,0,.01,0,.02,0,.04,0,.05,0,.03.02.07.04.09.02.03.04.05.07.07.01,0,.03.02.05.02.02,0,.04,0,0,0-.19-.04-.37-.09-.55-.15-.36-.11-.71-.27-1.01-.38-.07-.03-.15-.06-.21-.08l-.1-.03h-.02s-.05-.02-.08-.04c-.05-.02-.11-.05-.15-.09-.1-.08-.17-.18-.21-.29-.09-.22-.04-.48.1-.66.02-.02.04-.04.06-.06l.04-.03.03-.02.06-.05c.08-.06.16-.12.24-.18.67-.46,1.51-.7,2.32-.64h.07s.06.03.06.03c.48.16.91.42,1.27.72.37.3.68.64.96.99.56.7,1.01,1.43,1.46,2.14l-.46-.26c.28,0,.68-.09,1.02-.19.35-.11.7-.24,1.03-.41.33-.17.64-.36.91-.58.06-.05.14-.12.19-.17.02-.02.03-.04.04-.07.02-.05.02-.1,0-.15,0-.01,0-.02-.02-.04l-.1-.15c-.06-.1-.12-.21-.18-.31-.11-.21-.19-.44-.25-.67-.12-.47-.14-.96-.04-1.44.19-.97.84-1.79,1.67-2.25l-.24.26c.08-.19.13-.48.12-.71-.01-.24-.07-.47-.19-.67-.12-.2-.28-.37-.49-.49-.2-.12-.46-.21-.67-.23l.21-.02c-.65.2-1.32.33-1.99.38-.68.06-1.37,0-1.99-.05-.64-.05-1.28-.1-1.93-.19-.33-.04-.66-.1-1-.18-.34-.09-.69-.18-1.07-.44l-.26-.17.03-.32c.1-1.09.25-2.13.24-3.13-.01-.48-.07-1.02-.13-1.52-.03-.26-.07-.51-.12-.77-.06-.33-.05-.7.05-1.04.05-.17.12-.34.2-.48.07-.13.15-.26.24-.39.17-.25.36-.48.58-.7.11-.11.22-.21.34-.3l.18-.14.09-.07s0,0,0,0c-.02.02-.04.06-.03.1.04.11-.05-.09-.1-.19l-.18-.36-.09-.18-.02-.04s0,0,0,.01c0,0,.01.01.02.02.03.03.07.04.11.03,0,0,.02,0,.03,0,.01,0,0,0-.03.01l-.05.02c-.07.03-.14.06-.22.09-.59.22-1.24.28-1.85.18l-.5-.08.04-.5c.05-.64.16-1.28.34-1.9.04-.15.09-.31.14-.46l.07-.2s0,0,0,.01c0,0,0,.01,0,.02h0s.03.03-.02,0l-.37-.26-.19-.13-.09-.06s0,0,0,0c0,0-.02,0-.02,0,0,0,0,0,0,0l-.18.17c-.12.11-.25.22-.39.32-.53.4-1.14.71-1.78.91l-.26.08-.22-.16c-.57-.4-1.02-.97-1.28-1.62-.13-.33-.21-.67-.24-1.02-.01-.17-.02-.35,0-.52,0-.01,0-.06,0-.05,0,.01,0,.03,0,.05,0,.03.02.07.03.1.03.06.09.11.17.13.04,0,.07.01.11,0l-.1.02-.22.03-.44.07-.22.03h-.09s.02,0,.03,0c.03-.02.06-.05.07-.1,0-.07,0,.09,0,.16,0,.09,0,.18,0,.27-.01.18-.04.36-.09.53-.09.35-.23.68-.43.98l-.16.23h-.28c-1.71.09-3.41.53-4.95,1.29l-.66.33-.13-.73c-.39-2.23-.39-4.53.01-6.76.03-.13,0-.17-.06-.23-.01-.01-.03-.02-.04-.03,0,0-.02,0-.03,0l-.08-.02c-.12-.03-.24-.06-.36-.08-.49-.09-.98-.1-1.47-.03-.49.06-.97.2-1.41.41-.22.1-.45.24-.62.36-.08.06-.11.1-.11.11,0,0-.02.06-.03.19Z"/>
      <path class="cls-4" d="M19.02,9.05c.29.08.49.24.69.42.2.18.38.37.55.58.34.41.62.9.79,1.43.17.53.22,1.12.14,1.67-.07.56-.28,1.07-.51,1.56l-.03-.56c.2.33.32.62.41.97.09.34.14.7.09,1.08-.04.37-.18.75-.4,1.06-.21.32-.5.54-.79.74l.21-.52c.06.37.06.66.02.99-.03.32-.11.64-.23.94-.11.3-.28.6-.48.85-.19.26-.44.48-.69.67l.16-.36c.02.5-.03.93-.15,1.38-.12.44-.29.87-.55,1.25-.25.38-.58.72-.94.99-.38.25-.77.47-1.2.6-.42.15-.86.21-1.3.24-.44,0-.88-.04-1.3-.14-.84-.21-1.62-.61-2.28-1.16-.02-.02-.03-.05,0-.08.02-.02.05-.03.07,0h0c.68.48,1.47.8,2.27.94.4.06.81.08,1.21.04.4-.06.79-.14,1.16-.3.38-.14.71-.36,1.01-.59.29-.25.54-.55.74-.88.38-.65.53-1.48.46-2.2l-.02-.21.18-.15c.38-.32.67-.72.81-1.18.07-.23.12-.47.13-.72.01-.24,0-.51-.05-.7l-.07-.3.28-.23c.19-.15.37-.3.47-.49.11-.18.18-.37.2-.59.01-.21-.01-.45-.08-.68-.06-.22-.17-.48-.28-.66l-.15-.24.13-.31c.08-.2.19-.39.26-.6.06-.2.14-.4.16-.61.09-.41.06-.83-.04-1.23-.09-.41-.28-.8-.53-1.17-.13-.18-.27-.36-.42-.52-.15-.16-.32-.32-.44-.51l-.03-.05c-.09-.15-.04-.34.11-.42.08-.04.16-.05.24-.03Z"/>
    </g>
  </g>
</svg>