<svg width="146" height="166" viewBox="0 0 146 166" fill="none" xmlns="http://www.w3.org/2000/svg">
<g clip-path="url(#clip0_2360_6)">
<path d="M64.7974 6.56835C66.2449 7.16547 69.367 8.21754 73.3122 7.73416C76.4343 7.33607 78.7333 6.14183 80.0389 5.34567" stroke="#A73651" stroke-width="0.91" stroke-miterlimit="10"/>
<path d="M61.5618 17.4587C62.0443 16.7479 62.4133 16.8332 62.8107 16.8616C63.208 16.8616 63.6054 16.9185 64.0027 16.9753L66.3585 17.4303C67.1532 17.5725 67.9195 17.7431 68.6859 17.9137C69.4522 18.1127 70.2469 18.2833 71.0132 18.4824V18.6245C70.1901 18.653 69.3954 18.653 68.6007 18.6814C67.806 18.6814 67.0113 18.6814 66.2166 18.6814L63.8324 18.6245C63.4351 18.6245 63.0377 18.5677 62.6404 18.4824C62.243 18.3971 61.8457 18.4255 61.5334 17.6293V17.4872L61.5618 17.4587Z" fill="#517FA2"/>
<path d="M62.7823 14.7575C63.2364 14.1035 63.6621 14.1035 64.0595 14.1035C64.4852 14.1035 64.8826 14.1035 65.28 14.1603L67.7209 14.53C68.544 14.6437 69.367 14.7575 70.1618 14.9281C70.9849 15.0987 71.7796 15.2124 72.6027 15.4114V15.5536C71.7512 15.6389 70.9281 15.6674 70.105 15.6958C69.2819 15.7527 68.4588 15.7811 67.6357 15.7811L65.1664 15.838C64.7407 15.838 64.3433 15.8095 63.946 15.7242C63.5486 15.6958 63.1229 15.6105 62.7539 14.9281V14.7859L62.7823 14.7575Z" fill="#517FA2"/>
<path d="M65.3651 10.9188C66.8126 10.9757 68.2317 11.1463 69.6792 11.26C70.3888 11.3453 71.0984 11.4591 71.8363 11.6012C72.5459 11.7434 73.2554 11.8571 73.965 11.9993V12.1415C73.2271 12.2268 72.5175 12.2837 71.7795 12.369C71.07 12.4543 70.332 12.4827 69.6225 12.5111C68.175 12.5111 66.7274 12.5396 65.3083 12.4827L65.3651 10.9188Z" fill="#517FA2"/>
<path opacity="0.36" d="M65.4503 5.3741C65.4503 5.3741 76.037 -1.62076 80.8904 4.09455C80.8904 4.09455 72.4608 11.4875 65.4503 5.3741Z" fill="#A73651" stroke="#A73651" stroke-width="0.28" stroke-miterlimit="10"/>
<path d="M110.72 52.4046C110.72 52.8595 110.607 53.2292 110.465 53.6273C110.323 53.9969 110.068 54.3097 109.841 54.6509C109.415 55.3333 108.961 55.9873 108.478 56.6413H108.421C108.705 55.8452 108.989 55.1059 109.301 54.3666C109.443 53.9969 109.557 53.5988 109.784 53.2576C110.039 52.9448 110.266 52.6036 110.664 52.3477H110.72V52.4046Z" fill="#517FA2"/>
<path d="M114.07 53.6841C113.502 54.7931 112.878 55.8736 112.253 56.9541C111.6 58.0346 110.948 59.0867 110.266 60.1387H110.21C110.692 58.9445 111.175 57.8071 111.714 56.6698C112.282 55.5608 112.792 54.4234 113.388 53.3429L114.07 53.7126V53.6841Z" fill="#517FA2"/>
<path d="M116.283 54.6793C116.312 55.1059 116.198 55.4471 116.085 55.8167C115.971 56.1579 115.716 56.4423 115.517 56.7551C115.12 57.3806 114.694 57.9777 114.268 58.5464H114.212C114.439 57.8071 114.694 57.1247 114.978 56.4423C115.12 56.1011 115.205 55.7314 115.404 55.4471C115.631 55.1627 115.858 54.85 116.227 54.6509H116.283V54.6793Z" fill="#517FA2"/>
<path d="M117.39 57.2669C117.192 57.2669 116.993 57.2384 116.794 57.1531C116.596 57.0678 97.2955 49.0778 84.353 40.4337C83.6435 39.9503 83.4448 38.9836 83.9273 38.2727C84.4098 37.5618 85.3748 37.3628 86.0844 37.8462C98.743 46.3481 117.759 54.196 117.958 54.2813C118.753 54.6225 119.15 55.5324 118.809 56.3285C118.554 56.9257 117.986 57.2953 117.362 57.2953L117.39 57.2669Z" fill="#A73651"/>
<path d="M96.6995 22.0651C97.1252 21.8092 97.6077 21.7239 98.0902 21.667C98.5727 21.6101 99.0552 21.667 99.5093 21.7523C100.418 21.9514 101.439 22.321 101.979 23.174C101.07 22.8613 100.247 22.7191 99.3674 22.52C98.4876 22.3494 97.6361 22.1788 96.6995 22.0651Z" fill="#A73651"/>
<path d="M106.009 25.2782C106.548 25.2213 107.087 25.3635 107.598 25.591C108.109 25.79 108.563 26.1028 108.989 26.444C109.386 26.8136 109.755 27.2117 110.039 27.6667C110.351 28.1216 110.55 28.605 110.692 29.1453C109.897 28.406 109.216 27.6951 108.478 27.0411C107.74 26.3871 106.946 25.79 106.009 25.2782Z" fill="#A73651"/>
<path d="M112.792 31.3631C113.19 31.619 113.474 31.9603 113.757 32.3299C114.041 32.6996 114.24 33.0976 114.41 33.4957C114.751 34.3203 114.921 35.2302 114.779 36.1401C114.325 35.344 114.013 34.5478 113.701 33.7801C113.559 33.382 113.388 33.0123 113.247 32.5858C113.105 32.1877 112.934 31.7897 112.821 31.3347L112.792 31.3631Z" fill="#A73651"/>
<path d="M88.0428 73.4745C86.6236 77.2562 84.5233 80.7821 81.7702 83.8246C80.4079 85.36 78.7901 86.6965 76.9736 87.8054C76.8884 87.8623 76.8317 87.9191 76.8033 87.976C76.8033 88.0045 76.8033 88.0329 76.7749 88.0613L76.6614 88.4025L76.2072 89.8527C75.895 90.8195 75.526 91.7578 75.1571 92.7246C74.3907 94.6012 73.5393 96.4495 72.631 98.2693C71.666 100.061 70.6442 101.824 69.4522 103.473C67.1248 106.8 64.4285 109.956 61.1645 112.458C59.575 113.738 57.7302 114.818 56.0556 115.785C54.3243 116.752 52.6781 117.804 51.0319 118.913C47.7679 121.131 44.6742 123.604 41.8359 126.334C38.9977 129.092 36.4149 132.106 34.3429 135.461C32.271 138.817 30.6816 142.513 30.0004 146.437C30.0004 146.494 29.9436 146.551 29.8585 146.522C29.8017 146.522 29.7449 146.466 29.7733 146.38C30.3126 142.399 31.7601 138.561 33.7469 135.092C35.7337 131.594 38.2313 128.381 41.0128 125.481C43.8227 122.581 46.9164 119.993 50.152 117.633C51.7982 116.467 53.4444 115.33 55.1757 114.306C56.9071 113.254 58.4681 112.259 59.9724 110.979C62.9526 108.506 65.3935 105.435 67.4938 102.136C69.5941 98.8664 71.4106 95.369 72.9716 91.7862C73.369 90.8763 73.7379 89.9949 74.1069 89.085L74.6178 87.7201L74.7313 87.3505C74.8165 87.1514 74.9016 86.9524 75.0152 86.7818C75.2422 86.4121 75.6112 86.1278 75.9518 85.9572C77.6264 85.1041 79.159 83.9383 80.5782 82.6303C81.9973 81.3224 83.3029 79.8438 84.495 78.2799C85.7154 76.716 86.7939 75.0668 87.7873 73.3323C87.7873 73.3323 87.9009 73.247 87.9576 73.2754C88.0144 73.3039 88.0144 73.3607 88.0144 73.4176L88.0428 73.4745Z" fill="#517FA2"/>
<path d="M76.4059 87.5211C75.0719 87.976 73.7096 88.6016 72.4324 89.3124C71.1268 90.0233 69.8779 90.8195 68.7142 91.7578C69.7076 90.6488 70.8145 89.5968 72.0066 88.6584C73.1987 87.7201 74.4191 86.8671 75.8099 86.0993C76.1789 85.9003 76.6614 86.014 76.8884 86.4121C77.0871 86.7818 76.9736 87.2652 76.5762 87.4926C76.5478 87.4926 76.4911 87.5211 76.4627 87.5495L76.4059 87.5211Z" fill="#517FA2"/>
<path d="M63.7473 109.302C62.5268 110.411 61.1077 111.406 59.4615 111.946C57.8153 112.543 56.0272 112.714 54.2959 112.543C53.416 112.458 52.5929 112.316 51.7698 112.088C50.9751 111.889 50.2372 111.662 49.4708 111.463C47.9666 111.065 46.4339 110.752 44.9296 110.724C41.8927 110.524 39.2531 112.344 36.8406 114.448C35.6201 115.501 34.3145 116.581 32.8386 117.349C31.3911 118.116 29.8017 118.77 28.1271 118.77C28.0704 118.77 28.0136 118.714 28.0136 118.657C28.0136 118.6 28.0704 118.543 28.1271 118.543C29.7166 118.372 31.1641 117.605 32.4697 116.752C33.8037 115.87 34.9106 114.761 36.0459 113.595C37.2096 112.458 38.43 111.292 39.9059 110.382C40.6155 109.927 41.4102 109.529 42.29 109.273C43.1415 109.017 44.0214 108.875 44.9012 108.847C46.6326 108.762 48.3355 108.932 49.9817 109.217C50.8048 109.359 51.6279 109.558 52.3942 109.728C53.1322 109.927 53.8985 110.098 54.6365 110.212C56.1124 110.496 57.5883 110.553 59.1209 110.325C60.6252 110.126 62.1579 109.643 63.6905 109.074C63.7473 109.074 63.8324 109.074 63.8324 109.131C63.8324 109.188 63.8324 109.217 63.804 109.273L63.7473 109.302Z" fill="#517FA2"/>
<path d="M56.6233 111.804C54.7784 111.633 53.0754 110.951 51.5711 109.785C50.8332 109.188 50.1236 108.42 49.7547 107.34C49.4708 106.43 49.3005 105.548 49.1586 104.667C49.0167 103.786 48.9032 103.046 48.6194 102.307C48.3639 101.568 47.9666 100.914 47.4273 100.373C46.3488 99.2645 44.6458 98.8095 42.9712 98.5536C42.9145 98.5536 42.8577 98.4967 42.8577 98.4114C42.8577 98.3546 42.9145 98.3261 42.9712 98.2977C44.6742 98.184 46.5474 98.3546 48.1652 99.4351C49.7547 100.572 50.521 102.563 50.9751 104.184C51.2306 104.98 51.5144 105.719 51.9117 106.43C52.1956 106.942 52.6781 107.482 53.189 108.051C54.2107 109.188 55.5163 110.269 56.7652 111.577C56.7652 111.577 56.8219 111.719 56.7652 111.747C56.7652 111.747 56.7084 111.776 56.68 111.776L56.6233 111.804Z" fill="#517FA2"/>
<path d="M37.8056 112.941C37.0393 113.539 36.0459 113.937 34.9957 113.937C33.9456 113.965 32.8954 113.652 32.0155 113.14C30.2558 112.202 28.9786 110.78 27.5027 109.814C26.0836 108.847 24.2387 108.818 22.3655 108.762C20.4922 108.705 18.4771 108.307 16.9444 107.141C16.916 107.141 16.8876 107.055 16.9444 107.027C16.9444 106.999 17.0012 106.999 17.0579 107.027C18.6757 107.994 20.549 108.164 22.3939 107.994C23.3305 107.965 24.2671 107.88 25.2605 107.965C26.2255 108.022 27.2757 108.278 28.1839 108.762C29.9152 109.728 31.4479 110.837 32.8954 111.832C34.2862 112.828 35.9323 113.254 37.8056 112.828C37.8624 112.828 37.8907 112.828 37.8907 112.885C37.8907 112.913 37.8907 112.941 37.8624 112.97L37.8056 112.941Z" fill="#517FA2"/>
<path d="M48.3355 114.505C46.4623 116.154 44.6742 117.861 42.9712 119.623C41.2683 121.386 39.5937 123.178 38.0327 125.083C36.4432 126.96 34.939 128.893 33.5198 130.912C32.0723 132.902 30.7667 134.978 29.3476 137.082C30.1707 134.722 31.1925 132.419 32.4981 130.258C33.7469 128.069 35.2512 126.05 36.8406 124.088C38.4584 122.154 40.2181 120.363 42.1481 118.742C44.0498 117.121 46.0933 115.614 48.3355 114.505Z" fill="#517FA2"/>
<path d="M68.8845 93.9472C68.5156 95.3121 67.9479 96.5916 67.3235 97.8712C66.6991 99.1507 65.9611 100.345 65.1664 101.511C64.3717 102.677 63.4635 103.757 62.4701 104.781C61.5051 105.804 60.3698 106.686 59.1777 107.425C60.1711 106.43 61.1361 105.435 62.016 104.354C62.8958 103.274 63.7473 102.193 64.542 101.056C65.3367 99.9185 66.0747 98.7526 66.8126 97.5868C67.5222 96.3926 68.2317 95.1983 68.8845 93.9472Z" fill="#517FA2"/>
<path d="M83.757 74.1C83.0191 75.3511 82.1392 76.4885 81.231 77.5975C80.3227 78.7064 79.3293 79.7585 78.2792 80.7537C76.2072 82.7441 73.9083 84.507 71.3822 85.9003C73.5393 84.0236 75.6964 82.1754 77.7399 80.185C79.8118 78.223 81.7986 76.2042 83.757 74.1285V74.1Z" fill="#517FA2"/>
<path d="M32.4697 138.134C32.3845 138.817 32.1007 139.471 31.7601 140.068C31.4195 140.693 30.9654 141.234 30.4545 141.689C29.9436 142.172 29.376 142.57 28.7232 142.854C28.0988 143.167 27.4176 143.309 26.7364 143.395C27.9285 142.712 29.007 142.03 29.9152 141.12C30.3977 140.693 30.8235 140.21 31.2492 139.727C31.675 139.215 32.0723 138.703 32.4413 138.134H32.4697Z" fill="#517FA2"/>
<path d="M39.1112 69.7211C38.6003 72.394 37.6069 75.0099 36.0459 77.3131C34.5132 79.6732 32.2426 81.4361 29.9152 82.8578C27.5879 84.2511 25.2037 85.4454 23.1318 87.0945C21.0599 88.7153 19.4704 90.9332 18.5338 93.4639C18.5338 93.4923 18.4771 93.5207 18.4203 93.5207C18.3919 93.5207 18.3635 93.4639 18.3635 93.4354C19.0731 90.8195 20.549 88.4025 22.5925 86.5259C24.6077 84.6776 27.0202 83.3128 29.2057 81.8058C31.3911 80.3272 33.1792 78.4221 34.7687 76.4032C36.3581 74.3559 37.6353 72.0243 38.9409 69.6643C38.9409 69.6358 38.9977 69.6074 39.0544 69.6358C39.0828 69.6358 39.1112 69.6927 39.0828 69.7211H39.1112Z" fill="#517FA2"/>
<path d="M30.937 81.8626C31.1357 83.199 31.1357 84.4217 31.0505 85.6728C30.9654 86.9239 30.7951 88.1466 30.5113 89.3409C30.2274 90.5351 29.8301 91.7009 29.3192 92.8099C28.8367 93.9188 28.1555 94.9424 27.4743 95.9092C28.0136 94.8287 28.4961 93.7482 28.7799 92.6108C29.0921 91.4734 29.2908 90.3361 29.376 89.1703C29.4611 88.0045 29.4611 86.8671 29.3192 85.7297C29.2057 84.6208 28.9786 83.4265 28.6664 82.4597L30.937 81.8911V81.8626Z" fill="#517FA2"/>
<path d="M40.3033 76.0336C39.9627 77.7681 39.1112 79.3604 38.061 80.7537C37.5218 81.4645 36.869 82.0901 36.1594 82.6303C35.4782 83.199 34.6835 83.6256 33.8888 84.0236L34.0307 83.654C34.2578 84.4502 34.2578 85.1894 34.201 85.9287C34.1443 86.668 34.0307 87.4073 33.832 88.1182C33.6617 88.829 33.4063 89.5399 33.1225 90.2223C32.8387 90.9048 32.5264 91.5588 32.1859 92.2127H32.1291C32.4129 91.5019 32.6967 90.8479 32.9238 90.137C33.1509 89.4546 33.3495 88.7437 33.4915 88.0329C33.6334 87.322 33.7185 86.6112 33.7185 85.9003C33.7185 85.1894 33.6617 84.4502 33.4631 83.8246L33.3779 83.5971L33.605 83.4834C34.3429 83.0569 35.0525 82.6304 35.6485 82.0617C36.2729 81.493 36.8406 80.8959 37.3799 80.2703C38.4868 78.9907 39.395 77.5406 40.1614 76.0051H40.2465L40.3033 76.0336Z" fill="#517FA2"/>
<path d="M12.4883 73.7588C13.5953 73.9579 14.7022 74.0432 15.7807 74.0147C16.8593 73.9863 17.9378 73.9579 19.0447 73.8157C20.1233 73.702 21.2302 73.5029 22.3087 73.2754C22.848 73.1617 23.3873 72.9911 23.9265 72.8489L25.5443 72.3087L25.6011 72.4508C24.6361 73.048 23.5859 73.5598 22.5358 74.0147C21.4572 74.4413 20.3787 74.8678 19.215 75.0384C18.0513 75.2374 16.8593 75.3512 15.6956 75.1521C14.5319 74.9531 13.3682 74.6403 12.4032 73.901L12.4883 73.7588Z" fill="#517FA2"/>
<path d="M11.353 77.9387C12.318 77.9387 13.283 77.9387 14.2197 77.9387L17.0295 77.8818C17.9662 77.8818 18.9028 77.8249 19.8394 77.7396C20.776 77.6543 21.6843 77.3984 22.6209 77.1141L22.6777 77.2563C21.8546 77.7681 20.9463 78.1946 20.0097 78.5074C19.0731 78.8201 18.1081 79.0761 17.1147 79.1329C16.1213 79.2182 15.1279 79.1614 14.1629 78.9908C13.1979 78.7917 12.2329 78.5642 11.353 78.1093V77.9671V77.9387Z" fill="#517FA2"/>
<path d="M10.3313 81.8911C11.126 81.7489 11.8639 81.7204 12.6303 81.6636C13.3682 81.6067 14.1062 81.6636 14.8441 81.6636C16.32 81.692 17.8243 81.8342 19.2718 81.4077L19.3285 81.5498C18.6758 82.0048 17.9378 82.2607 17.1715 82.4882C16.4051 82.7157 15.6388 82.8863 14.8441 82.9147C14.0778 82.9431 13.2831 82.9431 12.5167 82.7725C11.7504 82.6019 10.9841 82.4313 10.2745 82.0617V81.9195L10.3313 81.8911Z" fill="#517FA2"/>
<path d="M82.9339 114.875C84.7504 115.614 86.652 115.984 88.5537 116.325C89.5187 116.496 90.4553 116.638 91.4203 116.78L94.3153 117.235V117.32C92.3569 117.491 90.3701 117.349 88.4401 116.951C86.5101 116.524 84.6369 115.87 82.9055 114.96V114.903L82.9339 114.875Z" fill="#517FA2"/>
<path d="M81.6851 117.662C83.5583 118.372 85.4599 118.884 87.39 119.339C88.355 119.538 89.32 119.766 90.285 119.908C91.25 120.078 92.215 120.135 93.2368 120.135V120.221C92.2718 120.505 91.25 120.505 90.2282 120.477C89.2064 120.42 88.2131 120.221 87.248 119.965C85.2896 119.424 83.4448 118.628 81.6567 117.775V117.69L81.6851 117.662Z" fill="#517FA2"/>
<path d="M81.0039 119.965C82.7069 120.704 84.495 121.301 86.2547 121.841C87.1345 122.097 88.0428 122.353 88.9226 122.524C89.8309 122.723 90.7108 122.893 91.6474 122.95V123.036C90.7108 123.263 89.7457 123.206 88.8091 123.121C87.8725 123.007 86.9359 122.751 86.056 122.438C84.2679 121.813 82.5933 120.96 80.9471 120.05V119.993L81.0039 119.965Z" fill="#517FA2"/>
<path d="M108.847 67.8445C106.889 68.3563 104.902 68.8112 102.944 69.2946C100.957 69.7496 98.9701 70.0908 96.9549 70.4604V70.3467C98.8565 69.6927 100.758 68.9818 102.688 68.3847C104.647 67.816 106.577 67.2189 108.535 66.7071L108.847 67.8445Z" fill="#517FA2"/>
<path d="M112.991 69.2662C110.437 70.0908 107.854 70.8301 105.271 71.5978C102.688 72.3371 100.077 72.9627 97.4658 73.6451V73.5313C99.9351 72.5646 102.461 71.5694 104.987 70.6879C107.542 69.8349 110.068 68.9534 112.622 68.1288L112.963 69.2378L112.991 69.2662Z" fill="#517FA2"/>
<path d="M117.873 70.9438C115.177 71.7684 112.452 72.5361 109.755 73.3323C107.031 74.1 104.278 74.754 101.553 75.4364V75.3227C104.164 74.3559 106.804 73.3323 109.472 72.4224C112.168 71.5409 114.836 70.631 117.504 69.8064L117.844 70.9154L117.873 70.9438Z" fill="#517FA2"/>
<path d="M115.063 74.9531C113.417 75.4933 111.771 75.9483 110.124 76.4601C108.478 76.9435 106.775 77.2847 105.101 77.6828V77.569C106.662 76.8866 108.223 76.1757 109.841 75.5502C111.458 74.9815 113.076 74.3559 114.722 73.8157L115.091 74.9246L115.063 74.9531Z" fill="#517FA2"/>
<path d="M117.901 77.7396C116.028 78.3368 114.126 78.8486 112.225 79.4173C110.323 79.9575 108.393 80.3556 106.463 80.8106V80.6968C108.251 79.9575 110.068 79.1898 111.941 78.5074C113.814 77.8818 115.659 77.1994 117.532 76.6023L117.873 77.7112L117.901 77.7396Z" fill="#517FA2"/>
<path d="M111.288 101.454C109.046 100.203 107.059 98.582 105.299 96.7622C104.448 95.8239 103.682 94.8003 103.029 93.6913C102.404 92.5824 101.95 91.3881 101.638 90.1655H101.723C102.49 92.5255 103.994 94.5728 105.753 96.3073C106.633 97.1888 107.57 97.9849 108.563 98.7242C109.557 99.4635 110.607 100.146 111.657 100.743L111.288 101.425V101.454Z" fill="#517FA2"/>
<path d="M110.21 104.866C108.308 103.501 106.491 101.994 104.76 100.43C103.909 99.6341 103.086 98.7811 102.319 97.8996C101.553 97.0181 100.815 96.0798 100.276 95.0277H100.332C100.957 95.9661 101.752 96.8191 102.575 97.6437C103.398 98.4683 104.249 99.236 105.157 99.9753C106.917 101.482 108.762 102.904 110.635 104.24L110.181 104.894L110.21 104.866Z" fill="#517FA2"/>
<path d="M108.819 107.709C106.633 106.686 104.675 105.293 102.887 103.729C102.007 102.933 101.184 102.079 100.418 101.141C99.6512 100.231 98.9984 99.236 98.4024 98.2124H98.4592C99.1687 99.1223 99.8783 100.061 100.701 100.885C101.496 101.738 102.348 102.534 103.284 103.245C105.072 104.724 107.059 106.003 109.131 106.999L108.819 107.709Z" fill="#517FA2"/>
<path d="M106.917 110.126C105.129 109.131 103.455 107.994 101.837 106.771C101.042 106.146 100.276 105.463 99.5661 104.724C98.8849 103.985 98.2037 103.16 97.8915 102.165H97.9767C98.374 103.075 99.0836 103.786 99.8215 104.44C100.559 105.094 101.383 105.691 102.206 106.259C103.823 107.425 105.555 108.449 107.286 109.444L106.917 110.126Z" fill="#517FA2"/>
<path d="M103.086 110.695C102.376 110.581 101.695 110.354 101.014 110.07C100.361 109.785 99.7932 109.33 99.2255 108.875C98.0902 108.022 97.0401 106.942 96.5008 105.605H96.5576C97.2955 106.771 98.4024 107.653 99.5661 108.363C100.162 108.733 100.787 108.989 101.383 109.359C101.95 109.757 102.575 110.098 103.114 110.61V110.667L103.086 110.695Z" fill="#517FA2"/>
<path d="M17.2566 69.4368C16.916 69.0671 17.0579 68.7828 17.1147 68.4985L17.3418 67.6454C17.5121 67.0767 17.6824 66.508 17.8527 65.9678C18.2216 64.8589 18.6474 63.7499 19.1015 62.6694C20.0381 60.5084 21.0599 58.4042 22.2236 56.357C23.3873 54.3381 24.6077 52.3477 25.9985 50.4426C27.3608 48.5375 28.8367 46.7461 30.3694 44.9832L30.4261 45.0401C28.9786 46.8599 27.5879 48.7365 26.3107 50.6701C25.0051 52.6036 23.8698 54.6225 22.7628 56.6697C21.6843 58.717 20.7193 60.8212 19.8678 62.9822C19.4137 64.0627 19.0447 65.1432 18.6474 66.2237C18.4487 66.764 18.2784 67.3042 18.1081 67.8729L17.8527 68.6975C17.7675 68.9818 17.7675 69.2662 17.285 69.4368H17.1999H17.2566Z" fill="#517FA2"/>
<path d="M21.2869 68.6975C21.6559 66.963 22.1952 65.3138 22.7912 63.693C23.4156 62.0723 24.0968 60.48 24.8915 58.9445C25.7146 57.409 26.5945 55.9305 27.5879 54.5087C28.5529 53.087 29.6598 51.7222 30.7667 50.4142L30.8235 50.4711C28.7515 53.2292 26.9351 56.1579 25.4592 59.2573C24.6928 60.7927 24.04 62.3851 23.444 63.9774C22.8764 65.5697 22.3655 67.2473 22.0533 68.8681L21.2869 68.7259V68.6975Z" fill="#517FA2"/>
<path d="M25.1754 67.418C25.8849 65.1148 26.8783 62.9253 27.9568 60.7643C29.0922 58.6317 30.3977 56.6413 31.9304 54.7931L31.9872 54.85C30.6532 56.8119 29.4895 58.9161 28.5245 61.0486C27.5027 63.1812 26.6229 65.3991 25.9417 67.617L25.2037 67.3895L25.1754 67.418Z" fill="#517FA2"/>
<path d="M29.4327 65.7688C29.5179 64.7736 29.8585 63.9205 30.3126 63.0675C30.7667 62.2429 31.2208 61.4183 31.7033 60.6221C32.1859 59.826 32.7535 59.0582 33.3212 58.3189C33.8888 57.5797 34.5416 56.8972 35.2228 56.2717C34.6551 57.011 34.1726 57.8071 33.6901 58.5749C33.1792 59.3426 32.7819 60.1672 32.2994 60.9633C31.8453 61.7595 31.4195 62.5841 31.0222 63.4087C30.5964 64.2333 30.1423 65.0295 29.4611 65.7403L29.4327 65.7688Z" fill="#517FA2"/>
<path d="M32.2142 67.2758C33.1792 65.1716 34.3713 63.2097 35.6485 61.333C36.9541 59.4563 38.4584 57.7218 40.0762 56.1295L40.133 56.1864C38.6855 57.9209 37.3515 59.7691 36.1594 61.7026C34.939 63.5793 33.832 65.5982 32.9238 67.617L32.2142 67.3042V67.2758Z" fill="#517FA2"/>
<path d="M35.4782 69.2662C36.2446 67.418 37.1812 65.655 38.203 63.9205C39.2815 62.2429 40.4736 60.6221 41.9211 59.2573L41.9779 59.3141C40.7006 60.8496 39.6789 62.5272 38.7422 64.2617C37.7772 65.9678 36.9258 67.7592 36.1878 69.579L35.4499 69.2946L35.4782 69.2662Z" fill="#517FA2"/>
<path d="M38.9693 70.5173C38.7706 70.2898 38.7706 70.1477 38.8274 70.0339L38.9693 69.7211L39.2815 69.0956C39.4802 68.6691 39.7356 68.271 39.9627 67.8729L41.4102 65.4844C42.4036 63.9205 43.4253 62.3566 44.5323 60.878L44.589 60.9349C43.6524 62.5272 42.8009 64.1764 41.9211 65.7972L40.6439 68.271C40.4168 68.6691 40.2181 69.0956 39.9911 69.4937L39.6505 70.0908L39.4802 70.4036C39.4802 70.4036 39.3099 70.5742 38.9977 70.5457H38.9409L38.9693 70.5173Z" fill="#517FA2"/>
<path d="M42.4036 69.8917C43.2551 68.1572 44.1917 66.4512 45.1283 64.7736C46.1217 63.0959 47.1435 61.4752 48.3072 59.9113L48.3639 59.9681C47.3989 61.6458 46.5191 63.3518 45.6676 65.0863C44.7877 66.7924 43.9363 68.5269 43.0848 70.2614L42.3752 69.9202L42.4036 69.8917Z" fill="#517FA2"/>
<path d="M46.2352 68.6406C46.6042 67.9298 47.0299 67.2473 47.4273 66.5365C47.853 65.8541 48.3072 65.2001 48.7897 64.5176H48.8464C48.5626 65.3138 48.2788 66.0815 47.9666 66.8208C47.626 67.5317 47.2854 68.271 46.9164 68.9818L46.2352 68.6122V68.6406Z" fill="#517FA2"/>
<path d="M53.785 26.3871C55.9988 26.4724 58.2127 26.643 60.4265 26.7568C61.5335 26.8421 62.6404 26.9558 63.7473 27.098C64.8542 27.2401 65.9611 27.3539 67.068 27.5245V27.6951C65.9611 27.7804 64.8542 27.8373 63.7189 27.8941C62.612 27.951 61.5051 28.0079 60.3981 28.0079C58.1843 28.0079 55.9705 28.0079 53.7566 27.951L53.8134 26.3871H53.785Z" fill="#517FA2"/>
<path d="M55.0906 23.4015C55.6583 22.6906 56.1975 22.7475 56.7368 22.7475C57.2761 22.7475 57.8153 22.7475 58.3546 22.8044L61.5902 23.174C62.6688 23.2878 63.7473 23.4299 64.8258 23.5721C65.9044 23.7427 66.9829 23.8849 68.0614 24.0555V24.1977C66.9545 24.2545 65.876 24.283 64.7975 24.3398C63.7189 24.3967 62.6404 24.3967 61.5335 24.3967H58.2695C57.7302 24.3967 57.1909 24.3967 56.6516 24.3398C56.1124 24.283 55.5731 24.283 55.0622 23.5152V23.3731L55.0906 23.4015Z" fill="#517FA2"/>
<path d="M59.3196 20.2737C59.8589 19.8188 60.3414 19.7335 60.7955 19.7335C61.278 19.7335 61.7321 19.7903 62.2146 19.8472C63.1513 19.9894 64.0595 20.2169 64.9961 20.3875C66.8694 20.7287 68.7143 21.1552 70.5591 21.6101V21.7523C68.6291 21.7523 66.7275 21.7523 64.8542 21.6101C63.9176 21.5533 62.9526 21.5533 62.016 21.468C61.5335 21.4395 61.0793 21.3542 60.6252 21.2405C60.1711 21.1268 59.717 20.9277 59.2912 20.359V20.2169L59.3196 20.2737Z" fill="#517FA2"/>
<path d="M78.2792 41.5711L86.9642 46.4334C89.8309 48.0826 92.6975 49.7602 95.5641 51.4663V51.5231C92.5556 50.0161 89.6038 48.5091 86.6804 46.9736L77.9102 42.2535L78.2792 41.5711Z" fill="#517FA2"/>
<path d="M76.3208 43.8743L83.3313 47.8551C85.6586 49.2199 87.9576 50.6132 90.2566 52.0065V52.0634C87.8157 50.8691 85.4032 49.618 83.019 48.3953L75.9234 44.5567L76.2924 43.8743H76.3208Z" fill="#517FA2"/>
<path d="M74.6462 45.95L80.2659 49.1062C82.1108 50.1867 83.9557 51.2956 85.8005 52.433V52.4899C83.8138 51.5516 81.8838 50.6132 79.9821 49.6465L74.2772 46.6324L74.6462 45.95Z" fill="#517FA2"/>
<path d="M82.423 53.2861C80.8336 52.5183 79.2442 51.6937 77.6547 50.8976C76.0937 50.0445 74.5327 49.2199 73 48.3385L73.3974 47.656C74.93 48.5375 76.4627 49.4474 77.9953 50.3573C79.4996 51.2956 81.0039 52.2624 82.4798 53.2292V53.2861H82.423Z" fill="#517FA2"/>
<path d="M73.1135 50.6701C73.7663 50.8407 74.3624 51.125 74.93 51.4378C75.4977 51.7506 76.0085 52.1771 76.5194 52.5468C77.5696 53.3145 78.5914 54.0822 79.6131 54.8784V54.9352C78.4211 54.3381 77.2858 53.7126 76.1788 53.0586C75.6112 52.7458 75.0152 52.4615 74.5043 52.0634C73.9934 51.6653 73.4825 51.2388 73.0568 50.6985V50.6417L73.1135 50.6701Z" fill="#517FA2"/>
<path d="M120.881 56.8119C120.399 57.7218 119.86 58.6033 119.377 59.5132C118.838 60.3947 118.27 61.2761 117.703 62.1292H117.646C118.015 61.134 118.412 60.1672 118.838 59.2288C119.292 58.2905 119.718 57.3522 120.2 56.4423L120.881 56.8119Z" fill="#517FA2"/>
<path d="M123.606 57.9209C123.266 58.5749 122.868 59.2288 122.499 59.8828C122.102 60.5084 121.648 61.1339 121.222 61.7595H121.165C121.421 60.9918 121.676 60.3094 121.96 59.5985C122.301 58.9161 122.584 58.2336 122.953 57.5797L123.635 57.9493L123.606 57.9209Z" fill="#517FA2"/>
<path d="M125.763 59.2004C125.451 59.7975 125.082 60.3947 124.741 60.9633C124.372 61.532 123.975 62.1007 123.549 62.641H123.493C123.72 61.9585 123.947 61.3046 124.202 60.679C124.486 60.0534 124.77 59.4279 125.082 58.8308L125.763 59.2004Z" fill="#517FA2"/>
<path d="M67.0964 58.0062C66.5572 57.9209 66.103 57.6934 65.6489 57.4659C65.1948 57.2384 64.8258 56.8972 64.4285 56.5844C63.6338 55.9873 62.8391 55.3618 62.0727 54.7078L62.1295 54.6509C63.0377 55.1059 63.9176 55.5892 64.7691 56.0726C65.2232 56.3001 65.6773 56.5276 66.0747 56.8404C66.4436 57.1816 66.841 57.4943 67.1248 57.9493L67.0681 58.0062H67.0964Z" fill="#517FA2"/>
<path d="M68.2601 55.2765C67.7492 54.85 67.3235 54.4234 66.8694 53.9685L65.5638 52.6321C64.7407 51.6937 63.9176 50.7554 63.1512 49.7886L63.208 49.7318C64.1446 50.5564 65.0813 51.3525 66.0179 52.1771L67.3802 53.4567C67.8344 53.8547 68.2885 54.3097 68.7426 54.6509L68.2601 55.2765Z" fill="#517FA2"/>
<path d="M69.9631 52.6036C69.14 51.4663 68.3736 50.3004 67.5789 49.1631C66.8126 47.9973 66.0746 46.803 65.3367 45.6088L65.3935 45.5519C66.3017 46.604 67.2099 47.6845 68.0614 48.7934C68.9129 49.9024 69.7644 51.0113 70.5875 52.1487L69.9631 52.6036Z" fill="#517FA2"/>
<path d="M68.6859 42.6516C69.2819 43.5331 69.8495 44.3861 70.4172 45.296C70.9281 46.2059 71.4673 47.1158 71.9782 48.0257L71.2971 48.3953C70.8145 47.4854 70.3604 46.5187 69.8779 45.5803C69.4522 44.6136 69.0264 43.6468 68.6291 42.68H68.6859V42.6516Z" fill="#517FA2"/>
<path d="M72.5743 40.2062C73.0284 40.9455 73.4541 41.7133 73.8799 42.4526C74.2489 43.2203 74.6462 43.988 74.9868 44.7842L74.2772 45.097C73.9366 44.3008 73.6244 43.5046 73.3122 42.7085C73.0284 41.8839 72.773 41.0593 72.5175 40.2347H72.6027L72.5743 40.2062Z" fill="#517FA2"/>
<path d="M75.1855 37.704C75.5828 38.4717 75.9802 39.2679 76.3208 40.0641C76.633 40.8602 76.9736 41.6848 77.2858 42.481L76.5478 42.7369C76.264 41.9123 76.0086 41.0877 75.7247 40.2631C75.4977 39.4101 75.299 38.5855 75.1003 37.704H75.1855Z" fill="#517FA2"/>
<path d="M78.8184 34.6047C79.6983 36.4245 80.493 38.2727 81.2309 40.1494L81.089 39.9788C84.5517 41.7701 87.8441 43.8458 91.2216 45.8078L101.269 51.779V51.8359L90.9378 46.2912C87.5319 44.4145 84.0408 42.6516 80.7484 40.6043L80.6349 40.519V40.4053C79.9253 38.5002 79.3009 36.5951 78.7617 34.6331H78.8468L78.8184 34.6047Z" fill="#517FA2"/>
<path d="M82.3095 32.7849C82.5933 33.7516 82.8772 34.7184 83.1042 35.7136C83.3029 36.7088 83.53 37.6756 83.7286 38.6708L82.9623 38.8129C82.792 37.8177 82.6501 36.8225 82.5082 35.8273C82.3947 34.8321 82.3095 33.8085 82.2527 32.8133H82.3379L82.3095 32.7849Z" fill="#517FA2"/>
<path d="M87.5319 30.7944C87.6738 31.7897 87.7589 32.7849 87.8441 33.8085C87.8725 34.8037 87.9576 35.7989 87.986 36.8225H87.1913C87.1913 35.8273 87.1913 34.8321 87.1913 33.8369C87.248 32.8417 87.3048 31.8181 87.4183 30.8229H87.5035L87.5319 30.7944Z" fill="#517FA2"/>
<path d="M92.1583 29.458C92.1299 30.5101 92.0731 31.5337 92.0163 32.5858C91.9028 33.6095 91.8177 34.6615 91.6758 35.6852L90.9094 35.5714C91.0513 34.5478 91.25 33.5242 91.4203 32.5005C91.619 31.4769 91.8744 30.4532 92.1299 29.458H92.215H92.1583Z" fill="#517FA2"/>
<path d="M96.444 30.0267C96.3305 30.9651 96.1886 31.875 96.0467 32.8133C95.848 33.7232 95.6777 34.6331 95.4506 35.543L94.6843 35.344C94.9114 34.4341 95.1952 33.5526 95.4222 32.6427C95.7061 31.7612 96.0183 30.8798 96.3589 29.9983H96.444V30.0267Z" fill="#517FA2"/>
<path d="M100.474 31.4484C100.276 32.3299 100.077 33.1829 99.8499 34.0644C99.5661 34.9174 99.339 35.7705 99.0268 36.5951L98.2889 36.3392C98.5727 35.5146 98.9417 34.69 99.2539 33.8654C99.6229 33.0408 99.9918 32.2446 100.389 31.4484H100.474Z" fill="#517FA2"/>
<path d="M104.164 33.4388C103.738 34.2919 103.313 35.1165 102.858 35.9411C102.376 36.7372 101.893 37.5618 101.383 38.3296L100.73 37.903C101.241 37.1069 101.808 36.3676 102.348 35.5999C102.915 34.8606 103.511 34.1213 104.107 33.382L104.164 33.4388Z" fill="#517FA2"/>
<path d="M107.201 36.1117C106.491 36.8794 105.782 37.6471 105.044 38.3864C104.675 38.7561 104.363 39.1826 103.937 39.4954C103.511 39.7797 103.086 40.0925 102.546 40.2631L102.49 40.2062C102.717 39.6944 103.086 39.2963 103.426 38.8983C103.767 38.5002 104.221 38.2443 104.647 37.903C105.47 37.2491 106.293 36.6235 107.144 36.0264L107.201 36.0832V36.1117Z" fill="#517FA2"/>
<path d="M11.2395 91.0469C11.2679 92.7814 11.1827 94.4022 11.1543 96.0229C11.1543 97.6437 10.9841 99.236 11.0124 100.857C11.0124 102.478 11.126 104.098 11.353 105.748C11.5517 107.368 11.9207 108.989 12.3748 110.61C12.3748 110.667 12.3748 110.752 12.2896 110.752C12.2329 110.752 12.1761 110.752 12.1477 110.695C11.353 109.217 10.7286 107.624 10.1893 106.003C9.67845 104.383 9.30948 102.677 9.13918 100.971C8.96889 99.2645 8.88374 97.5015 9.22433 95.8239C9.56492 94.1178 10.0758 92.4686 10.984 90.9901C11.0124 90.9332 11.0976 90.9048 11.1543 90.9616C11.1827 90.9616 11.2111 91.0185 11.2111 91.0754L11.2395 91.0469Z" fill="#517FA2"/>
<path d="M13.0276 114.761C14.6454 117.605 16.0078 120.676 16.7457 123.889C17.1147 125.509 17.4269 127.159 17.4269 128.808C17.4269 130.457 17.3418 132.135 16.9728 133.755C16.9728 133.812 16.916 133.812 16.8877 133.812C16.8593 133.812 16.8309 133.784 16.8309 133.755C16.6038 132.106 16.4619 130.514 16.2349 128.922C16.0078 127.329 15.8375 125.737 15.5537 124.145C15.2698 122.552 14.9293 120.988 14.5035 119.424C14.0778 117.861 13.5385 116.325 12.9141 114.818C12.9141 114.79 12.9141 114.733 12.9425 114.704C12.9709 114.704 13.0276 114.704 13.0276 114.733V114.761Z" fill="#517FA2"/>
<path d="M79.5564 132.106C78.3927 133.699 77.0871 135.12 75.5828 136.428C74.8165 137.054 74.0218 137.651 73.1419 138.163C72.2621 138.646 71.3538 139.073 70.4456 139.442C68.6291 140.21 66.7559 140.693 64.9394 141.29C63.1513 141.888 61.3632 142.57 60.0008 143.906C59.944 143.963 59.8873 143.963 59.8305 143.906C59.8021 143.878 59.7737 143.793 59.8305 143.764C60.9658 142.115 62.7823 141.12 64.5136 140.21C66.2733 139.329 68.0047 138.532 69.7076 137.736C71.4106 136.94 72.9149 135.945 74.5327 134.95C76.1221 133.983 77.7115 132.845 79.4429 131.936C79.4996 131.907 79.5848 131.936 79.6132 131.992C79.6132 132.021 79.6132 132.078 79.6132 132.135L79.5564 132.106Z" fill="#517FA2"/>
<path d="M53.0471 148.769C52.451 149.593 51.7415 150.333 51.0035 151.043C50.2372 151.726 49.4425 152.38 48.5342 152.892C47.626 153.404 46.6894 153.858 45.6676 154.058C44.6458 154.285 43.624 154.37 42.5739 154.228C42.5171 154.228 42.4887 154.171 42.5171 154.143C42.5171 154.143 42.5171 154.086 42.5739 154.086C43.5105 153.659 44.4188 153.318 45.2986 152.92C46.1785 152.522 47.0867 152.209 47.9382 151.783C48.7897 151.356 49.6695 150.93 50.521 150.418C51.3725 149.906 52.1388 149.309 52.9051 148.683C52.9335 148.683 52.9903 148.683 53.0187 148.683C53.0187 148.683 53.0187 148.74 53.0187 148.769H53.0471Z" fill="#517FA2"/>
<path d="M112.622 95.9092C111.515 95.9092 110.522 95.4827 109.585 94.914C109.103 94.6297 108.62 94.1747 108.308 93.6913C107.967 93.2079 107.74 92.6961 107.513 92.2412C107.116 91.3028 106.719 90.3645 106.378 89.4262L105.867 87.976C105.697 87.4926 105.555 86.9524 105.47 86.8386C105.129 86.27 104.448 85.5591 103.88 85.0757C103.256 84.5923 102.631 84.2511 102.007 84.1658C101.383 84.0521 100.73 84.1089 100.077 84.3933C99.4242 84.6776 98.7714 85.1894 98.2321 85.7866L97.3806 86.7533L96.3872 86.1562C95.7628 85.7866 94.7694 85.4454 93.9463 85.4169C93.0665 85.3601 92.215 85.5022 91.3919 85.8719C90.5972 86.27 89.8876 86.8671 89.2348 87.6064C88.9226 87.976 88.6388 88.4025 88.355 88.8006L87.617 90.137L87.39 90.5635L87.021 90.6773C85.5735 91.1038 84.0692 91.7578 82.7636 92.5824C81.4296 93.407 80.1808 94.4022 79.2158 95.6249C78.2792 96.8476 77.5412 98.3261 77.3709 99.8616C77.1722 101.425 77.5412 103.046 78.0805 104.582C78.1089 104.667 78.0805 104.752 77.9953 104.781C77.9102 104.781 77.825 104.781 77.7967 104.695C77.1155 103.188 76.5194 101.539 76.5762 99.8047C76.633 98.0418 77.2858 96.3926 78.2224 94.914C79.1874 93.4639 80.4362 92.2127 81.8554 91.2175C83.2745 90.2223 84.7788 89.4262 86.4533 88.8006L85.8573 89.3409L86.5953 87.777C86.9075 87.2652 87.1913 86.7533 87.5603 86.27C88.2982 85.3032 89.1781 84.4217 90.285 83.7677C91.4203 83.1422 92.7259 82.801 94.0031 82.801C95.3371 82.801 96.5008 83.0569 97.8064 83.6824L95.9615 84.0521C96.6711 83.0853 97.5225 82.2323 98.6578 81.6351C99.7648 81.0096 101.184 80.7537 102.518 80.9812C103.88 81.2086 105.016 81.8911 105.924 82.6872C106.378 83.0853 106.775 83.5403 107.116 83.9952C107.456 84.4786 107.769 84.9051 108.052 85.5591C108.393 86.3553 108.393 86.8102 108.507 87.2936L108.79 88.7437L109.415 91.6441C109.642 92.6108 109.784 93.3501 110.408 93.9757C111.033 94.6297 111.799 95.3121 112.65 95.6533C112.65 95.6533 112.764 95.7955 112.736 95.8523C112.736 95.9092 112.65 95.9377 112.594 95.9377L112.622 95.9092Z" fill="#A73651"/>
<path d="M71.5525 48.5944C73.9082 50.0161 75.895 52.0349 77.3142 54.5656C78.0237 55.8167 78.5346 57.2384 78.7901 58.7455C79.0171 60.2525 78.9036 61.8733 78.3927 63.3518C77.3142 66.309 75.1003 68.47 72.6027 69.9486C70.105 71.3988 67.2383 72.0812 64.4285 72.0528L64.9961 71.8253C63.9176 72.6214 62.839 73.1333 61.6186 73.4176C60.4265 73.702 59.1493 73.7304 57.9572 73.4176C55.5447 72.8205 53.6999 71.1713 52.3659 69.3515C52.3091 69.2946 52.3375 69.1809 52.3943 69.124C52.451 69.0671 52.5362 69.0956 52.5929 69.124C54.1256 70.7163 56.0556 72.0528 58.1559 72.3087C59.1777 72.4508 60.2278 72.3087 61.1929 71.9675C62.1295 71.6262 63.1229 71.086 63.7757 70.4604L64.0027 70.2614H64.3717C66.841 70.0624 69.2819 69.2378 71.2687 67.8445C72.2337 67.1336 73.1135 66.309 73.7947 65.3422C74.4759 64.3755 74.9868 63.3234 75.3274 62.2998C75.9518 60.2241 75.8383 57.9209 75.0152 55.5892C74.2205 53.2861 72.8865 51.0113 71.3822 48.7934C71.3822 48.7934 71.3538 48.6228 71.4106 48.566C71.4673 48.5375 71.5241 48.5375 71.5809 48.566L71.5525 48.5944Z" fill="#A73651"/>
<path d="M138.933 75.5502C137.797 72.8774 136.776 67.2189 131.326 62.7831C126.388 58.7455 121.392 57.1816 118.639 56.5276" stroke="#A73651" stroke-width="0.55" stroke-miterlimit="10" stroke-linecap="round"/>
<path d="M84.6369 22.776C83.2461 24.2545 81.7418 25.2782 80.2092 26.2449C78.7049 27.2401 76.9452 27.6951 75.299 28.4913C73.6812 29.2874 72.0918 30.1405 70.5591 31.0788C68.9981 32.0171 67.5505 33.0692 66.2166 34.3203C66.1598 34.3772 66.0463 34.3772 65.9895 34.3203C65.9327 34.2634 65.9327 34.1781 65.9895 34.1213C66.9545 32.5005 68.2885 31.1357 69.6225 29.8277C71.0132 28.5481 72.4891 27.3823 74.0502 26.3303C75.5828 25.2782 77.0587 24.0271 78.8752 23.4015C80.6633 22.776 82.5082 22.321 84.5517 22.4632C84.6369 22.4632 84.722 22.5485 84.722 22.6338C84.722 22.6622 84.722 22.7191 84.6652 22.7475L84.6369 22.776Z" fill="#A73651"/>
<path d="M64.5988 71.3135C64.7123 67.8445 65.1664 61.4183 68.4588 55.1343C71.4957 49.3337 75.5544 43.7037 82.4798 39.5807C88.3834 36.0548 93.918 34.4909 99.0552 37.2206C103.341 39.4669 106.974 45.097 104.817 49.1631" stroke="#A73651" stroke-width="1.1" stroke-miterlimit="10"/>
<path d="M130.191 82.147C129.595 80.6115 131.638 77.7396 134.392 76.2326C137.457 74.555 140.409 75.4365 140.92 75.6071" stroke="#A73651" stroke-width="0.91" stroke-miterlimit="10"/>
<path d="M142.935 112.885C142.481 117.235 138.621 120.391 134.306 119.936C129.992 119.481 126.927 115.557 127.381 111.207C127.835 106.856 136.776 93.7766 136.776 93.7766C136.776 93.7766 143.389 108.506 142.935 112.885Z" fill="#517FA2" stroke="#517FA2" stroke-width="0.3" stroke-miterlimit="10"/>
<path d="M103.625 112.401C103.824 112.486 103.653 112.344 103.398 112.316C103.142 112.316 102.802 112.316 102.461 112.316C101.752 112.373 101.014 112.486 100.247 112.629C98.7146 112.885 97.1536 113.169 95.5926 113.339C94.0031 113.51 92.3853 113.567 90.7959 113.339C89.2065 113.112 87.6454 112.6 86.3966 111.662C87.7874 112.373 89.32 112.6 90.8243 112.572C92.3286 112.515 93.8328 112.231 95.2804 111.804C96.7562 111.406 98.1754 110.894 99.6513 110.354C100.389 110.098 101.156 109.842 101.979 109.615C102.404 109.501 102.83 109.416 103.341 109.359C103.852 109.359 104.505 109.273 105.356 109.757C106.066 110.24 106.264 111.207 105.782 111.918C105.299 112.629 104.334 112.828 103.625 112.344V112.401Z" fill="#A73651"/>
<path d="M13.3682 67.9013C13.3114 67.5033 13.1411 67.5033 13.1979 67.5317C13.2263 67.5601 13.3114 67.6454 13.425 67.7023C13.652 67.816 13.9642 67.9298 14.2764 68.0151C14.9009 68.1857 15.6104 68.3279 16.2916 68.4132C17.6824 68.5838 19.1299 68.6122 20.5774 68.4985C22.0249 68.3847 23.444 68.1288 24.8064 67.6739C26.1687 67.1905 27.4743 66.4796 28.4677 65.3707C27.6446 66.5934 26.3674 67.5317 25.0334 68.2141C23.6711 68.8965 22.2236 69.3515 20.7477 69.6643C19.2718 69.977 17.7391 70.1477 16.2065 70.1761C15.4401 70.1761 14.6454 70.1761 13.8507 70.0339C13.4533 69.977 13.0276 69.8917 12.5735 69.7496C12.3464 69.6643 12.1194 69.579 11.8355 69.3799C11.5801 69.1809 11.1544 68.8965 11.0124 68.1288C10.9557 67.4748 11.4098 66.9061 12.0626 66.8493C12.7154 66.7924 13.2831 67.2473 13.3398 67.9013H13.3682Z" fill="#A73651"/>
<path d="M90.6256 69.6927C91.8177 68.8112 93.0665 67.9866 94.4005 67.2473C95.7345 66.5649 97.1536 65.9678 98.6295 65.5413C101.553 64.7167 104.845 64.6029 107.825 65.2854C110.806 65.9109 113.701 66.764 116.511 67.8729C117.901 68.4416 119.292 69.0103 120.654 69.6643C121.336 70.0055 122.017 70.3467 122.67 70.7448C123.351 71.1713 123.975 71.5125 124.713 72.1665L123.124 73.901C122.215 73.247 120.825 72.5361 119.547 71.9674C118.242 71.3703 116.908 70.7732 115.546 70.233C112.849 69.1809 110.124 68.1572 107.315 67.4748C104.533 66.764 101.78 66.5649 98.9417 67.0199C96.1034 67.4179 93.3503 68.4985 90.6256 69.6927Z" fill="#A73651"/>
<path d="M51.4009 58.7455C51.2022 57.4375 50.9467 56.1011 50.6629 54.7931C50.3507 53.4851 50.0385 52.1771 49.5276 50.8976C50.3791 51.9781 51.0887 53.1723 51.7698 54.3666C52.451 55.5892 53.0754 56.7835 53.6715 58.063C53.9553 58.6602 53.6715 59.371 53.1038 59.6554C52.5078 59.9397 51.7982 59.6554 51.5144 59.0867C51.4576 58.9729 51.4293 58.8876 51.4293 58.7739L51.4009 58.7455Z" fill="#A73651"/>
<path d="M54.4946 50.5848C54.0404 49.3621 53.5295 48.111 52.9335 46.9452C52.3375 45.7509 51.6847 44.5851 50.748 43.5899C51.9401 44.2724 52.9335 45.2676 53.8985 46.2628C54.8351 47.2864 55.715 48.3385 56.5665 49.4758C56.9638 50.0161 56.8503 50.7554 56.311 51.125C55.7718 51.5231 55.0338 51.4094 54.6648 50.8691C54.6081 50.7838 54.5513 50.6701 54.4946 50.5848Z" fill="#A73651"/>
<path d="M56.2259 42.3957C55.5163 41.3152 54.7216 40.2347 53.8702 39.211C53.0187 38.1874 52.1104 37.2206 50.9751 36.4529C52.2807 36.851 53.5012 37.5618 54.6365 38.3296C55.8002 39.0973 56.8787 39.9219 57.9856 40.8318C58.4965 41.2583 58.5533 41.9976 58.1275 42.5094C57.7018 43.0212 56.9639 43.0781 56.453 42.6516C56.3678 42.5663 56.2827 42.481 56.2259 42.3957Z" fill="#A73651"/>
<path opacity="0.36" d="M129.623 82.3176C129.623 82.3176 132.433 72.6214 141.43 76.4316C141.43 76.4316 137.031 84.8198 129.623 82.3176Z" fill="#A73651" stroke="#A73651" stroke-width="0.28" stroke-miterlimit="10"/>
<path d="M63.8892 6.59678C63.9176 6.1987 63.9743 5.54471 64.3149 4.86228C64.6555 4.17986 65.1664 3.78177 65.5638 3.469C66.3585 2.90031 67.0397 2.53066 67.8344 2.16101C69.3954 1.42172 71.0416 0.938335 72.7446 0.71086C74.4475 0.483385 76.1789 0.540253 77.8818 0.824597C78.3076 0.909901 78.7333 0.995204 79.1306 1.10894L79.4712 1.19424C79.6415 1.25111 79.7834 1.30798 79.9537 1.36485C80.2659 1.50702 80.5498 1.67763 80.8052 1.9051C81.3161 2.33162 81.7135 2.92874 81.9121 3.58273C82.1392 4.17986 82.1392 4.97602 82.0257 5.48784C80.9755 11.4591 80.9471 17.6009 81.9973 23.5437L79.7551 22.4063C84.495 20.0462 89.7174 18.6814 94.9965 18.4539L93.7761 19.1648C94.145 18.6245 94.4005 17.999 94.5708 17.345C94.6559 17.0322 94.7127 16.691 94.7411 16.3782C94.7411 16.2076 94.7411 16.037 94.7411 15.8948C94.7411 15.6674 94.7127 15.7242 94.7411 15.0987C94.8262 14.1319 95.4506 13.2504 96.3021 12.8523C96.5008 12.7386 96.7278 12.6817 96.9833 12.6249L97.3523 12.568L97.9767 12.4827L99.2255 12.2837L99.8499 12.1984L100.191 12.1415C100.474 12.0846 100.815 12.1415 101.099 12.1984C101.723 12.369 102.234 12.767 102.546 13.3073C102.688 13.5632 102.802 13.876 102.83 14.1603C102.83 14.3025 102.83 14.4731 102.83 14.6153V14.7859C102.802 15.1271 102.83 15.4683 102.83 15.8095C102.887 16.4919 103.029 17.1744 103.284 17.7999C103.767 19.051 104.675 20.1884 105.81 20.9846L104.448 20.7855C105.924 20.3306 107.315 19.5913 108.535 18.6814C108.847 18.4539 109.131 18.198 109.443 17.9421L109.869 17.544C110.181 17.2597 110.55 17.0322 110.919 16.8616C111.714 16.5488 112.594 16.5773 113.36 16.9185C113.559 17.0038 113.729 17.1175 113.899 17.2312L114.155 17.4018L114.694 17.7715L115.744 18.5108C115.744 18.5108 116.056 18.7098 116.198 18.852C116.369 18.9942 116.511 19.1932 116.624 19.3638C116.879 19.7335 117.021 20.16 117.107 20.6149C117.163 21.0415 117.107 21.4964 116.993 21.9229L116.766 22.5769C116.624 22.9466 116.511 23.3446 116.397 23.7427C115.943 25.3066 115.687 26.8989 115.545 28.4913L114.24 26.8421C115.46 27.0411 116.709 26.9274 117.873 26.5009L118.299 26.3302L118.582 26.1881C118.781 26.1028 118.98 26.0459 119.207 26.0175C120.058 25.8753 120.967 26.1596 121.591 26.7568C121.761 26.8989 121.875 27.0695 121.988 27.2401C122.045 27.3255 122.102 27.4108 122.159 27.5245L122.215 27.6382L122.471 28.15L122.982 29.1737L123.237 29.6855C123.237 29.6855 123.549 30.3111 123.578 30.7091C123.691 31.5906 123.379 32.4721 122.783 33.0408C122.67 33.1829 122.414 33.3535 122.357 33.4104L122.159 33.5526L121.761 33.8369C121.506 34.036 121.279 34.2634 121.023 34.4909C120.569 34.9459 120.143 35.4577 119.775 35.9695C119.604 36.2254 119.434 36.5098 119.264 36.7941C119.122 37.05 119.037 37.2775 118.951 37.5334C118.809 38.0168 118.781 38.5286 118.895 39.0689C119.037 39.8366 119.15 40.6043 119.235 41.372C119.434 42.9359 119.576 44.4145 119.633 46.0637C119.633 49.2768 119.207 52.2909 118.951 55.2196L118.299 53.8263C118.724 54.1107 119.462 54.395 120.257 54.5656C121.052 54.7646 121.903 54.9068 122.755 55.0206C124.486 55.248 126.246 55.3902 128.034 55.5324C129.879 55.6745 131.525 55.8167 133.199 55.6745C134.874 55.5608 136.52 55.2196 138.138 54.7362L138.45 54.6509H138.734C139.983 54.7931 141.005 55.1627 142.026 55.7598C143.02 56.357 143.9 57.2384 144.467 58.2336C145.063 59.2573 145.404 60.4231 145.432 61.5889C145.432 62.7547 145.29 63.8068 144.836 64.9726L144.638 65.4275L144.155 65.7119C142.566 66.6218 141.288 68.2141 140.976 69.977C140.806 70.8585 140.834 71.7968 141.061 72.6783C141.175 73.1333 141.345 73.5598 141.544 73.9579C141.657 74.1569 141.771 74.3559 141.885 74.555L142.083 74.8393C142.197 75.0099 142.339 75.2374 142.452 75.4649C142.878 76.3748 142.906 77.4553 142.509 78.3652C142.31 78.8201 142.026 79.2467 141.686 79.5879C141.402 79.8722 141.203 80.0428 140.948 80.2419C139.955 81.0665 138.876 81.7204 137.797 82.2891C136.691 82.8578 135.555 83.2843 134.363 83.654C133.143 83.9952 132.036 84.2795 130.56 84.3364H129.737L129.254 83.5971C127.977 81.5783 126.728 79.5879 125.337 77.8249C123.947 76.0904 122.329 74.6119 120.484 74.0147L120.853 74.1C119.235 73.9863 117.617 74.4412 116.255 75.3511C116.085 75.4649 115.914 75.5786 115.773 75.7208L115.659 75.8061L115.602 75.863L115.659 75.8345L115.744 75.7208C116 75.408 116.085 74.9246 115.943 74.5265C115.858 74.3275 115.744 74.1569 115.574 74.0147C115.489 73.9579 115.404 73.901 115.29 73.8441C115.233 73.8441 115.205 73.8157 115.148 73.7873L115.574 73.901C115.858 73.9863 116.113 74.1 116.34 74.1853C117.334 74.5834 118.128 74.9531 119.008 75.209C119.434 75.3511 119.86 75.4649 120.285 75.5502C120.285 75.5502 120.484 75.5786 120.654 75.6355C120.825 75.6924 120.967 75.7777 121.108 75.863C121.392 76.0336 121.648 76.261 121.846 76.5454C122.045 76.8297 122.187 77.1425 122.244 77.4837C122.272 77.6543 122.301 77.8249 122.301 77.9955C122.301 78.1661 122.272 78.3652 122.272 78.3936C122.187 78.9623 122.045 79.531 121.875 80.0428L121.619 80.839C121.421 81.3508 121.08 81.8057 120.626 82.147L119.916 82.5735L119.377 82.9431C119.008 83.199 118.668 83.4549 118.355 83.7393C117.703 84.308 117.107 84.962 116.596 85.6444C115.546 87.0661 114.949 88.5731 114.722 90.3645C114.467 92.1559 114.382 94.2316 114.07 96.2504C113.474 100.317 112.14 104.269 110.266 107.909V107.965L110.21 108.022C109.358 109.416 108.223 110.638 106.889 111.577C106.208 112.06 105.498 112.458 104.732 112.771C104.022 113.112 103.029 113.311 102.717 113.453C101.837 113.823 101.127 114.619 100.872 115.529C100.503 116.894 100.077 118.316 99.6229 119.68C97.8064 125.197 95.0817 130.485 91.6757 135.206V135.262L91.5906 135.319C89.1497 138.22 86.2547 140.807 82.9907 142.798C81.3729 143.793 79.5848 144.674 77.8534 145.357C76.0937 146.039 74.5043 146.636 72.9149 147.432C71.3254 148.228 69.8212 149.082 68.402 150.077C67.0113 151.072 65.5922 152.266 64.0879 153.404C61.1077 155.621 58.1843 157.754 55.0054 159.801C51.855 161.792 48.4207 163.611 44.6742 164.578C40.8993 165.545 37.0109 165.744 33.1509 165.119C29.3192 164.465 25.6295 162.929 22.479 160.683C20.8896 159.545 19.4421 158.266 18.1365 156.816C16.8593 155.394 15.6956 153.915 14.617 152.351C12.4883 149.252 10.5867 145.84 9.65008 142.001C8.77022 138.22 8.4864 134.637 7.77683 131.083C7.12403 127.528 6.3577 124.002 5.27916 120.619C4.7399 118.913 4.11548 117.15 3.60459 115.33C3.09371 113.51 2.69635 111.69 2.29899 109.899C1.56105 106.231 0.936629 102.648 0.596038 98.8664C0.312212 95.0846 0.510891 91.246 1.24884 87.5211C1.9584 83.7962 3.29238 80.1566 4.93857 76.8013C6.58476 73.4176 8.57154 70.2045 10.8422 67.1905V67.1336L10.5867 67.816C11.4666 62.6125 13.1411 57.4943 15.6104 52.8027C18.0513 48.0826 21.2586 43.789 25.0334 40.0641C26.9067 38.1874 28.9502 36.4813 31.1073 34.9459C31.6466 34.5762 32.1291 34.235 32.64 33.8369C33.1792 33.4388 33.7185 33.0692 34.2578 32.6996C35.3647 31.9603 36.5 31.2494 37.6353 30.6238C42.2617 28.0079 47.3422 26.1881 52.5645 25.335H52.6213L51.5144 26.1312C53.3025 22.7475 56.2827 20.0178 59.7737 18.5392L59.1493 19.0226C61.8457 15.4683 63.4635 11.1463 63.7757 6.68208L63.8892 6.59678ZM67.0113 6.82425C66.6423 11.8571 64.8258 16.8047 61.7605 20.814L61.5051 21.1552L61.1361 21.3258C58.2695 22.5485 55.8569 24.7664 54.381 27.5245L54.0404 28.1785L53.2741 28.3207H53.2173C48.3639 29.3159 43.7092 31.0788 39.4234 33.5241C38.3449 34.1497 37.3231 34.8037 36.3013 35.4861C35.7904 35.8273 35.2796 36.197 34.7971 36.5666C34.2862 36.9647 33.7185 37.3628 33.236 37.7324C31.2492 39.1826 29.3476 40.8034 27.5879 42.5094C24.0401 45.9784 21.0315 49.9592 18.7041 54.3381C16.3768 58.717 14.7022 63.4371 13.7656 68.2994L13.6804 68.6691L13.4533 68.9534V69.0103C11.2679 71.8253 9.39464 74.8678 7.8336 78.0808C6.27255 81.2939 5.08049 84.5923 4.3993 88.0613C3.71812 91.5019 3.51944 95.0562 3.77489 98.5536C4.0871 102.051 4.71151 105.691 5.42108 109.217C5.79005 110.979 6.18741 112.742 6.66991 114.448C7.15241 116.154 7.72007 117.832 8.28772 119.623C9.4514 123.206 10.2461 126.846 10.8989 130.485C11.6085 134.125 11.9207 137.878 12.7154 141.205C13.5101 144.532 15.2131 147.603 17.1998 150.532C18.1932 151.982 19.3002 153.404 20.4638 154.683C21.6275 155.963 22.9048 157.1 24.2955 158.095C27.077 160.086 30.3126 161.422 33.6901 161.991C37.0393 162.559 40.6155 162.389 43.9079 161.507C47.2286 160.626 50.3507 159.005 53.3593 157.1C56.3394 155.195 59.3196 153.005 62.2146 150.844C63.6621 149.764 65.0245 148.598 66.5855 147.461C68.1466 146.323 69.8212 145.385 71.5241 144.56C73.2271 143.707 75.0152 143.025 76.6897 142.371C78.3359 141.717 79.8686 140.978 81.3445 140.068C84.2963 138.248 86.9359 135.888 89.2065 133.215L89.1213 133.3C92.3569 128.808 94.9114 123.889 96.6427 118.628C97.0968 117.32 97.4658 116.012 97.8631 114.619C98.374 112.799 99.7364 111.235 101.468 110.524C102.49 110.126 102.915 110.098 103.483 109.842C104.022 109.615 104.561 109.302 105.044 108.961C106.009 108.278 106.86 107.368 107.485 106.345L107.428 106.458C109.131 103.075 110.351 99.4919 110.919 95.767C111.231 93.8904 111.288 92.0137 111.572 89.9096C111.714 88.8575 111.969 87.7485 112.395 86.6965C112.821 85.6444 113.36 84.6776 114.013 83.7962C114.666 82.9147 115.404 82.0901 116.227 81.3792C116.652 81.0096 117.078 80.6684 117.504 80.3556C117.731 80.185 117.958 80.0428 118.185 79.9006L118.724 79.5594C118.724 79.5594 118.611 79.6732 118.611 79.7016L118.809 79.076C118.951 78.6495 119.037 78.2514 119.093 77.8534C119.093 77.7681 119.093 77.8534 119.093 77.8818C119.093 77.9387 119.093 77.9955 119.093 78.024C119.093 78.1093 119.15 78.223 119.207 78.2799C119.264 78.3652 119.32 78.4221 119.406 78.4789C119.434 78.4789 119.491 78.5358 119.547 78.5358C119.661 78.5358 119.604 78.5358 119.547 78.5358C119.008 78.4221 118.497 78.2799 117.986 78.1093C116.965 77.7965 115.971 77.37 115.148 77.0288C114.949 76.9435 114.722 76.8582 114.552 76.8013L114.268 76.716H114.212C114.212 76.716 114.07 76.6591 113.984 76.6023C113.843 76.5454 113.672 76.4601 113.559 76.3463C113.275 76.1189 113.076 75.8345 112.963 75.5217C112.736 74.8962 112.849 74.1569 113.247 73.6451C113.303 73.5882 113.36 73.5313 113.417 73.4745L113.53 73.3892L113.615 73.3323L113.786 73.1901C114.013 73.0195 114.24 72.8489 114.467 72.6783C116.369 71.3703 118.724 70.7163 121.023 70.8869H121.222L121.392 70.9722C122.755 71.4272 123.947 72.1665 124.997 73.0195C126.047 73.8726 126.899 74.8393 127.693 75.8061C129.283 77.7681 130.56 79.8438 131.837 81.8626L130.532 81.1233C131.326 81.1233 132.462 80.8674 133.427 80.5831C134.42 80.2703 135.413 79.9006 136.35 79.4173C137.287 78.9339 138.138 78.3936 138.904 77.7681C139.075 77.6259 139.302 77.4269 139.444 77.2847C139.5 77.2278 139.529 77.1709 139.557 77.0856C139.614 76.9435 139.614 76.8013 139.557 76.6591C139.557 76.6307 139.557 76.6023 139.5 76.5454L139.217 76.1189C139.046 75.8345 138.876 75.5502 138.706 75.2374C138.393 74.6403 138.166 73.9863 137.996 73.3323C137.656 72.0243 137.599 70.6026 137.883 69.2378C138.422 66.4796 140.267 64.1764 142.622 62.84L141.941 63.5793C142.168 63.0391 142.31 62.2429 142.282 61.5605C142.254 60.878 142.083 60.2525 141.743 59.6554C141.402 59.0867 140.948 58.6033 140.38 58.2621C139.841 57.9209 139.075 57.665 138.479 57.6365L139.046 57.5796C137.23 58.1483 135.328 58.518 133.398 58.6602C131.468 58.8308 129.538 58.6602 127.778 58.518C125.962 58.3758 124.174 58.2336 122.301 57.9777C121.364 57.864 120.456 57.6934 119.491 57.4659C118.526 57.21 117.532 56.9541 116.454 56.2432L115.716 55.7598L115.801 54.8499C116.085 51.779 116.511 48.8219 116.482 45.9784C116.454 44.6136 116.283 43.0781 116.113 41.6564C116.028 40.9455 115.914 40.2062 115.773 39.4954C115.602 38.557 115.631 37.505 115.914 36.5666C116.056 36.0832 116.255 35.5999 116.482 35.2018C116.681 34.8321 116.908 34.4625 117.135 34.0928C117.617 33.382 118.157 32.728 118.781 32.1309C119.093 31.8181 119.406 31.5337 119.746 31.2778L120.257 30.8797L120.512 30.7091C120.456 30.766 120.399 30.8797 120.427 30.9935C120.541 31.3063 120.285 30.7376 120.143 30.4532L119.633 29.4296L119.377 28.9178L119.32 28.804C119.32 28.804 119.32 28.804 119.32 28.8325C119.32 28.8325 119.349 28.8609 119.377 28.8893C119.462 28.9746 119.576 29.0031 119.689 28.9746C119.689 28.9746 119.746 28.9746 119.775 28.9746C119.803 28.9746 119.774 28.9746 119.689 29.0031L119.547 29.0599C119.349 29.1453 119.15 29.2306 118.923 29.3159C117.277 29.9414 115.432 30.112 113.672 29.8277L112.282 29.6002L112.395 28.1785C112.537 26.3587 112.849 24.5389 113.332 22.8044C113.445 22.3779 113.587 21.9229 113.729 21.4964L113.928 20.9277C113.928 20.9277 113.928 20.9277 113.928 20.9561C113.928 20.9561 113.928 20.9846 113.928 21.013C113.928 21.013 114.013 21.0983 113.871 21.013L112.821 20.2737L112.282 19.9041L112.026 19.7335H111.969L111.458 20.2169C111.118 20.5296 110.749 20.8424 110.351 21.1268C108.847 22.2641 107.144 23.1456 105.328 23.7143L104.59 23.9418L103.965 23.4868C102.348 22.3494 101.07 20.7571 100.332 18.8804C99.9635 17.9705 99.7364 16.9753 99.6513 16.0086C99.6229 15.5252 99.5945 15.0134 99.6513 14.53C99.6513 14.5015 99.6513 14.3594 99.6513 14.3878C99.6513 14.4162 99.6513 14.4731 99.6513 14.53C99.6513 14.6153 99.708 14.729 99.7364 14.7859C99.8215 14.9565 99.9918 15.0987 100.219 15.1555C100.332 15.1555 100.418 15.184 100.531 15.1555L100.247 15.2124L99.6229 15.2977L98.374 15.4967L97.7496 15.582H97.4942C97.4942 15.582 97.5509 15.582 97.5793 15.582C97.6645 15.5252 97.7496 15.4399 97.778 15.2977C97.778 15.0987 97.778 15.5536 97.778 15.7527C97.778 16.0086 97.778 16.2645 97.778 16.5204C97.7496 17.0322 97.6645 17.544 97.5226 18.0274C97.2671 19.0226 96.8698 19.9609 96.3021 20.814L95.8764 21.468H95.0817C90.2282 21.7239 85.4316 22.975 81.089 25.136L79.2158 26.0743L78.8468 23.9986C77.7399 17.6862 77.7683 11.1747 78.8752 4.86228C78.9604 4.49263 78.8752 4.3789 78.7049 4.20829C78.6765 4.17986 78.6198 4.15142 78.5914 4.12299H78.5346L78.3076 4.06612C77.967 3.98082 77.6264 3.89551 77.2858 3.83864C75.9234 3.58273 74.5043 3.5543 73.1135 3.75334C71.7228 3.92395 70.3604 4.32203 69.1116 4.91915C68.5156 5.20349 67.8344 5.57314 67.3519 5.91435C67.1248 6.08496 67.0397 6.1987 67.0397 6.22713C67.0397 6.22713 66.9829 6.39774 66.9545 6.76739L67.0113 6.82425Z" fill="#A73651"/>
<path d="M119.547 78.5358C119.491 78.5358 119.434 78.4789 119.406 78.4789C119.32 78.4221 119.264 78.3652 119.207 78.2799C119.15 78.223 119.093 78.1093 119.093 78.024C119.093 77.9955 119.093 77.9387 119.093 77.8818C119.093 77.8534 119.093 77.7681 119.093 77.8534C119.037 78.2514 118.951 78.6495 118.809 79.076L118.611 79.7016C118.611 79.6732 118.724 79.5594 118.724 79.5594L118.185 79.9006C117.958 80.0428 117.731 80.185 117.504 80.3556C117.078 80.6684 116.652 81.0096 116.227 81.3792C115.404 82.0901 114.666 82.9147 114.013 83.7962C113.36 84.6776 112.821 85.6444 112.395 86.6965C111.969 87.7485 111.714 88.8575 111.572 89.9096C111.288 92.0137 111.231 93.8904 110.919 95.767C110.351 99.4919 109.131 103.075 107.428 106.458L107.485 106.345C106.86 107.368 106.009 108.278 105.044 108.961C104.561 109.302 104.022 109.615 103.483 109.842C102.915 110.098 102.49 110.126 101.468 110.524C99.7364 111.235 98.374 112.799 97.8631 114.619C97.4658 116.012 97.0968 117.32 96.6427 118.628C94.9114 123.889 92.3569 128.808 89.1213 133.3L89.2065 133.215C86.9359 135.888 84.2963 138.248 81.3445 140.068C79.8686 140.978 78.3359 141.717 76.6897 142.371C75.0152 143.025 73.2271 143.707 71.5241 144.56C69.8212 145.385 68.1466 146.323 66.5855 147.461C65.0245 148.598 63.6621 149.764 62.2146 150.844C59.3196 153.005 56.3394 155.195 53.3593 157.1C50.3507 159.005 47.2286 160.626 43.9079 161.507C40.6155 162.389 37.0393 162.559 33.6901 161.991C30.3126 161.422 27.077 160.086 24.2955 158.095C22.9048 157.1 21.6275 155.963 20.4638 154.683C19.3002 153.404 18.1932 151.982 17.1998 150.532C15.2131 147.603 13.5101 144.532 12.7154 141.205C11.9207 137.878 11.6085 134.125 10.8989 130.485C10.2461 126.846 9.4514 123.206 8.28772 119.623C7.72007 117.832 7.15241 116.154 6.66991 114.448C6.18741 112.742 5.79005 110.979 5.42108 109.217C4.71151 105.691 4.0871 102.051 3.77489 98.5536C3.51944 95.0562 3.71812 91.5019 4.3993 88.0613C5.08049 84.5923 6.27255 81.2939 7.8336 78.0808C9.39464 74.8678 11.2679 71.8253 13.4533 69.0103V68.9534L13.6804 68.6691L13.7656 68.2994C14.7022 63.4371 16.3768 58.717 18.7041 54.3381C21.0315 49.9592 24.0401 45.9784 27.5879 42.5094C29.3476 40.8034 31.2492 39.1826 33.236 37.7324C33.7185 37.3628 34.2862 36.9647 34.7971 36.5666C35.2796 36.197 35.7904 35.8273 36.3013 35.4861C37.3231 34.8037 38.3449 34.1497 39.4234 33.5241C43.7092 31.0788 48.3639 29.3159 53.2173 28.3207H53.2741L54.0404 28.1785L54.381 27.5245C55.8569 24.7664 58.2695 22.5485 61.1361 21.3258L61.5051 21.1552L61.7605 20.814C64.8258 16.8047 66.6423 11.8571 67.0113 6.82425L66.9545 6.76739C66.9829 6.39774 67.0397 6.22713 67.0397 6.22713C67.0397 6.1987 67.1248 6.08496 67.3519 5.91435C67.8344 5.57314 68.5156 5.20349 69.1116 4.91915C70.3604 4.32203 71.7228 3.92395 73.1135 3.75334C74.5043 3.5543 75.9234 3.58273 77.2858 3.83864C77.6264 3.89551 77.967 3.98082 78.3076 4.06612L78.5346 4.12299H78.5914C78.6198 4.15142 78.6765 4.17986 78.7049 4.20829C78.8752 4.3789 78.9604 4.49263 78.8752 4.86228C77.7683 11.1747 77.7399 17.6862 78.8468 23.9986L79.2158 26.0743L81.089 25.136C85.4316 22.975 90.2282 21.7239 95.0817 21.468H95.8764L96.3021 20.814C96.8698 19.9609 97.2671 19.0226 97.5226 18.0274C97.6645 17.544 97.7496 17.0322 97.778 16.5204C97.778 16.2645 97.778 16.0086 97.778 15.7527C97.778 15.5536 97.778 15.0987 97.778 15.2977C97.7496 15.4399 97.6645 15.5252 97.5793 15.582C97.5509 15.582 97.4942 15.582 97.4942 15.582H97.7496L98.374 15.4967L99.6229 15.2977L100.247 15.2124L100.531 15.1555C100.418 15.184 100.332 15.1555 100.219 15.1555C99.9918 15.0987 99.8215 14.9565 99.7364 14.7859C99.708 14.729 99.6513 14.6153 99.6513 14.53M119.547 78.5358C119.604 78.5358 119.661 78.5358 119.547 78.5358ZM119.547 78.5358C119.008 78.4221 118.497 78.2799 117.986 78.1093C116.965 77.7965 115.971 77.37 115.148 77.0288C114.949 76.9435 114.722 76.8582 114.552 76.8013L114.268 76.716H114.212C114.212 76.716 114.07 76.6591 113.984 76.6023C113.843 76.5454 113.672 76.4601 113.559 76.3463C113.275 76.1189 113.076 75.8345 112.963 75.5217C112.736 74.8962 112.849 74.1569 113.247 73.6451C113.303 73.5882 113.36 73.5313 113.417 73.4745L113.53 73.3892L113.615 73.3323L113.786 73.1901C114.013 73.0195 114.24 72.8489 114.467 72.6783C116.369 71.3703 118.724 70.7163 121.023 70.8869H121.222L121.392 70.9722C122.755 71.4272 123.947 72.1665 124.997 73.0195C126.047 73.8726 126.899 74.8393 127.693 75.8061C129.283 77.7681 130.56 79.8438 131.837 81.8626L130.532 81.1233C131.326 81.1233 132.462 80.8674 133.427 80.5831C134.42 80.2703 135.413 79.9006 136.35 79.4173C137.287 78.9339 138.138 78.3936 138.904 77.7681C139.075 77.6259 139.302 77.4269 139.444 77.2847C139.5 77.2278 139.529 77.1709 139.557 77.0856C139.614 76.9435 139.614 76.8013 139.557 76.6591C139.557 76.6307 139.557 76.6023 139.5 76.5454L139.217 76.1189C139.046 75.8345 138.876 75.5502 138.706 75.2374C138.393 74.6403 138.166 73.9863 137.996 73.3323C137.656 72.0243 137.599 70.6026 137.883 69.2378C138.422 66.4796 140.267 64.1764 142.622 62.84L141.941 63.5793C142.168 63.0391 142.31 62.2429 142.282 61.5605C142.254 60.878 142.083 60.2525 141.743 59.6554C141.402 59.0867 140.948 58.6033 140.38 58.2621C139.841 57.9209 139.075 57.665 138.479 57.6365L139.046 57.5796C137.23 58.1483 135.328 58.518 133.398 58.6602C131.468 58.8308 129.538 58.6602 127.778 58.518C125.962 58.3758 124.174 58.2336 122.301 57.9777C121.364 57.864 120.456 57.6934 119.491 57.4659C118.526 57.21 117.532 56.9541 116.454 56.2432L115.716 55.7598L115.801 54.8499C116.085 51.779 116.511 48.8219 116.482 45.9784C116.454 44.6136 116.283 43.0781 116.113 41.6564C116.028 40.9455 115.914 40.2062 115.773 39.4954C115.602 38.557 115.631 37.505 115.914 36.5666C116.056 36.0832 116.255 35.5999 116.482 35.2018C116.681 34.8321 116.908 34.4625 117.135 34.0928C117.617 33.382 118.157 32.728 118.781 32.1309C119.093 31.8181 119.406 31.5337 119.746 31.2778L120.257 30.8797L120.512 30.7091C120.456 30.766 120.399 30.8797 120.427 30.9935C120.541 31.3063 120.285 30.7376 120.143 30.4532L119.633 29.4296L119.377 28.9178L119.32 28.804C119.32 28.804 119.32 28.804 119.32 28.8325C119.32 28.8325 119.349 28.8609 119.377 28.8893C119.462 28.9746 119.576 29.0031 119.689 28.9746C119.689 28.9746 119.746 28.9746 119.775 28.9746C119.803 28.9746 119.774 28.9746 119.689 29.0031L119.547 29.0599C119.349 29.1453 119.15 29.2306 118.923 29.3159C117.277 29.9414 115.432 30.112 113.672 29.8277L112.282 29.6002L112.395 28.1785C112.537 26.3587 112.849 24.5389 113.332 22.8044C113.445 22.3779 113.587 21.9229 113.729 21.4964L113.928 20.9277C113.928 20.9277 113.928 20.9277 113.928 20.9561C113.928 20.9561 113.928 20.9846 113.928 21.013C113.928 21.013 114.013 21.0983 113.871 21.013L112.821 20.2737L112.282 19.9041L112.026 19.7335H111.969L111.458 20.2169C111.118 20.5296 110.749 20.8424 110.351 21.1268C108.847 22.2641 107.144 23.1456 105.328 23.7143L104.59 23.9418L103.965 23.4868C102.348 22.3494 101.07 20.7571 100.332 18.8804C99.9635 17.9705 99.7364 16.9753 99.6513 16.0086C99.6229 15.5252 99.5945 15.0134 99.6513 14.53M99.6513 14.53C99.6513 14.5015 99.6513 14.3594 99.6513 14.3878C99.6513 14.4162 99.6513 14.4731 99.6513 14.53ZM63.8892 6.59678C63.9176 6.1987 63.9743 5.54471 64.3149 4.86228C64.6555 4.17986 65.1664 3.78177 65.5638 3.469C66.3585 2.90031 67.0397 2.53066 67.8344 2.16101C69.3954 1.42172 71.0416 0.938335 72.7446 0.71086C74.4475 0.483385 76.1789 0.540253 77.8818 0.824597C78.3076 0.909901 78.7333 0.995204 79.1306 1.10894L79.4712 1.19424C79.6415 1.25111 79.7834 1.30798 79.9537 1.36485C80.2659 1.50702 80.5498 1.67763 80.8052 1.9051C81.3161 2.33162 81.7135 2.92874 81.9121 3.58273C82.1392 4.17986 82.1392 4.97602 82.0257 5.48784C80.9755 11.4591 80.9471 17.6009 81.9973 23.5437L79.7551 22.4063C84.495 20.0462 89.7174 18.6814 94.9965 18.4539L93.7761 19.1648C94.145 18.6245 94.4005 17.999 94.5708 17.345C94.6559 17.0322 94.7127 16.691 94.7411 16.3782C94.7411 16.2076 94.7411 16.037 94.7411 15.8948C94.7411 15.6674 94.7127 15.7242 94.7411 15.0987C94.8262 14.1319 95.4506 13.2504 96.3021 12.8523C96.5008 12.7386 96.7278 12.6817 96.9833 12.6249L97.3523 12.568L97.9767 12.4827L99.2255 12.2837L99.8499 12.1984L100.191 12.1415C100.474 12.0846 100.815 12.1415 101.099 12.1984C101.723 12.369 102.234 12.767 102.546 13.3073C102.688 13.5632 102.802 13.876 102.83 14.1603C102.83 14.3025 102.83 14.4731 102.83 14.6153V14.7859C102.802 15.1271 102.83 15.4683 102.83 15.8095C102.887 16.4919 103.029 17.1744 103.284 17.7999C103.767 19.051 104.675 20.1884 105.81 20.9846L104.448 20.7855C105.924 20.3306 107.315 19.5913 108.535 18.6814C108.847 18.4539 109.131 18.198 109.443 17.9421L109.869 17.544C110.181 17.2597 110.55 17.0322 110.919 16.8616C111.714 16.5488 112.594 16.5773 113.36 16.9185C113.559 17.0038 113.729 17.1175 113.899 17.2312L114.155 17.4018L114.694 17.7715L115.744 18.5108C115.744 18.5108 116.056 18.7098 116.198 18.852C116.369 18.9942 116.511 19.1932 116.624 19.3638C116.879 19.7335 117.021 20.16 117.107 20.6149C117.163 21.0415 117.107 21.4964 116.993 21.9229L116.766 22.5769C116.624 22.9466 116.511 23.3446 116.397 23.7427C115.943 25.3066 115.687 26.8989 115.545 28.4913L114.24 26.8421C115.46 27.0411 116.709 26.9274 117.873 26.5009L118.299 26.3302L118.582 26.1881C118.781 26.1028 118.98 26.0459 119.207 26.0175C120.058 25.8753 120.967 26.1596 121.591 26.7568C121.761 26.8989 121.875 27.0695 121.988 27.2401C122.045 27.3255 122.102 27.4108 122.159 27.5245L122.215 27.6382L122.471 28.15L122.982 29.1737L123.237 29.6855C123.237 29.6855 123.549 30.3111 123.578 30.7091C123.691 31.5906 123.379 32.4721 122.783 33.0408C122.67 33.1829 122.414 33.3535 122.357 33.4104L122.159 33.5526L121.761 33.8369C121.506 34.036 121.279 34.2634 121.023 34.4909C120.569 34.9459 120.143 35.4577 119.775 35.9695C119.604 36.2254 119.434 36.5098 119.264 36.7941C119.122 37.05 119.037 37.2775 118.951 37.5334C118.809 38.0168 118.781 38.5286 118.895 39.0689C119.037 39.8366 119.15 40.6043 119.235 41.372C119.434 42.9359 119.576 44.4145 119.633 46.0637C119.633 49.2768 119.207 52.2909 118.951 55.2196L118.299 53.8263C118.724 54.1107 119.462 54.395 120.257 54.5656C121.052 54.7646 121.903 54.9068 122.755 55.0206C124.486 55.248 126.246 55.3902 128.034 55.5324C129.879 55.6745 131.525 55.8167 133.199 55.6745C134.874 55.5608 136.52 55.2196 138.138 54.7362L138.45 54.6509H138.734C139.983 54.7931 141.005 55.1627 142.026 55.7598C143.02 56.357 143.9 57.2384 144.467 58.2336C145.063 59.2573 145.404 60.4231 145.432 61.5889C145.432 62.7547 145.29 63.8068 144.836 64.9726L144.638 65.4275L144.155 65.7119C142.566 66.6218 141.288 68.2141 140.976 69.977C140.806 70.8585 140.834 71.7968 141.061 72.6783C141.175 73.1333 141.345 73.5598 141.544 73.9579C141.657 74.1569 141.771 74.3559 141.885 74.555L142.083 74.8393C142.197 75.0099 142.339 75.2374 142.452 75.4649C142.878 76.3748 142.906 77.4553 142.509 78.3652C142.31 78.8201 142.026 79.2467 141.686 79.5879C141.402 79.8722 141.203 80.0428 140.948 80.2419C139.955 81.0665 138.876 81.7204 137.797 82.2891C136.691 82.8578 135.555 83.2843 134.363 83.654C133.143 83.9952 132.036 84.2795 130.56 84.3364H129.737L129.254 83.5971C127.977 81.5783 126.728 79.5879 125.337 77.8249C123.947 76.0904 122.329 74.6119 120.484 74.0147L120.853 74.1C119.235 73.9863 117.617 74.4412 116.255 75.3511C116.085 75.4649 115.914 75.5786 115.773 75.7208L115.659 75.8061L115.602 75.863L115.659 75.8345L115.744 75.7208C116 75.408 116.085 74.9246 115.943 74.5265C115.858 74.3275 115.744 74.1569 115.574 74.0147C115.489 73.9579 115.404 73.901 115.29 73.8441C115.233 73.8441 115.205 73.8157 115.148 73.7873L115.574 73.901C115.858 73.9863 116.113 74.1 116.34 74.1853C117.334 74.5834 118.128 74.9531 119.008 75.209C119.434 75.3511 119.86 75.4649 120.285 75.5502C120.285 75.5502 120.484 75.5786 120.654 75.6355C120.825 75.6924 120.967 75.7777 121.108 75.863C121.392 76.0336 121.648 76.261 121.846 76.5454C122.045 76.8297 122.187 77.1425 122.244 77.4837C122.272 77.6543 122.301 77.8249 122.301 77.9955C122.301 78.1661 122.272 78.3652 122.272 78.3936C122.187 78.9623 122.045 79.531 121.875 80.0428L121.619 80.839C121.421 81.3508 121.08 81.8057 120.626 82.147L119.916 82.5735L119.377 82.9431C119.008 83.199 118.668 83.4549 118.355 83.7393C117.703 84.308 117.107 84.962 116.596 85.6444C115.546 87.0661 114.949 88.5731 114.722 90.3645C114.467 92.1559 114.382 94.2316 114.07 96.2504C113.474 100.317 112.14 104.269 110.266 107.909V107.965L110.21 108.022C109.358 109.416 108.223 110.638 106.889 111.577C106.208 112.06 105.498 112.458 104.732 112.771C104.022 113.112 103.029 113.311 102.717 113.453C101.837 113.823 101.127 114.619 100.872 115.529C100.503 116.894 100.077 118.316 99.6229 119.68C97.8064 125.197 95.0817 130.485 91.6757 135.206V135.262L91.5906 135.319C89.1497 138.22 86.2547 140.807 82.9907 142.798C81.3729 143.793 79.5848 144.674 77.8534 145.357C76.0937 146.039 74.5043 146.636 72.9149 147.432C71.3254 148.228 69.8212 149.082 68.402 150.077C67.0113 151.072 65.5922 152.266 64.0879 153.404C61.1077 155.621 58.1843 157.754 55.0054 159.801C51.855 161.792 48.4207 163.611 44.6742 164.578C40.8993 165.545 37.0109 165.744 33.1509 165.119C29.3192 164.465 25.6295 162.929 22.479 160.683C20.8896 159.545 19.4421 158.266 18.1365 156.816C16.8593 155.394 15.6956 153.915 14.617 152.351C12.4883 149.252 10.5867 145.84 9.65008 142.001C8.77022 138.22 8.4864 134.637 7.77683 131.083C7.12403 127.528 6.3577 124.002 5.27916 120.619C4.7399 118.913 4.11548 117.15 3.60459 115.33C3.09371 113.51 2.69635 111.69 2.29899 109.899C1.56105 106.231 0.936629 102.648 0.596038 98.8664C0.312212 95.0846 0.510891 91.246 1.24884 87.5211C1.9584 83.7962 3.29238 80.1566 4.93857 76.8013C6.58476 73.4176 8.57154 70.2045 10.8422 67.1905V67.1336L10.5867 67.816C11.4666 62.6125 13.1411 57.4943 15.6104 52.8027C18.0513 48.0826 21.2586 43.789 25.0334 40.0641C26.9067 38.1874 28.9502 36.4813 31.1073 34.9459C31.6466 34.5762 32.1291 34.235 32.64 33.8369C33.1792 33.4388 33.7185 33.0692 34.2578 32.6996C35.3647 31.9603 36.5 31.2494 37.6353 30.6238C42.2617 28.0079 47.3422 26.1881 52.5645 25.335H52.6213L51.5144 26.1312C53.3025 22.7475 56.2827 20.0178 59.7737 18.5392L59.1493 19.0226C61.8457 15.4683 63.4635 11.1463 63.7757 6.68208L63.8892 6.59678Z" stroke="#A73651" stroke-width="0.39" stroke-miterlimit="10"/>
<path d="M53.785 25.6478C54.6081 25.8753 55.1757 26.3302 55.7434 26.8421C56.311 27.3255 56.8219 27.8941 57.3044 28.4628C58.2694 29.6286 59.0641 30.9935 59.5466 32.5289C60.0292 34.036 60.1711 35.6852 59.944 37.2491C59.7453 38.8414 59.1493 40.2915 58.4965 41.6848L58.4113 40.0925C58.979 41.0308 59.3196 41.8554 59.575 42.8506C59.8305 43.8174 59.9724 44.841 59.8305 45.8931C59.7169 46.9452 59.3196 48.0257 58.6952 48.9072C58.0991 49.8171 57.276 50.4426 56.4529 51.0113L57.049 49.5327C57.2193 50.5848 57.1909 51.4094 57.1058 52.3477C57.0206 53.2576 56.7935 54.1675 56.4529 55.0206C56.1407 55.8736 55.6582 56.6982 55.0906 57.4375C54.5513 58.1768 53.8417 58.7739 53.1322 59.3426L53.5863 58.3189C53.6431 59.7407 53.5012 60.9633 53.1606 62.2144C52.82 63.4656 52.3375 64.6882 51.5995 65.7687C50.89 66.8493 49.9817 67.816 48.9316 68.5838C47.8814 69.2946 46.7461 69.9202 45.5257 70.2614C44.3336 70.6879 43.0848 70.8585 41.8359 70.9154C40.5871 70.9154 39.3666 70.8016 38.1462 70.5173C35.762 69.9202 33.5766 68.7828 31.7033 67.2189C31.6466 67.162 31.6182 67.0767 31.7033 66.9914C31.7601 66.9346 31.8452 66.9061 31.902 66.9914C33.832 68.3563 36.0459 69.2377 38.3165 69.6643C39.4518 69.8349 40.6155 69.8917 41.7508 69.778C42.8861 69.6074 43.993 69.3799 45.0148 68.925C46.0649 68.5269 47.0016 67.9013 47.8814 67.2473C48.7045 66.5365 49.4141 65.7119 49.9533 64.7735C51.0319 62.9253 51.4292 60.5653 51.2589 58.5464L51.2022 57.9493L51.7131 57.5228C52.7916 56.6129 53.6147 55.4755 54.012 54.1675C54.2107 53.5135 54.3526 52.8311 54.381 52.1487C54.4094 51.4663 54.381 50.6985 54.2391 50.1583L54.0404 49.3052L54.8351 48.6797C55.3744 48.2532 55.8853 47.8266 56.1691 47.2864C56.4813 46.7746 56.68 46.2343 56.7084 45.6088C56.7368 45.0116 56.68 44.3577 56.4813 43.6752C56.311 43.0497 55.9988 42.3104 55.6866 41.827L55.2609 41.1446L55.6299 40.2631C55.8569 39.6944 56.1691 39.1542 56.3678 38.5855C56.5381 38.0168 56.7652 37.4481 56.8219 36.851C57.0774 35.6852 56.9922 34.5194 56.7084 33.3535C56.4529 32.1877 55.9421 31.0788 55.2041 30.0552C54.8351 29.5433 54.4378 29.0599 54.012 28.5766C53.5863 28.1216 53.1038 27.6667 52.7632 27.1264L52.6781 26.9842C52.4226 26.5577 52.5645 26.0175 52.9903 25.79C53.189 25.6763 53.4444 25.6478 53.6715 25.7047L53.785 25.6478Z" fill="#A73651"/>
</g>
<defs>
<clipPath id="clip0_2360_6">
<rect width="146" height="166" fill="white"/>
</clipPath>
</defs>
</svg>
