<svg width="20" height="20" viewBox="0 0 20 20" fill="none" xmlns="http://www.w3.org/2000/svg">
<g clip-path="url(#clip0_2027_414)">
<path d="M12.3465 9.99966L19.5074 2.83876C20.159 2.18716 20.159 1.13663 19.5074 0.485035C18.8558 -0.166561 17.8053 -0.166561 17.1537 0.485035L9.99277 7.64594L2.83851 0.485035C2.18692 -0.159912 1.13639 -0.159912 0.484791 0.485035C-0.160156 1.13663 -0.160156 2.18716 0.484791 2.83876L7.6457 9.99966L0.484791 17.1606C-0.166805 17.8122 -0.166805 18.8627 0.484791 19.5143C0.810588 19.8401 1.23612 19.9997 1.66165 19.9997C2.08718 19.9997 2.51272 19.8401 2.83851 19.5143L9.99942 12.3534L17.1603 19.5143C17.4861 19.8401 17.9117 19.9997 18.3372 19.9997C18.7627 19.9997 19.1882 19.8401 19.514 19.5143C20.1656 18.8627 20.1656 17.8122 19.514 17.1606L12.3531 9.99966H12.3465Z" fill="#662A1A"/>
</g>
<defs>
<clipPath id="clip0_2027_414">
<rect width="20" height="20" fill="white"/>
</clipPath>
</defs>
</svg>
